<svg width="13" height="14" viewBox="0 0 13 14" fill="none" xmlns="http://www.w3.org/2000/svg">
<path fill-rule="evenodd" clip-rule="evenodd" d="M6.82502 11.35C7.39768 11.35 7.94861 11.257 8.46352 11.0852C7.62884 11.6621 6.61637 11.9999 5.525 11.9999C5.1759 11.9999 4.83488 11.9653 4.50517 11.8994C3.52838 11.5032 2.676 10.8642 2.02286 10.0573C1.78237 9.46026 1.65 8.80803 1.65 8.12489C1.65 7.79159 1.68151 7.46565 1.74171 7.14988C2.1977 9.54189 4.30021 11.35 6.82502 11.35ZM11.6272 4.24258C10.9844 2.64681 9.56932 1.44512 7.84486 1.10046C7.12862 0.809918 6.3455 0.64989 5.525 0.64989C4.79191 0.64989 4.08866 0.777638 3.43629 1.01209C4.40913 0.372261 5.5736 0 6.82502 0C10.2354 0 13 2.76464 13 6.175C13 6.50677 12.9739 6.83243 12.9235 7.15002C12.7505 6.0595 12.2921 5.06403 11.6272 4.24258ZM11.9083 7.15001C11.8242 7.59114 11.6841 8.01242 11.4957 8.40615C11.1024 9.89492 10.1672 11.1634 8.91374 11.9878C9.98723 11.602 10.9229 10.9273 11.6271 10.0574C11.8676 9.46035 12 8.80808 12 8.12489C12 7.79163 11.9685 7.46574 11.9083 7.15001ZM0.726542 7.14987C0.899522 6.05936 1.35798 5.06389 2.02293 4.24246C2.40439 3.29549 3.05783 2.4873 3.8865 1.91465C2.54987 2.36046 1.45588 3.33677 0.854346 4.59374C0.721039 5.09842 0.650024 5.62842 0.650024 6.175C0.650024 6.50672 0.67618 6.83232 0.726542 7.14987Z" fill="#A78C73"/>
<path fill-rule="evenodd" clip-rule="evenodd" d="M6.17498 2.26426C5.60233 2.26426 5.05141 2.35727 4.5365 2.52901C5.37118 1.95221 6.38363 1.61438 7.475 1.61438C7.82411 1.61438 8.16515 1.64894 8.49487 1.71485C9.47163 2.11108 10.324 2.75006 10.9771 3.55693C11.2176 4.154 11.35 4.80623 11.35 5.48938C11.35 5.82268 11.3185 6.14862 11.2583 6.46438C10.8023 4.07237 8.69979 2.26426 6.17498 2.26426ZM1.37284 9.3717C2.01559 10.9674 3.43067 12.1691 5.1551 12.5138C5.87135 12.8043 6.65449 12.9644 7.475 12.9644C8.20808 12.9644 8.91132 12.8366 9.56368 12.6022C8.59085 13.242 7.42639 13.6143 6.17498 13.6143C2.76462 13.6143 -2.47955e-05 10.8496 -2.47955e-05 7.43926C-2.47955e-05 7.10749 0.0261393 6.78183 0.0765171 6.46424C0.249469 7.55476 0.707901 8.55024 1.37284 9.3717ZM1.09169 6.46425C1.17579 6.02311 1.3159 5.60183 1.50432 5.2081C1.89757 3.71933 2.83286 2.4508 4.08629 1.62644C3.01279 2.01223 2.07707 2.68695 1.37291 3.55681C1.13239 4.15391 1 4.80618 1 5.48938C1 5.82263 1.0315 6.14853 1.09169 6.46425ZM12.2735 6.46439C12.1005 7.55491 11.642 8.55038 10.9771 9.37182C10.5956 10.3188 9.94216 11.127 9.11348 11.6996C10.4501 11.2538 11.5441 10.2775 12.1456 9.02054C12.279 8.51585 12.35 7.98585 12.35 7.43926C12.35 7.10754 12.3238 6.78194 12.2735 6.46439Z" fill="#A78C73"/>
</svg>
