<svg width="319" height="636" fill="none" xmlns="http://www.w3.org/2000/svg"><path fill-rule="evenodd" clip-rule="evenodd" d="M103.991.59c1.291.327 5.022 1.187 8.292 1.912 10.638 2.357 12.536 3.64 16.359 11.051 1.308 2.536 2.845 5.423 3.416 6.415l1.036 1.803 1.798-.59c2.559-.841 8.123-.811 11.183.06 1.204.343 3.035.623 4.068.622 2.075-.001 2.802-.32 5.554-2.44 3.356-2.587 8.319-3.807 13.09-3.22 3.327.41 5.58 1.131 9.029 2.89 6.582 3.357 11.222 7.43 13.569 11.91 1.199 2.29 1.312 2.703 1.304 4.75-.009 2.115-.103 2.416-1.666 5.314-2.517 4.667-2.503 4.184-.159 5.641 2.397 1.492 3.469 2.719 8.03 9.193 5.412 7.685 5.778 8.73 6.16 17.61.224 5.219.427 6.929 1.264 10.656 1.365 6.084 1.257 7.07-1.328 12.092-1.743 3.384-1.955 3.989-1.919 5.475.025 1.014.365 2.467.865 3.695 1.749 4.297 1.419 6.635-1.731 12.257-1.6 2.855-1.781 3.33-1.27 3.33.882 0 2.17 1.074 2.958 2.47.652 1.154.696 1.603.704 7.297.007 4.109.181 7.174.539 9.496.821 5.312.341 7.103-4.553 17.001-3.025 6.12-4.863 9.116-7.914 12.901-5.844 7.25-11.789 11.93-15.955 12.56l-1.259.19-.573 2.118c-.818 3.021-1.632 4.606-4.433 8.628-3.415 4.905-11.587 15.062-13.638 16.951-.993.915-2.316 1.784-3.196 2.1l-1.502.539.041 4.264c.096 10.076 1.605 14.368 6.897 19.618 1.297 1.286 3.836 3.484 5.643 4.885 1.807 1.401 5.424 4.241 8.038 6.31 6.682 5.29 9.827 7.439 18.402 12.572 4.13 2.473 9.762 5.865 12.516 7.538 11.094 6.742 14.549 8.599 22.528 12.109 9.731 4.28 12.347 5.89 21.522 13.243 3.135 2.513 8.828 6.678 12.651 9.256 14.135 9.533 25.594 18.012 33.731 24.957 10.45 8.921 13.413 13.595 17.48 27.581.431 1.479 1.721 4.609 2.867 6.956 3.879 7.938 4.573 10.246 4.571 15.214-.002 7.164-2.743 15.33-7.251 21.605-4.25 5.916-7.676 8.655-25.181 20.137-6.513 4.271-9.215 6.32-12.709 9.635-5.398 5.121-6.582 6.945-13.682 21.077-3.35 6.666-5.331 9.237-17.7 22.971-4.49 4.985-10.204 11.459-12.698 14.388-6.046 7.098-8.063 9.058-13.613 13.232-6.391 4.805-13.902 10.614-14.082 10.889-.081.124.331 1.206.917 2.405 2.306 4.723 3.383 11.411 2.755 17.096-.734 6.639-2.513 8.411-11.337 11.284l-3.285 1.07-.095 2.644c-.052 1.454.047 3.656.221 4.893 1.109 7.877 5.358 10.575 16.925 10.75 4.063.061 5.208.183 7.042.748 6.459 1.992 11.523 5.88 15.739 12.085 1.605 2.361 2.938 5.39 4.013 9.118.767 2.657.849 3.437.873 8.262.029 5.93-.244 7.401-2.223 11.968-3.058 7.059-7.171 10.621-18.31 15.855-8.207 3.857-11.768 4.814-20.9 5.617-7.037.619-10.62 1.315-15.906 3.09-7.811 2.623-9.195 2.941-16.166 3.711-2.409.266-7.408.94-11.108 1.497-8.962 1.349-11.147 1.566-19.243 1.914-15.198.653-27.307.218-41.772-1.501-8.58-1.019-11.202-1.629-25.958-6.034-10.855-3.242-13.984-4.596-19.32-8.364-3.125-2.206-7.3-6.229-9.052-8.722-.808-1.15-1.899-3.239-2.424-4.642-.861-2.302-.954-2.896-.953-6.102.002-4.323.674-6.887 2.948-11.247 1.9-3.644 4.773-7.089 8.22-9.857 2.95-2.369 7.234-5.01 9.39-5.789 1.259-.455 1.586-.769 2.58-2.48 1.737-2.988 3.385-4.828 9.022-10.068 4.47-4.155 5.33-5.106 6.303-6.969.712-1.362 1.185-2.752 1.284-3.771l.157-1.615-2.91-1.829c-5.863-3.685-9.015-6.823-11.246-11.193-1.43-2.804-2.679-7.238-2.971-10.553l-.21-2.381-6.915-3.195c-8.415-3.889-11.59-5.955-12.827-8.348-1.61-3.114-1.355-7.232.875-14.095 2.192-6.749 2.299-10.729.384-14.387-2.048-3.913-4.266-6.011-14.433-13.655-5.645-4.244-10.264-8.572-12.891-12.077-3.809-5.081-7.303-12.685-8.723-18.981-.78-3.462-.73-9.815.109-13.467 1.553-6.769 4.672-12.52 11.473-21.162 1.882-2.39 2.798-3.873 3.446-5.578.486-1.278 1.799-3.742 2.918-5.476 4.674-7.241 5.817-11.304 6.63-23.575.43-6.492.806-8.852 1.932-12.127 1.306-3.798 5.713-12.091 8.732-16.434 3.359-4.832 9.345-10.513 17.82-16.915 8.19-6.185 10.732-8.743 13.087-13.166 2.064-3.878 3.009-9.809 2.261-14.194-.214-1.254-1.647-5.957-3.185-10.45-1.538-4.494-3.7-11.303-4.805-15.132-1.105-3.829-2.729-8.891-3.61-11.247-.88-2.357-2.017-5.805-2.525-7.664-.79-2.883-1.098-3.556-2.102-4.587-1.817-1.866-3.377-3.989-7.401-10.072-4.396-6.646-6.033-9.84-7.55-14.735a1334.02 1334.02 0 00-3.123-9.847c-2.287-7.121-4.905-16.375-5.808-20.534-.473-2.174-.654-4.459-.765-9.656-.15-7.074-.313-8.383-1.564-12.578-1.242-4.167-1.414-5.48-1.657-12.727-.292-8.706-.31-8.747-5.046-11.187-4.504-2.322-6.194-4.239-6.894-7.822-.514-2.632.055-5.043 2.247-9.524 2.296-4.691 2.945-6.974 3.39-11.928.684-7.583 1.005-9.749 1.77-11.927 1.029-2.925 3.01-6.333 6.622-11.39 1.627-2.275 3.15-4.656 3.387-5.29.299-.801.43-2.659.43-6.091 0-4.131-.11-5.323-.674-7.288-.965-3.366-.922-6.078.128-8.005.453-.832 1.209-1.945 1.68-2.473.703-.791.788-1.048.48-1.448-1.8-2.333-2.108-5.206-.82-7.649 1.447-2.747 5.23-5.759 15.943-12.688 5.715-3.696 10.541-7.92 11.817-10.34.429-.813 1.095-2.811 1.481-4.44 1.237-5.217 2.816-7.567 7.404-11.016a127.013 127.013 0 005.428-4.374c4.047-3.488 5.48-4.317 11.507-6.65 1.769-.683 4.444-1.884 5.945-2.666C92.594 1.554 94.587.7 95.522.438c2.268-.635 5.6-.575 8.469.151zm-8.499.572c-1.05.335-3.035 1.213-4.412 1.952-1.376.74-3.928 1.876-5.669 2.527-4.648 1.737-6.953 2.97-9.58 5.125a436.671 436.671 0 01-5.633 4.508c-6.224 4.895-7.55 6.716-8.714 11.965-.349 1.573-.99 3.524-1.425 4.336-1.694 3.162-5.153 6.226-12.242 10.842-13.381 8.713-16.405 11.525-16.405 15.26 0 2.709 2.097 5.243 5.58 6.743 1.122.484 1.566.8 1.225.875-.55.12-2.542-.66-4.104-1.607-.883-.535-.885-.534-1.67.353-2.347 2.651-2.785 5.285-1.63 9.818.902 3.543 1.032 12.007.213 13.897-.292.671-1.986 3.268-3.766 5.771-3.54 4.978-5.884 9.194-6.642 11.95-.268.977-.7 4.107-.96 6.955-.835 9.153-1.088 10.221-3.637 15.369-1.957 3.954-2.458 5.586-2.458 8.014 0 4.098 1.736 6.449 6.615 8.962 3.015 1.553 4.479 2.914 4.918 4.574.163.613.374 3.911.47 7.33.174 6.24.574 9.197 1.723 12.727l.578 1.775.19-1.332c.106-.732.28-2.264.39-3.403.108-1.14.608-4.469 1.11-7.4.554-3.238.99-7.151 1.112-9.978.127-2.941.315-4.584.51-4.47.594.347-.002 9.373-.996 15.091-.514 2.958-1.091 7.22-1.282 9.471-.453 5.351-.22 17.507.398 20.816.65 3.472 3.77 14.997 5.238 19.346.667 1.975 1.994 6.167 2.95 9.315 2.566 8.454 3.443 10.184 10.509 20.715 3.306 4.927 4.97 6.901 7.347 8.716 6.379 4.869 14.266 6.359 24.712 4.671 5.956-.963 14.16-3.006 19.121-4.762 9.231-3.268 10.059-3.875 29.057-21.304 2.93-2.687 7.158-6.429 9.395-8.315 6.6-5.563 7.284-6.451 9.092-11.808.631-1.872 2.047-5.501 3.145-8.064 2.46-5.742 3.143-8.028 3.547-11.875.677-6.456 1.345-18.193 1.175-20.667-.172-2.509.156-3.506.601-1.828.48 1.808-.768 22.448-1.572 26.008-.571 2.527-1.167 4.159-3.404 9.323-.952 2.197-2.11 5.194-2.575 6.659-1.833 5.785-2.958 7.277-9.849 13.064-2.493 2.094-8.775 7.701-13.96 12.461-10.455 9.599-12.857 11.604-16.03 13.387-4.17 2.343-10.871 4.703-18.507 6.518-12.943 3.076-19.408 3.36-26.4 1.161-2.589-.815-6.817-2.875-7.245-3.531-.105-.16-.311-.291-.458-.291-.436 0 .486 3.211 2.658 9.256 1.124 3.13 2.822 8.421 3.773 11.758.95 3.337 3 9.796 4.556 14.354 3.34 9.788 3.699 11.237 3.7 14.947.004 7.667-3.102 14.044-9.533 19.577-.86.741-4.1 3.257-7.197 5.592-7.859 5.925-13.408 11.227-16.717 15.972-2.815 4.037-7.311 12.422-8.607 16.051-1.168 3.273-1.4 4.668-1.91 11.474-1.01 13.509-2.004 17.219-6.444 24.06-1.686 2.597-3.4 5.8-3.4 6.353 0 .461 6.288-7.012 8.33-9.898.942-1.332 3.198-5.128 5.013-8.435 4.156-7.572 5.62-10.013 10.085-16.815 4.678-7.125 6.593-10.8 11.874-22.79 5.158-11.712 5.079-11.543 5.461-11.543.432 0 .415.04-4.624 11.395-5.44 12.258-6.891 15.143-10.237 20.353l-4.982 7.764c-1.357 2.116-3.893 6.445-5.635 9.619-5.48 9.983-6.573 11.578-13.095 19.091-6.418 7.393-10.952 13.531-13.443 18.202-5.796 10.864-5.466 22.527.981 34.748 3.752 7.111 8.257 11.938 18.08 19.373 7.603 5.754 9.95 7.842 11.879 10.57 2.29 3.24 2.692 4.602 2.65 9.007-.032 3.461-.12 3.957-1.343 7.695-1.69 5.161-2.385 9.381-1.93 11.709.794 4.068 2.832 5.627 14.263 10.917 4.305 1.992 9.515 4.528 11.578 5.637 8.092 4.348 14.543 6.962 22.596 9.155 9.207 2.506 10.21 2.47 32.783-1.17 12.356-1.993 15.775-2.328 28.787-2.82 19.199-.727 27.276-2.434 39.894-8.429 6.807-3.235 10.194-5.441 19.087-12.431a503.946 503.946 0 0110.013-7.635c6.14-4.529 9.36-7.586 15.017-14.256 4.104-4.839 10.44-11.979 17.992-20.274 6.614-7.265 9.523-11.326 12.89-17.996 6.16-12.203 6.526-12.838 9.255-16.041 4.459-5.236 8.348-8.455 17.185-14.225 15.419-10.068 20.245-13.853 24.028-18.842 5.18-6.834 8.084-15.58 7.74-23.317-.19-4.277-.691-5.931-3.679-12.134-2.759-5.729-3.739-8.173-4.811-11.987-2.334-8.311-5.203-13.512-10.182-18.466-2.882-2.867-10.922-9.764-15.003-12.87-5.446-4.145-18.555-13.482-23.967-17.07-5.275-3.498-9.351-6.518-16.583-12.288-6.212-4.957-9.691-6.953-19.62-11.255-4.954-2.147-10.327-4.983-16.207-8.555-2.496-1.516-8.55-5.145-13.455-8.065-9.991-5.948-14.121-8.621-18.51-11.983-8.535-6.538-14.155-11.044-16.644-13.347-5.862-5.422-8.002-10.342-8.02-18.431-.003-1.563-.096-3.845-.205-5.071l-.2-2.23-1.208-.342c-.665-.189-1.209-.531-1.209-.76 0-.356.158-.354 1.085.012 1.382.546 3.398.549 4.484.007 1.457-.727 4.221-3.682 8.553-9.146 2.3-2.901 4.527-5.765 4.947-6.363l2.615-3.711c2.136-3.029 2.755-4.262 3.609-7.184l.618-2.112-2.865-.135c-1.812-.085-3.537-.365-4.695-.762-1.895-.649-5.899-2.873-7.352-4.084-1.479-1.232-.137-.752 2.581.924 1.457.898 3.609 1.991 4.782 2.43 1.868.697 2.56.795 5.575.785 3.942-.012 5.591-.476 8.963-2.525 4.133-2.511 11.561-10.631 14.737-16.109 1.667-2.876 6.455-12.591 7.428-15.073.975-2.486 1.148-5.865.503-9.826-.383-2.351-.5-4.668-.433-8.539.086-4.981.049-5.387-.59-6.516-.374-.662-.92-1.392-1.212-1.621-.818-.642-2.612-.49-4.637.395-1.812.791-4.264 1.082-4.264.506 0-.163.457-.296 1.016-.295.56 0 2.012-.422 3.228-.939l2.212-.939 1.927-3.451c2.193-3.926 3.036-6.527 2.714-8.382-.118-.68-.635-2.436-1.149-3.901-1.27-3.617-1.13-4.708 1.147-9.003 2.247-4.238 2.533-5.632 1.903-9.253-.264-1.517-.695-3.557-.958-4.534-.285-1.062-.598-4.368-.779-8.23-.313-6.677-.667-8.722-2-11.55-1.052-2.231-7.487-11.27-9.368-13.159-1.706-1.712-3.809-3.145-4.243-2.892-.143.084-.428.963-.634 1.954-.51 2.452-1.329 4.155-2.673 5.563-1.254 1.313-2.982 2.104-2.982 1.365 0-.236.206-.428.458-.428.817 0 2.626-1.777 3.414-3.354.423-.845.994-2.667 1.269-4.05.363-1.821 1.036-3.569 2.451-6.36 1.754-3.458 1.949-4.028 1.929-5.643-.054-4.453-4.759-10.284-11.469-14.213-6.43-3.765-9.544-4.708-14.786-4.48-4.21.182-6.133.724-8.685 2.446-5.555 3.75-5.752 3.798-10.844 2.647-3.006-.68-4.037-.78-7.019-.685-2.92.094-3.741.23-4.981.823-.816.39-1.534.654-1.597.585-.062-.07-1.613-3.03-3.446-6.578-3.977-7.698-4.965-8.886-8.805-10.584-1.376-.61-3.84-1.4-5.475-1.759a755.78 755.78 0 01-8.449-1.937C100.273.41 98.26.28 95.492 1.162zm17.294 8.251c1.377.818 2.47 2.465 2.47 3.721 0 .587-1.766 2.423-2.062 2.143-.129-.122.07-.53.444-.906 1.326-1.335.698-3.34-1.412-4.51-.751-.416-1.284-.882-1.184-1.036.231-.353.066-.408 1.744.588zm-4.301 2.728c1.334 1.926 1.265 3.895-.22 6.237-1.177 1.857-3.763 4.486-4.259 4.33-.286-.09.218-.81 1.522-2.17 1.072-1.12 2.221-2.54 2.553-3.155.73-1.352.778-3.22.115-4.432-.636-1.164-.405-1.811.289-.81zm-23.268 8.481c0 .131-.497.695-1.105 1.252-.608.558-1.531 1.727-2.051 2.598-.97 1.625-3.28 4.2-3.767 4.2-.565 0-.24-.639.743-1.46.56-.467 1.5-1.628 2.09-2.58 1.493-2.413 4.09-4.958 4.09-4.01zm83.441 4.479c3.344 1.138 5.725 3.248 6.534 5.79 1.03 3.238-.756 5.968-6.884 10.524-7.108 5.285-9.348 7.201-10.161 8.697-1.034 1.9-.997 4.012.12 6.789.451 1.12.741 2.11.645 2.2-.324.307-.717-.381-1.572-2.755-1.029-2.857-.945-4.804.295-6.806.755-1.218 6.444-5.962 11.609-9.68 3.937-2.835 5.618-5.27 5.394-7.82-.24-2.743-2.453-4.916-6.47-6.353-1.413-.506-2.178-.597-3.944-.466-1.96.146-2.126.118-1.583-.265.856-.603 4.048-.526 6.017.145zm-63.239 2.424c2.699 2.718 8.135 3.158 8.587.695.088-.484.3-.84.471-.79.585.17.176 1.686-.635 2.352-1.089.893-4.067.918-6.096.05-1.344-.573-3.755-2.498-3.755-2.996 0-.471.528-.216 1.428.69zM85.061 32.14c3.467.418 7.562 2.558 10.52 5.498 2.72 2.705 2.234 3.08-.586.452-2.873-2.679-4.84-3.902-7.542-4.692-3.869-1.131-7.04-.56-9.51 1.715-.75.689-1.174.918-1.174.633 0-.679 1.864-2.238 3.442-2.879 1.542-.626 3.39-.903 4.85-.727zm-12.281-.022c1.137.312.481.698-1.186.698-3.105 0-5.038 1.42-6.819 5.007-.862 1.738-.963 2.275-1.18 6.303-.29 5.34-.754 6.87-2.55 8.405-1.66 1.419-1.878.898-.287-.684 1.45-1.44 1.928-2.977 1.937-6.213.017-6.419 2.09-11.112 5.673-12.84 1.244-.6 3.454-.939 4.412-.676zm59.073 3.274c1.268 1.367 2.621 4.07 3.446 6.884.804 2.745 1.373 3.774 2.746 4.965 1.302 1.13 1.133 1.609-.242.683-1.304-.879-2.302-2.624-3.307-5.782-.968-3.046-1.9-4.888-3.213-6.353-.889-.991-.928-1.004-1.264-.409-.192.338-.765 1.974-1.274 3.636-.509 1.661-1.253 3.475-1.654 4.03-.792 1.099-3.2 2.487-3.605 2.078-.138-.14-.082-.311.125-.381.913-.31 2.48-1.51 3.094-2.373.368-.517.9-1.81 1.183-2.872a39.065 39.065 0 011.159-3.567c.784-1.981 1.364-2.093 2.806-.539zM85.981 38.5c1.513.393 4.243 2.859 4.243 3.832 0 .719-.063.672-1.365-1.01-2.163-2.794-6.658-3.107-8.59-.598-.348.452-.74.72-.872.595-.332-.314.849-1.74 1.944-2.347 1.21-.67 3.128-.866 4.64-.472zm23.935 3.063c1.532 2.018 2.192 2.5 3.432 2.5 1.014 0 1.063.038.599.476-.913.863-2.573.052-4.186-2.044-.764-.994-1.389-1.913-1.389-2.043 0-.567.593-.14 1.544 1.111zm-51.608-1.048c0 .166-.686 1.198-1.525 2.294-2.318 3.031-2.824 4.19-3.34 7.665-.256 1.731-.723 3.694-1.038 4.362-.9 1.914-3.406 3.935-4.055 3.272-.116-.119-.022-.28.21-.358.918-.308 2.685-2.06 3.209-3.18.304-.652.643-1.917.753-2.812.562-4.588 1.07-5.87 3.71-9.393 1.526-2.033 2.076-2.523 2.076-1.85zm16.417 6.73c.525 1.987 3.892 4.504 6.034 4.51.559.002 1.016.128 1.016.281 0 1.486-4.902-.505-6.683-2.714-.877-1.087-1.438-2.892-.9-2.892.176 0 .416.366.534.814zm74.351 1.932c3.04 1.938 3.493 6.486.933 9.386-1.308 1.482-1.526.9-.296-.79.838-1.152 1.061-1.78 1.161-3.267.107-1.587.008-2.028-.717-3.197-.51-.824-1.262-1.547-1.913-1.84-.59-.267-1.073-.593-1.073-.726 0-.44.832-.25 1.905.434zm-49.988 3.37c2.641 1.685 5.455 4.106 5.132 4.417-.132.127-.766-.235-1.408-.804-1.313-1.163-3.018-2.386-4.995-3.582-.735-.444-1.335-.943-1.335-1.11 0-.5.372-.346 2.606 1.08zm-26.98 3.562c.444.456 1.444 1.627 2.224 2.604 2.641 3.308 5.597 5.508 10.46 7.784 2.144 1.003 2.817 1.54 1.932 1.54-1.199 0-8.171-4.003-10.111-5.805-1.75-1.626-5.545-6.283-5.416-6.649.058-.166.469.07.911.526zm105.415 1.803c0 .13-.484.962-1.075 1.85-.59.888-1.463 2.205-1.939 2.925-1.089 1.65-1.352 4.102-.617 5.765.57 1.29.62 1.656.227 1.656-.333 0-.934-1.318-1.299-2.85-.406-1.701.2-3.752 1.735-5.872.743-1.026 1.577-2.28 1.854-2.787.463-.846 1.114-1.248 1.114-.687zM67.957 61.114c1.262 1.386 3.124 3.078 4.137 3.76 2.016 1.355 2.617 2.41.842 1.477-1.31-.688-7.744-6.806-7.744-7.363 0-.766.443-.425 2.765 2.126zm60.128-1.41c0 .138-1.585.331-3.521.43-5.35.272-8.474 1.386-11.757 4.19-.689.59-1.336.947-1.437.792-.293-.449 2.826-2.906 4.929-3.883 1.061-.493 2.915-1.092 4.119-1.333 2.362-.47 7.667-.607 7.667-.196zm-32.386.456c3.492.805 7.727 3.735 9.723 6.727.857 1.284.738 2.08-.133.886-.283-.39-1.425-1.628-2.538-2.753-1.507-1.524-2.619-2.324-4.366-3.14-2.243-1.048-2.481-1.095-5.566-1.095-3.29 0-4.176-.395-1.787-.796 1.715-.288 2.858-.246 4.667.171zm-36.309 3c.311.485 1.282 1.507 2.158 2.271.875.764 1.508 1.47 1.404 1.568-.378.358-2.954-1.608-3.657-2.79-.836-1.408-.75-2.368.095-1.05zm94.167.579c1.016.395 2.354 1.104 2.972 1.574 1.186.903 3.158 3.173 3.158 3.635 0 .594-.55.212-1.466-1.016-1.222-1.64-2.742-2.734-5.014-3.607-.989-.38-1.849-.833-1.91-1.006-.159-.45.186-.387 2.26.42zm-22.628 2.665c3.073.554 6.528 1.734 8.889 3.034 3.498 1.926 7.666 4.578 7.666 4.877 0 .441-.507.193-4.09-2.003-5.94-3.641-9.184-4.849-14.684-5.466-2.524-.283-8.451-.018-10.716.48-1.33.291-1.045-.396.312-.756 2.046-.542 9.963-.646 12.623-.166zm-82.888.227c.473.8 1.506 2.904 1.506 3.067 0 .063-.137.115-.304.115-.247 0-2.2-3.311-2.2-3.73 0-.38.665-.015.998.549zm139.697 2.884c1.204.46 1.256.983.071.716-.581-.131-1.477-.215-1.991-.186-1.329.073-3.317 1.498-4.2 3.01-.64 1.094-.753 1.683-.738 3.835.009 1.398.243 3.36.52 4.36.558 2.016.64 3.066.239 3.066-.495 0-1.457-5.145-1.439-7.695.02-2.877.644-4.385 2.393-5.78 1.826-1.456 3.604-1.914 5.145-1.326zM83.496 74.857c1.55.123 5.07.375 7.823.56 8.294.558 14.186 1.189 18.161 1.945 6.554 1.246 16.791 4.613 23.071 7.588 2.953 1.4 14.226 7.533 17.749 9.657 4.987 3.007 10.821 7.946 15.637 13.238 3.181 3.496 13.776 16.363 13.776 16.732 0 .68-.632.068-3.286-3.183-12.89-15.793-17.814-20.716-25.657-25.655-3.365-2.12-14.8-8.428-18.216-10.049-3.385-1.606-10.327-4.21-15.04-5.64-7.019-2.131-11.561-2.856-23.355-3.726-15.238-1.125-17.448-1.212-22.626-.884-11.48.727-19.668 2.583-29.493 6.686-4.7 1.962-5.01 2.063-5.01 1.638 0-.312 3.885-2.013 8.955-3.921 10.791-4.062 25.151-5.97 37.511-4.987zm51.972.29c.878.117 2.145.382 2.816.588 2.377.73 7.214 3.214 9.824 5.045 5.045 3.538 7.462 4.285 14.621 4.518 2.62.086 4.91.242 5.09.347.836.488-.316.58-5.094.403-7.268-.27-9.958-1.115-15.003-4.71-2.764-1.97-7.581-4.385-10.234-5.13-1.953-.549-5.111-.623-6.534-.154-1.368.452-1.985.17-.836-.38 1.218-.585 3.348-.794 5.35-.527zm1.091 6.223c2.54.57 7.246 2.82 11.202 5.357 5.613 3.6 6.672 4.03 10.861 4.41 1.877.169 4.269.422 5.317.562 2.066.275 5.135 1.388 5.135 1.862 0 .314-.12.287-2.894-.653-1.126-.381-3.291-.722-5.788-.912-5.953-.454-6.904-.773-11.813-3.959-6.485-4.21-10.778-6.09-13.906-6.09-1.812 0-2.455-.325-1.4-.708.642-.233 1.882-.184 3.286.131zm56.482 1.023c1.057 1.525.715 6.528-.471 6.897-.299.093-.379-.015-.25-.334.105-.26.369-1.284.586-2.279.349-1.595.329-1.981-.164-3.296-.64-1.703-.505-2.149.299-.988zm-96.52.162c5.719.389 11.267 1.714 19.906 4.756 4.91 1.729 8.931 3.583 17.973 8.288 12.3 6.4 15.959 8.888 23.435 15.937 5.682 5.359 7.962 7.818 15.598 16.822 4.487 5.289 5.591 6.82 4.435 6.144-.177-.104-2.824-3.147-5.882-6.764-13.009-15.383-20.62-22.198-31.386-28.1-5.388-2.955-14.174-7.414-17.991-9.132-5.995-2.697-15.223-5.659-20.789-6.671-5.097-.928-26.804-1.34-36.628-.697-8.47.555-15.678 1.807-20.277 3.522-1.908.711-1.94.716-1.94.304 0-.445 1.7-1.058 6.102-2.2 4.331-1.122 8.666-1.77 14.848-2.217 4.746-.343 27.516-.338 32.596.008zm78.082 2.929c2.945.673 7.259 4.436 8.073 7.044.352 1.127-.358.738-1.08-.592-1.465-2.697-4.954-5.369-7.561-5.79-.749-.12-1.334-.35-1.301-.508.082-.382.663-.43 1.869-.154zM72.471 88.362c1.336.563 2.955 1.09 3.598 1.171 2.043.258 2.577.409 2.577.725 0 .341-2.231.135-4.067-.376-2.096-.583-4.694-1.803-4.694-2.204 0-.222.035-.389.078-.371.044.017 1.172.492 2.508 1.055zm-11.278 1.946c3.765 2.861 7.048 4.796 10.341 6.098 3.617 1.429 8.411.937 11.5-1.178 1.614-1.107 2.114-.813.625.367-2.51 1.991-7.371 2.847-10.808 1.902-2.078-.572-5.57-2.17-7.66-3.505-2.246-1.436-8.135-5.906-8.135-6.176 0-.543.684-.13 4.137 2.492zm-10.041 1.72c3.75.84 7.81 3.426 10.939 6.97 3.747 4.244 8.022 6.923 11.046 6.923.793 0 1.442.137 1.442.305 0 1.031-3.505.398-6.258-1.13-2.449-1.359-4.69-3.265-7.056-6-3.002-3.471-7.062-5.826-11.23-6.512-1.129-.186-2.053-.458-2.053-.604 0-.323 1.623-.298 3.17.048zm49.867 2.532c3.928.926 6.194 3.047 9.671 9.054 3.589 6.199 6.346 8.736 10.918 10.05 2.431.698 7.248.875 12.03.442 1.689-.153 2.582-.131 2.582.064 0 .494-2.704.761-7.823.77-4.175.007-5.161-.084-7.091-.658-4.656-1.385-7.558-4.029-11.066-10.082-3.643-6.285-5.575-8.095-9.542-8.936-1.952-.414-4.722.246-6.984 1.662-1.823 1.141-2.656 1.094-1.144-.065 2.227-1.706 6.284-2.812 8.449-2.301zm98.094 1.735c0 .756-4.714 4.998-6.449 5.804-1.174.546-2.169.736-4.278.816-2.723.105-4.553-.102-4.164-.47.111-.105 1.641-.198 3.4-.207 4.085-.021 5.314-.57 8.89-3.968 1.606-1.526 2.601-2.281 2.601-1.975zm-32.792 2.206c1.939.586 4.285 1.786 4.929 2.519.631.72-.135.572-1.516-.292-1.881-1.178-4.366-1.95-6.839-2.129-1.248-.09-2.269-.277-2.269-.416 0-.452 3.862-.236 5.695.318zM37.9 101.204c2.186.407 4.206 1.652 8.432 5.195 2.198 1.843 4.68 3.704 5.515 4.135 3.087 1.595 6.622 1.986 10.743 1.191 3.902-.753 5.188-.862 5.037-.426-.075.217-.548.432-1.051.479-.503.047-2.028.293-3.388.547-2.905.541-6.443.584-8.365.101-2.496-.628-4.832-2.068-8.907-5.492-4.89-4.109-6.867-5.157-9.727-5.157-2.237 0-3.594.442-4.885 1.589-1.012.9-1.157.942-1.157.337 0-.697 2.382-2.148 4.099-2.496 1.741-.353 1.774-.354 3.654-.003zm55.14 2.33c3.078.889 5.72 3.06 8.851 7.271 4.637 6.238 6.605 8.093 19.153 18.056a543.647 543.647 0 016.884 5.559c3.484 2.883 11.781 11.389 16.568 16.985 3.227 3.771 5.216 5.552 6.821 6.104.829.286.682.879-.156.631-1.898-.562-4.05-2.436-6.946-6.047-4.431-5.526-14.045-15.024-20.166-19.924-9.482-7.59-16.252-13.238-17.843-14.884-.909-.941-2.706-3.152-3.993-4.912-3.155-4.316-4.998-6.157-7.357-7.349-1.682-.85-2.272-.994-4.006-.976-3.411.034-5.665 1.138-10.714 5.249-3.412 2.777-6.09 4.482-11.612 7.394-7.16 3.776-8.098 3.989-14.445 3.294-6.41-.703-8.875-.082-9.972 2.513-.278.656-.505 1.39-.505 1.631 0 .241-.141.438-.313.438-.518 0-.353-1.428.305-2.65 1.345-2.492 4.01-3.269 9.342-2.722 4.577.469 7.27.428 9.028-.137 1.77-.568 9.672-4.677 12.787-6.648 1.214-.768 3.466-2.425 5.006-3.683s3.572-2.76 4.514-3.338c2.883-1.769 6.452-2.524 8.769-1.855zm96.407 7.327c.454 1.09 1.173 5.509 1.412 8.675.304 4.022-.821 12.578-1.764 13.422-.296.265-.346.143-.223-.547.98-5.494 1.225-7.646 1.234-10.803.01-3.585-.635-8.807-1.288-10.431-.204-.507-.211-.859-.019-.972.166-.097.458.198.648.656zm-147.37 3.569c-1.253 2.199-6.585 4.151-10.461 3.83-2.003-.166-4.458-1.175-6.163-2.531-1.71-1.361-.879-1.413 1.15-.072 2.534 1.675 5.102 2.266 7.879 1.815 2.516-.41 4.849-1.373 6.36-2.628 1.257-1.044 1.674-1.184 1.235-.414zm-17.406 6.455c1.886 1.478 6.007 1.991 9.153 1.14.416-.113.704-.061.704.126 0 .484-2.114.933-4.403.935-2.568.002-4.573-.629-6.128-1.928-1.387-1.159-.773-1.408.674-.273zm98.72 1.503c3.753 2.217 7.424 2.396 14.922.727 7.29-1.624 12.053-1.483 17.878.528 2.461.85 6.719 3.013 7.11 3.612.493.755-.289.551-2.149-.56-5.23-3.124-11.455-4.55-17.014-3.896-1.496.175-4.577.712-6.846 1.192-4.86 1.028-8.824 1.161-11.264.378-2.014-.647-4.514-2.108-4.514-2.639 0-.23.035-.405.078-.388.043.016.852.487 1.799 1.046zm-100.597 3.66c1.96 1.934 4.733 2.556 8.84 1.984 1.037-.145 1.642-.122 1.642.063 0 .89-6.74 1.054-8.448.206-1.154-.572-3.442-2.504-3.442-2.906 0-.464.523-.221 1.409.653zm119.215 5.458c4.721 1.164 8.886 2.845 12.589 5.082 3.631 2.193 8.833 4.311 11.865 4.832 1.453.249 2.455.225 4.508-.105 3.846-.62 5.063-.678 5.218-.247.087.239-.18.369-.753.368-.487-.001-2.313.225-4.057.503-2.945.469-3.337.472-5.476.027-2.837-.589-6.855-2.167-10.146-3.984-4.647-2.566-6.951-3.649-9.936-4.671-4.741-1.623-7.528-2.047-12.181-1.851-3.813.16-5.307-.098-2.818-.487 2.791-.436 8.323-.173 11.187.533zm53.87 3.545c-.551 3.804-.564 6.161-.055 10.235.906 7.256.583 11.969-.942 13.762-.493.58-.5.576-.344-.148.088-.407.379-1.468.647-2.358.627-2.089.621-6.034-.016-10.529-.678-4.775-.323-12.27.581-12.27.197 0 .246.499.129 1.308zm-52.598 4.489c1.767.889 3.306 1.985 5.924 4.221 2.574 2.199 5.593 4.015 7.998 4.812 1.736.575 2.633.666 6.474.657 2.452-.006 4.459.092 4.459.217 0 .361-4.579.67-7.029.474-4.603-.368-7.847-1.874-12.528-5.817-3.745-3.155-6.583-4.738-8.495-4.738-.404 0-.735-.133-.735-.296 0-.581 2.416-.293 3.932.47zm-90.292 5.764c2.15.494 4.897 1.336 6.101 1.872 4.274 1.9 10.39 7.163 12.066 10.384.849 1.631 1.038 2.456 1.44 6.271.788 7.48.082 13.188-2.724 22.003-.855 2.686-1.962 6.685-2.46 8.887-1.186 5.238-1.538 6.436-1.965 6.685-.44.257-.328-.372 1.133-6.397.612-2.523 1.623-6.186 2.248-8.139 1.725-5.395 1.946-6.239 2.598-9.915.956-5.39 1.032-7.202.52-12.423-.422-4.293-.59-5.09-1.41-6.665-1.482-2.847-7.559-8.137-11.522-10.03-1.947-.93-8.462-2.506-11.377-2.751-1.416-.12-2.828-.015-4.484.334-2.703.569-3.406.423-1.555-.323.782-.315 2.346-.527 4.35-.591 2.651-.085 3.727.037 7.04.798zm-.783 6.359c2.318.554 5.465 2.045 8.23 3.899 2.438 1.635 6.219 5.013 5.923 5.293-.112.105-1.16-.638-2.328-1.652-2.467-2.142-7.355-5.257-9.686-6.174-3.336-1.311-8.318-1.391-12.498-.201-.826.235-1.557.374-1.626.31-.66-.625 3.455-1.621 7.448-1.802 1.743-.08 3.308.033 4.537.327zm103.21 2.327c.271.392 1.304 1.087 2.294 1.546 1.508.698 2.284.85 4.783.936 1.843.064 3.792-.061 5.1-.327 1.164-.236 2.187-.322 2.273-.19.229.351-.102.479-2.278.883-1.076.2-1.951.513-1.945.695.023.744 1.823 2.743 3.045 3.382 2.123 1.111 5.697 1.674 7.954 1.254 2.032-.378 2.596-.268 1.491.291-1.863.943-6.808.492-9.652-.88-1.362-.657-2.745-2.083-3.354-3.458l-.41-.926-2.906-.129c-2.356-.105-3.211-.278-4.518-.914-1.489-.725-2.925-2.011-2.925-2.62 0-.493.558-.25 1.048.457zm-106.442 2.253c3.8.607 7.017 1.887 11.031 4.389 3.148 1.961 6.4 5.238 5.763 5.808-.059.052-.997-.112-2.085-.365-1.645-.382-2.779-.414-6.727-.188-2.613.15-5.56.172-6.551.051-2.033-.251-4.378-1.273-5.989-2.611-1.122-.932-2.692-3.547-2.692-4.485 0-.964.47-.559 1.01.872.785 2.074 2.171 3.468 4.552 4.575l2.097.975H64.54l-1.317-1.298c-1.715-1.69-6.33-4.532-9.181-5.655-1.24-.488-3.348-1.062-4.684-1.276-1.337-.213-2.486-.547-2.555-.741-.137-.388.03-.392 2.17-.051zm60.18 2.837c.516.068 2.769.331 5.006.584 5.028.569 7.9 1.103 11.734 2.184 1.635.461 3.36.922 3.833 1.023.474.101.861.33.861.508 0 .42-1.406.167-5.197-.937-5.49-1.598-14.369-2.789-19.341-2.593-2.711.107-3.723.308-7.213 1.438-5.92 1.915-8.817 3.362-10.186 5.086-2.154 2.712-3.64 6.074-5.277 11.939-.86 3.079-1.718 6.664-1.91 7.966-.406 2.777-.532 3.199-.887 2.991-.448-.262.828-6.843 2.322-11.983 2.16-7.431 4.655-11.709 7.905-13.552 1.703-.966 8.305-3.373 11.256-4.104 1.826-.453 5.615-.746 7.094-.55zm50.992 8.285c2.567 2.288 5.072 3.669 7.685 4.239 2.612.569 4.141.448 14.495-1.149 1.131-.175 2.237-.576 2.894-1.05.784-.566 1.064-.652 1.064-.329 0 .701-1.717 1.667-3.511 1.975-11.756 2.024-15.569 1.902-19.79-.631-1.607-.965-5.799-4.62-5.799-5.057 0-.52.548-.15 2.962 2.002zm-50.269-.748c6.11.751 13.042 3.721 16.466 7.056 1.801 1.754 1.114 1.835-.887.105-3.369-2.913-8.968-5.385-14.246-6.291-2.675-.458-7.68-.468-9.661-.018-1.491.339-2.32.278-1.88-.14.09-.085 1.135-.349 2.321-.587 2.335-.467 4.78-.506 7.887-.125zm-.965 3.978c3.119.641 7.588 2.672 12.215 5.55 2.364 1.471 4.931 2.95 5.706 3.287 1.644.716 1.942.65-4.796 1.063-2.724.168-5.743.522-6.709.787-3.325.915-7.654-.067-13.635-3.091-1.575-.797-3.543-1.689-4.372-1.982-1.462-.518-3.594-2.074-3.266-2.384.089-.085.797.252 1.574.748s1.527.902 1.667.902c.14 0 2.383.999 4.982 2.219 2.874 1.349 5.774 2.475 7.397 2.872l2.67.652 3-.651c1.651-.359 3.96-.66 5.132-.67 1.173-.009 2.695-.113 3.383-.232l1.252-.214-4.265-2.681c-6.687-4.201-11.861-6.054-16.798-6.013-1.811.014-3.255.289-6.942 1.321-.733.205-.75.187-.269-.295 1.42-1.42 7.86-2.054 12.074-1.188zm56.173 14.226c1.139 1.085-1.76 9.095-4.017 11.101-1.194 1.061-1.122.554.182-1.281 1.534-2.158 3.12-6.038 3.391-8.293.115-.962.315-1.65.444-1.527zM57.82 197.451c-.12.366-.77 1.551-1.445 2.633-.676 1.082-1.37 2.454-1.545 3.05-.651 2.233 1.54 4.72 6.956 7.893 4.276 2.504 5.093 2.917 5.782 2.921.361.002 2.296-.796 4.3-1.772l3.644-1.776 3.366-.005c2.045-.002 3.667-.147 4.132-.37 1.761-.843 2.749-4.288 1.752-6.111-.6-1.097-.408-1.561.35-.844.664.628.89 3.012.435 4.606-.198.697-.761 1.692-1.251 2.21l-.891.944-4.03.168-4.031.169-3.373 1.688c-4.327 2.167-4.839 2.177-8.17.166-6.997-4.225-8.509-5.432-9.435-7.528-.664-1.504-.544-2.263.705-4.469a365.34 365.34 0 001.753-3.129c.667-1.213 1.346-1.515.996-.444zm99.337 2.706c.279.319.247.521-.141.888-.624.591-.9.597-1.396.032-.311-.355-.311-.534 0-.888.487-.555 1.067-.567 1.537-.032zM52.849 215.891c.525.245 2.426 1.58 4.224 2.966 6.369 4.911 9.423 5.751 21.573 5.936 4.389.067 7.943.219 7.9.338-.045.119-3.635.209-7.98.202-12.683-.023-15.392-.797-22.584-6.453-1.366-1.074-2.95-2.163-3.52-2.419-.571-.256-1.038-.592-1.038-.747 0-.385.302-.347 1.425.177zm9.238 13.331c1.717 1.74 3.25 1.954 7.329 1.026 2.921-.664 3.895-.316 1.205.432-2.131.592-5.332.896-6.505.617-.847-.201-3.305-2.121-3.305-2.581 0-.474.505-.273 1.276.506zm31.069 66.492c.376 1.33.197 8.765-.261 10.825-1.207 5.429-3.7 10.158-10.477 19.883-2.217 3.181-3.982 6.378-5.028 9.11-.707 1.846-1.247 2.589-1.247 1.717 0-.659 1.32-3.871 2.503-6.095.562-1.056 2.652-4.318 4.644-7.248 7.889-11.602 9.705-16.424 9.364-24.869-.149-3.687.041-4.947.502-3.323zm119.899 7.298c-.097.148-1.9 1.27-4.008 2.494-11.695 6.791-15.6 11.299-18.757 21.656-2.756 9.044-2.305 13.652 1.719 17.565.895.87 3.529 2.86 5.852 4.422 5.147 3.459 8.373 6.343 10.168 9.09 1.711 2.617 3.113 5.759 2.731 6.119-.171.163-.691-.648-1.305-2.037-2.226-5.034-4.871-7.816-11.9-12.517-5.249-3.511-7.293-5.409-8.57-7.959-.943-1.881-.979-2.099-.953-5.656.024-3.254.163-4.185 1.152-7.723 3.299-11.804 7.232-16.476 20.127-23.903 2.932-1.689 4.169-2.202 3.744-1.551zm88.376 52.731c4.022.406 9.7 2.48 9.7 3.543 0 .419-.197.362-1.565-.455-.682-.407-2.334-1.105-3.671-1.55-2.408-.803-2.506-.81-10.566-.814-6.824-.003-8.539.085-10.638.545-7.69 1.686-12.777 4.915-18.719 11.882-1.389 1.628-4.372 4.958-6.631 7.399-9.868 10.672-12.184 14.046-15.012 21.877-1.753 4.852-2.659 9.029-2.875 13.251-.255 4.963.136 7.101 2.573 14.097 3.185 9.144 5.94 14.031 10.402 18.453 2.826 2.802 2.468 3.379-.399.641-2.475-2.365-5.282-6.244-7.018-9.699-1.67-3.326-5.196-13.157-5.802-16.178-1.027-5.12-.484-11.295 1.596-18.156 2.776-9.156 5.883-13.91 16.551-25.321 1.75-1.872 4.128-4.536 5.284-5.92 6.135-7.344 12.036-11.268 19.35-12.868 4.273-.935 12.135-1.263 17.44-.727zm-85.498 17.991c2.894 2.788 4.931 6.969 6.804 13.959 2.24 8.354 2.282 15.354.136 22.342-1.122 3.654-4.759 13.17-5.034 13.17-.449 0-.329-.408 1.72-5.837 3.485-9.239 4.49-13.992 4.18-19.764-.308-5.729-2.764-14.849-5.182-19.237-.627-1.139-2.02-2.953-3.095-4.032-1.076-1.079-1.956-2.045-1.956-2.147 0-.528.81-.012 2.427 1.546zM59.56 413.65c0 .144-.129.388-.285.543-.752.741-3.533 6.544-4.234 8.832-1.079 3.523-1.231 6.033-.836 13.795.48 9.44 2.419 25.388 3.643 29.976.808 3.028 3.604 8.104 5.62 10.204 1.762 1.833 7.041 5.988 11.267 8.866 4.937 3.362 15.064 8.284 20.495 9.961 9.111 2.814 15.547 3.381 21.341 1.883 3.538-.915 6.645-2.322 8.972-4.062.909-.68 1.747-1.144 1.863-1.032.402.39-2.629 2.547-5.423 3.859-4.329 2.032-6.977 2.599-12.203 2.615-3.948.011-4.798-.086-8.605-.98-2.323-.545-5.632-1.45-7.353-2.009-3.42-1.113-12.162-5.26-16.596-7.873-4.112-2.424-9.908-6.751-13.18-9.839-2.564-2.421-3.05-3.063-4.608-6.081-2.054-3.98-2.676-6.297-3.768-14.03-1.532-10.855-2.082-17.28-2.148-25.086-.055-6.384.017-7.749.494-9.384 1.105-3.785 4.216-10.002 5.152-10.296.215-.068.392-.005.392.138zm37.55 21.024c.003 5.142 1.584 7.04 6.725 8.077 2.525.509 3.026 1.007.777.772-4.144-.433-7.047-2.302-7.765-5.001-.45-1.69-.488-6.141-.052-6.141.181 0 .313.963.314 2.293zm96.058 83.325c-5.825 3.644-14.536 7.469-21.59 9.481-7.011 1.999-12.626 2.661-28.142 3.317-12.198.517-15.176.823-27.242 2.799-17.766 2.91-18.922 3.056-22.685 2.871-4-.197-8.835-1.252-15.16-3.308-6.336-2.061-9.605-3.455-16.03-6.837-3.215-1.692-6.009-3.077-6.208-3.077-.24 0-.304.374-.19 1.11.094.61.263 1.842.377 2.737.327 2.586 1.62 6.429 3.033 9.013 2.373 4.34 9.09 9.916 15.534 12.895 2.917 1.348 7.351 2.721 11.146 3.451 4.094.787 23.549.693 34.337-.167 4.169-.332 11.03-.741 15.246-.908 11.25-.447 19.888-1.523 30.88-3.846 3.065-.648 8.389-1.647 11.831-2.22 8.339-1.389 11.347-2.029 15.323-3.261 8.99-2.786 10.838-4.585 11.447-11.145.529-5.709-.487-11.916-2.698-16.479l-1.047-2.159-2.438 1.839c-1.342 1.011-3.917 2.763-5.724 3.894zm-9.387 27.008c-3.012.552-7.377 1.334-9.7 1.738a336.757 336.757 0 00-9.231 1.782c-10.35 2.167-19.841 3.254-32.385 3.709-4.388.159-10.302.517-13.142.796-7.737.76-29.984.771-33.899.018-3.378-.651-7.878-2.052-10.305-3.209-1.963-.937-1.926-.955-2.227 1.077-.096.651-.694 2.18-1.33 3.396-1.014 1.944-1.846 2.86-6.848 7.548-5.794 5.429-7.58 7.548-9.304 11.031-.74 1.495-1 2.493-1.107 4.251-.128 2.088-.055 2.472.807 4.213 1.68 3.398 4.532 5.367 9.896 6.838 4.965 1.361 11.762 2.495 16.926 2.824 5.524.352 7.354.588 12.672 1.633 6.638 1.304 11.809 1.929 24.563 2.964 16.579 1.346 35.369.583 48.17-1.956 7.799-1.547 22.527-5.949 27.65-8.264 10.988-4.965 17.841-12.203 16.343-17.263-.859-2.904-3.205-4.534-8.174-5.681-5.669-1.309-7.027-1.833-8.856-3.414-2.783-2.406-3.934-5.886-3.943-11.925-.005-3.22-.051-3.493-.553-3.309-.301.109-3.012.651-6.023 1.203zm23.277 17.694c1.779 1.058 3.252 2.289 4.093 3.421.841 1.131.947 1.512.947 3.4 0 1.824-.153 2.421-1.074 4.192-2.157 4.148-8.37 8.956-16.029 12.404-3.745 1.687-8.577 3.262-18.098 5.901-7.033 1.949-10.303 2.603-17.858 3.571-8.214 1.052-13.079 1.351-22.042 1.352-8.9 0-14.483-.294-25.653-1.354-8.644-.82-11.967-1.27-17.161-2.324-4.646-.943-7.245-1.274-13.02-1.656-7.128-.472-16.985-2.526-20.76-4.327-3.211-1.532-5.32-3.654-6.35-6.392-.53-1.41-.612-4.603-.156-6.071.165-.529.204-.961.087-.96-.578.004-4.873 2.313-7.027 3.778-2.865 1.948-7.404 6.309-9.099 8.742-3.121 4.48-4.662 9.088-4.67 13.968-.007 3.734.741 6.341 2.75 9.583 1.383 2.233 5.962 6.82 9.013 9.03 5.674 4.111 8.602 5.344 22.243 9.368 15.386 4.539 18.656 5.118 36.637 6.494 8.73.668 15.195.741 26.285.297 9.107-.364 11.821-.618 20.497-1.923 3.7-.556 8.558-1.217 10.795-1.47 6.774-.763 9.096-1.27 16.271-3.549 7.292-2.317 9.733-2.794 17.522-3.424 7.89-.638 12.417-1.917 20.56-5.807 11.923-5.696 15.769-9.689 18.768-19.49.625-2.042.722-3.012.713-7.1-.008-4.148-.115-5.133-.858-7.934-1.74-6.557-4.441-11.014-9.38-15.481-4.889-4.421-10.237-6.554-16.504-6.583-1.695-.007-1.935.05-1.442.344z" fill="#000" fill-opacity=".5"/></svg>