<svg width="93" height="24" fill="none" xmlns="http://www.w3.org/2000/svg"><path d="M.29 12V.2h.6V12h-.6zm2.4 0V.2h1.2V12h-1.2zm1.8 0V.2h.6V12h-.6zm2.4 0V.2h2.4V12h-2.4zm3 0V.2h.6V12h-.6zm1.8 0V.2h.6V12h-.6zm1.802 0V.2h.6V12h-.6zm1.8 0V.2h1.2V12h-1.2zm1.8 0V.2h.6V12h-.6zm3.002 0V.2h.6V12h-.6zm1.2 0V.2h1.2V12h-1.2zm2.4 0V.2h.6V12h-.6zm3.001 0V.2h1.2V12h-1.2zm3.6 0V.2h.6V12h-.6zm1.2 0V.2h.6V12h-.6zm1.802 0V.2h.6V12h-.6zm3 0V.2h1.2V12h-1.2zm1.8 0V.2h.6V12h-.6zm1.801 0V.2h1.2V12h-1.2zm1.8 0V.2h1.2V12h-1.2zm1.8 0V.2h2.4V12h-2.4zm3.002 0V.2h.6V12h-.6zm1.8 0V.2h.6V12h-.6zm1.2 0V.2h1.2V12h-1.2zm3.602 0V.2h1.2V12h-1.2zm1.8 0V.2h1.2V12h-1.2zm2.4 0V.2h1.2V12h-1.2zm2.401 0V.2h1.2V12h-1.2zm1.8 0V.2h.6V12h-.6zm2.4 0V.2h.6V12h-.6zm2.402 0V.2h.6V12h-.6zm1.8 0V.2h2.4V12h-2.4zm3.6 0V.2h.6V12h-.6zm1.201 0V.2h1.2V12h-1.2zm3.6 0V.2h.6V12h-.6zm1.2 0V.2h.6V12h-.6zm1.802 0V.2h1.2V12h-1.2zm3.6 0V.2h.6V12h-.6zm1.8 0V.2h.6V12h-.6zm1.201 0V.2h.6V12h-.6zm2.4 0V.2h2.4V12h-2.4zm3 0V.2h.6V12h-.6zM1.307 17.1h1.89c.509 0 .959.105 1.351.315.397.21.702.502.917.875.22.369.329.789.329 1.26s-.11.894-.329 1.267c-.215.369-.52.658-.917.868-.392.21-.842.315-1.351.315h-1.89v-4.9zm1.876 4.683c.476 0 .891-.096 1.246-.287.36-.191.637-.455.833-.791.196-.34.294-.726.294-1.155 0-.43-.098-.812-.294-1.148a2.05 2.05 0 00-.833-.798c-.355-.191-.77-.287-1.246-.287H1.545v4.466h1.638zm15.023 0V22h-3.31v-4.9h3.212v.217h-2.975v2.086h2.66v.217h-2.66v2.163h3.073zm10.409.245a2.76 2.76 0 01-1.015-.189c-.317-.126-.562-.29-.735-.49l.126-.168c.163.187.39.34.679.462.294.117.607.175.938.175.49 0 .859-.096 1.106-.287a.91.91 0 00.378-.749c0-.233-.065-.42-.196-.56a1.19 1.19 0 00-.483-.322 6.243 6.243 0 00-.784-.231 7.259 7.259 0 01-.854-.259 1.371 1.371 0 01-.546-.385c-.15-.173-.224-.404-.224-.693 0-.229.06-.439.182-.63.121-.191.306-.343.553-.455.252-.117.565-.175.938-.175.266 0 .527.04.784.119.261.08.483.189.665.329l-.105.189a2.07 2.07 0 00-.644-.315 2.263 2.263 0 00-.693-.112c-.476 0-.838.1-1.085.301a.921.921 0 00-.364.749c0 .238.065.43.196.574.135.14.299.247.49.322.196.075.457.152.784.231.355.089.64.175.854.259.215.08.394.205.539.378.15.168.224.394.224.679 0 .229-.063.439-.189.63-.121.191-.31.343-.567.455-.257.112-.574.168-.952.168zm10.79-4.928h.239V22h-.238v-4.9zm13.378 2.485h.224v1.813a2.151 2.151 0 01-.77.469 2.735 2.735 0 01-.945.161 2.64 2.64 0 01-1.302-.322 2.397 2.397 0 01-.917-.889c-.22-.378-.33-.8-.33-1.267 0-.467.11-.889.33-1.267.224-.378.53-.674.917-.889a2.64 2.64 0 011.302-.322c.35 0 .672.054.966.161.294.107.546.268.756.483l-.14.161c-.406-.392-.931-.588-1.575-.588-.439 0-.835.1-1.19.301-.35.196-.626.467-.826.812-.2.345-.301.728-.301 1.148a2.226 2.226 0 001.127 1.967c.355.196.751.294 1.19.294.611 0 1.106-.17 1.484-.511v-1.715zM66.38 17.1V22h-.196l-3.48-4.466V22h-.237v-4.9h.196l3.479 4.466V17.1h.238zm12.91 4.683V22h-3.31v-4.9h3.213v.217h-2.975v2.086h2.66v.217h-2.66v2.163h3.073zM91.906 22l-1.211-1.687a3.076 3.076 0 01-.532.042H88.7V22h-.238v-4.9h1.7c.612 0 1.088.145 1.429.434.345.285.518.681.518 1.19 0 .392-.103.721-.308.987-.201.261-.49.443-.868.546L92.185 22h-.28zm-1.73-1.862c.547 0 .967-.121 1.26-.364.295-.247.442-.597.442-1.05 0-.448-.147-.793-.441-1.036-.294-.247-.714-.371-1.26-.371H88.7v2.821h1.477z" fill="#000"/></svg>