<svg width="27" height="27" viewBox="0 0 27 27" fill="none" xmlns="http://www.w3.org/2000/svg">
<path d="M26.0112 12.3028H23.9784V10.27C23.9784 10.0152 23.7718 9.80859 23.5169 9.80859H22.0454C21.7905 9.80859 21.584 10.0152 21.584 10.27V12.3028H19.5511C19.2963 12.3028 19.0897 12.5094 19.0897 12.7643V14.2358C19.0897 14.4907 19.2963 14.6973 19.5511 14.6973H21.5839V16.73C21.5839 16.9849 21.7905 17.1915 22.0454 17.1915H23.5169C23.7718 17.1915 23.9784 16.9849 23.9784 16.73V14.6973H26.0112C26.266 14.6973 26.4726 14.4907 26.4726 14.2358V12.7643C26.4726 12.5094 26.266 12.3028 26.0112 12.3028Z" fill="#A78C73"/>
<path d="M16.9506 12.7993C16.8998 12.4177 16.5433 12.1053 16.1582 12.1053H9.78497C9.39995 12.1053 9.08487 12.4203 9.08487 12.8054V14.3127C9.08487 14.6978 9.3999 15.0129 9.78497 15.0129H12.9319C13.2944 15.0129 13.5403 15.2608 13.42 15.5752C13.0261 16.4579 12.3878 17.2073 11.5927 17.7408C10.7806 18.2856 9.80554 18.6063 8.75401 18.6063C6.57761 18.6063 4.72437 17.2425 3.98936 15.3247H3.98941C3.77198 14.7572 3.64779 14.1439 3.64779 13.5001C3.64779 12.8494 3.77415 12.2294 3.99616 11.6571L3.99611 11.6571C4.73597 9.74911 6.58452 8.39389 8.75385 8.39389C9.81376 8.39389 10.7957 8.71958 11.6107 9.27345L11.6348 9.28937C11.9607 9.4944 12.3902 9.48697 12.6531 9.20552L13.897 7.87846C14.1598 7.59707 14.1086 7.1984 13.7832 6.99253L13.7667 6.97744C12.3788 5.90905 10.6407 5.27344 8.75385 5.27344C5.60313 5.27344 2.86738 7.04547 1.48553 9.64644L1.48558 9.64649C0.874758 10.7963 0.527344 12.1073 0.527344 13.5001C0.527344 14.8991 0.877658 16.2161 1.49365 17.3696H1.4936C2.87835 19.962 5.60957 21.7266 8.75385 21.7266C10.7958 21.7266 12.6624 20.981 14.1006 19.7494H14.1007C15.8626 18.2405 16.9805 16.0015 16.9805 13.5C16.9805 13.024 16.9506 12.7993 16.9506 12.7993Z" fill="#A78C73"/>
<path d="M23.5169 17.7188H22.0454C21.5002 17.7188 21.0566 17.2753 21.0566 16.73V15.2246H19.5512C19.0059 15.2246 18.5624 14.781 18.5624 14.2357V12.7643C18.5624 12.219 19.0059 11.7754 19.5512 11.7754H21.0566V10.27C21.0566 9.7248 21.5002 9.28125 22.0454 9.28125H23.5169C24.0621 9.28125 24.5057 9.7248 24.5057 10.27V11.7755H26.0112C26.5564 11.7755 27 12.2191 27 12.7643V14.2358C27 14.781 26.5564 15.2246 26.0112 15.2246H24.5057V16.7301C24.5057 17.2753 24.0622 17.7188 23.5169 17.7188ZM22.1113 16.6641H23.451V14.6972C23.451 14.406 23.6871 14.1699 23.9784 14.1699H25.9453V12.8301H23.9784C23.6871 12.8301 23.451 12.594 23.451 12.3028V10.3359H22.1113V12.3028C22.1113 12.5941 21.8752 12.8302 21.584 12.8302H19.6171V14.1699H21.5839C21.8752 14.1699 22.1113 14.4061 22.1113 14.6973V16.6641Z" fill="black"/>
<path d="M8.75401 19.1336C7.59185 19.1336 6.47636 18.7818 5.5282 18.1162C4.60308 17.4668 3.90071 16.5668 3.49697 15.5134C3.24712 14.8611 3.12045 14.1837 3.12045 13.5C3.12045 12.8075 3.24965 12.1234 3.50452 11.4664C3.91089 10.4183 4.61368 9.52314 5.53679 8.87783C6.48311 8.21628 7.59554 7.86654 8.75385 7.86654C9.881 7.86654 10.9701 8.20146 11.9039 8.83517L11.9194 8.8454C12.0276 8.91169 12.185 8.93405 12.2677 8.84551L13.5122 7.51776C13.5346 7.49366 13.538 7.47731 13.5375 7.47425C13.5371 7.47125 13.5298 7.45622 13.5012 7.43813C13.4751 7.42162 13.4505 7.40285 13.4276 7.38202C12.0762 6.34743 10.4606 5.80078 8.75385 5.80078C5.89918 5.80078 3.29252 7.36915 1.95117 9.89387C1.36466 10.998 1.05469 12.2451 1.05469 13.5001C1.05469 14.7615 1.36735 16.0136 1.95882 17.1212C2.05843 17.3077 2.16733 17.4927 2.28255 17.6712C2.44055 17.9159 2.3703 18.2423 2.12562 18.4002C1.88088 18.5582 1.5545 18.488 1.39651 18.2433C1.26562 18.0405 1.14175 17.8302 1.02848 17.618C0.355641 16.3581 0 14.9342 0 13.5001C0 12.0731 0.352688 10.655 1.01983 9.39906C2.54459 6.52899 5.50811 4.74609 8.75385 4.74609C10.7027 4.74609 12.5472 5.37321 14.0883 6.55958C14.0946 6.56437 14.1008 6.56938 14.1068 6.57445C14.3715 6.75765 14.5444 7.03403 14.5836 7.33994C14.625 7.66162 14.5151 7.9891 14.2823 8.23837L13.0377 9.56617C12.6191 10.0144 11.9106 10.0861 11.3539 9.73571C11.3507 9.73366 11.3474 9.7316 11.3443 9.72955L11.3201 9.71357C11.3181 9.71225 11.3161 9.71093 11.3142 9.70961C10.5552 9.19382 9.6698 8.92123 8.75375 8.92123C6.85157 8.92123 5.17704 10.0699 4.4877 11.8477C4.28024 12.3827 4.17503 12.9386 4.17503 13.5001C4.17503 14.0543 4.27823 14.6048 4.48179 15.1361C5.15637 16.8963 6.87324 18.079 8.75391 18.079C9.66199 18.079 10.542 17.8107 11.2988 17.3029C11.9646 16.8562 12.4988 16.2496 12.8533 15.5403H9.78481C9.10802 15.5403 8.55742 14.9897 8.55742 14.3128V12.8055C8.55742 12.1287 9.10802 11.578 9.78481 11.578H11.0112C11.3025 11.578 11.5385 11.8141 11.5385 12.1054C11.5385 12.3966 11.3025 12.6327 11.0112 12.6327H9.78481C9.69121 12.6327 9.61211 12.7119 9.61211 12.8055V14.3128C9.61211 14.4065 9.69121 14.4856 9.78481 14.4856H12.9317C13.3038 14.4856 13.6369 14.6469 13.8227 14.917C13.9916 15.1625 14.0243 15.4712 13.9123 15.7638C13.909 15.7727 13.9053 15.7816 13.9014 15.7903C13.4694 16.7582 12.7726 17.5842 11.8863 18.1788C10.9552 18.8034 9.87209 19.1336 8.75401 19.1336Z" fill="black"/>
<path d="M12.8936 12.6326C12.7549 12.6326 12.6188 12.5761 12.5207 12.4781C12.4226 12.38 12.3662 12.2439 12.3662 12.1052C12.3662 11.9665 12.4226 11.8305 12.5207 11.7324C12.6188 11.6343 12.7549 11.5779 12.8936 11.5779C13.0322 11.5779 13.1683 11.6343 13.2664 11.7324C13.3645 11.8305 13.4209 11.9665 13.4209 12.1052C13.4209 12.2439 13.3645 12.38 13.2664 12.4781C13.1683 12.5761 13.0322 12.6326 12.8936 12.6326Z" fill="black"/>
<path d="M8.75392 22.2538C7.36416 22.2538 6.0352 21.9375 4.80385 21.3135C4.54408 21.1819 4.44019 20.8646 4.57182 20.6048C4.7035 20.345 5.0208 20.2412 5.28057 20.3728C6.36278 20.9211 7.53138 21.1992 8.75392 21.1992C10.5872 21.1992 12.3643 20.542 13.7577 19.3488C15.4708 17.8818 16.4532 15.7499 16.4532 13.4999C16.4532 13.0751 16.4279 12.8687 16.4277 12.8667C16.4122 12.7496 16.2786 12.6326 16.1584 12.6326H15.1085C14.8172 12.6326 14.5811 12.3965 14.5811 12.1052C14.5811 11.814 14.8172 11.5779 15.1085 11.5779H16.1584C16.8098 11.5779 17.3875 12.0838 17.4735 12.7296C17.477 12.7564 17.5079 13.0034 17.5079 13.4999C17.5079 16.0584 16.3911 18.4822 14.4438 20.1499C12.8593 21.5067 10.8386 22.2538 8.75392 22.2538Z" fill="black"/>
<path d="M3.20814 20.1027C3.08105 20.1027 2.9536 20.057 2.8524 19.9645C2.82914 19.9432 2.80599 19.9218 2.78289 19.9002C2.5699 19.7016 2.5583 19.3679 2.75695 19.155C2.95565 18.942 3.2893 18.9304 3.5023 19.129C3.52286 19.1482 3.54348 19.1673 3.56421 19.1862C3.7791 19.3828 3.79397 19.7164 3.59743 19.9313C3.49344 20.045 3.351 20.1027 3.20814 20.1027Z" fill="black"/>
</svg>
