<svg width="27" height="27" viewBox="0 0 27 27" fill="none" xmlns="http://www.w3.org/2000/svg">
<path d="M19.0898 26.4727H7.91016C3.83273 26.4727 0.527344 23.1673 0.527344 19.0898V7.91016C0.527344 3.83273 3.83273 0.527344 7.91016 0.527344H19.0898C23.1673 0.527344 26.4727 3.83273 26.4727 7.91016V19.0898C26.4727 23.1673 23.1673 26.4727 19.0898 26.4727Z" fill="#A78C73"/>
<path d="M19.0898 24.1523H7.91016C5.11423 24.1523 2.84766 21.8858 2.84766 19.0898V7.91016C2.84766 5.11423 5.11423 2.84766 7.91016 2.84766H19.0898C21.8858 2.84766 24.1523 5.11423 24.1523 7.91016V19.0898C24.1523 21.8858 21.8858 24.1523 19.0898 24.1523Z" fill="white"/>
<path d="M13.5 20.25C17.2279 20.25 20.25 17.2279 20.25 13.5C20.25 9.77208 17.2279 6.75 13.5 6.75C9.77208 6.75 6.75 9.77208 6.75 13.5C6.75 17.2279 9.77208 20.25 13.5 20.25Z" fill="#D3C0AE"/>
<path d="M13.5 17.7188C15.83 17.7188 17.7188 15.83 17.7188 13.5C17.7188 11.17 15.83 9.28125 13.5 9.28125C11.17 9.28125 9.28125 11.17 9.28125 13.5C9.28125 15.83 11.17 17.7188 13.5 17.7188Z" fill="white"/>
<path d="M20.4214 8.05518C21.2369 8.05518 21.8979 7.3941 21.8979 6.57861C21.8979 5.76313 21.2369 5.10205 20.4214 5.10205C19.6059 5.10205 18.9448 5.76313 18.9448 6.57861C18.9448 7.3941 19.6059 8.05518 20.4214 8.05518Z" fill="#D3C0AE"/>
<path d="M19.0898 27H7.91016C3.5485 27 0 23.4515 0 19.0898V7.91016C0 3.5485 3.5485 0 7.91016 0H19.0898C23.4515 0 27 3.5485 27 7.91016V19.0898C27 23.4515 23.4515 27 19.0898 27ZM7.91016 1.05469C4.13005 1.05469 1.05469 4.13005 1.05469 7.91016V19.0898C1.05469 22.8699 4.13005 25.9453 7.91016 25.9453H19.0898C22.8699 25.9453 25.9453 22.8699 25.9453 19.0898V7.91016C25.9453 4.13005 22.8699 1.05469 19.0898 1.05469H7.91016Z" fill="black"/>
<path d="M19.0898 24.6797H15.9082C15.617 24.6797 15.3809 24.4436 15.3809 24.1523C15.3809 23.8611 15.617 23.625 15.9082 23.625H19.0898C21.5905 23.625 23.625 21.5905 23.625 19.0898V7.91016C23.625 5.40949 21.5905 3.375 19.0898 3.375H7.91016C5.40949 3.375 3.375 5.40949 3.375 7.91016V19.0898C3.375 21.5905 5.40949 23.625 7.91016 23.625H11.127C11.4182 23.625 11.6543 23.8611 11.6543 24.1523C11.6543 24.4436 11.4182 24.6797 11.127 24.6797H7.91016C4.82788 24.6797 2.32031 22.1721 2.32031 19.0898V7.91016C2.32031 4.82788 4.82788 2.32031 7.91016 2.32031H19.0898C22.1721 2.32031 24.6797 4.82788 24.6797 7.91016V19.0898C24.6797 22.1721 22.1721 24.6797 19.0898 24.6797Z" fill="black"/>
<path d="M13.5 24.6797C13.3613 24.6797 13.2253 24.6233 13.1272 24.5252C13.0291 24.4271 12.9727 24.291 12.9727 24.1523C12.9727 24.0137 13.0291 23.8776 13.1272 23.7795C13.2253 23.6814 13.3613 23.625 13.5 23.625C13.6387 23.625 13.7747 23.6814 13.8728 23.7795C13.9709 23.8776 14.0273 24.0137 14.0273 24.1523C14.0273 24.291 13.9709 24.4271 13.8728 24.5252C13.7747 24.6233 13.6387 24.6797 13.5 24.6797Z" fill="black"/>
<path d="M8.8656 9.11978C8.72548 9.11978 8.58568 9.06431 8.48195 8.95436C8.28204 8.74252 8.29174 8.40876 8.50358 8.2089L8.52694 8.18691C8.73951 7.98783 9.07316 7.9987 9.27234 8.21122C9.47147 8.42374 9.46055 8.7575 9.24803 8.95662L9.22741 8.97598C9.12553 9.07211 8.99543 9.11978 8.8656 9.11978Z" fill="black"/>
<path d="M13.5 20.7773C9.48728 20.7773 6.22266 17.5127 6.22266 13.5C6.22266 12.241 6.54945 11 7.16771 9.91121C7.31157 9.65793 7.63341 9.56929 7.88669 9.71304C8.13997 9.8569 8.22867 10.1788 8.08487 10.432C7.55657 11.3623 7.27734 12.4232 7.27734 13.5C7.27734 16.9312 10.0688 19.7227 13.5 19.7227C16.9312 19.7227 19.7227 16.9312 19.7227 13.5C19.7227 10.0688 16.9312 7.27734 13.5 7.27734C12.4951 7.27734 11.5363 7.50927 10.6501 7.96674C10.3913 8.10026 10.0732 7.9988 9.93959 7.74004C9.80601 7.48122 9.90752 7.16312 10.1663 7.02954C11.189 6.50167 12.3417 6.22266 13.5 6.22266C17.5127 6.22266 20.7773 9.48728 20.7773 13.5C20.7773 17.5127 17.5127 20.7773 13.5 20.7773Z" fill="black"/>
<path d="M13.5 18.2461C10.883 18.2461 8.75391 16.117 8.75391 13.5C8.75391 10.883 10.883 8.75391 13.5 8.75391C16.117 8.75391 18.2461 10.883 18.2461 13.5C18.2461 16.117 16.117 18.2461 13.5 18.2461ZM13.5 9.80859C11.4646 9.80859 9.80859 11.4646 9.80859 13.5C9.80859 15.5354 11.4646 17.1914 13.5 17.1914C15.5354 17.1914 17.1914 15.5354 17.1914 13.5C17.1914 11.4646 15.5354 9.80859 13.5 9.80859Z" fill="black"/>
<path d="M20.4214 8.58252C19.3164 8.58252 18.4175 7.68356 18.4175 6.57861C18.4175 5.47367 19.3164 4.57471 20.4214 4.57471C21.5263 4.57471 22.4253 5.47367 22.4253 6.57861C22.4253 7.68356 21.5263 8.58252 20.4214 8.58252ZM20.4214 5.62939C19.898 5.62939 19.4722 6.05522 19.4722 6.57861C19.4722 7.102 19.898 7.52783 20.4214 7.52783C20.9448 7.52783 21.3706 7.102 21.3706 6.57861C21.3706 6.05522 20.9448 5.62939 20.4214 5.62939Z" fill="black"/>
</svg>
