<svg width="27" height="27" viewBox="0 0 27 27" fill="none" xmlns="http://www.w3.org/2000/svg">
<g clip-path="url(#clip0)">
<path d="M13.5 0.527344C6.3354 0.527344 0.527344 6.3354 0.527344 13.5C0.527344 18.8239 3.73486 23.3979 8.32243 25.3972C8.3344 24.148 8.48106 22.9036 8.76071 21.6858L10.1072 16.0201C10.1792 15.7173 10.1889 15.4031 10.136 15.0964L9.95694 14.0599C9.93626 13.9403 9.92593 13.8192 9.92593 13.6979V13.4277C9.92593 12.4668 10.2078 11.527 10.7367 10.7249C11.0797 10.2047 11.6609 9.8916 12.2839 9.89149C12.2959 9.89149 12.308 9.89149 12.3201 9.89149C13.1493 9.89133 13.8723 10.4558 14.0755 11.2687L14.0902 11.3272C14.2158 11.8296 14.2141 12.3555 14.0852 12.8571L13.1058 16.6689C12.8127 17.8096 13.6566 18.9419 14.8343 18.9558C14.8438 18.9559 14.8533 18.956 14.8629 18.956C17.2893 18.956 19.1544 16.3975 19.1544 12.7041C19.1544 9.43555 16.8055 7.1502 13.4518 7.1502C9.56749 7.1502 7.28726 10.0636 7.28726 13.0748C7.28726 14.0663 7.61015 15.1184 8.05054 15.8333C8.20188 16.0791 8.23758 16.3784 8.14245 16.6509L7.84392 17.5062C7.68814 17.9525 7.1299 18.1028 6.77373 17.792C5.535 16.7111 4.79108 14.6964 4.79108 13.0237C4.79108 8.71726 7.92007 4.76234 13.8115 4.76234C18.5475 4.76234 22.228 8.13707 22.228 12.6472C22.228 17.3521 19.2611 21.1388 15.1435 21.1388C14.0554 21.1388 12.8784 20.5281 12.2689 19.9253L11.8893 21.4025C11.4987 22.9229 10.9269 24.391 10.1864 25.7751L10.0603 26.0108C11.1559 26.3113 12.309 26.4727 13.5 26.4727C20.6646 26.4727 26.4727 20.6646 26.4727 13.5C26.4727 6.3354 20.6646 0.527344 13.5 0.527344Z" fill="#A78C73"/>
<path d="M8.32233 25.9245C8.25093 25.9245 8.17915 25.91 8.11171 25.8806C3.18405 23.7331 0 18.8734 0 13.5C0 9.89402 1.40426 6.50389 3.95402 3.95408C6.50389 1.40426 9.89402 0 13.5 0C17.106 0 20.4961 1.40426 23.046 3.95408C25.5957 6.50389 27 9.89402 27 13.5C27 15.3673 26.6257 17.1755 25.8877 18.8745C25.1748 20.5153 24.1572 21.9792 22.8631 23.2253C22.6533 23.4274 22.3196 23.421 22.1175 23.2112C21.9155 23.0014 21.9217 22.6676 22.1316 22.4656C24.5909 20.0973 25.9453 16.9133 25.9453 13.5C25.9453 6.63762 20.3624 1.05469 13.5 1.05469C6.63762 1.05469 1.05469 6.63762 1.05469 13.5C1.05469 18.1901 3.68598 22.4557 7.82156 24.5767C7.87767 23.5635 8.02011 22.5547 8.24676 21.5677L9.59412 15.8981C9.64992 15.6634 9.65735 15.4239 9.61632 15.186L9.43724 14.1496C9.41161 14.0009 9.39858 13.8489 9.39858 13.6979V13.4276C9.39858 12.3604 9.70908 11.3254 10.2964 10.4345C10.7382 9.76435 11.4812 9.3642 12.2838 9.36404H12.3201C12.3202 9.36404 12.3204 9.36404 12.3205 9.36404C13.3935 9.36404 14.3255 10.0946 14.587 11.1407L14.6016 11.199C14.7481 11.7849 14.7461 12.4035 14.5959 12.9882L13.6165 16.8C13.5155 17.1932 13.5994 17.6039 13.8468 17.9269C14.0875 18.241 14.4496 18.4238 14.8406 18.4284L14.8629 18.4285C15.8717 18.4285 16.8033 17.8902 17.4863 16.9129C18.2219 15.8602 18.6271 14.3655 18.6271 12.7041C18.6271 9.74447 16.499 7.67749 13.4518 7.67749C9.79029 7.67749 7.81465 10.4583 7.81465 13.0747C7.81465 13.9071 8.08349 14.8812 8.49957 15.5567C8.73613 15.9409 8.7875 16.403 8.64042 16.8246L8.34189 17.68C8.21069 18.056 7.90235 18.3413 7.51713 18.4433C7.13338 18.545 6.72579 18.45 6.42705 18.1894C5.15336 17.0779 4.26378 14.9537 4.26378 13.0238C4.26378 11.02 4.91838 9.09162 6.10701 7.5937C7.39557 5.96985 9.2562 4.88278 11.4877 4.44999C11.7735 4.39425 12.0503 4.58135 12.1058 4.86728C12.1612 5.1532 11.9744 5.4299 11.6885 5.48538C7.81887 6.23584 5.31847 9.19487 5.31847 13.0238C5.31847 14.6453 6.07632 16.4835 7.12051 17.3947C7.16602 17.4345 7.21454 17.4326 7.24723 17.4238C7.27481 17.4165 7.32433 17.395 7.34611 17.3326L7.64464 16.4772C7.68672 16.3566 7.67101 16.2227 7.60155 16.1099C7.08244 15.2672 6.75997 14.1042 6.75997 13.0749C6.75997 11.4215 7.4057 9.79741 8.53168 8.61906C9.77943 7.3132 11.4809 6.62291 13.4519 6.62291C15.2123 6.62291 16.8022 7.22693 17.9287 8.32365C19.0592 9.42437 19.6818 10.9801 19.6818 12.7042C19.6818 16.6323 17.6552 19.4833 14.8629 19.4833L14.8287 19.4831C14.1113 19.4746 13.4485 19.1413 13.0097 18.5684C12.564 17.9867 12.4129 17.2465 12.5951 16.5376L13.5745 12.7258C13.6811 12.3105 13.6826 11.8711 13.5786 11.4551L13.564 11.3967C13.4201 10.8209 12.9087 10.4188 12.3206 10.4188C12.3204 10.4188 12.3204 10.4188 12.3203 10.4188H12.2841C11.837 10.4189 11.4232 10.6418 11.1771 11.0152C10.7037 11.7332 10.4534 12.5675 10.4534 13.4278V13.698C10.4534 13.7891 10.4612 13.8807 10.4767 13.9702L10.6558 15.0067C10.7212 15.3859 10.7093 15.7679 10.6204 16.1421L9.27392 21.8078C9.00455 22.9813 8.86154 24.1921 8.84994 25.4024C8.84825 25.5793 8.75791 25.7436 8.60941 25.8398C8.52251 25.8959 8.42273 25.9245 8.32233 25.9245Z" fill="black"/>
<path d="M20.6226 24.872C20.4513 24.872 20.2833 24.7887 20.182 24.635C20.0216 24.392 20.0886 24.0648 20.3317 23.9044L20.3698 23.8792C20.613 23.7188 20.94 23.7859 21.1004 24.029C21.2608 24.272 21.1938 24.5992 20.9507 24.7595L20.9126 24.7847C20.8231 24.8437 20.7223 24.872 20.6226 24.872Z" fill="black"/>
<path d="M13.4999 27.0002C12.2876 27.0002 11.0834 26.8385 9.92078 26.5195C9.76606 26.4771 9.63913 26.3666 9.57579 26.2192C9.51246 26.0718 9.51968 25.9037 9.5953 25.7622L9.72145 25.5265C10.4413 24.1809 10.9988 22.7493 11.3786 21.2715L11.7581 19.7943C11.8051 19.6113 11.9463 19.4675 12.1283 19.4172C12.3104 19.367 12.5054 19.4179 12.6397 19.5506C13.1597 20.065 14.214 20.6117 15.1434 20.6117C18.8817 20.6117 21.7006 17.1878 21.7006 12.6474C21.7006 9.26185 19.4045 6.41119 15.987 5.55388C15.7045 5.48301 15.533 5.19655 15.6038 4.91406C15.6746 4.63156 15.9611 4.45996 16.2436 4.53089C18.1311 5.00439 19.7481 6.01114 20.9198 7.4423C22.1206 8.909 22.7553 10.7089 22.7553 12.6474C22.7553 15.0705 22.0033 17.3236 20.6379 18.9916C19.2259 20.7164 17.2746 21.6663 15.1435 21.6663C14.2153 21.6663 13.2776 21.2947 12.5784 20.8397L12.4001 21.5339C12.0334 22.9609 11.5097 24.347 10.8413 25.6601C11.712 25.8497 12.6034 25.9455 13.4999 25.9455C15.0324 25.9455 16.5283 25.6704 17.9463 25.1279C18.2181 25.0239 18.5231 25.1599 18.6272 25.432C18.7313 25.704 18.5952 26.0089 18.3231 26.113C16.7844 26.7017 15.1617 27.0002 13.4999 27.0002Z" fill="black"/>
<path d="M13.896 5.28987C13.8943 5.28987 13.8926 5.28987 13.891 5.28987C13.8645 5.28966 13.8381 5.28955 13.8115 5.28955C13.5203 5.28955 13.2842 5.05346 13.2842 4.76221C13.2842 4.47096 13.5203 4.23486 13.8115 4.23486C13.8412 4.23486 13.871 4.23497 13.9006 4.23523C14.1918 4.23792 14.4258 4.47618 14.4231 4.76737C14.4205 5.05694 14.1849 5.28987 13.896 5.28987Z" fill="black"/>
</g>
<defs>
<clipPath id="clip0">
<rect width="27" height="27" fill="white"/>
</clipPath>
</defs>
</svg>
