<svg width="27" height="27" viewBox="0 0 27 27" fill="none" xmlns="http://www.w3.org/2000/svg">
<path d="M23.5195 26.4727H3.48047C1.8495 26.4727 0.527344 25.1505 0.527344 23.5195V3.48047C0.527344 1.8495 1.8495 0.527344 3.48047 0.527344H23.5195C25.1505 0.527344 26.4727 1.8495 26.4727 3.48047V23.5195C26.4727 25.1505 25.1505 26.4727 23.5195 26.4727Z" fill="#A78C73"/>
<path d="M4.97798 8.5957H7.26628C7.62245 8.5957 7.93722 8.8262 8.0449 9.16576C8.27461 9.88996 8.73034 11.1809 9.36911 12.3047C9.88786 13.2173 10.5169 13.9829 10.9807 14.4897C11.2132 14.7437 11.6367 14.5784 11.6367 14.2339V10.9316C11.6367 10.4471 11.4847 9.97481 11.2022 9.58131L10.9783 9.26944C10.9263 9.19709 10.8984 9.11029 10.8984 9.02127C10.8984 8.78623 11.0889 8.5957 11.324 8.5957H14.5239C14.8127 8.5957 15.0469 8.82984 15.0469 9.11867V13.3522C15.0469 13.627 15.3311 13.8097 15.5811 13.6956L15.7988 13.5962C15.8362 13.5792 15.87 13.5549 15.8982 13.5249C16.9983 12.3568 17.8901 11.0088 18.535 9.53954L18.7743 8.99427C18.8805 8.75217 19.12 8.59597 19.3844 8.59623L21.6438 8.59887C22.0676 8.59934 22.3381 9.05122 22.1383 9.425L21.0945 11.3781C20.9595 11.6308 20.8093 11.875 20.6447 12.1094L19.4232 13.8501C19.2063 14.1591 19.2482 14.5803 19.5215 14.8406L20.4161 15.6925C21.1085 16.3518 21.7119 17.0985 22.2111 17.9139L22.4787 18.351C22.7286 18.7591 22.4349 19.2832 21.9564 19.2832H20.0058C19.6112 19.2832 19.2334 19.1236 18.9584 18.8408L17.008 16.8352C16.6216 16.438 16.1272 16.1629 15.586 16.0441C15.3091 15.9833 15.0469 16.1942 15.0469 16.4778V18.4482C15.0469 18.9094 14.673 19.2832 14.2119 19.2832C12.5759 19.2832 10.9854 18.7446 9.68589 17.7507C7.38361 15.9898 5.71436 13.5299 4.92835 10.74L4.50152 9.22493C4.41251 8.9091 4.64986 8.5957 4.97798 8.5957Z" fill="white"/>
<path d="M21.9563 19.8106H20.0058C19.472 19.8106 18.9524 19.5911 18.5803 19.2085L16.6299 17.203C16.3389 16.9038 15.9757 16.6911 15.5742 16.5839V18.4483C15.5742 19.1994 14.963 19.8106 14.2119 19.8106C12.4701 19.8106 10.749 19.2278 9.36549 18.1696C8.84215 17.7694 8.34302 17.328 7.88196 16.8577C7.67809 16.6498 7.68136 16.3159 7.88934 16.1119C8.09738 15.908 8.43124 15.9114 8.63511 16.1193C9.06126 16.554 9.52258 16.962 10.0063 17.3319C11.2069 18.2502 12.7005 18.7559 14.2119 18.7559C14.3816 18.7559 14.5195 18.6179 14.5195 18.4483V16.4778C14.5195 16.1821 14.6517 15.9063 14.8821 15.7209C15.1126 15.5355 15.4105 15.4657 15.6991 15.5291C16.3431 15.6704 16.9264 15.995 17.386 16.4676L19.3364 18.4731C19.5112 18.6528 19.7551 18.7558 20.0058 18.7558H21.9563C21.9686 18.7558 22.0062 18.7558 22.0305 18.7123C22.0549 18.6688 22.0353 18.6368 22.0289 18.6263L21.7613 18.1892C21.2862 17.4133 20.7113 16.7017 20.0524 16.0743L19.1578 15.2225C18.6917 14.7786 18.6217 14.074 18.9915 13.5471L20.213 11.8064C20.3648 11.5901 20.5049 11.3624 20.6294 11.1294L21.6733 9.17636C21.6768 9.16956 21.6824 9.15933 21.6724 9.14272C21.6625 9.12616 21.6509 9.12611 21.6432 9.12611L19.3837 9.12352H19.3836C19.3288 9.12352 19.2792 9.1559 19.2572 9.2061L19.0179 9.75138C18.347 11.2799 17.4266 12.6711 16.2821 13.8864C16.2067 13.9665 16.1177 14.0303 16.0175 14.076L15.8001 14.1752C15.5186 14.3037 15.1953 14.2806 14.9351 14.1132C14.6748 13.946 14.5195 13.6615 14.5195 13.3521V9.12305H11.5223L11.6306 9.27376C11.9795 9.75981 12.164 10.3331 12.164 10.9316V14.2339C12.164 14.6103 11.9373 14.9416 11.5864 15.0779C11.2359 15.2142 10.8455 15.1229 10.5917 14.8457C10.1285 14.3396 9.46093 13.5332 8.9107 12.5652C8.24008 11.3855 7.76547 10.0288 7.54225 9.32518C7.50391 9.20426 7.39301 9.12305 7.26629 9.12305H5.02059L5.43588 10.597C5.67772 11.4554 6.0101 12.291 6.4238 13.0807C6.55896 13.3387 6.45945 13.6574 6.20142 13.7926C5.94334 13.9277 5.62472 13.8281 5.48961 13.5702C5.04195 12.7158 4.6823 11.8117 4.42069 10.883L3.9938 9.36795C3.90621 9.05697 3.96786 8.73097 4.16282 8.47347C4.35793 8.21602 4.65493 8.06836 4.97788 8.06836H7.26623C7.8547 8.06836 8.3696 8.4453 8.54757 9.00629C8.75825 9.67048 9.2047 10.9483 9.82754 12.0441C10.2343 12.7597 10.7147 13.382 11.1094 13.8403V10.9316C11.1094 10.5552 10.9933 10.1946 10.7738 9.88891L10.5499 9.57698C10.4329 9.41414 10.3711 9.22192 10.3711 9.02127C10.3711 8.49582 10.7985 8.06836 11.3239 8.06836H14.5239C15.103 8.06836 15.5742 8.53954 15.5742 9.11867V13.0994C16.6081 11.9873 17.4415 10.7188 18.052 9.3276L18.2914 8.78233C18.4816 8.34885 18.9102 8.06889 19.3836 8.06889C19.3841 8.06889 19.3845 8.06889 19.385 8.06889L21.6444 8.07147C22.0303 8.07189 22.3791 8.26991 22.5773 8.60103C22.7756 8.9322 22.7853 9.33314 22.6033 9.67349L21.5595 11.6266C21.415 11.8969 21.2525 12.1613 21.0763 12.4123L19.8548 14.153C19.7873 14.2491 19.8001 14.3777 19.8851 14.4587L20.7797 15.3105C21.5049 16.0011 22.1379 16.7843 22.6608 17.6385L22.9283 18.0756C23.1434 18.4269 23.152 18.8685 22.9506 19.2278C22.7494 19.5873 22.3684 19.8106 21.9563 19.8106Z" fill="black"/>
<path d="M6.95766 15.4714C6.79344 15.4714 6.6316 15.3949 6.52861 15.2513L6.95718 14.944L6.52634 15.2482C6.52613 15.2479 6.52297 15.2435 6.52276 15.2431C6.35306 15.0065 6.40737 14.677 6.64405 14.5073C6.88077 14.3375 7.21015 14.3919 7.3799 14.6286L7.38576 14.6367C7.55545 14.8734 7.50114 15.2028 7.26447 15.3726C7.17139 15.4393 7.06397 15.4714 6.95766 15.4714Z" fill="black"/>
<path d="M10.8033 24.4688H6.50549C6.21429 24.4688 5.97815 24.2327 5.97815 23.9414C5.97815 23.6502 6.21429 23.4141 6.50549 23.4141H10.8033C11.0945 23.4141 11.3307 23.6502 11.3307 23.9414C11.3307 24.2327 11.0946 24.4688 10.8033 24.4688Z" fill="black"/>
<path d="M13.2028 24.4688H13.1965C12.9053 24.4688 12.6692 24.2327 12.6692 23.9414C12.6692 23.6502 12.9053 23.4141 13.1965 23.4141H13.2028C13.494 23.4141 13.7302 23.6502 13.7302 23.9414C13.7302 24.2327 13.4941 24.4688 13.2028 24.4688Z" fill="black"/>
<path d="M23.5195 27H3.48047C1.56131 27 0 25.4387 0 23.5195V3.48047C0 1.56131 1.56131 0 3.48047 0H23.5195C25.4387 0 27 1.56131 27 3.48047V23.5195C27 25.4387 25.4387 27 23.5195 27ZM3.48047 1.05469C2.14291 1.05469 1.05469 2.14291 1.05469 3.48047V23.5195C1.05469 24.8571 2.14291 25.9453 3.48047 25.9453H23.5195C24.8571 25.9453 25.9453 24.8571 25.9453 23.5195V3.48047C25.9453 2.14291 24.8571 1.05469 23.5195 1.05469H3.48047Z" fill="black"/>
</svg>
