<svg width="319" height="636" viewBox="0 0 319 636" fill="none" xmlns="http://www.w3.org/2000/svg">
<path fill-rule="evenodd" clip-rule="evenodd" d="M103.991 0.589452C105.282 0.916503 109.013 1.7769 112.283 2.50174C122.921 4.85918 124.819 6.14193 128.642 13.5531C129.95 16.0893 131.487 18.9763 132.058 19.9681L133.094 21.7714L134.892 21.1807C137.451 20.3395 143.015 20.3697 146.075 21.2411C147.279 21.5838 149.11 21.8638 150.143 21.8632C152.218 21.862 152.945 21.5427 155.697 19.4226C159.053 16.8364 164.016 15.6161 168.787 16.2036C172.114 16.6135 174.367 17.3345 177.816 19.0935C184.398 22.4504 189.038 26.523 191.385 31.0032C192.584 33.2922 192.697 33.7063 192.689 35.753C192.68 37.8683 192.586 38.1687 191.023 41.0669C188.506 45.7344 188.52 45.2505 190.864 46.7082C193.261 48.1996 194.333 49.4267 198.894 55.9014C204.306 63.5861 204.672 64.6315 205.054 73.5119C205.278 78.7299 205.481 80.4397 206.318 84.1669C207.683 90.2507 207.575 91.2363 204.99 96.2587C203.247 99.6431 203.035 100.248 203.071 101.734C203.096 102.748 203.436 104.201 203.936 105.429C205.685 109.726 205.355 112.064 202.205 117.686C200.605 120.541 200.424 121.016 200.935 121.016C201.817 121.016 203.105 122.09 203.893 123.486C204.545 124.64 204.589 125.089 204.597 130.783C204.604 134.892 204.778 137.957 205.136 140.279C205.957 145.591 205.477 147.382 200.583 157.28C197.558 163.4 195.72 166.396 192.669 170.181C186.825 177.431 180.88 182.111 176.714 182.741L175.455 182.931L174.882 185.049C174.064 188.07 173.25 189.655 170.449 193.677C167.034 198.582 158.862 208.739 156.811 210.628C155.818 211.543 154.495 212.412 153.615 212.728L152.113 213.267L152.154 217.531C152.25 227.607 153.759 231.899 159.051 237.149C160.348 238.435 162.887 240.633 164.694 242.034C166.501 243.435 170.118 246.275 172.732 248.344C179.414 253.634 182.559 255.783 191.134 260.916C195.264 263.389 200.896 266.781 203.65 268.454C214.744 275.196 218.199 277.053 226.178 280.563C235.909 284.843 238.525 286.453 247.7 293.806C250.835 296.319 256.528 300.484 260.351 303.062C274.486 312.595 285.945 321.074 294.082 328.019C304.532 336.94 307.495 341.614 311.562 355.6C311.993 357.079 313.283 360.209 314.429 362.556C318.308 370.494 319.002 372.802 319 377.77C318.998 384.934 316.257 393.1 311.749 399.375C307.499 405.291 304.073 408.03 286.568 419.512C280.055 423.783 277.353 425.832 273.859 429.147C268.461 434.268 267.277 436.092 260.177 450.224C256.827 456.89 254.846 459.461 242.477 473.195C237.987 478.18 232.273 484.654 229.779 487.583C223.733 494.681 221.716 496.641 216.166 500.815C209.775 505.62 202.264 511.429 202.084 511.704C202.003 511.828 202.415 512.91 203.001 514.109C205.307 518.832 206.384 525.52 205.756 531.205C205.022 537.844 203.243 539.616 194.419 542.489L191.134 543.559L191.039 546.203C190.987 547.657 191.086 549.859 191.26 551.096C192.369 558.973 196.618 561.671 208.185 561.846C212.248 561.907 213.393 562.029 215.227 562.594C221.686 564.586 226.75 568.474 230.966 574.679C232.571 577.04 233.904 580.069 234.979 583.797C235.746 586.454 235.828 587.234 235.852 592.059C235.881 597.989 235.608 599.46 233.629 604.027C230.571 611.086 226.458 614.648 215.319 619.882C207.112 623.739 203.551 624.696 194.419 625.499C187.382 626.118 183.799 626.814 178.513 628.589C170.702 631.212 169.318 631.53 162.347 632.3C159.938 632.566 154.939 633.24 151.239 633.797C142.277 635.146 140.092 635.363 131.996 635.711C116.798 636.364 104.689 635.929 90.2237 634.21C81.6443 633.191 79.0225 632.581 64.2659 628.176C53.4108 624.934 50.2824 623.58 44.9459 619.812C41.821 617.606 37.646 613.583 35.8937 611.09C35.0858 609.94 33.9951 607.851 33.4703 606.448C32.6086 604.146 32.516 603.552 32.5172 600.346C32.5188 596.023 33.1909 593.459 35.4651 589.099C37.3656 585.455 40.2383 582.01 43.6852 579.242C46.6359 576.873 50.9192 574.232 53.0757 573.453C54.3338 572.998 54.6608 572.684 55.6549 570.973C57.3918 567.985 59.0402 566.145 64.677 560.905C69.1474 556.75 70.007 555.799 70.9804 553.936C71.6922 552.574 72.1654 551.184 72.2642 550.165L72.4207 548.55L69.5104 546.721C63.6476 543.036 60.4955 539.898 58.2651 535.528C56.8345 532.724 55.586 528.29 55.2938 524.975L55.0839 522.594L48.1694 519.399C39.7543 515.51 36.5799 513.444 35.3424 511.051C33.7316 507.937 33.9873 503.819 36.217 496.956C38.4092 490.207 38.5155 486.227 36.6009 482.569C34.5527 478.656 32.3351 476.558 22.1681 468.914C16.5231 464.67 11.9038 460.342 9.27667 456.837C5.46838 451.756 1.9742 444.152 0.554263 437.856C-0.226421 434.394 -0.175404 428.041 0.662853 424.389C2.2164 417.62 5.33473 411.869 12.1365 403.227C14.018 400.837 14.9339 399.354 15.5822 397.649C16.0678 396.371 17.381 393.907 18.5003 392.173C23.1741 384.932 24.3168 380.869 25.1297 368.598C25.5599 362.106 25.936 359.746 27.0622 356.471C28.3685 352.673 32.7754 344.38 35.7942 340.037C39.1529 335.205 45.1387 329.524 53.6145 323.122C61.804 316.937 64.346 314.379 66.7009 309.956C68.7651 306.078 69.71 300.147 68.9622 295.762C68.7482 294.508 67.3151 289.805 65.7772 285.312C64.2393 280.818 62.0772 274.009 60.9723 270.18C59.8675 266.351 58.2432 261.289 57.3624 258.933C56.4819 256.576 55.3451 253.128 54.8367 251.269C54.0472 248.386 53.739 247.713 52.7346 246.682C50.9176 244.816 49.3584 242.693 45.3339 236.61C40.9377 229.964 39.3012 226.77 37.7834 221.875C37.1641 219.877 35.7592 215.446 34.6612 212.028C32.3739 204.907 29.7562 195.653 28.8526 191.494C28.3801 189.32 28.1992 187.035 28.0885 181.838C27.9374 174.764 27.7747 173.455 26.5237 169.26C25.2815 165.093 25.1103 163.78 24.8672 156.533C24.5749 147.827 24.5565 147.786 19.8214 145.346C15.3175 143.024 13.6272 141.107 12.9269 137.524C12.4128 134.892 12.9817 132.481 15.1742 128C17.4696 123.309 18.1189 121.026 18.5648 116.072C19.2478 108.489 19.5692 106.323 20.3345 104.145C21.363 101.22 23.3443 97.8116 26.9564 92.7558C28.5825 90.4801 30.1064 88.0993 30.3429 87.465C30.6417 86.6638 30.7728 84.806 30.7728 81.3738C30.7728 77.2429 30.6627 76.0507 30.0992 74.0855C29.1339 70.7196 29.1774 68.0082 30.2274 66.0809C30.6805 65.2492 31.4359 64.1363 31.9065 63.6077C32.6099 62.8165 32.695 62.5599 32.3865 62.1595C30.5876 59.8272 30.2794 56.9542 31.5664 54.5112C33.0138 51.7637 36.7977 48.7524 47.5104 41.8234C53.2249 38.127 58.0514 33.9037 59.3268 31.4835C59.7558 30.6696 60.4222 28.6718 60.808 27.0439C62.0446 21.8256 63.6235 19.4762 68.2115 16.0269C69.7344 14.8818 72.1772 12.9135 73.64 11.653C77.6871 8.16491 79.1208 7.33648 85.1472 5.00391C86.9157 4.31962 89.591 3.11915 91.0923 2.33689C92.5936 1.55433 94.5868 0.699854 95.5217 0.438213C97.7899 -0.196948 101.122 -0.137461 103.991 0.589452ZM95.492 1.16246C94.4422 1.49691 92.4569 2.37506 91.0801 3.11411C89.7037 3.85316 87.1523 4.99 85.411 5.64085C80.7629 7.37792 78.4584 8.61065 75.8303 10.7656C74.5396 11.824 72.0051 13.8529 70.1981 15.2739C63.9736 20.169 62.6476 21.9899 61.4839 27.2393C61.1353 28.8118 60.4942 30.7628 60.0589 31.5753C58.3649 34.7375 54.9058 37.8011 47.8168 42.4168C34.4359 51.1297 31.4124 53.9424 31.4124 57.6773C31.4124 60.386 33.5091 62.9201 36.9917 64.4201C38.1144 64.904 38.5584 65.2205 38.2173 65.2947C37.6673 65.4146 35.6747 64.6347 34.1131 63.6885C33.2297 63.1534 33.2285 63.1537 32.4431 64.0407C30.0957 66.692 29.6583 69.3265 30.8126 73.8585C31.715 77.4022 31.8448 85.8664 31.0257 87.7556C30.7343 88.4272 29.0397 91.0244 27.2596 93.5271C23.7195 98.5048 21.3762 102.721 20.618 105.477C20.3495 106.454 19.9171 109.584 19.6574 112.432C18.8229 121.585 18.5701 122.653 16.0212 127.801C14.064 131.755 13.5634 133.387 13.5634 135.815C13.5634 139.913 15.2993 142.264 20.1781 144.777C23.1929 146.33 24.6566 147.691 25.0965 149.351C25.2589 149.964 25.4698 153.262 25.5653 156.681C25.7396 162.921 26.14 165.878 27.289 169.408L27.8673 171.183L28.0578 169.851C28.1626 169.119 28.3372 167.587 28.4461 166.448C28.555 165.308 29.0547 161.979 29.5563 159.048C30.1108 155.81 30.5472 151.897 30.6693 149.07C30.7963 146.129 30.9837 144.486 31.179 144.6C31.7725 144.947 31.1768 153.973 30.183 159.691C29.6686 162.649 29.092 166.911 28.9014 169.162C28.4483 174.513 28.6805 186.669 29.2994 189.978C29.9484 193.45 33.0686 204.975 34.537 209.324C35.2041 211.299 36.5314 215.491 37.4867 218.639C40.0528 227.093 40.9302 228.823 47.9957 239.354C51.3018 244.281 52.9659 246.255 55.343 248.07C61.722 252.939 69.6086 254.429 80.0545 252.741C86.0111 251.778 94.2153 249.735 99.176 247.979C108.407 244.711 109.235 244.104 128.233 226.675C131.163 223.988 135.391 220.246 137.628 218.36C144.228 212.797 144.912 211.909 146.72 206.552C147.351 204.68 148.767 201.051 149.865 198.488C152.325 192.746 153.008 190.46 153.412 186.613C154.089 180.157 154.757 168.42 154.587 165.946C154.415 163.437 154.743 162.44 155.188 164.118C155.668 165.926 154.42 186.566 153.616 190.126C153.045 192.653 152.449 194.285 150.212 199.449C149.26 201.646 148.102 204.643 147.637 206.108C145.804 211.893 144.679 213.385 137.788 219.172C135.295 221.266 129.013 226.873 123.828 231.633C113.373 241.232 110.971 243.237 107.798 245.02C103.628 247.363 96.927 249.723 89.291 251.538C76.3479 254.614 69.8831 254.898 62.8916 252.699C60.3021 251.884 56.0739 249.824 55.6455 249.168C55.5407 249.008 55.3348 248.877 55.1884 248.877C54.7516 248.877 55.6737 252.088 57.8458 258.133C58.9704 261.263 60.6682 266.554 61.6188 269.891C62.5694 273.228 64.6198 279.687 66.1752 284.245C69.5154 294.033 69.874 295.482 69.8755 299.192C69.8793 306.859 66.7735 313.236 60.3418 318.769C59.4813 319.51 56.2428 322.026 53.1451 324.361C45.286 330.286 39.7371 335.588 36.4282 340.333C33.613 344.37 29.117 352.755 27.821 356.384C26.6526 359.657 26.4207 361.052 25.9116 367.858C24.9013 381.367 23.9075 385.077 19.4668 391.918C17.7809 394.515 16.0666 397.718 16.0666 398.271C16.0666 398.732 22.3549 391.259 24.3966 388.373C25.339 387.041 27.595 383.245 29.4099 379.938C33.5658 372.366 35.0295 369.925 39.4955 363.123C44.1734 355.998 46.0877 352.323 51.3691 340.333C56.5273 328.621 56.4478 328.79 56.8301 328.79C57.2616 328.79 57.2451 328.83 52.2061 340.185C46.7661 352.443 45.3148 355.328 41.9693 360.538C40.5863 362.692 38.3444 366.186 36.9873 368.302C35.6303 370.418 33.0945 374.747 31.352 377.921C25.8728 387.904 24.7786 389.499 18.2566 397.012C11.839 404.405 7.30539 410.543 4.81377 415.214C-0.981748 426.078 -0.652277 437.741 5.79533 449.962C9.54699 457.073 14.0515 461.9 23.875 469.335C31.4778 475.089 33.8248 477.177 35.7539 479.905C38.0449 483.145 38.4455 484.507 38.4041 488.912C38.3716 492.373 38.2849 492.869 37.0612 496.607C35.3715 501.768 34.6756 505.988 35.1303 508.316C35.9254 512.384 37.9629 513.943 49.3944 519.233C53.6989 521.225 58.9087 523.761 60.9717 524.87C69.0636 529.218 75.5146 531.832 83.5677 534.025C92.7745 536.531 93.7779 536.495 116.351 532.855C128.707 530.862 132.126 530.527 145.138 530.035C164.337 529.308 172.414 527.601 185.032 521.606C191.839 518.371 195.226 516.165 204.119 509.175C206.959 506.944 211.464 503.508 214.132 501.54C220.272 497.011 223.492 493.954 229.149 487.284C233.253 482.445 239.589 475.305 247.141 467.01C253.755 459.745 256.664 455.684 260.031 449.014C266.191 436.811 266.557 436.176 269.286 432.973C273.745 427.737 277.634 424.518 286.471 418.748C301.89 408.68 306.716 404.895 310.499 399.906C315.679 393.072 318.583 384.326 318.239 376.589C318.049 372.312 317.548 370.658 314.56 364.455C311.801 358.726 310.821 356.282 309.749 352.468C307.415 344.157 304.546 338.956 299.567 334.002C296.685 331.135 288.645 324.238 284.564 321.132C279.118 316.987 266.009 307.65 260.597 304.062C255.322 300.564 251.246 297.544 244.014 291.774C237.802 286.817 234.323 284.821 224.394 280.519C219.44 278.372 214.067 275.536 208.187 271.964C205.691 270.448 199.637 266.819 194.732 263.899C184.741 257.951 180.611 255.278 176.222 251.916C167.687 245.378 162.067 240.872 159.578 238.569C153.716 233.147 151.576 228.227 151.558 220.138C151.555 218.575 151.462 216.293 151.353 215.067L151.153 212.837L149.945 212.495C149.28 212.306 148.736 211.964 148.736 211.735C148.736 211.379 148.894 211.381 149.821 211.747C151.203 212.293 153.219 212.296 154.305 211.754C155.762 211.027 158.526 208.072 162.858 202.608C165.158 199.707 167.385 196.843 167.805 196.245C168.226 195.647 169.403 193.977 170.42 192.534C172.556 189.505 173.175 188.272 174.029 185.35L174.647 183.238L171.782 183.103C169.97 183.018 168.245 182.738 167.087 182.341C165.192 181.692 161.188 179.468 159.735 178.257C158.256 177.025 159.598 177.505 162.316 179.181C163.773 180.079 165.925 181.172 167.098 181.611C168.966 182.308 169.658 182.406 172.673 182.396C176.615 182.384 178.264 181.92 181.636 179.871C185.769 177.36 193.197 169.24 196.373 163.762C198.04 160.886 202.828 151.171 203.801 148.689C204.776 146.203 204.949 142.824 204.304 138.863C203.921 136.512 203.804 134.195 203.871 130.324C203.957 125.343 203.92 124.937 203.281 123.808C202.907 123.146 202.361 122.416 202.069 122.187C201.251 121.545 199.457 121.697 197.432 122.582C195.62 123.373 193.168 123.664 193.168 123.088C193.168 122.925 193.625 122.792 194.184 122.793C194.744 122.793 196.196 122.371 197.412 121.854L199.624 120.915L201.551 117.464C203.744 113.538 204.587 110.937 204.265 109.082C204.147 108.402 203.63 106.646 203.116 105.181C201.846 101.564 201.986 100.473 204.263 96.1776C206.51 91.9401 206.796 90.5464 206.166 86.9251C205.902 85.408 205.471 83.3678 205.208 82.3911C204.923 81.3286 204.61 78.0228 204.429 74.1603C204.116 67.4841 203.762 65.4392 202.429 62.6108C201.377 60.3798 194.942 51.3416 193.061 49.4524C191.355 47.7405 189.252 46.3065 188.818 46.5605C188.675 46.6436 188.39 47.5227 188.184 48.5136C187.674 50.9663 186.855 52.6691 185.511 54.077C184.257 55.39 182.529 56.1808 182.529 55.4421C182.529 55.2065 182.735 55.0135 182.987 55.0135C183.804 55.0135 185.613 53.2368 186.401 51.6604C186.824 50.8151 187.395 48.9928 187.67 47.6109C188.033 45.7889 188.706 44.0411 190.121 41.2507C191.875 37.7916 192.07 37.2216 192.05 35.6071C191.996 31.1538 187.291 25.3225 180.581 21.3941C174.151 17.6293 171.037 16.6857 165.795 16.9133C161.585 17.0959 159.662 17.6379 157.11 19.3604C151.555 23.1104 151.358 23.1584 146.266 22.0067C143.26 21.3269 142.229 21.2266 139.247 21.3224C136.327 21.416 135.506 21.5518 134.266 22.145C133.45 22.5356 132.732 22.7988 132.669 22.7298C132.607 22.6608 131.056 19.7005 129.223 16.1518C125.246 8.45438 124.258 7.26634 120.418 5.56774C119.042 4.95862 116.578 4.16719 114.943 3.80907C113.308 3.45094 109.506 2.57899 106.494 1.87161C100.273 0.410388 98.2596 0.280456 95.492 1.16246ZM112.786 9.41304C114.163 10.2314 115.256 11.8779 115.256 13.1343C115.256 13.7212 113.49 15.5572 113.194 15.2775C113.065 15.1549 113.264 14.7468 113.638 14.3709C114.964 13.0355 114.336 11.0311 112.226 9.86115C111.475 9.44471 110.942 8.97855 111.042 8.82494C111.273 8.47214 111.108 8.41679 112.786 9.41304ZM108.485 12.141C109.819 14.0672 109.75 16.0358 108.265 18.3775C107.088 20.2353 104.502 22.8639 104.006 22.7076C103.72 22.6173 104.224 21.8987 105.528 20.5375C106.6 19.4181 107.749 17.9989 108.081 17.3833C108.811 16.0307 108.859 14.1628 108.196 12.9505C107.56 11.7873 107.791 11.1398 108.485 12.141ZM85.2173 20.6225C85.2173 20.7533 84.7198 21.3165 84.1115 21.8741C83.5035 22.4315 82.5805 23.6006 82.0608 24.4719C81.0914 26.0968 78.7816 28.6718 78.2938 28.6718C77.7293 28.6718 78.0547 28.0331 79.0375 27.2123C79.5967 26.745 80.537 25.5836 81.1268 24.6314C82.6202 22.2195 85.2173 19.6745 85.2173 20.6225ZM168.658 25.1006C172.002 26.2389 174.383 28.3495 175.192 30.8916C176.222 34.129 174.436 36.8593 168.308 41.4147C161.2 46.7002 158.96 48.6163 158.147 50.1119C157.113 52.0123 157.15 54.1241 158.267 56.9009C158.718 58.0206 159.008 59.0106 158.912 59.1012C158.588 59.4078 158.195 58.7197 157.34 56.3457C156.311 53.4889 156.395 51.5423 157.635 49.5403C158.39 48.3221 164.079 43.5782 169.244 39.8602C173.181 37.0254 174.862 34.5895 174.638 32.0391C174.398 29.2972 172.185 27.1241 168.168 25.6869C166.755 25.1808 165.99 25.0905 164.224 25.2213C162.264 25.3666 162.098 25.3388 162.641 24.9561C163.497 24.3532 166.689 24.4299 168.658 25.1006ZM105.419 27.5252C108.118 30.2431 113.554 30.6829 114.006 28.2198C114.094 27.7359 114.306 27.3804 114.477 27.4299C115.062 27.6001 114.653 29.1163 113.842 29.7817C112.753 30.6749 109.775 30.7001 107.746 29.8329C106.402 29.259 103.991 27.3343 103.991 26.8359C103.991 26.3647 104.519 26.6198 105.419 27.5252ZM85.0609 32.1388C88.5284 32.557 92.6233 34.6972 95.5808 37.6371C98.3018 40.342 97.8153 40.717 94.9954 38.0885C92.1224 35.4102 90.1555 34.187 87.453 33.3967C83.5843 32.2658 80.4134 32.8376 77.9424 35.1116C77.1936 35.8006 76.769 36.03 76.769 35.7453C76.769 35.066 78.6333 33.5065 80.2109 32.866C81.7529 32.2401 83.6018 31.9627 85.0609 32.1388ZM72.7796 32.1166C73.9173 32.4289 73.2614 32.8154 71.5937 32.8154C68.4885 32.8154 66.5557 34.2346 64.775 37.8224C63.9126 39.5598 63.8119 40.0967 63.5941 44.1246C63.305 49.4658 62.8413 50.995 61.0452 52.53C59.3853 53.9486 59.1672 53.4282 60.7583 51.846C62.2073 50.4052 62.6861 48.8694 62.6948 45.6332C62.712 39.2144 64.7856 34.5214 68.3683 32.7923C69.6115 32.1927 71.8218 31.8541 72.7796 32.1166ZM131.853 35.3913C133.121 36.7575 134.474 39.4606 135.299 42.2753C136.103 45.0199 136.672 46.049 138.045 47.24C139.347 48.3701 139.178 48.8489 137.803 47.9231C136.499 47.0444 135.501 45.299 134.496 42.1407C133.528 39.0954 132.596 37.2533 131.283 35.7879C130.394 34.7967 130.355 34.7839 130.019 35.3791C129.827 35.7171 129.254 37.353 128.745 39.0149C128.236 40.6765 127.492 42.4902 127.091 43.0455C126.299 44.1438 123.891 45.5317 123.486 45.1229C123.348 44.9835 123.404 44.8119 123.611 44.742C124.524 44.4324 126.091 43.2311 126.705 42.3689C127.073 41.8521 127.605 40.5599 127.888 39.497C128.17 38.4342 128.692 36.8291 129.047 35.93C129.831 33.949 130.411 33.8374 131.853 35.3913ZM85.9814 38.4996C87.494 38.8933 90.2237 41.359 90.2237 42.3316C90.2237 43.0508 90.1608 43.0043 88.8585 41.322C86.6957 38.5283 82.2007 38.2152 80.2688 40.7238C79.9209 41.1758 79.5285 41.4437 79.3967 41.3193C79.0648 41.005 80.246 39.5784 81.3405 38.972C82.5511 38.3013 84.4692 38.106 85.9814 38.4996ZM109.916 41.5635C111.448 43.5815 112.108 44.0624 113.348 44.0624C114.362 44.0624 114.411 44.1009 113.947 44.5393C113.034 45.4023 111.374 44.5913 109.761 42.4947C108.997 41.5011 108.372 40.5818 108.372 40.4516C108.372 39.8845 108.965 40.3119 109.916 41.5635ZM58.308 40.5152C58.308 40.6806 57.6218 41.7127 56.7832 42.809C54.4646 45.8401 53.9593 46.9997 53.4439 50.4735C53.1867 52.2053 52.7196 54.1682 52.4051 54.8359C51.5043 56.7497 48.9992 58.7709 48.35 58.1076C48.2339 57.9892 48.3284 57.8285 48.5602 57.7504C49.4783 57.442 51.2452 55.6898 51.7687 54.5695C52.0728 53.9184 52.4117 52.6531 52.5215 51.7578C53.0844 47.1699 53.5913 45.8874 56.2328 42.3653C57.7582 40.3317 58.308 39.8416 58.308 40.5152ZM74.7255 47.2442C75.2499 49.2316 78.617 51.7492 80.7585 51.7551C81.3176 51.7566 81.7754 51.883 81.7754 52.0363C81.7754 53.5218 76.8726 51.531 75.0916 49.3225C74.2148 48.2351 73.6538 46.4302 74.1929 46.4302C74.3678 46.4302 74.6075 46.7964 74.7255 47.2442ZM149.076 49.1769C152.116 51.1149 152.569 55.6629 150.009 58.5634C148.701 60.0453 148.483 59.4635 149.713 57.7729C150.551 56.6209 150.774 55.9929 150.874 54.5059C150.981 52.9192 150.882 52.4782 150.157 51.3088C149.647 50.4851 148.895 49.762 148.244 49.4681C147.654 49.202 147.171 48.8759 147.171 48.7433C147.171 48.3035 148.003 48.4929 149.076 49.1769ZM99.0875 52.5471C101.729 54.2321 104.543 56.6532 104.22 56.9637C104.088 57.0906 103.454 56.7293 102.812 56.1601C101.499 54.9969 99.7943 53.7742 97.8165 52.5782C97.0824 52.1342 96.4817 51.6346 96.4817 51.4683C96.4817 50.9681 96.8543 51.1223 99.0875 52.5471ZM72.1084 56.1089C72.5515 56.5647 73.5518 57.7364 74.3319 58.7132C76.9734 62.021 79.9293 64.2206 84.7924 66.4967C86.9361 67.5 87.6088 68.0363 86.7239 68.0363C85.5252 68.0363 78.5529 64.0339 76.6126 62.232C74.8622 60.6065 71.068 55.9485 71.1969 55.5832C71.2554 55.4169 71.6656 55.6534 72.1084 56.1089ZM177.523 57.9123C177.523 58.0416 177.039 58.8742 176.448 59.7621C175.858 60.6503 174.985 61.9665 174.509 62.6872C173.42 64.3361 173.157 66.7894 173.892 68.4519C174.462 69.7429 174.512 70.1082 174.119 70.1082C173.786 70.1082 173.185 68.7896 172.82 67.2576C172.414 65.557 173.02 63.5062 174.555 61.3855C175.298 60.3597 176.132 59.1056 176.409 58.5989C176.872 57.7527 177.523 57.3514 177.523 57.9123ZM67.9566 61.1135C69.2191 62.5004 71.0812 64.1925 72.0943 64.8739C74.11 66.2294 74.7114 67.2846 72.936 66.3514C71.6262 65.6626 65.1918 59.5451 65.1918 58.9884C65.1918 58.2224 65.6345 58.5628 67.9566 61.1135ZM128.085 59.7038C128.085 59.8417 126.5 60.0353 124.564 60.1338C119.214 60.4061 116.09 61.5196 112.807 64.3248C112.118 64.9144 111.471 65.2705 111.37 65.1163C111.077 64.6673 114.196 62.2101 116.299 61.2331C117.36 60.7403 119.214 60.1406 120.418 59.9003C122.78 59.4291 128.085 59.2933 128.085 59.7038ZM95.6994 60.1602C99.1914 60.9652 103.426 63.8948 105.422 66.8874C106.279 68.171 106.16 68.9663 105.289 67.7726C105.006 67.3834 103.864 66.1448 102.751 65.0201C101.244 63.4955 100.132 62.6961 98.3851 61.8798C96.1416 60.8317 95.9038 60.785 92.8195 60.785C89.5294 60.785 88.6433 60.3904 91.0316 59.9891C92.7469 59.7008 93.8896 59.7429 95.6994 60.1602ZM59.3903 63.1587C59.701 63.6438 60.6719 64.6661 61.5477 65.4303C62.4235 66.1945 63.0556 66.8998 62.952 66.9981C62.5737 67.3556 59.9983 65.3903 59.2955 64.2076C58.4591 62.8 58.5455 61.8404 59.3903 63.1587ZM153.557 63.7376C154.573 64.133 155.911 64.8416 156.529 65.3122C157.715 66.2152 159.687 68.485 159.687 68.9474C159.687 69.5411 159.137 69.1593 158.221 67.931C156.999 66.2901 155.479 65.1971 153.207 64.3236C152.218 63.9433 151.358 63.4908 151.297 63.3182C151.138 62.8672 151.483 62.9311 153.557 63.7376ZM130.929 66.4026C134.002 66.9572 137.457 68.1367 139.818 69.4369C143.316 71.3634 147.484 74.0153 147.484 74.314C147.484 74.7553 146.977 74.5069 143.394 72.3111C137.454 68.67 134.21 67.4625 128.71 66.8454C126.186 66.5621 120.259 66.827 117.994 67.3245C116.664 67.6164 116.949 66.9291 118.306 66.5692C120.352 66.0273 128.269 65.9228 130.929 66.4026ZM48.0408 66.6305C48.5136 67.4305 49.5468 69.534 49.5468 69.6965C49.5468 69.7601 49.41 69.8122 49.2426 69.8122C48.9961 69.8122 47.0436 66.5005 47.0436 66.082C47.0436 65.7014 47.7076 66.0666 48.0408 66.6305ZM187.738 69.5141C188.942 69.9738 188.994 70.4965 187.809 70.2295C187.228 70.099 186.332 70.0152 185.818 70.0436C184.489 70.1173 182.501 71.5416 181.618 73.0543C180.978 74.1482 180.865 74.7366 180.88 76.8889C180.889 78.2871 181.123 80.2497 181.4 81.2498C181.958 83.2651 182.04 84.3149 181.639 84.3149C181.144 84.3149 180.182 79.1697 180.2 76.6196C180.22 73.7433 180.844 72.2353 182.593 70.8404C184.419 69.3845 186.197 68.926 187.738 69.5141ZM83.4964 74.8565C85.0452 74.9799 88.5653 75.2321 91.3188 75.4174C99.6126 75.975 105.505 76.606 109.48 77.3616C116.034 78.6077 126.271 81.975 132.551 84.9501C135.504 86.3498 146.777 92.4826 150.3 94.6071C155.287 97.6139 161.121 102.553 165.937 107.845C169.118 111.341 179.713 124.208 179.713 124.577C179.713 125.257 179.081 124.645 176.427 121.394C163.537 105.601 158.613 100.678 150.77 95.7386C147.405 93.6198 135.97 87.3114 132.554 85.6903C129.169 84.0835 122.227 81.4795 117.514 80.0491C110.495 77.9189 105.953 77.1944 94.1587 76.3236C78.9212 75.1989 76.7108 75.1125 71.5327 75.4404C60.0527 76.1671 51.8651 78.0228 42.0397 82.1256C37.3403 84.0879 37.0308 84.1891 37.0308 83.7641C37.0308 83.4519 40.9148 81.7506 45.9847 79.8425C56.776 75.7808 71.1365 73.8721 83.4964 74.8565ZM135.468 75.1471C136.346 75.2643 137.613 75.5289 138.284 75.7352C140.661 76.4654 145.498 78.9489 148.108 80.7798C153.153 84.3179 155.57 85.0646 162.729 85.2982C165.349 85.3837 167.639 85.5397 167.819 85.6447C168.655 86.1334 167.503 86.2246 162.725 86.0476C155.457 85.7779 152.767 84.9332 147.722 81.3374C144.958 79.3674 140.141 76.9529 137.488 76.2076C135.535 75.6592 132.377 75.5852 130.954 76.0543C129.586 76.5057 128.969 76.2239 130.118 75.6731C131.336 75.0891 133.466 74.8796 135.468 75.1471ZM136.559 81.3703C139.099 81.9395 143.805 84.1897 147.761 86.7271C153.374 90.3277 154.433 90.7574 158.622 91.1363C160.499 91.3058 162.891 91.5589 163.939 91.6986C166.005 91.9739 169.074 93.0873 169.074 93.5612C169.074 93.8749 168.954 93.848 166.18 92.9085C165.054 92.527 162.889 92.1858 160.392 91.9955C154.439 91.5423 153.488 91.2233 148.579 88.0371C142.094 83.8269 137.801 81.9471 134.673 81.9471C132.861 81.9471 132.218 81.6219 133.273 81.2389C133.915 81.0056 135.155 81.0554 136.559 81.3703ZM193.041 82.3926C194.098 83.9183 193.756 88.9212 192.57 89.29C192.271 89.3832 192.191 89.2755 192.32 88.9561C192.425 88.6968 192.689 87.6716 192.906 86.6774C193.255 85.0824 193.235 84.6959 192.742 83.3814C192.102 81.6781 192.237 81.2321 193.041 82.3926ZM96.5208 82.5548C102.24 82.944 107.788 84.2694 116.427 87.3111C121.337 89.0396 125.358 90.8938 134.4 95.599C146.7 101.999 150.359 104.487 157.835 111.536C163.517 116.895 165.797 119.354 173.433 128.358C177.92 133.647 179.024 135.178 177.868 134.502C177.691 134.398 175.044 131.355 171.986 127.738C158.977 112.355 151.366 105.54 140.6 99.6372C135.212 96.6828 126.426 92.2237 122.609 90.5061C116.614 87.8086 107.386 84.8471 101.82 83.8346C96.7229 82.9073 75.0155 82.4944 65.1918 83.1381C56.7225 83.6931 49.5139 84.9451 44.9153 86.6596C43.0069 87.3712 42.9759 87.3759 42.9759 86.9636C42.9759 86.5185 44.6759 85.9058 49.0765 84.7648C53.4083 83.6419 57.7432 82.9946 63.9245 82.5474C68.6712 82.2041 91.4406 82.2094 96.5208 82.5548ZM174.603 85.4837C177.548 86.1568 181.862 89.9204 182.676 92.5282C183.028 93.6547 182.318 93.2658 181.596 91.9363C180.131 89.2391 176.642 86.5673 174.035 86.1464C173.286 86.0254 172.701 85.7969 172.734 85.6385C172.816 85.2564 173.397 85.2082 174.603 85.4837ZM72.4711 88.3621C73.8071 88.9247 75.4264 89.4516 76.0694 89.533C78.112 89.7913 78.6464 89.9417 78.6464 90.2581C78.6464 90.5991 76.4145 90.3925 74.5787 89.8819C72.4832 89.2991 69.8852 88.0791 69.8852 87.6781C69.8852 87.4564 69.9203 87.2892 69.9635 87.3069C70.0067 87.3244 71.135 87.7994 72.4711 88.3621ZM61.1926 90.3084C64.9577 93.169 68.2407 95.1044 71.5342 96.4058C75.1513 97.8347 79.9453 97.3434 83.0336 95.2275C84.6478 94.1214 85.1478 94.4148 83.6594 95.5948C81.1481 97.5864 76.2878 98.4418 72.8515 97.4967C70.7732 96.9252 67.2819 95.3278 65.1918 93.9921C62.9451 92.5563 57.0564 88.0862 57.0564 87.8163C57.0564 87.2735 57.7401 87.6852 61.1926 90.3084ZM51.152 92.028C54.9024 92.8674 58.9619 95.4539 62.0909 98.9976C65.8385 103.242 70.1133 105.921 73.1372 105.921C73.9301 105.921 74.5787 106.058 74.5787 106.226C74.5787 107.257 71.0736 106.624 68.3214 105.096C65.8723 103.737 63.6307 101.831 61.2652 99.0959C58.2629 95.6247 54.2027 93.2702 50.0355 92.5836C48.9063 92.3977 47.9823 92.126 47.9823 91.9798C47.9823 91.6569 49.6047 91.6817 51.152 92.028ZM101.019 94.5598C104.947 95.4856 107.213 97.6074 110.69 103.614C114.279 109.813 117.036 112.35 121.608 113.664C124.039 114.362 128.856 114.539 133.638 114.106C135.327 113.953 136.22 113.975 136.22 114.17C136.22 114.664 133.516 114.931 128.397 114.94C124.222 114.947 123.236 114.856 121.306 114.282C116.65 112.897 113.748 110.253 110.24 104.2C106.597 97.9149 104.665 96.1054 100.698 95.2642C98.7461 94.8504 95.9764 95.5096 93.7144 96.9258C91.8911 98.0674 91.0579 98.0203 92.5704 96.8613C94.7967 95.1547 98.8541 94.0495 101.019 94.5598ZM199.113 96.2954C199.113 97.0507 194.399 101.293 192.664 102.099C191.49 102.645 190.495 102.835 188.386 102.915C185.663 103.02 183.833 102.813 184.222 102.445C184.333 102.34 185.863 102.247 187.622 102.238C191.707 102.217 192.936 101.668 196.512 98.2701C198.118 96.7441 199.113 95.9885 199.113 96.2954ZM166.321 98.5013C168.26 99.0873 170.606 100.287 171.25 101.02C171.881 101.74 171.115 101.592 169.734 100.728C167.853 99.5502 165.368 98.7771 162.895 98.5992C161.647 98.5096 160.626 98.3222 160.626 98.1831C160.626 97.7312 164.488 97.9469 166.321 98.5013ZM37.8997 101.204C40.0863 101.611 42.1064 102.856 46.3317 106.399C48.5302 108.242 51.0121 110.103 51.8466 110.534C54.9343 112.129 58.4688 112.52 62.59 111.725C66.4916 110.972 67.7785 110.863 67.6267 111.299C67.5516 111.516 67.0785 111.731 66.5757 111.778C66.0726 111.825 64.5481 112.071 63.1879 112.325C60.2833 112.866 56.7447 112.909 54.8232 112.426C52.3266 111.798 49.9911 110.358 45.9162 106.934C41.0256 102.825 39.049 101.777 36.1885 101.777C33.9516 101.777 32.5952 102.219 31.3041 103.366C30.2919 104.266 30.147 104.308 30.147 103.703C30.147 103.006 32.5288 101.555 34.246 101.207C35.9873 100.854 36.0205 100.853 37.8997 101.204ZM93.0398 103.534C96.1181 104.423 98.7602 106.594 101.891 110.805C106.528 117.043 108.496 118.898 121.044 128.861C123.282 130.637 126.379 133.139 127.928 134.42C131.412 137.303 139.709 145.809 144.496 151.405C147.723 155.176 149.712 156.957 151.317 157.509C152.146 157.795 151.999 158.388 151.161 158.14C149.263 157.578 147.111 155.704 144.215 152.093C139.784 146.567 130.17 137.069 124.049 132.169C114.567 124.579 107.797 118.931 106.206 117.285C105.297 116.344 103.5 114.133 102.213 112.373C99.0581 108.057 97.2151 106.216 94.8555 105.024C93.174 104.174 92.5836 104.03 90.8495 104.048C87.4386 104.082 85.1854 105.186 80.1358 109.297C76.7237 112.074 74.0453 113.779 68.5238 116.691C61.3631 120.467 60.4257 120.68 54.0788 119.985C47.6685 119.282 45.2044 119.903 44.1067 122.498C43.8289 123.154 43.6017 123.888 43.6017 124.129C43.6017 124.37 43.4609 124.567 43.2888 124.567C42.7706 124.567 42.9356 123.139 43.5945 121.917C44.9387 119.425 47.6031 118.648 52.9358 119.195C57.5129 119.664 60.2051 119.623 61.9639 119.058C63.7346 118.49 71.6362 114.381 74.7511 112.41C75.9646 111.642 78.2174 109.985 79.7575 108.727C81.2976 107.469 83.3286 105.967 84.2711 105.389C87.1541 103.62 90.7228 102.865 93.0398 103.534ZM189.447 110.861C189.901 111.951 190.62 116.37 190.859 119.536C191.163 123.558 190.038 132.114 189.095 132.958C188.799 133.223 188.749 133.101 188.872 132.411C189.852 126.917 190.097 124.765 190.106 121.608C190.116 118.023 189.471 112.801 188.818 111.177C188.614 110.67 188.607 110.318 188.799 110.205C188.965 110.108 189.257 110.403 189.447 110.861ZM42.0769 114.43C40.8238 116.629 35.492 118.581 31.6155 118.26C29.6135 118.094 27.1579 117.085 25.4535 115.729C23.7429 114.368 24.574 114.316 26.6025 115.657C29.1367 117.332 31.705 117.923 34.4819 117.472C36.9983 117.062 39.3306 116.099 40.8413 114.844C42.0992 113.8 42.5159 113.66 42.0769 114.43ZM24.6713 120.885C26.5571 122.363 30.6777 122.876 33.8236 122.025C34.2404 121.912 34.5276 121.964 34.5276 122.151C34.5276 122.635 32.4137 123.084 30.1245 123.086C27.5569 123.088 25.5521 122.457 23.9973 121.158C22.6102 119.999 23.2241 119.75 24.6713 120.885ZM123.391 122.388C127.144 124.605 130.815 124.784 138.313 123.115C145.603 121.491 150.366 121.632 156.191 123.643C158.652 124.493 162.91 126.656 163.301 127.255C163.794 128.01 163.012 127.806 161.152 126.695C155.922 123.571 149.697 122.145 144.138 122.799C142.642 122.974 139.561 123.511 137.292 123.991C132.432 125.019 128.468 125.152 126.028 124.369C124.014 123.722 121.514 122.261 121.514 121.73C121.514 121.5 121.549 121.325 121.592 121.342C121.635 121.358 122.444 121.829 123.391 122.388ZM22.7945 126.048C24.7533 127.982 27.5271 128.604 31.6333 128.032C32.6709 127.887 33.276 127.91 33.276 128.095C33.276 128.985 26.5365 129.149 24.8278 128.301C23.6741 127.729 21.3859 125.797 21.3859 125.395C21.3859 124.931 21.909 125.174 22.7945 126.048ZM142.009 131.506C146.73 132.67 150.895 134.351 154.598 136.588C158.229 138.781 163.431 140.899 166.463 141.42C167.916 141.669 168.918 141.645 170.971 141.315C174.817 140.695 176.034 140.637 176.189 141.068C176.276 141.307 176.009 141.437 175.436 141.436C174.949 141.435 173.123 141.661 171.379 141.939C168.434 142.408 168.042 142.411 165.903 141.966C163.066 141.377 159.048 139.799 155.757 137.982C151.11 135.416 148.806 134.333 145.821 133.311C141.08 131.688 138.293 131.264 133.64 131.46C129.827 131.62 128.333 131.362 130.822 130.973C133.613 130.537 139.145 130.8 142.009 131.506ZM195.879 135.051C195.328 138.855 195.315 141.212 195.824 145.286C196.73 152.542 196.407 157.255 194.882 159.048C194.389 159.628 194.382 159.624 194.538 158.9C194.626 158.493 194.917 157.432 195.185 156.542C195.812 154.453 195.806 150.508 195.169 146.013C194.491 141.238 194.846 133.743 195.75 133.743C195.947 133.743 195.996 134.242 195.879 135.051ZM143.281 139.54C145.048 140.429 146.587 141.525 149.205 143.761C151.779 145.96 154.798 147.776 157.203 148.573C158.939 149.148 159.836 149.239 163.677 149.23C166.129 149.224 168.136 149.322 168.136 149.447C168.136 149.808 163.557 150.117 161.107 149.921C156.504 149.553 153.26 148.047 148.579 144.104C144.834 140.949 141.996 139.366 140.084 139.366C139.68 139.366 139.349 139.233 139.349 139.07C139.349 138.489 141.765 138.777 143.281 139.54ZM52.9887 145.304C55.1399 145.798 57.8856 146.64 59.0902 147.176C63.3644 149.076 69.4791 154.339 71.1556 157.56C72.0048 159.191 72.1944 160.016 72.5962 163.831C73.3841 171.311 72.6776 177.019 69.8721 185.834C69.0173 188.52 67.9099 192.519 67.4118 194.721C66.2259 199.959 65.8739 201.157 65.4474 201.406C65.0075 201.663 65.1189 201.034 66.5798 195.009C67.1918 192.486 68.2034 188.823 68.8279 186.87C70.553 181.475 70.7742 180.631 71.4259 176.955C72.3819 171.565 72.4576 169.753 71.9451 164.532C71.5239 160.239 71.3552 159.442 70.5358 157.867C69.0542 155.02 62.9774 149.73 59.0145 147.837C57.0673 146.907 50.5525 145.331 47.6369 145.086C46.2207 144.966 44.8095 145.071 43.1527 145.42C40.4505 145.989 39.7474 145.843 41.5979 145.097C42.3804 144.782 43.944 144.57 45.9485 144.506C48.5993 144.421 49.6751 144.543 52.9887 145.304ZM52.2064 151.663C54.5244 152.217 57.6715 153.708 60.4354 155.562C62.8741 157.197 66.6546 160.575 66.3589 160.855C66.2472 160.96 65.1999 160.217 64.0312 159.203C61.5637 157.061 56.6756 153.946 54.3448 153.029C51.0093 151.718 46.027 151.638 41.847 152.828C41.0212 153.063 40.2897 153.202 40.2215 153.138C39.5609 152.513 43.6762 151.517 47.6694 151.336C49.4116 151.256 50.9767 151.369 52.2064 151.663ZM155.416 153.99C155.687 154.382 156.72 155.077 157.71 155.536C159.218 156.234 159.994 156.386 162.493 156.472C164.336 156.536 166.285 156.411 167.593 156.145C168.757 155.909 169.78 155.823 169.866 155.955C170.095 156.306 169.764 156.434 167.588 156.838C166.512 157.038 165.637 157.351 165.643 157.533C165.666 158.277 167.466 160.276 168.688 160.915C170.811 162.026 174.385 162.589 176.642 162.169C178.674 161.791 179.238 161.901 178.133 162.46C176.27 163.403 171.325 162.952 168.481 161.58C167.119 160.923 165.736 159.497 165.127 158.122L164.717 157.196L161.811 157.067C159.455 156.962 158.6 156.789 157.293 156.153C155.804 155.428 154.368 154.142 154.368 153.533C154.368 153.04 154.926 153.283 155.416 153.99ZM48.9739 156.243C52.7734 156.85 55.9906 158.13 60.0051 160.632C63.1526 162.593 66.4042 165.87 65.7678 166.44C65.7093 166.492 64.7709 166.328 63.6829 166.075C62.0384 165.693 60.9041 165.661 56.9556 165.887C54.3435 166.037 51.3957 166.059 50.4047 165.938C48.3722 165.687 46.027 164.665 44.4165 163.327C43.2941 162.395 41.7243 159.78 41.7243 158.842C41.7243 157.878 42.1937 158.283 42.7347 159.714C43.5188 161.788 44.9053 163.182 47.2858 164.289L49.3828 165.264H56.9616H64.54L63.2233 163.966C61.5083 162.276 56.8937 159.434 54.0416 158.311C52.8019 157.823 50.6942 157.249 49.3575 157.035C48.0211 156.822 46.8715 156.488 46.803 156.294C46.6662 155.906 46.8333 155.902 48.9739 156.243ZM109.154 159.08C109.67 159.148 111.923 159.411 114.16 159.664C119.188 160.233 122.06 160.767 125.894 161.848C127.529 162.309 129.254 162.77 129.727 162.871C130.201 162.972 130.588 163.201 130.588 163.379C130.588 163.799 129.182 163.546 125.391 162.442C119.901 160.844 111.022 159.653 106.05 159.849C103.339 159.956 102.327 160.157 98.8369 161.287C92.9165 163.202 90.02 164.649 88.6511 166.373C86.4971 169.085 85.0114 172.447 83.3743 178.312C82.5148 181.391 81.6556 184.976 81.4647 186.278C81.0576 189.055 80.9324 189.477 80.5767 189.269C80.1292 189.007 81.4046 182.426 82.8987 177.286C85.0583 169.855 87.554 165.577 90.8038 163.734C92.5069 162.768 99.1091 160.361 102.06 159.63C103.886 159.177 107.675 158.884 109.154 159.08ZM160.146 167.365C162.713 169.653 165.218 171.034 167.831 171.604C170.443 172.173 171.972 172.052 182.326 170.455C183.457 170.28 184.563 169.879 185.22 169.405C186.004 168.839 186.284 168.753 186.284 169.076C186.284 169.777 184.567 170.743 182.773 171.051C171.017 173.075 167.204 172.953 162.983 170.42C161.376 169.455 157.184 165.8 157.184 165.363C157.184 164.843 157.732 165.213 160.146 167.365ZM109.877 166.617C115.987 167.368 122.919 170.338 126.343 173.673C128.144 175.427 127.457 175.508 125.456 173.778C122.087 170.865 116.488 168.393 111.21 167.487C108.535 167.029 103.53 167.019 101.549 167.469C100.058 167.808 99.2286 167.747 99.6698 167.329C99.7596 167.244 100.804 166.98 101.99 166.742C104.325 166.275 106.77 166.236 109.877 166.617ZM108.912 170.595C112.031 171.236 116.5 173.267 121.127 176.145C123.491 177.616 126.058 179.095 126.833 179.432C128.477 180.148 128.775 180.082 122.037 180.495C119.313 180.663 116.294 181.017 115.328 181.282C112.003 182.197 107.674 181.215 101.693 178.191C100.118 177.394 98.1501 176.502 97.3212 176.209C95.8593 175.691 93.7266 174.135 94.0545 173.825C94.1437 173.74 94.8521 174.077 95.629 174.573C96.406 175.069 97.1563 175.475 97.2965 175.475C97.4367 175.475 99.6786 176.474 102.278 177.694C105.152 179.043 108.052 180.169 109.675 180.566L112.345 181.218L115.345 180.567C116.996 180.208 119.305 179.907 120.477 179.897C121.65 179.888 123.172 179.784 123.86 179.665L125.112 179.451L120.847 176.77C114.16 172.569 108.986 170.716 104.049 170.757C102.238 170.771 100.794 171.046 97.1075 172.078C96.3744 172.283 96.3575 172.265 96.8381 171.783C98.2574 170.363 104.698 169.729 108.912 170.595ZM165.085 184.821C166.224 185.906 163.325 193.916 161.068 195.922C159.874 196.983 159.946 196.476 161.25 194.641C162.784 192.483 164.37 188.603 164.641 186.348C164.756 185.386 164.956 184.698 165.085 184.821ZM57.8198 197.451C57.7003 197.817 57.0498 199.002 56.3746 200.084C55.6993 201.166 55.0044 202.538 54.8304 203.134C54.1786 205.367 56.3702 207.854 61.7862 211.027C66.0616 213.531 66.8789 213.944 67.5685 213.948C67.929 213.95 69.864 213.152 71.8681 212.176L75.5118 210.4L78.8783 210.395C80.9234 210.393 82.5451 210.248 83.0098 210.025C84.7714 209.182 85.7586 205.737 84.7617 203.914C84.1619 202.817 84.354 202.353 85.1119 203.07C85.7758 203.698 86.0011 206.082 85.5474 207.676C85.3491 208.373 84.7855 209.368 84.2955 209.886L83.4047 210.83L79.3742 210.998L75.3438 211.167L71.9713 212.855C67.6443 215.022 67.132 215.032 63.8019 213.021C56.8045 208.796 55.2922 207.589 54.3664 205.493C53.7021 203.989 53.822 203.23 55.0707 201.024C55.6993 199.914 56.4885 198.506 56.8242 197.895C57.491 196.682 58.1697 196.38 57.8198 197.451ZM157.157 200.157C157.436 200.476 157.404 200.678 157.016 201.045C156.392 201.636 156.116 201.642 155.62 201.077C155.309 200.722 155.309 200.543 155.62 200.189C156.107 199.634 156.687 199.622 157.157 200.157ZM52.8488 215.891C53.3742 216.136 55.275 217.471 57.073 218.857C63.4417 223.768 66.4959 224.608 78.6464 224.793C83.0348 224.86 86.5894 225.012 86.5453 225.131C86.5011 225.25 82.9106 225.34 78.5663 225.333C65.8833 225.31 63.1736 224.536 55.9819 218.88C54.6164 217.806 53.0325 216.717 52.4618 216.461C51.891 216.205 51.4242 215.869 51.4242 215.714C51.4242 215.329 51.7264 215.367 52.8488 215.891ZM62.0866 229.222C63.8044 230.962 65.3363 231.176 69.4159 230.248C72.3374 229.584 73.3105 229.932 70.6206 230.68C68.49 231.272 65.2888 231.576 64.1157 231.297C63.269 231.096 60.8112 229.176 60.8112 228.716C60.8112 228.242 61.3162 228.443 62.0866 229.222ZM93.1556 295.714C93.532 297.044 93.3533 304.479 92.8949 306.539C91.6877 311.968 89.1955 316.697 82.4181 326.422C80.2015 329.603 78.4365 332.8 77.3901 335.532C76.6833 337.378 76.1432 338.121 76.1432 337.249C76.1432 336.59 77.4621 333.378 78.6458 331.154C79.2081 330.098 81.2979 326.836 83.2905 323.906C91.179 312.304 92.9947 307.482 92.6543 299.037C92.5053 295.35 92.6953 294.09 93.1556 295.714ZM213.055 303.012C212.958 303.16 211.155 304.282 209.047 305.506C197.352 312.297 193.447 316.805 190.29 327.162C187.534 336.206 187.985 340.814 192.009 344.727C192.904 345.597 195.538 347.587 197.861 349.149C203.008 352.608 206.234 355.492 208.029 358.239C209.74 360.856 211.142 363.998 210.76 364.358C210.589 364.521 210.069 363.71 209.455 362.321C207.229 357.287 204.584 354.505 197.555 349.804C192.306 346.293 190.262 344.395 188.985 341.845C188.042 339.964 188.006 339.746 188.032 336.189C188.056 332.935 188.195 332.004 189.184 328.466C192.483 316.662 196.416 311.99 209.311 304.563C212.243 302.874 213.48 302.361 213.055 303.012ZM301.431 355.743C305.453 356.149 311.131 358.223 311.131 359.286C311.131 359.705 310.934 359.648 309.566 358.831C308.884 358.424 307.232 357.726 305.895 357.281C303.487 356.478 303.389 356.471 295.329 356.467C288.505 356.464 286.79 356.552 284.691 357.012C277.001 358.698 271.914 361.927 265.972 368.894C264.583 370.522 261.6 373.852 259.341 376.293C249.473 386.965 247.157 390.339 244.329 398.17C242.576 403.022 241.67 407.199 241.454 411.421C241.199 416.384 241.59 418.522 244.027 425.518C247.212 434.662 249.967 439.549 254.429 443.971C257.255 446.773 256.897 447.35 254.03 444.612C251.555 442.247 248.748 438.368 247.012 434.913C245.342 431.587 241.816 421.756 241.21 418.735C240.183 413.615 240.726 407.44 242.806 400.579C245.582 391.423 248.689 386.669 259.357 375.258C261.107 373.386 263.485 370.722 264.641 369.338C270.776 361.994 276.677 358.07 283.991 356.47C288.264 355.535 296.126 355.207 301.431 355.743ZM215.933 373.734C218.827 376.522 220.864 380.703 222.737 387.693C224.977 396.047 225.019 403.047 222.873 410.035C221.751 413.689 218.114 423.205 217.839 423.205C217.39 423.205 217.51 422.797 219.559 417.368C223.044 408.129 224.049 403.376 223.739 397.604C223.431 391.875 220.975 382.755 218.557 378.367C217.93 377.228 216.537 375.414 215.462 374.335C214.386 373.256 213.506 372.29 213.506 372.188C213.506 371.66 214.316 372.176 215.933 373.734ZM59.5596 413.65C59.5596 413.794 59.4313 414.038 59.2748 414.193C58.5235 414.934 55.7422 420.737 55.0413 423.025C53.9621 426.548 53.8097 429.058 54.2049 436.82C54.6858 446.26 56.624 462.208 57.8483 466.796C58.6559 469.824 61.4523 474.9 63.4689 477C65.2296 478.833 70.5095 482.988 74.7352 485.866C79.6721 489.228 89.7988 494.15 95.2301 495.827C104.341 498.641 110.777 499.208 116.571 497.71C120.109 496.795 123.216 495.388 125.543 493.648C126.452 492.968 127.29 492.504 127.406 492.616C127.808 493.006 124.777 495.163 121.983 496.475C117.654 498.507 115.006 499.074 109.78 499.09C105.832 499.101 104.982 499.004 101.175 498.11C98.8519 497.565 95.543 496.66 93.822 496.101C90.4011 494.988 81.66 490.841 77.2262 488.228C73.1141 485.804 67.3179 481.477 64.0459 478.389C61.4823 475.968 60.9955 475.326 59.4378 472.308C57.3837 468.328 56.7616 466.011 55.6702 458.278C54.1379 447.423 53.5876 440.998 53.5216 433.192C53.4671 426.808 53.5394 425.443 54.0163 423.808C55.1208 420.023 58.2316 413.806 59.1684 413.512C59.3834 413.444 59.5596 413.507 59.5596 413.65ZM97.1094 434.674C97.1131 439.816 98.6936 441.714 103.835 442.751C106.36 443.26 106.861 443.758 104.612 443.523C100.468 443.09 97.5652 441.221 96.8471 438.522C96.3969 436.832 96.359 432.381 96.7946 432.381C96.9761 432.381 97.1081 433.344 97.1094 434.674ZM193.168 517.999C187.343 521.643 178.632 525.468 171.578 527.48C164.567 529.479 158.952 530.141 143.436 530.797C131.238 531.314 128.26 531.62 116.194 533.596C98.4282 536.506 97.2721 536.652 93.5091 536.467C89.509 536.27 84.6741 535.215 78.3485 533.159C72.0126 531.098 68.7441 529.704 62.3187 526.322C59.1037 524.63 56.3104 523.245 56.1114 523.245C55.8717 523.245 55.8073 523.619 55.9205 524.355C56.0147 524.965 56.1843 526.197 56.2976 527.092C56.6249 529.678 57.9187 533.521 59.3315 536.105C61.7045 540.445 68.4218 546.021 74.8654 549C77.7822 550.348 82.216 551.721 86.0108 552.451C90.1054 553.238 109.56 553.144 120.348 552.284C124.517 551.952 131.378 551.543 135.594 551.376C146.844 550.929 155.482 549.853 166.474 547.53C169.539 546.882 174.863 545.883 178.305 545.31C186.644 543.921 189.652 543.281 193.628 542.049C202.618 539.263 204.466 537.464 205.075 530.904C205.604 525.195 204.588 518.988 202.377 514.425L201.33 512.266L198.892 514.105C197.55 515.116 194.975 516.868 193.168 517.999ZM183.781 545.007C180.769 545.559 176.404 546.341 174.081 546.745C171.757 547.149 167.604 547.951 164.85 548.527C154.5 550.694 145.009 551.781 132.465 552.236C128.077 552.395 122.163 552.753 119.323 553.032C111.586 553.792 89.3385 553.803 85.4241 553.05C82.0458 552.399 77.5457 550.998 75.1194 549.841C73.1557 548.904 73.1932 548.886 72.8922 550.918C72.7958 551.569 72.1976 553.098 71.5624 554.314C70.5476 556.258 69.7163 557.174 64.714 561.862C58.9203 567.291 57.1334 569.41 55.4099 572.893C54.6702 574.388 54.4105 575.386 54.3028 577.144C54.1749 579.232 54.2484 579.616 55.1102 581.357C56.7907 584.755 59.6415 586.724 65.0062 588.195C69.971 589.556 76.7684 590.69 81.9319 591.019C87.4558 591.371 89.2856 591.607 94.6043 592.652C101.242 593.956 106.413 594.581 119.167 595.616C135.746 596.962 154.536 596.199 167.337 593.66C175.136 592.113 189.864 587.711 194.987 585.396C205.975 580.431 212.828 573.193 211.33 568.133C210.471 565.229 208.125 563.599 203.156 562.452C197.487 561.143 196.129 560.619 194.3 559.038C191.517 556.632 190.366 553.152 190.357 547.113C190.352 543.893 190.306 543.62 189.804 543.804C189.503 543.913 186.792 544.455 183.781 545.007ZM207.058 562.701C208.837 563.759 210.31 564.99 211.151 566.122C211.992 567.253 212.098 567.634 212.098 569.522C212.098 571.346 211.945 571.943 211.024 573.714C208.867 577.862 202.654 582.67 194.995 586.118C191.25 587.805 186.418 589.38 176.897 592.019C169.864 593.968 166.594 594.622 159.039 595.59C150.825 596.642 145.96 596.941 136.997 596.942C128.097 596.942 122.514 596.648 111.344 595.588C102.7 594.768 99.3769 594.318 94.1825 593.264C89.5366 592.321 86.9376 591.99 81.1631 591.608C74.0346 591.136 64.178 589.082 60.4022 587.281C57.1919 585.749 55.0835 583.627 54.0532 580.889C53.5228 579.479 53.4408 576.286 53.8974 574.818C54.0619 574.289 54.1007 573.857 53.9837 573.858C53.4061 573.862 49.1109 576.171 46.9566 577.636C44.092 579.584 39.5534 583.945 37.8581 586.378C34.737 590.858 33.1963 595.466 33.1875 600.346C33.1809 604.08 33.9294 606.687 35.9382 609.929C37.3215 612.162 41.9005 616.749 44.9512 618.959C50.6254 623.07 53.5529 624.303 67.194 628.327C82.5802 632.866 85.8503 633.445 103.831 634.821C112.561 635.489 119.026 635.562 130.116 635.118C139.223 634.754 141.937 634.5 150.613 633.195C154.313 632.639 159.171 631.978 161.408 631.725C168.182 630.962 170.504 630.455 177.679 628.176C184.971 625.859 187.412 625.382 195.201 624.752C203.091 624.114 207.618 622.835 215.761 618.945C227.684 613.249 231.53 609.256 234.529 599.455C235.154 597.413 235.251 596.443 235.242 592.355C235.234 588.207 235.127 587.222 234.384 584.421C232.644 577.864 229.943 573.407 225.004 568.94C220.115 564.519 214.767 562.386 208.5 562.357C206.805 562.35 206.565 562.407 207.058 562.701Z" fill="black" fill-opacity="0.5"/>
</svg>
