<svg width="595" height="889" viewBox="0 0 595 889" fill="none" xmlns="http://www.w3.org/2000/svg">
<path fill-rule="evenodd" clip-rule="evenodd" d="M337.273 218.603C338.592 218.938 342.405 219.819 345.747 220.561C356.618 222.974 358.558 224.287 362.465 231.873C363.802 234.469 365.373 237.424 365.956 238.439L367.015 240.285L368.852 239.68C371.467 238.819 377.153 238.85 380.281 239.742C381.511 240.093 383.382 240.379 384.438 240.379C386.559 240.378 387.301 240.051 390.113 237.881C393.544 235.233 398.615 233.984 403.491 234.586C406.891 235.005 409.193 235.743 412.718 237.544C419.444 240.98 424.186 245.149 426.584 249.734C427.81 252.077 427.926 252.501 427.917 254.596C427.908 256.761 427.812 257.069 426.215 260.035C423.642 264.813 423.657 264.318 426.052 265.81C428.502 267.336 429.598 268.592 434.258 275.22C439.789 283.086 440.163 284.156 440.554 293.246C440.783 298.587 440.99 300.337 441.845 304.152C443.241 310.379 443.13 311.388 440.488 316.529C438.707 319.993 438.491 320.612 438.528 322.134C438.552 323.171 438.9 324.659 439.411 325.916C441.199 330.313 440.862 332.707 437.642 338.462C436.007 341.384 435.822 341.87 436.345 341.87C437.246 341.87 438.561 342.97 439.367 344.398C440.034 345.579 440.078 346.039 440.087 351.867C440.093 356.074 440.271 359.21 440.638 361.587C441.476 367.025 440.986 368.858 435.985 378.989C432.893 385.254 431.014 388.32 427.897 392.195C421.925 399.615 415.849 404.406 411.591 405.051L410.305 405.246L409.72 407.413C408.884 410.505 408.052 412.128 405.189 416.245C401.699 421.266 393.348 431.662 391.252 433.596C390.237 434.532 388.885 435.422 387.985 435.745L386.451 436.297L386.492 440.662C386.591 450.975 388.133 455.369 393.541 460.742C394.866 462.058 397.461 464.308 399.308 465.743C401.154 467.176 404.851 470.083 407.523 472.202C414.351 477.616 417.565 479.815 426.328 485.07C430.549 487.601 436.305 491.073 439.118 492.786C450.456 499.686 453.987 501.587 462.142 505.18C472.085 509.561 474.76 511.209 484.135 518.735C487.339 521.307 493.158 525.571 497.064 528.21C511.51 537.968 523.22 546.646 531.535 553.756C542.215 562.886 545.243 567.671 549.399 581.987C549.839 583.501 551.157 586.704 552.329 589.106C556.293 597.233 557.002 599.595 557 604.679C556.998 612.013 554.197 620.372 549.59 626.794C545.246 632.85 541.746 635.654 523.856 647.406C517.2 651.778 514.439 653.875 510.868 657.268C505.352 662.51 504.142 664.378 496.886 678.842C493.463 685.666 491.438 688.297 478.798 702.355C474.21 707.457 468.37 714.085 465.821 717.082C459.642 724.348 457.582 726.354 451.909 730.627C445.378 735.545 437.702 741.491 437.518 741.772C437.435 741.9 437.857 743.007 438.455 744.235C440.812 749.069 441.913 755.914 441.271 761.734C440.521 768.53 438.702 770.342 429.685 773.284L426.328 774.379L426.231 777.085C426.178 778.573 426.28 780.827 426.457 782.094C427.59 790.156 431.932 792.918 443.753 793.097C447.905 793.159 449.075 793.284 450.95 793.863C457.551 795.902 462.725 799.881 467.035 806.233C468.674 808.65 470.036 811.75 471.136 815.566C471.919 818.286 472.003 819.084 472.027 824.022C472.058 830.093 471.778 831.599 469.756 836.273C466.63 843.498 462.427 847.144 451.044 852.502C442.657 856.45 439.018 857.429 429.685 858.251C422.494 858.885 418.832 859.597 413.43 861.414C405.447 864.099 404.034 864.424 396.909 865.213C394.447 865.485 389.339 866.175 385.558 866.745C376.399 868.126 374.166 868.348 365.892 868.704C350.361 869.373 337.987 868.927 323.204 867.168C314.436 866.125 311.757 865.501 296.676 860.991C285.583 857.673 282.386 856.287 276.932 852.43C273.739 850.172 269.472 846.054 267.681 843.502C266.856 842.325 265.741 840.187 265.205 838.751C264.324 836.394 264.23 835.787 264.231 832.505C264.232 828.08 264.919 825.456 267.243 820.993C269.186 817.263 272.121 813.737 275.644 810.904C278.659 808.478 283.037 805.775 285.24 804.978C286.526 804.513 286.86 804.191 287.876 802.44C289.651 799.381 291.336 797.497 297.096 792.134C301.665 787.881 302.543 786.908 303.538 785.001C304.265 783.607 304.749 782.184 304.85 781.14L305.01 779.488L302.036 777.615C296.044 773.844 292.823 770.632 290.544 766.158C289.082 763.288 287.806 758.75 287.507 755.357L287.293 752.92L280.226 749.649C271.627 745.668 268.383 743.553 267.118 741.104C265.472 737.917 265.733 733.701 268.012 726.676C270.252 719.769 270.361 715.695 268.404 711.951C266.311 707.945 264.045 705.797 253.655 697.973C247.886 693.629 243.165 689.2 240.48 685.611C236.588 680.41 233.018 672.628 231.566 666.183C230.769 662.639 230.821 656.137 231.677 652.398C233.265 645.47 236.452 639.583 243.403 630.737C245.326 628.291 246.262 626.773 246.924 625.027C247.42 623.72 248.762 621.198 249.906 619.423C254.683 612.011 255.85 607.852 256.681 595.292C257.121 588.646 257.505 586.231 258.656 582.879C259.991 578.991 264.495 570.502 267.58 566.056C271.012 561.111 277.129 555.296 285.791 548.743C294.16 542.412 296.758 539.794 299.165 535.266C301.274 531.297 302.24 525.226 301.475 520.738C301.257 519.454 299.792 514.64 298.221 510.041C296.649 505.442 294.439 498.472 293.31 494.552C292.181 490.632 290.521 485.452 289.621 483.04C288.721 480.628 287.56 477.098 287.04 475.195C286.233 472.244 285.918 471.556 284.892 470.5C283.035 468.589 281.442 466.417 277.329 460.19C272.836 453.388 271.164 450.119 269.612 445.108C268.98 443.063 267.544 438.528 266.422 435.028C264.084 427.74 261.409 418.268 260.486 414.01C260.003 411.785 259.818 409.446 259.705 404.127C259.55 396.886 259.384 395.546 258.106 391.251C256.836 386.987 256.661 385.643 256.413 378.224C256.114 369.313 256.095 369.272 251.256 366.774C246.654 364.398 244.926 362.435 244.211 358.767C243.685 356.074 244.267 353.606 246.507 349.019C248.853 344.217 249.516 341.88 249.972 336.81C250.67 329.047 250.999 326.831 251.781 324.601C252.832 321.607 254.857 318.119 258.548 312.943C260.21 310.614 261.767 308.177 262.009 307.528C262.314 306.708 262.448 304.806 262.448 301.293C262.448 297.065 262.336 295.844 261.76 293.833C260.773 290.388 260.818 287.612 261.891 285.639C262.354 284.788 263.126 283.649 263.607 283.108C264.325 282.298 264.412 282.035 264.097 281.626C262.259 279.238 261.944 276.297 263.259 273.797C264.738 270.985 268.605 267.902 279.553 260.81C285.393 257.026 290.325 252.703 291.629 250.226C292.067 249.393 292.748 247.348 293.142 245.682C294.406 240.34 296.02 237.936 300.708 234.405C302.265 233.233 304.761 231.218 306.256 229.928C310.392 226.357 311.857 225.51 318.016 223.122C319.823 222.421 322.557 221.193 324.091 220.392C325.625 219.591 327.662 218.716 328.618 218.449C330.936 217.798 334.341 217.859 337.273 218.603ZM328.587 219.19C327.515 219.532 325.486 220.431 324.079 221.188C322.672 221.944 320.065 223.108 318.285 223.774C313.535 225.552 311.18 226.814 308.494 229.02C307.175 230.103 304.585 232.18 302.739 233.634C296.377 238.645 295.022 240.508 293.833 245.882C293.477 247.491 292.822 249.488 292.377 250.32C290.646 253.557 287.111 256.693 279.866 261.417C266.192 270.336 263.102 273.215 263.102 277.038C263.102 279.81 265.244 282.404 268.803 283.939C269.951 284.435 270.405 284.759 270.056 284.835C269.494 284.957 267.458 284.159 265.862 283.191C264.959 282.643 264.958 282.643 264.155 283.551C261.756 286.265 261.309 288.962 262.489 293.6C263.411 297.228 263.544 305.892 262.706 307.825C262.409 308.513 260.677 311.171 258.858 313.733C255.24 318.828 252.845 323.144 252.07 325.965C251.796 326.965 251.354 330.168 251.089 333.084C250.236 342.453 249.978 343.546 247.373 348.815C245.373 352.863 244.861 354.533 244.861 357.019C244.861 361.213 246.635 363.62 251.621 366.191C254.702 367.781 256.198 369.174 256.647 370.874C256.813 371.501 257.029 374.877 257.126 378.376C257.304 384.763 257.714 387.791 258.888 391.403L259.479 393.221L259.673 391.857C259.781 391.108 259.959 389.54 260.07 388.373C260.182 387.207 260.692 383.799 261.205 380.8C261.771 377.485 262.218 373.48 262.342 370.586C262.472 367.576 262.664 365.894 262.863 366.011C263.47 366.366 262.861 375.605 261.845 381.457C261.32 384.485 260.73 388.847 260.536 391.152C260.073 396.629 260.31 409.071 260.942 412.458C261.606 416.013 264.794 427.809 266.295 432.261C266.977 434.283 268.333 438.573 269.309 441.796C271.932 450.449 272.828 452.22 280.049 462.999C283.428 468.043 285.128 470.063 287.557 471.92C294.076 476.904 302.136 478.43 312.811 476.702C318.899 475.716 327.283 473.625 332.352 471.827C341.785 468.483 342.632 467.861 362.047 450.021C365.041 447.27 369.362 443.44 371.648 441.51C378.393 435.816 379.092 434.907 380.939 429.424C381.585 427.508 383.031 423.793 384.154 421.169C386.668 415.292 387.365 412.952 387.778 409.015C388.47 402.406 389.153 390.392 388.979 387.86C388.804 385.291 389.139 384.271 389.594 385.989C390.084 387.839 388.808 408.966 387.986 412.61C387.403 415.196 386.794 416.867 384.508 422.153C383.536 424.402 382.351 427.47 381.877 428.969C380.003 434.89 378.854 436.418 371.812 442.341C369.264 444.484 362.844 450.224 357.546 455.096C346.86 464.921 344.407 466.974 341.163 468.799C336.902 471.197 330.054 473.613 322.25 475.47C309.023 478.619 302.417 478.91 295.272 476.659C292.625 475.825 288.304 473.716 287.867 473.045C287.759 472.881 287.549 472.746 287.399 472.746C286.953 472.746 287.895 476.034 290.115 482.221C291.264 485.425 292.999 490.84 293.971 494.256C294.942 497.672 297.038 504.284 298.627 508.949C302.041 518.968 302.407 520.45 302.409 524.249C302.413 532.096 299.239 538.624 292.666 544.287C291.787 545.045 288.477 547.621 285.311 550.011C277.28 556.076 271.609 561.503 268.228 566.359C265.351 570.492 260.756 579.074 259.431 582.79C258.237 586.14 258 587.567 257.48 594.534C256.448 608.362 255.432 612.159 250.894 619.161C249.171 621.819 247.419 625.098 247.419 625.665C247.419 626.136 253.845 618.487 255.932 615.533C256.895 614.169 259.201 610.284 261.055 606.899C265.302 599.148 266.798 596.65 271.362 589.687C276.143 582.394 278.099 578.633 283.496 566.359C288.768 554.372 288.686 554.544 289.077 554.544C289.518 554.544 289.501 554.586 284.352 566.208C278.792 578.756 277.309 581.709 273.89 587.041C272.477 589.246 270.186 592.822 268.799 594.989C267.412 597.155 264.821 601.585 263.04 604.835C257.441 615.052 256.322 616.685 249.657 624.375C243.099 631.942 238.466 638.226 235.919 643.007C229.997 654.127 230.333 666.065 236.922 678.575C240.756 685.853 245.36 690.794 255.399 698.404C263.169 704.294 265.567 706.432 267.538 709.224C269.88 712.54 270.289 713.934 270.247 718.443C270.214 721.985 270.125 722.493 268.874 726.319C267.148 731.602 266.437 735.922 266.901 738.304C267.714 742.468 269.796 744.064 281.478 749.479C285.877 751.518 291.201 754.114 293.31 755.249C301.579 759.7 308.172 762.375 316.401 764.62C325.81 767.185 326.836 767.149 349.904 763.422C362.531 761.382 366.026 761.04 379.322 760.536C398.943 759.792 407.197 758.045 420.092 751.908C427.048 748.597 430.51 746.339 439.598 739.184C442.5 736.9 447.105 733.383 449.831 731.369C456.106 726.733 459.396 723.604 465.177 716.776C469.371 711.823 475.847 704.515 483.564 696.024C490.323 688.588 493.296 684.431 496.737 677.604C503.032 665.113 503.406 664.464 506.195 661.184C510.752 655.826 514.727 652.531 523.757 646.624C539.515 636.319 544.447 632.444 548.312 627.338C553.607 620.343 556.574 611.391 556.222 603.471C556.028 599.093 555.516 597.4 552.463 591.05C549.643 585.186 548.641 582.685 547.546 578.78C545.16 570.274 542.229 564.95 537.141 559.88C534.195 556.945 525.979 549.885 521.809 546.706C516.243 542.463 502.846 532.906 497.316 529.233C491.925 525.653 487.759 522.561 480.368 516.655C474.02 511.582 470.464 509.539 460.318 505.135C455.256 502.937 449.764 500.034 443.755 496.378C441.205 494.827 435.017 491.112 430.005 488.123C419.794 482.035 415.574 479.299 411.089 475.857C402.367 469.165 396.623 464.553 394.079 462.195C388.089 456.645 385.902 451.61 385.884 443.33C385.88 441.73 385.786 439.395 385.674 438.139L385.47 435.857L384.235 435.506C383.555 435.314 383 434.964 383 434.729C383 434.364 383.161 434.366 384.109 434.741C385.521 435.3 387.581 435.303 388.691 434.749C390.18 434.004 393.005 430.979 397.431 425.387C399.783 422.417 402.058 419.486 402.488 418.873C402.918 418.261 404.12 416.552 405.16 415.075C407.342 411.974 407.975 410.713 408.848 407.722L409.479 405.56L406.552 405.422C404.699 405.335 402.937 405.048 401.753 404.642C399.817 403.977 395.725 401.701 394.24 400.461C392.729 399.2 394.101 399.692 396.877 401.407C398.367 402.326 400.566 403.445 401.765 403.894C403.674 404.608 404.381 404.708 407.462 404.698C411.491 404.686 413.176 404.21 416.622 402.113C420.845 399.543 428.436 391.232 431.682 385.624C433.385 382.681 438.278 372.736 439.273 370.196C440.269 367.651 440.446 364.193 439.787 360.138C439.396 357.732 439.276 355.36 439.344 351.398C439.433 346.299 439.395 345.883 438.742 344.728C438.359 344.05 437.801 343.303 437.503 343.068C436.667 342.411 434.834 342.568 432.764 343.473C430.913 344.282 428.406 344.58 428.406 343.991C428.406 343.824 428.874 343.688 429.446 343.689C430.017 343.689 431.502 343.257 432.744 342.728L435.004 341.767L436.974 338.235C439.215 334.216 440.076 331.553 439.747 329.654C439.627 328.958 439.098 327.161 438.573 325.662C437.276 321.96 437.418 320.842 439.745 316.446C442.041 312.109 442.334 310.682 441.69 306.975C441.42 305.422 440.98 303.334 440.711 302.334C440.419 301.247 440.1 297.863 439.915 293.909C439.595 287.076 439.233 284.983 437.871 282.088C436.796 279.804 430.22 270.553 428.297 268.619C426.554 266.866 424.404 265.399 423.961 265.659C423.815 265.744 423.524 266.643 423.313 267.658C422.792 270.168 421.956 271.911 420.581 273.352C419.3 274.696 417.534 275.506 417.534 274.75C417.534 274.509 417.745 274.311 418.003 274.311C418.837 274.311 420.686 272.492 421.492 270.879C421.924 270.014 422.507 268.148 422.788 266.734C423.159 264.869 423.847 263.08 425.293 260.224C427.085 256.683 427.284 256.099 427.264 254.447C427.209 249.889 422.401 243.92 415.544 239.899C408.972 236.045 405.79 235.079 400.433 235.312C396.131 235.499 394.165 236.054 391.558 237.817C385.881 241.655 385.68 241.705 380.475 240.526C377.404 239.83 376.35 239.727 373.302 239.825C370.319 239.921 369.479 240.06 368.213 240.667C367.378 241.067 366.644 241.336 366.581 241.266C366.517 241.195 364.932 238.165 363.059 234.533C358.995 226.654 357.984 225.438 354.061 223.699C352.654 223.076 350.136 222.265 348.465 221.899C346.794 221.532 342.909 220.64 339.831 219.916C333.473 218.42 331.416 218.287 328.587 219.19ZM346.261 227.635C347.668 228.473 348.785 230.158 348.785 231.444C348.785 232.045 346.98 233.924 346.678 233.638C346.546 233.512 346.75 233.095 347.131 232.71C348.486 231.343 347.845 229.291 345.688 228.094C344.921 227.667 344.376 227.19 344.479 227.033C344.714 226.672 344.547 226.615 346.261 227.635ZM341.865 230.427C343.229 232.399 343.158 234.414 341.641 236.811C340.438 238.713 337.795 241.403 337.288 241.243C336.996 241.151 337.511 240.415 338.844 239.022C339.939 237.876 341.114 236.423 341.453 235.793C342.199 234.409 342.248 232.497 341.571 231.256C340.921 230.065 341.157 229.402 341.865 230.427ZM318.087 239.109C318.087 239.243 317.579 239.819 316.957 240.39C316.336 240.961 315.393 242.157 314.861 243.049C313.871 244.712 311.51 247.348 311.012 247.348C310.435 247.348 310.768 246.694 311.772 245.854C312.343 245.376 313.304 244.187 313.907 243.212C315.433 240.744 318.087 238.138 318.087 239.109ZM403.359 243.693C406.776 244.858 409.209 247.018 410.036 249.62C411.089 252.934 409.263 255.729 403.002 260.391C395.737 265.802 393.449 267.763 392.617 269.294C391.561 271.239 391.599 273.401 392.74 276.243C393.201 277.389 393.497 278.402 393.399 278.495C393.068 278.809 392.666 278.105 391.793 275.675C390.741 272.75 390.827 270.758 392.094 268.709C392.866 267.462 398.68 262.606 403.957 258.8C407.982 255.899 409.699 253.405 409.47 250.795C409.225 247.988 406.963 245.764 402.859 244.293C401.414 243.775 400.632 243.682 398.828 243.816C396.825 243.965 396.655 243.936 397.21 243.545C398.085 242.928 401.347 243.006 403.359 243.693ZM338.732 246.174C341.491 248.956 347.046 249.407 347.507 246.885C347.598 246.39 347.814 246.026 347.989 246.077C348.587 246.251 348.169 247.803 347.34 248.484C346.228 249.398 343.184 249.424 341.11 248.536C339.737 247.949 337.273 245.979 337.273 245.469C337.273 244.986 337.813 245.248 338.732 246.174ZM317.927 250.897C321.471 251.325 325.656 253.516 328.678 256.525C331.459 259.294 330.962 259.677 328.08 256.987C325.144 254.245 323.134 252.993 320.372 252.184C316.418 251.027 313.178 251.612 310.653 253.94C309.888 254.645 309.454 254.88 309.454 254.588C309.454 253.893 311.359 252.297 312.971 251.641C314.547 251 316.436 250.717 317.927 250.897ZM305.377 250.874C306.539 251.194 305.869 251.589 304.165 251.589C300.991 251.589 299.016 253.042 297.196 256.714C296.315 258.493 296.212 259.042 295.99 263.165C295.694 268.632 295.22 270.198 293.385 271.769C291.688 273.221 291.466 272.688 293.092 271.069C294.572 269.594 295.062 268.022 295.071 264.709C295.088 258.139 297.207 253.336 300.869 251.566C302.139 250.952 304.398 250.605 305.377 250.874ZM365.746 254.226C367.042 255.624 368.425 258.391 369.268 261.272C370.089 264.082 370.671 265.135 372.074 266.354C373.405 267.511 373.232 268.001 371.827 267.053C370.494 266.154 369.474 264.367 368.448 261.135C367.458 258.017 366.506 256.132 365.164 254.632C364.256 253.617 364.216 253.604 363.872 254.214C363.676 254.56 363.091 256.234 362.57 257.935C362.05 259.636 361.29 261.492 360.88 262.061C360.071 263.185 357.61 264.606 357.196 264.187C357.054 264.044 357.112 263.869 357.323 263.797C358.257 263.48 359.858 262.251 360.486 261.368C360.862 260.839 361.406 259.516 361.694 258.429C361.982 257.341 362.516 255.698 362.879 254.777C363.68 252.75 364.273 252.635 365.746 254.226ZM318.868 257.408C320.414 257.811 323.204 260.334 323.204 261.33C323.204 262.066 323.139 262.019 321.808 260.297C319.598 257.437 315.004 257.116 313.03 259.684C312.675 260.147 312.274 260.421 312.139 260.294C311.8 259.972 313.007 258.512 314.125 257.891C315.363 257.205 317.323 257.005 318.868 257.408ZM343.328 260.544C344.893 262.609 345.568 263.102 346.835 263.102C347.872 263.102 347.921 263.141 347.447 263.59C346.515 264.473 344.818 263.643 343.17 261.497C342.389 260.48 341.75 259.539 341.75 259.406C341.75 258.825 342.356 259.263 343.328 260.544ZM290.587 259.471C290.587 259.64 289.886 260.696 289.029 261.819C286.66 264.921 286.143 266.108 285.617 269.664C285.354 271.437 284.876 273.446 284.555 274.129C283.634 276.088 281.074 278.157 280.411 277.478C280.292 277.357 280.389 277.192 280.626 277.112C281.564 276.797 283.37 275.003 283.905 273.857C284.215 273.19 284.562 271.895 284.674 270.978C285.249 266.282 285.767 264.97 288.467 261.365C290.026 259.283 290.587 258.781 290.587 259.471ZM307.365 266.358C307.901 268.393 311.342 270.97 313.531 270.976C314.102 270.977 314.57 271.107 314.57 271.264C314.57 272.784 309.559 270.746 307.739 268.486C306.843 267.373 306.27 265.525 306.821 265.525C307 265.525 307.245 265.9 307.365 266.358ZM383.347 268.337C386.454 270.32 386.917 274.976 384.301 277.945C382.964 279.462 382.741 278.866 383.998 277.135C384.854 275.956 385.082 275.313 385.185 273.791C385.294 272.167 385.193 271.716 384.452 270.519C383.931 269.676 383.163 268.936 382.497 268.635C381.894 268.362 381.401 268.029 381.401 267.893C381.401 267.443 382.251 267.637 383.347 268.337ZM332.262 271.786C334.961 273.511 337.837 275.989 337.507 276.307C337.372 276.437 336.725 276.067 336.068 275.485C334.727 274.294 332.984 273.042 330.963 271.818C330.213 271.364 329.599 270.852 329.599 270.682C329.599 270.17 329.98 270.328 332.262 271.786ZM304.691 275.432C305.143 275.899 306.166 277.098 306.963 278.098C309.662 281.484 312.683 283.735 317.653 286.065C319.844 287.092 320.531 287.641 319.627 287.641C318.402 287.641 311.277 283.544 309.294 281.7C307.505 280.036 303.627 275.268 303.759 274.894C303.819 274.724 304.238 274.966 304.691 275.432ZM412.418 277.278C412.418 277.411 411.924 278.263 411.32 279.172C410.717 280.081 409.824 281.428 409.338 282.166C408.225 283.853 407.957 286.365 408.708 288.066C409.29 289.388 409.341 289.762 408.939 289.762C408.599 289.762 407.985 288.412 407.612 286.844C407.198 285.103 407.817 283.004 409.385 280.833C410.145 279.783 410.997 278.5 411.28 277.981C411.753 277.115 412.418 276.704 412.418 277.278ZM300.448 280.555C301.738 281.975 303.641 283.707 304.676 284.404C306.736 285.791 307.351 286.871 305.536 285.916C304.198 285.211 297.622 278.95 297.622 278.38C297.622 277.596 298.075 277.944 300.448 280.555ZM361.895 279.112C361.895 279.253 360.276 279.451 358.298 279.552C352.829 279.831 349.638 280.971 346.283 283.842C345.578 284.445 344.917 284.81 344.814 284.652C344.515 284.192 347.702 281.677 349.851 280.677C350.935 280.173 352.83 279.559 354.061 279.313C356.474 278.831 361.895 278.692 361.895 279.112ZM328.799 279.579C332.368 280.403 336.695 283.402 338.736 286.465C339.611 287.779 339.489 288.593 338.6 287.371C338.31 286.973 337.143 285.705 336.006 284.554C334.466 282.993 333.33 282.175 331.544 281.339C329.251 280.266 329.008 280.219 325.856 280.219C322.494 280.219 321.588 279.815 324.029 279.404C325.782 279.109 326.95 279.152 328.799 279.579ZM291.694 282.648C292.011 283.145 293.003 284.191 293.898 284.973C294.793 285.756 295.439 286.478 295.333 286.578C294.947 286.944 292.315 284.933 291.597 283.722C290.742 282.281 290.83 281.299 291.694 282.648ZM387.926 283.241C388.965 283.646 390.332 284.371 390.964 284.853C392.176 285.777 394.191 288.1 394.191 288.573C394.191 289.181 393.629 288.79 392.693 287.533C391.444 285.854 389.891 284.735 387.569 283.841C386.558 283.451 385.68 282.988 385.617 282.812C385.455 282.35 385.807 282.415 387.926 283.241ZM364.802 285.969C367.942 286.536 371.474 287.744 373.886 289.075C377.461 291.046 381.721 293.761 381.721 294.067C381.721 294.518 381.202 294.264 377.541 292.017C371.47 288.29 368.155 287.054 362.535 286.422C359.955 286.132 353.898 286.403 351.583 286.912C350.224 287.211 350.515 286.508 351.902 286.139C353.993 285.585 362.084 285.478 364.802 285.969ZM280.095 286.202C280.578 287.021 281.634 289.174 281.634 289.34C281.634 289.405 281.494 289.459 281.323 289.459C281.071 289.459 279.076 286.069 279.076 285.641C279.076 285.251 279.754 285.625 280.095 286.202ZM422.858 289.154C424.088 289.624 424.141 290.159 422.93 289.886C422.337 289.752 421.421 289.667 420.895 289.696C419.537 289.771 417.506 291.229 416.603 292.777C415.95 293.897 415.834 294.499 415.849 296.702C415.858 298.134 416.098 300.142 416.381 301.166C416.95 303.229 417.034 304.303 416.625 304.303C416.119 304.303 415.136 299.037 415.154 296.427C415.174 293.483 415.813 291.939 417.6 290.511C419.466 289.021 421.283 288.552 422.858 289.154ZM316.329 294.622C317.911 294.748 321.509 295.006 324.323 295.196C332.798 295.767 338.82 296.413 342.882 297.186C349.58 298.462 360.042 301.908 366.459 304.954C369.478 306.386 380.998 312.664 384.598 314.838C389.694 317.916 395.656 322.972 400.578 328.388C403.83 331.967 414.656 345.138 414.656 345.515C414.656 346.211 414.011 345.585 411.299 342.257C398.126 326.092 393.094 321.053 385.078 315.997C381.64 313.828 369.953 307.371 366.463 305.711C363.003 304.067 355.909 301.401 351.092 299.937C343.92 297.757 339.278 297.015 327.225 296.124C311.653 294.972 309.394 294.884 304.102 295.22C292.37 295.963 284.003 297.863 273.962 302.063C269.16 304.071 268.843 304.175 268.843 303.74C268.843 303.42 272.813 301.679 277.994 299.726C289.022 295.568 303.698 293.614 316.329 294.622ZM369.441 294.919C370.338 295.039 371.633 295.31 372.319 295.521C374.748 296.269 379.69 298.811 382.359 300.685C387.513 304.307 389.983 305.071 397.3 305.31C399.977 305.397 402.318 305.557 402.502 305.665C403.356 306.165 402.179 306.258 397.296 306.077C389.869 305.801 387.119 304.936 381.964 301.256C379.139 299.239 374.216 296.768 371.505 296.005C369.509 295.444 366.282 295.368 364.827 295.848C363.429 296.31 362.799 296.022 363.974 295.458C365.218 294.86 367.395 294.646 369.441 294.919ZM370.556 301.289C373.152 301.872 377.96 304.175 382.003 306.773C387.74 310.458 388.822 310.898 393.103 311.286C395.021 311.459 397.466 311.718 398.536 311.861C400.648 312.143 403.784 313.283 403.784 313.768C403.784 314.089 403.662 314.061 400.827 313.1C399.676 312.709 397.463 312.36 394.911 312.165C388.828 311.701 387.856 311.375 382.84 308.113C376.212 303.804 371.825 301.88 368.628 301.88C366.777 301.88 366.12 301.547 367.197 301.155C367.854 300.916 369.121 300.967 370.556 301.289ZM428.277 302.336C429.357 303.898 429.008 309.018 427.796 309.396C427.49 309.491 427.408 309.381 427.54 309.054C427.648 308.789 427.917 307.739 428.139 306.722C428.495 305.089 428.475 304.693 427.971 303.348C427.318 301.604 427.455 301.148 428.277 302.336ZM329.639 302.502C335.483 302.9 341.153 304.257 349.982 307.37C354.999 309.14 359.108 311.038 368.35 315.854C380.92 322.404 384.659 324.951 392.298 332.167C398.105 337.652 400.436 340.169 408.239 349.385C412.824 354.799 413.953 356.366 412.771 355.674C412.59 355.568 409.885 352.453 406.76 348.751C393.466 333.005 385.688 326.03 374.686 319.987C369.179 316.963 360.201 312.399 356.299 310.641C350.173 307.88 340.742 304.848 335.055 303.812C329.845 302.863 307.662 302.44 297.622 303.099C288.967 303.667 281.6 304.948 276.901 306.704C274.951 307.432 274.919 307.437 274.919 307.015C274.919 306.559 276.656 305.932 281.153 304.764C285.58 303.615 290.01 302.952 296.327 302.494C301.178 302.143 324.447 302.148 329.639 302.502ZM409.434 305.5C412.444 306.189 416.853 310.041 417.685 312.71C418.044 313.864 417.319 313.465 416.581 312.105C415.084 309.344 411.518 306.609 408.854 306.178C408.088 306.054 407.49 305.82 407.525 305.658C407.608 305.267 408.202 305.218 409.434 305.5ZM305.061 308.446C306.427 309.022 308.082 309.561 308.739 309.645C310.826 309.909 311.372 310.063 311.372 310.387C311.372 310.736 309.091 310.524 307.215 310.002C305.074 309.405 302.419 308.156 302.419 307.746C302.419 307.519 302.455 307.348 302.499 307.366C302.543 307.384 303.696 307.87 305.061 308.446ZM293.535 310.438C297.383 313.366 300.738 315.347 304.104 316.68C307.8 318.142 312.7 317.639 315.856 315.473C317.505 314.341 318.016 314.642 316.495 315.849C313.929 317.888 308.962 318.764 305.45 317.796C303.326 317.211 299.758 315.576 297.622 314.209C295.326 312.739 289.308 308.164 289.308 307.887C289.308 307.332 290.007 307.753 293.535 310.438ZM283.274 312.198C287.107 313.058 291.256 315.705 294.453 319.332C298.283 323.677 302.652 326.419 305.742 326.419C306.552 326.419 307.215 326.56 307.215 326.732C307.215 327.786 303.633 327.139 300.821 325.575C298.318 324.184 296.027 322.233 293.61 319.433C290.541 315.88 286.392 313.47 282.134 312.767C280.979 312.577 280.035 312.299 280.035 312.149C280.035 311.819 281.693 311.844 283.274 312.198ZM334.235 314.79C338.249 315.738 340.566 317.909 344.119 324.058C347.786 330.402 350.604 333 355.277 334.345C357.761 335.059 362.684 335.241 367.571 334.797C369.297 334.64 370.209 334.663 370.209 334.863C370.209 335.369 367.446 335.641 362.215 335.651C357.948 335.658 356.94 335.564 354.968 334.977C350.21 333.56 347.244 330.853 343.659 324.658C339.937 318.224 337.962 316.372 333.907 315.511C331.913 315.087 329.082 315.762 326.771 317.212C324.908 318.38 324.056 318.332 325.602 317.146C327.877 315.399 332.023 314.268 334.235 314.79ZM434.482 316.567C434.482 317.34 429.665 321.682 427.892 322.507C426.692 323.066 425.675 323.26 423.52 323.343C420.737 323.45 418.866 323.238 419.264 322.862C419.378 322.754 420.941 322.658 422.739 322.649C426.914 322.628 428.17 322.066 431.824 318.588C433.465 317.026 434.482 316.252 434.482 316.567ZM400.971 318.824C402.952 319.424 405.35 320.652 406.007 321.403C406.652 322.139 405.87 321.988 404.459 321.104C402.537 319.898 399.997 319.107 397.469 318.925C396.194 318.833 395.151 318.641 395.151 318.499C395.151 318.036 399.098 318.257 400.971 318.824ZM269.731 321.591C271.966 322.008 274.03 323.282 278.348 326.908C280.595 328.795 283.131 330.7 283.984 331.141C287.14 332.773 290.752 333.174 294.963 332.36C298.951 331.589 300.266 331.478 300.111 331.924C300.034 332.146 299.55 332.366 299.037 332.414C298.522 332.462 296.965 332.714 295.575 332.974C292.606 333.528 288.99 333.572 287.026 333.077C284.475 332.434 282.088 330.96 277.924 327.456C272.926 323.251 270.906 322.178 267.983 322.178C265.697 322.178 264.31 322.63 262.991 323.804C261.957 324.725 261.809 324.768 261.809 324.149C261.809 323.435 264.243 321.95 265.997 321.594C267.777 321.232 267.811 321.232 269.731 321.591ZM326.081 323.976C329.227 324.886 331.927 327.108 335.127 331.418C339.865 337.803 341.877 339.702 354.7 349.9C356.987 351.718 360.152 354.279 361.735 355.59C365.296 358.541 373.775 367.247 378.667 372.976C381.965 376.836 383.998 378.659 385.638 379.224C386.485 379.517 386.335 380.124 385.478 379.869C383.538 379.294 381.339 377.377 378.38 373.68C373.851 368.024 364.027 358.302 357.771 353.286C348.081 345.517 341.162 339.736 339.537 338.051C338.607 337.088 336.771 334.825 335.456 333.024C332.232 328.606 330.348 326.721 327.937 325.501C326.219 324.631 325.615 324.484 323.843 324.502C320.357 324.537 318.055 325.667 312.894 329.874C309.407 332.717 306.67 334.463 301.027 337.443C293.71 341.308 292.752 341.527 286.266 340.814C279.714 340.095 277.196 340.731 276.075 343.387C275.791 344.059 275.558 344.81 275.558 345.057C275.558 345.304 275.415 345.505 275.239 345.505C274.709 345.505 274.878 344.043 275.551 342.792C276.925 340.241 279.648 339.447 285.097 340.006C289.775 340.486 292.526 340.444 294.324 339.866C296.133 339.284 304.208 335.079 307.391 333.061C308.632 332.275 310.934 330.579 312.508 329.291C314.082 328.004 316.157 326.466 317.12 325.874C320.067 324.064 323.714 323.291 326.081 323.976ZM424.604 331.476C425.068 332.592 425.803 337.115 426.047 340.355C426.358 344.473 425.208 353.23 424.245 354.094C423.942 354.365 423.891 354.24 424.017 353.534C425.018 347.91 425.269 345.708 425.277 342.476C425.287 338.807 424.628 333.462 423.961 331.799C423.753 331.28 423.746 330.92 423.942 330.804C424.112 330.705 424.41 331.007 424.604 331.476ZM274 335.129C272.72 337.38 267.271 339.377 263.309 339.049C261.263 338.879 258.754 337.847 257.012 336.459C255.264 335.066 256.113 335.012 258.186 336.385C260.776 338.099 263.401 338.705 266.239 338.242C268.81 337.823 271.194 336.837 272.738 335.553C274.023 334.484 274.449 334.341 274 335.129ZM256.213 341.736C258.14 343.249 262.351 343.774 265.566 342.903C265.992 342.788 266.285 342.84 266.285 343.032C266.285 343.528 264.125 343.987 261.786 343.989C259.162 343.991 257.113 343.345 255.524 342.015C254.106 340.829 254.734 340.575 256.213 341.736ZM357.099 343.275C360.934 345.544 364.686 345.727 372.348 344.018C379.798 342.357 384.666 342.501 390.619 344.56C393.133 345.429 397.484 347.643 397.885 348.257C398.389 349.029 397.589 348.82 395.688 347.683C390.344 344.485 383.982 343.026 378.301 343.695C376.772 343.875 373.623 344.424 371.305 344.915C366.338 345.967 362.287 346.103 359.794 345.302C357.735 344.64 355.18 343.144 355.18 342.601C355.18 342.366 355.216 342.187 355.26 342.204C355.304 342.221 356.131 342.703 357.099 343.275ZM254.295 347.021C256.296 349 259.131 349.637 263.327 349.051C264.388 348.903 265.006 348.927 265.006 349.117C265.006 350.027 258.119 350.195 256.373 349.327C255.194 348.742 252.855 346.764 252.855 346.353C252.855 345.878 253.39 346.126 254.295 347.021ZM376.125 352.608C380.95 353.799 385.207 355.52 388.99 357.809C392.701 360.054 398.017 362.222 401.116 362.755C402.6 363.01 403.625 362.986 405.723 362.647C409.653 362.013 410.896 361.954 411.056 362.395C411.144 362.64 410.872 362.773 410.286 362.772C409.788 362.77 407.922 363.002 406.139 363.287C403.13 363.767 402.73 363.769 400.543 363.315C397.644 362.711 393.538 361.096 390.175 359.236C385.426 356.61 383.071 355.501 380.021 354.455C375.176 352.794 372.327 352.36 367.573 352.56C363.676 352.724 362.149 352.46 364.693 352.062C367.545 351.615 373.199 351.885 376.125 352.608ZM431.177 356.236C430.614 360.13 430.601 362.542 431.121 366.712C432.047 374.14 431.717 378.964 430.158 380.8C429.655 381.392 429.647 381.389 429.807 380.648C429.897 380.232 430.194 379.145 430.468 378.234C431.109 376.096 431.103 372.058 430.452 367.457C429.759 362.57 430.122 354.897 431.045 354.897C431.247 354.897 431.297 355.408 431.177 356.236ZM377.425 360.831C379.231 361.741 380.803 362.863 383.479 365.152C386.11 367.402 389.195 369.262 391.652 370.077C393.427 370.665 394.343 370.759 398.268 370.749C400.775 370.744 402.825 370.844 402.825 370.972C402.825 371.342 398.146 371.658 395.643 371.457C390.938 371.08 387.623 369.539 382.84 365.503C379.012 362.273 376.112 360.653 374.158 360.653C373.745 360.653 373.407 360.517 373.407 360.35C373.407 359.755 375.876 360.05 377.425 360.831ZM285.151 366.731C287.35 367.237 290.156 368.099 291.387 368.647C295.755 370.592 302.004 375.979 303.717 379.276C304.585 380.946 304.779 381.79 305.189 385.695C305.994 393.352 305.272 399.194 302.405 408.217C301.532 410.966 300.4 415.06 299.891 417.313C298.679 422.675 298.319 423.901 297.884 424.156C297.434 424.42 297.548 423.775 299.041 417.609C299.666 415.026 300.7 411.277 301.338 409.277C303.101 403.755 303.327 402.892 303.993 399.128C304.97 393.612 305.048 391.757 304.524 386.412C304.093 382.018 303.921 381.202 303.084 379.591C301.569 376.676 295.359 371.262 291.31 369.324C289.32 368.372 282.662 366.759 279.682 366.507C278.235 366.385 276.793 366.493 275.1 366.849C272.338 367.432 271.62 367.282 273.511 366.519C274.31 366.197 275.908 365.979 277.957 365.914C280.666 365.828 281.765 365.952 285.151 366.731ZM284.352 373.24C286.721 373.807 289.937 375.333 292.762 377.23C295.254 378.905 299.117 382.363 298.815 382.649C298.701 382.757 297.631 381.996 296.436 380.957C293.915 378.765 288.919 375.576 286.537 374.639C283.129 373.296 278.037 373.214 273.765 374.432C272.921 374.673 272.174 374.816 272.104 374.75C271.429 374.11 275.635 373.091 279.715 372.905C281.496 372.824 283.095 372.939 284.352 373.24ZM389.826 375.621C390.104 376.023 391.158 376.735 392.171 377.204C393.712 377.918 394.505 378.074 397.059 378.163C398.942 378.228 400.934 378.1 402.27 377.828C403.46 377.586 404.505 377.498 404.594 377.634C404.827 377.992 404.489 378.123 402.266 378.537C401.166 378.742 400.272 379.062 400.278 379.248C400.302 380.01 402.14 382.057 403.39 382.711C405.559 383.847 409.211 384.424 411.519 383.994C413.595 383.607 414.171 383.719 413.042 384.291C411.138 385.257 406.084 384.796 403.178 383.391C401.787 382.718 400.373 381.259 399.751 379.852L399.331 378.904L396.362 378.771C393.954 378.663 393.08 378.487 391.745 377.835C390.223 377.094 388.755 375.777 388.755 375.154C388.755 374.649 389.326 374.899 389.826 375.621ZM281.049 377.928C284.931 378.549 288.219 379.859 292.322 382.42C295.538 384.427 298.861 387.782 298.211 388.366C298.151 388.419 297.192 388.251 296.08 387.992C294.4 387.601 293.241 387.568 289.205 387.8C286.536 387.953 283.524 387.976 282.511 387.851C280.434 387.595 278.037 386.548 276.391 385.179C275.244 384.225 273.64 381.548 273.64 380.589C273.64 379.602 274.12 380.016 274.672 381.481C275.474 383.604 276.891 385.03 279.323 386.163L281.466 387.162H289.212H296.956L295.611 385.833C293.858 384.104 289.142 381.194 286.227 380.045C284.961 379.545 282.807 378.957 281.441 378.739C280.075 378.52 278.9 378.179 278.83 377.98C278.69 377.583 278.861 377.579 281.049 377.928ZM342.549 380.832C343.077 380.902 345.379 381.171 347.666 381.43C352.804 382.012 355.738 382.559 359.657 383.666C361.328 384.138 363.09 384.609 363.574 384.712C364.058 384.816 364.453 385.05 364.453 385.232C364.453 385.663 363.017 385.403 359.142 384.274C353.532 382.637 344.459 381.419 339.377 381.619C336.606 381.728 335.572 381.935 332.006 383.091C325.955 385.052 322.995 386.532 321.596 388.296C319.395 391.073 317.877 394.514 316.204 400.517C315.325 403.669 314.447 407.338 314.252 408.671C313.836 411.514 313.708 411.945 313.345 411.732C312.888 411.465 314.191 404.729 315.718 399.467C317.925 391.861 320.475 387.482 323.796 385.596C325.537 384.607 332.284 382.143 335.299 381.395C337.166 380.932 341.037 380.631 342.549 380.832ZM394.66 389.312C397.284 391.654 399.843 393.068 402.514 393.651C405.183 394.234 406.746 394.11 417.327 392.475C418.483 392.296 419.613 391.886 420.285 391.4C421.086 390.821 421.372 390.733 421.372 391.064C421.372 391.781 419.617 392.77 417.784 393.086C405.77 395.157 401.873 395.032 397.56 392.439C395.917 391.452 391.633 387.711 391.633 387.263C391.633 386.731 392.193 387.11 394.66 389.312ZM343.288 388.547C349.532 389.315 356.616 392.355 360.116 395.769C361.956 397.564 361.254 397.647 359.209 395.876C355.766 392.895 350.044 390.364 344.65 389.437C341.917 388.968 336.802 388.958 334.778 389.419C333.253 389.766 332.406 389.703 332.857 389.276C332.949 389.189 334.016 388.918 335.228 388.675C337.614 388.196 340.113 388.157 343.288 388.547ZM342.302 392.618C345.489 393.274 350.057 395.353 354.784 398.299C357.2 399.805 359.825 401.319 360.616 401.664C362.296 402.397 362.601 402.329 355.715 402.752C352.931 402.923 349.846 403.286 348.859 403.558C345.461 404.494 341.037 403.489 334.925 400.394C333.315 399.578 331.304 398.665 330.457 398.365C328.963 397.835 326.783 396.242 327.118 395.924C327.21 395.838 327.934 396.183 328.727 396.69C329.521 397.198 330.288 397.614 330.432 397.614C330.575 397.614 332.866 398.636 335.523 399.885C338.46 401.266 341.423 402.418 343.082 402.824L345.81 403.492L348.877 402.825C350.563 402.458 352.923 402.15 354.121 402.14C355.319 402.131 356.875 402.024 357.578 401.903L358.857 401.683L354.499 398.94C347.666 394.639 342.377 392.743 337.332 392.784C335.482 392.799 334.006 393.08 330.238 394.136C329.489 394.346 329.472 394.327 329.963 393.835C331.414 392.381 337.996 391.732 342.302 392.618ZM399.707 407.18C400.871 408.29 397.909 416.489 395.602 418.543C394.382 419.628 394.456 419.11 395.788 417.232C397.356 415.023 398.977 411.051 399.253 408.743C399.371 407.758 399.576 407.055 399.707 407.18ZM290.089 420.108C289.966 420.483 289.302 421.695 288.612 422.803C287.922 423.91 287.211 425.315 287.034 425.925C286.368 428.211 288.607 430.756 294.142 434.004C298.511 436.567 299.346 436.99 300.051 436.994C300.42 436.996 302.397 436.18 304.445 435.18L308.169 433.362L311.609 433.358C313.699 433.355 315.356 433.206 315.831 432.978C317.632 432.115 318.64 428.59 317.622 426.723C317.009 425.6 317.205 425.126 317.98 425.86C318.658 426.502 318.888 428.943 318.425 430.574C318.222 431.287 317.646 432.306 317.145 432.837L316.235 433.802L312.116 433.975L307.997 434.147L304.551 435.876C300.129 438.093 299.605 438.103 296.202 436.045C289.051 431.72 287.506 430.485 286.559 428.34C285.88 426.801 286.003 426.023 287.279 423.766C287.922 422.629 288.728 421.187 289.071 420.562C289.753 419.321 290.446 419.012 290.089 420.108ZM391.605 422.878C391.891 423.204 391.858 423.411 391.462 423.787C390.824 424.391 390.541 424.397 390.034 423.819C389.717 423.456 389.717 423.273 390.034 422.91C390.532 422.342 391.125 422.33 391.605 422.878ZM285.009 438.983C285.545 439.234 287.488 440.6 289.325 442.019C295.834 447.045 298.955 447.906 311.372 448.095C315.857 448.164 319.489 448.319 319.444 448.441C319.399 448.562 315.73 448.655 311.29 448.647C298.329 448.624 295.56 447.832 288.21 442.042C286.815 440.943 285.196 439.829 284.613 439.567C284.03 439.304 283.553 438.96 283.553 438.801C283.553 438.408 283.862 438.446 285.009 438.983ZM294.449 452.629C296.204 454.409 297.77 454.628 301.939 453.678C304.925 452.998 305.919 453.355 303.17 454.12C300.993 454.726 297.721 455.037 296.523 454.752C295.657 454.547 293.146 452.581 293.146 452.11C293.146 451.625 293.662 451.83 294.449 452.629ZM326.2 520.689C326.584 522.05 326.402 529.66 325.933 531.769C324.7 537.325 322.153 542.167 315.227 552.12C312.961 555.376 311.158 558.649 310.088 561.446C309.366 563.335 308.814 564.096 308.814 563.203C308.814 562.528 310.162 559.24 311.372 556.964C311.946 555.883 314.082 552.545 316.118 549.545C324.18 537.67 326.035 532.734 325.687 524.09C325.535 520.316 325.729 519.027 326.2 520.689ZM448.73 528.159C448.631 528.31 446.788 529.459 444.634 530.711C432.682 537.663 428.692 542.277 425.466 552.878C422.649 562.135 423.11 566.852 427.223 570.857C428.137 571.748 430.829 573.785 433.203 575.383C438.462 578.924 441.759 581.876 443.594 584.688C445.342 587.367 446.775 590.582 446.385 590.952C446.21 591.118 445.679 590.288 445.051 588.867C442.776 583.713 440.074 580.866 432.89 576.054C427.526 572.46 425.437 570.517 424.132 567.907C423.169 565.982 423.131 565.759 423.158 562.118C423.183 558.788 423.325 557.834 424.335 554.213C427.707 542.13 431.726 537.349 444.904 529.746C447.901 528.017 449.165 527.493 448.73 528.159ZM539.045 582.133C543.155 582.549 548.958 584.671 548.958 585.759C548.958 586.189 548.757 586.13 547.359 585.294C546.662 584.877 544.974 584.163 543.608 583.707C541.147 582.886 541.047 582.878 532.81 582.874C525.836 582.871 524.084 582.961 521.938 583.432C514.08 585.158 508.881 588.464 502.808 595.594C501.389 597.261 498.34 600.669 496.032 603.168C485.947 614.091 483.581 617.545 480.69 625.56C478.899 630.527 477.973 634.803 477.752 639.124C477.492 644.204 477.891 646.393 480.382 653.553C483.637 662.913 486.452 667.916 491.012 672.442C493.9 675.31 493.534 675.901 490.605 673.098C488.075 670.678 485.206 666.706 483.433 663.17C481.726 659.766 478.122 649.703 477.503 646.611C476.454 641.37 477.008 635.049 479.134 628.027C481.971 618.654 485.146 613.789 496.049 602.108C497.837 600.192 500.267 597.465 501.448 596.049C507.717 588.532 513.748 584.515 521.222 582.877C525.59 581.92 533.624 581.585 539.045 582.133ZM451.671 600.548C454.628 603.403 456.711 607.681 458.625 614.836C460.913 623.388 460.957 630.553 458.764 637.705C457.617 641.446 453.9 651.187 453.619 651.187C453.161 651.187 453.283 650.769 455.377 645.212C458.938 635.754 459.966 630.889 459.649 624.981C459.334 619.117 456.824 609.783 454.353 605.291C453.713 604.125 452.289 602.268 451.19 601.164C450.09 600.06 449.191 599.071 449.191 598.966C449.191 598.425 450.019 598.954 451.671 600.548ZM291.867 641.406C291.867 641.553 291.735 641.803 291.576 641.962C290.808 642.721 287.965 648.66 287.249 651.002C286.146 654.608 285.99 657.178 286.394 665.123C286.886 674.785 288.866 691.109 290.118 695.806C290.943 698.904 293.801 704.1 295.862 706.25C297.661 708.127 303.057 712.38 307.375 715.325C312.42 718.766 322.769 723.805 328.32 725.521C337.63 728.401 344.208 728.982 350.129 727.448C353.744 726.512 356.92 725.072 359.297 723.291C360.227 722.595 361.084 722.119 361.201 722.234C361.612 722.634 358.516 724.842 355.66 726.184C351.236 728.264 348.529 728.845 343.189 728.861C339.155 728.873 338.285 728.773 334.395 727.858C332.021 727.3 328.64 726.374 326.881 725.801C323.385 724.662 314.452 720.418 309.921 717.743C305.718 715.262 299.795 710.833 296.451 707.671C293.831 705.194 293.334 704.536 291.742 701.447C289.643 697.373 289.007 695.002 287.892 687.087C286.326 675.975 285.763 669.399 285.696 661.409C285.64 654.875 285.714 653.477 286.202 651.803C287.33 647.929 290.509 641.566 291.467 641.264C291.686 641.195 291.867 641.259 291.867 641.406ZM330.24 662.926C330.244 668.189 331.859 670.132 337.113 671.193C339.694 671.714 340.205 672.224 337.907 671.983C333.672 671.54 330.706 669.627 329.972 666.865C329.512 665.135 329.473 660.578 329.919 660.578C330.104 660.578 330.239 661.564 330.24 662.926ZM428.406 748.216C422.454 751.946 413.552 755.861 406.343 757.921C399.179 759.967 393.44 760.644 377.583 761.316C365.118 761.845 362.075 762.158 349.744 764.181C331.588 767.159 330.407 767.309 326.561 767.12C322.473 766.918 317.532 765.838 311.068 763.733C304.593 761.624 301.253 760.197 294.686 756.735C291.401 755.003 288.546 753.585 288.343 753.585C288.098 753.585 288.032 753.968 288.148 754.721C288.244 755.346 288.417 756.607 288.533 757.524C288.867 760.17 290.19 764.104 291.633 766.749C294.059 771.192 300.923 776.899 307.508 779.948C310.489 781.328 315.02 782.733 318.898 783.48C323.083 784.286 342.964 784.19 353.989 783.309C358.25 782.97 365.261 782.551 369.57 782.38C381.066 781.922 389.893 780.821 401.127 778.443C404.26 777.78 409.7 776.757 413.217 776.171C421.74 774.749 424.813 774.094 428.876 772.833C438.064 769.981 439.953 768.14 440.575 761.426C441.116 755.582 440.077 749.229 437.818 744.558L436.748 742.348L434.256 744.23C432.885 745.265 430.253 747.058 428.406 748.216ZM418.813 775.861C415.736 776.426 411.275 777.227 408.901 777.64C406.526 778.053 402.282 778.874 399.468 779.464C388.89 781.682 379.191 782.795 366.372 783.26C361.887 783.423 355.844 783.79 352.942 784.075C345.034 784.853 322.299 784.865 318.299 784.093C314.846 783.428 310.247 781.993 307.768 780.809C305.761 779.85 305.799 779.832 305.492 781.912C305.393 782.578 304.782 784.142 304.133 785.388C303.096 787.377 302.246 788.315 297.134 793.113C291.213 798.671 289.387 800.839 287.626 804.405C286.87 805.935 286.604 806.956 286.494 808.756C286.364 810.893 286.439 811.286 287.319 813.069C289.037 816.546 291.95 818.562 297.433 820.067C302.506 821.46 309.453 822.621 314.73 822.958C320.375 823.318 322.245 823.56 327.68 824.63C334.463 825.965 339.749 826.604 352.782 827.664C369.725 829.042 388.927 828.261 402.009 825.661C409.979 824.077 425.03 819.572 430.266 817.202C441.495 812.12 448.498 804.712 446.967 799.533C446.089 796.56 443.692 794.891 438.614 793.717C432.82 792.377 431.433 791.842 429.563 790.223C426.72 787.76 425.543 784.198 425.534 778.017C425.529 774.721 425.482 774.441 424.969 774.629C424.661 774.742 421.891 775.296 418.813 775.861ZM442.602 793.972C444.42 795.055 445.925 796.315 446.785 797.474C447.644 798.632 447.752 799.021 447.752 800.954C447.752 802.822 447.596 803.432 446.654 805.246C444.45 809.491 438.101 814.412 430.273 817.942C426.447 819.668 421.509 821.28 411.779 823.982C404.592 825.977 401.25 826.646 393.529 827.637C385.134 828.714 380.163 829.02 371.003 829.02C361.908 829.021 356.202 828.72 344.788 827.635C335.954 826.796 332.558 826.335 327.249 825.256C322.501 824.29 319.845 823.952 313.944 823.561C306.659 823.078 296.586 820.975 292.728 819.132C289.447 817.564 287.292 815.392 286.239 812.589C285.697 811.146 285.614 807.878 286.08 806.375C286.248 805.834 286.288 805.391 286.168 805.392C285.578 805.396 281.189 807.76 278.987 809.26C276.06 811.253 271.421 815.717 269.689 818.208C266.499 822.794 264.925 827.51 264.916 832.505C264.909 836.327 265.674 838.996 267.727 842.314C269.14 844.599 273.82 849.295 276.938 851.558C282.736 855.765 285.728 857.027 299.668 861.146C315.392 865.792 318.734 866.385 337.109 867.793C346.031 868.477 352.638 868.552 363.971 868.098C373.278 867.725 376.052 867.465 384.918 866.129C388.699 865.56 393.664 864.883 395.95 864.625C402.872 863.843 405.246 863.324 412.578 860.991C420.03 858.619 422.524 858.131 430.485 857.487C438.548 856.833 443.174 855.525 451.495 851.543C463.68 845.713 467.61 841.625 470.675 831.593C471.314 829.503 471.414 828.51 471.405 824.325C471.396 820.08 471.287 819.071 470.527 816.205C468.749 809.493 465.989 804.93 460.941 800.359C455.945 795.833 450.48 793.65 444.075 793.621C442.343 793.613 442.097 793.671 442.602 793.972Z" fill="black" fill-opacity="0.5"/>
</svg>
