<svg width="176" height="74" viewBox="0 0 176 74" fill="none" xmlns="http://www.w3.org/2000/svg">
<path fill-rule="evenodd" clip-rule="evenodd" d="M175.982 53.6574C175.923 53.4822 175.66 53.5346 175.078 53.8373C173.611 54.6009 172.61 54.7811 170.192 54.7159C169.203 54.6893 168.025 54.6118 167.575 54.5437C167.125 54.4758 166.352 54.3953 165.857 54.365C165.362 54.3347 164.368 54.2562 163.648 54.1906C161.577 54.0017 160.39 53.9677 154.772 53.9368C150.924 53.9156 148.986 53.8696 147.614 53.7669C145.528 53.6106 145.58 53.6201 142.42 52.8246C138.319 51.7924 137.325 51.6426 135.846 51.8337C134.899 51.956 134.343 52.2243 133.848 52.7972C132.703 54.1225 132.509 54.2826 131.326 54.8754C130.244 55.4173 130.159 55.479 129.413 56.2656C128.609 57.1126 128.123 57.4482 127.163 57.8194C126.623 58.0284 126.09 58.3758 125.405 58.9666C124.234 59.9751 122.153 60.5126 120.794 60.1575C120.131 59.9841 120.098 60.0044 119.881 60.7116C119.692 61.3304 119.484 61.7536 119.064 62.3739C118.572 63.1016 118.547 63.1655 118.326 64.2516C118.169 65.0254 118.131 65.4406 118.146 66.2367C118.164 67.2057 118.157 67.2566 117.942 67.5958C117.684 68.0024 117.115 68.3814 116.672 68.4419C116.238 68.501 115.853 68.2127 115.57 67.6166C115.177 66.7905 115.076 66.2371 115.036 64.6896C114.993 63.0264 115.085 62.2026 115.437 61.0952C115.721 60.2059 115.852 58.7667 115.671 58.5389C115.441 58.251 115.286 58.3909 114.891 59.2411C114.551 59.9721 114.407 60.1726 113.698 60.9045C113.254 61.3623 112.838 61.8226 112.773 61.9275C112.708 62.0324 112.578 62.4315 112.485 62.8145C112.264 63.7247 112.082 64.1543 111.584 64.9415C111.101 65.7041 111.009 66.0027 111.006 66.8068C111.003 67.5478 110.88 68.4705 110.714 68.9968C110.558 69.4921 110.177 69.8923 109.745 70.0132C109.289 70.1413 108.764 69.9115 108.454 69.4478C108.232 69.1158 108.229 69.0997 108.345 68.7052C108.574 67.9199 108.591 66.9651 108.393 65.9325L108.213 64.9898L108.475 64.1507C108.704 63.4204 108.745 63.1459 108.793 62.0329C108.836 61.048 108.885 60.6759 109.003 60.4132C109.175 60.0326 112.524 56.5282 113.543 55.6629C114.524 54.8296 115.761 54.2947 117.117 54.1178C117.842 54.0233 117.922 53.9952 117.945 53.8277C118.043 53.1255 115.122 53.8708 113.655 54.9222C113.44 55.0765 112.888 55.5503 112.428 55.9751C109.018 59.1253 107.552 59.9026 105.643 59.573C105.241 59.5037 104.741 59.4227 104.53 59.3931C104.119 59.3351 103.341 58.8651 102.956 58.4415C102.617 58.0693 102.312 57.389 102.303 56.9877C102.291 56.4755 102.59 56.1829 103.456 55.8563C104.604 55.4233 105.144 55.0719 106.315 53.9951C107.185 53.1943 107.323 53.113 108.462 52.7285C109.435 52.3996 111.318 51.4147 111.961 50.8977C112.437 50.5151 112.736 50.1527 113.368 49.1914C113.657 48.7513 113.951 48.4274 114.273 48.1917C114.856 47.7658 115.234 47.3279 115.442 46.8386C115.631 46.3912 115.611 46.0918 115.39 46.0918C115.277 46.0918 115.152 46.2573 114.952 46.6692C114.722 47.1421 114.578 47.3159 114.158 47.6283C113.876 47.8383 113.599 48.0675 113.543 48.1378C113.397 48.3214 113.137 48.2959 112.677 48.0528C112.456 47.9357 112.261 47.8398 112.243 47.8397C112.165 47.8388 112.679 48.2134 112.931 48.3413L113.212 48.4835L112.837 49.0778C112.631 49.4047 112.421 49.7003 112.369 49.7346C112.147 49.8821 111.462 49.6391 110.764 49.1658C110.27 48.8304 110.088 48.7748 110.306 49.0262C110.482 49.2293 111.534 49.7778 111.89 49.8518C112.034 49.8819 112.152 49.9326 112.152 49.9644C112.152 50.042 111.68 50.4976 111.374 50.7154C110.871 51.0737 108.819 52.0939 108.258 52.2653C107.528 52.4878 107.54 52.489 107.707 52.2082C107.941 51.814 108.399 51.3503 108.61 51.2953C108.756 51.257 108.802 51.1945 108.783 51.0588C108.761 50.9029 108.675 50.8602 108.226 50.783C107.5 50.6582 107.043 50.3698 106.539 49.718C106.123 49.1815 106.048 48.997 105.701 47.6688L105.623 47.3705L105.617 47.6688C105.613 47.931 105.649 48.1631 105.813 48.9186C105.852 49.1005 105.838 49.103 104.678 49.1131C103.283 49.1252 102.614 49.0284 101.354 48.6317C100.347 48.3146 100.216 48.2324 99.906 47.7248C99.7961 47.5445 99.6869 47.4171 99.6633 47.4416C99.6397 47.4663 99.7367 47.6625 99.8789 47.8779L100.137 48.2694L99.5919 48.5355C98.9807 48.8335 98.1961 48.9516 97.2804 48.8833C96.5303 48.8274 95.4697 48.9849 94.5033 49.2956C93.6305 49.5762 91.8566 49.7691 91.0876 49.667C90.1044 49.5364 89.003 48.676 89.002 48.0377C89.0015 47.7906 89.3495 47.3723 89.7669 47.118C90.2822 46.8042 93.0073 45.7239 94.1144 45.3946C94.6543 45.234 95.5206 44.8934 96.0395 44.6375C97.1529 44.0888 97.8289 43.9215 98.9408 43.9194C99.3908 43.9186 100.219 43.8395 100.781 43.7436C101.988 43.5378 102.915 43.5077 104.913 43.6091C106.568 43.6933 106.56 43.6943 109.535 43.0109C111.843 42.4807 112.889 42.0998 114.647 41.1493C116.425 40.1884 116.75 40.0697 118.468 39.7528C119.317 39.5962 120.182 39.3712 120.827 39.1395C122.196 38.647 122.594 38.5674 124.218 38.4622C127.311 38.2617 127.928 38.1342 129.658 37.3396C131.985 36.2708 132.038 36.2569 134.117 36.1615C136.285 36.062 136.78 35.9184 138.653 34.8449C140.741 33.6483 141.61 33.5081 145.565 33.7301C148.812 33.9123 149.165 33.8813 150.6 33.2882C151.856 32.7691 152.695 32.3233 153.571 31.7098C154.732 30.8963 156.466 30.1179 158.085 29.6839C158.678 29.525 159.488 29.3953 160.458 29.304C161.268 29.2278 162.182 29.1055 162.491 29.0322C163.141 28.8776 164.261 28.4055 165.438 27.7898C167.122 26.9087 167.673 26.802 173.265 26.2756C173.785 26.2267 174.468 26.1866 174.782 26.1866C175.407 26.1866 175.594 26.0893 175.462 25.8326C175.336 25.5875 174.88 25.6023 170.929 25.9792C169.077 26.1558 167.157 26.4886 166.44 26.7573C166.119 26.8774 165.396 27.2158 164.833 27.5092C163.125 28.3999 162.588 28.563 160.744 28.7514C159.867 28.841 158.868 28.9721 158.525 29.0428C156.955 29.3658 154.58 30.3852 153.276 31.2949C152.31 31.9695 151.819 32.2332 150.515 32.7787C149.175 33.3393 148.726 33.3889 146.265 33.2485C143.796 33.1077 142.069 33.1073 141.315 33.2474C140.376 33.4221 139.753 33.6717 138.289 34.4599C136.364 35.4957 136.13 35.5621 134.076 35.6515C132.011 35.7414 131.691 35.8199 129.904 36.6725C128.04 37.562 127.288 37.7529 125.201 37.8663C122.695 38.0025 122.336 38.0656 120.61 38.6726C119.925 38.9137 119.096 39.1264 118.311 39.2625C116.731 39.5364 116.328 39.6821 114.647 40.5878C113.882 41 112.956 41.4566 112.589 41.6027C111.687 41.9617 110.08 42.3927 108.062 42.8175L106.385 43.1704L104.872 43.0966C102.879 42.9995 101.961 43.0224 101.068 43.1917C100.663 43.2686 99.7057 43.3657 98.9408 43.4078C98.176 43.4498 97.4029 43.5272 97.223 43.5796C97.043 43.6321 96.4724 43.8794 95.955 44.1292C95.4376 44.379 94.5628 44.7218 94.0111 44.891C92.8401 45.2499 90.4752 46.1728 89.7541 46.552C88.8712 47.0165 88.4294 47.6586 88.5462 48.3075C88.6727 49.0104 89.8781 49.9805 90.8196 50.1372C91.7 50.2838 93.517 50.1249 94.5643 49.8096C95.7331 49.4579 96.2975 49.3792 97.5911 49.3876C98.757 49.3952 99.1778 49.3197 99.8142 48.9891L100.197 48.7903L100.959 49.0399C102.348 49.4941 103.178 49.6295 104.575 49.6295H105.848L106.184 50.0939C106.529 50.57 107.11 51.0217 107.51 51.1246C107.767 51.1906 107.78 51.2257 107.62 51.413C107.557 51.487 107.322 51.8623 107.098 52.247C106.369 53.5027 104.861 54.7738 103.489 55.2896C102.34 55.7215 102.019 55.9805 101.834 56.6252C101.653 57.2552 102.099 58.3595 102.793 58.9957C103.124 59.2993 103.936 59.777 104.327 59.8985C104.504 59.9533 104.497 60.0686 104.165 62.5018C103.922 64.2777 103.946 64.6704 104.363 65.8159C104.661 66.6355 104.661 66.6374 104.644 67.8724C104.622 69.4777 104.711 69.9416 105.127 70.375C105.436 70.6972 105.457 70.705 105.926 70.6697C106.487 70.6274 107.325 70.2345 107.682 69.8462L107.913 69.5942L108.207 69.9323C108.6 70.3865 108.915 70.5415 109.453 70.5454C109.976 70.5492 110.464 70.3213 110.786 69.9233C111.212 69.3956 111.496 68.1628 111.5 66.8219C111.502 66.1545 111.63 65.7693 112.074 65.0968C112.422 64.5686 112.754 63.7732 112.921 63.0654C113.115 62.2433 113.209 62.088 113.912 61.4328C114.253 61.1145 114.685 60.6121 114.871 60.3163C115.058 60.0206 115.222 59.7902 115.236 59.8043C115.26 59.8296 115.11 60.4175 114.762 61.6706C114.544 62.4519 114.447 65.1174 114.601 66.0486C114.738 66.8715 115.059 67.8264 115.344 68.2574C115.608 68.6584 116.141 68.9806 116.54 68.9806C117.216 68.9806 118.115 68.3718 118.475 67.6701C118.634 67.3586 118.653 67.2058 118.638 66.3379C118.625 65.629 118.668 65.1098 118.79 64.4625C118.97 63.5147 119.136 63.1218 119.711 62.2765C119.908 61.9885 120.149 61.4983 120.249 61.1872L120.429 60.6215L120.729 60.6879C120.893 60.7244 121.421 60.7477 121.902 60.7396C123.409 60.7143 124.682 60.2318 125.889 59.2279C126.659 58.5875 126.792 58.5059 127.561 58.2042C128.416 57.8691 128.819 57.5815 129.781 56.6198C130.616 55.7855 130.74 55.6946 131.499 55.3592C132.51 54.9125 133.105 54.4543 133.86 53.5422C134.224 53.1016 134.582 52.7623 134.812 52.6403C135.588 52.2274 137.388 52.1752 138.984 52.5193C139.411 52.6115 140.774 52.9415 142.011 53.2526C143.248 53.5637 144.592 53.8911 144.997 53.98C146.397 54.2876 149.04 54.4138 154.772 54.4471C160.393 54.4796 161.43 54.5096 163.566 54.7007C164.286 54.7651 165.28 54.8434 165.775 54.8747C166.27 54.906 167.061 54.9865 167.534 55.0537C168.78 55.2307 171.663 55.3015 172.565 55.1771C173.401 55.0617 174.776 54.6107 175.476 54.2219C175.953 53.9572 176.047 53.8521 175.982 53.6574ZM156.725 49.1146C155.88 48.8209 155.871 48.8197 154.445 48.8291C153.227 48.8371 152.781 48.8801 151.459 49.117C150.035 49.3722 149.812 49.391 148.797 49.3416C146.926 49.2507 144.796 48.9434 141.6 48.3036C139.618 47.9068 136.688 47.9473 135.057 48.3939C134.81 48.4616 134.73 48.4991 134.88 48.4772C135.031 48.4553 135.73 48.376 136.435 48.3011C138.355 48.0969 139.473 48.2147 142.174 48.9059C144.631 49.5345 145.852 49.7407 147.955 49.8819C149.296 49.9721 149.856 49.9101 150.944 49.5507C152.023 49.1948 152.415 49.137 154.206 49.0698C155.764 49.0114 155.81 49.0146 156.599 49.2393C157.692 49.5503 157.766 49.4767 156.725 49.1146ZM156.858 45.4815C156.768 45.508 156.455 45.5868 156.163 45.6566C155.87 45.7263 155.476 45.8411 155.286 45.9115C155.097 45.9819 154.25 46.2012 153.405 46.3988C151.902 46.7503 151.835 46.7581 150.355 46.7585C149.522 46.7587 148.473 46.7124 148.023 46.6558C145.591 46.3499 142.532 45.9431 141.811 45.8298C140.612 45.6414 138.77 45.5835 137.716 45.7012C136.046 45.8877 134.3 46.3773 133.004 47.0219C132.326 47.3598 132.342 47.3053 133.07 46.7977C133.742 46.3299 134.747 45.7985 135.794 45.3569C136.647 44.9971 136.685 44.9027 135.844 45.2326C134.929 45.5916 133.331 46.4427 132.399 47.0682C131.24 47.8456 130.841 48.1918 130.904 48.3643C130.945 48.474 131.157 48.3948 132.107 47.9158C133.996 46.9629 135.04 46.6023 136.898 46.2609C137.748 46.1046 140.988 46.0749 142.011 46.2138C142.348 46.2597 143.581 46.4306 144.751 46.5937C148.84 47.1635 149.919 47.1891 152.277 46.7731C154.116 46.4487 156.734 45.7463 156.94 45.5221C156.996 45.4612 156.97 45.4484 156.858 45.4815ZM139.918 40.9411C139.823 40.9452 139.803 40.9654 139.869 40.9925C139.928 41.0172 139.998 41.0141 140.025 40.9858C140.052 40.9575 140.004 40.9374 139.918 40.9411ZM137.491 40.0527C136.667 39.4185 136.406 39.2949 135.792 39.2491C134.19 39.1296 132.617 40.1091 131.445 41.9573C130.494 43.4563 130.103 43.8333 129.499 43.8317C129.253 43.831 129.005 43.7582 128.767 43.6166C128.57 43.4988 128.392 43.4188 128.373 43.4389C128.354 43.4588 128.58 43.5991 128.875 43.7505C129.382 44.011 129.431 44.0202 129.772 43.9207C130.274 43.7741 130.65 43.4221 131.314 42.4757C132.077 41.388 132.781 40.6456 133.389 40.2891C133.928 39.9727 134.974 39.6556 135.479 39.6556C135.848 39.6556 137.208 40.0946 137.723 40.3799C137.922 40.4898 138.084 40.5639 138.084 40.5446C138.084 40.5251 137.817 40.3038 137.491 40.0527ZM132.33 50.3541C132.227 50.0257 132.224 50.0376 132.26 50.6746C132.288 51.1716 132.262 51.4326 132.156 51.7241C132.077 51.9375 132.031 52.1305 132.053 52.153C132.124 52.2272 132.369 51.4793 132.403 51.0833C132.421 50.8698 132.388 50.5417 132.33 50.3541ZM131.829 49.3261C131.763 49.2352 131.707 49.2039 131.706 49.2568C131.705 49.3097 131.759 49.4006 131.826 49.459C131.982 49.5938 131.983 49.5387 131.829 49.3261ZM130.058 49.1665C130.003 49.2022 129.805 49.715 129.381 50.9222C129.177 51.5014 128.492 52.4739 128.004 52.8757C126.974 53.7244 125.939 54.0582 124.131 54.1243C122.816 54.1725 121.988 54.0606 121.123 53.7182C120.896 53.6284 120.694 53.5727 120.673 53.5944C120.554 53.7181 122.643 54.3339 123.724 54.494C124.037 54.5404 124.645 54.5793 125.074 54.5806C127.075 54.5864 129.025 53.2912 129.655 51.5388C129.834 51.0392 130.164 49.0983 130.058 49.1665ZM127.833 43.5661C127.728 43.6554 127.698 43.8066 127.707 44.2054L127.72 44.7278L127.769 44.2163C127.796 43.935 127.853 43.6473 127.895 43.577C127.961 43.4666 127.953 43.465 127.833 43.5661ZM127.716 54.4862C127.153 54.9423 126.331 55.4603 125.908 55.6256C125.254 55.8814 124.15 55.8611 123.171 55.5753C122.237 55.303 122.357 55.4303 123.319 55.7325C123.895 55.9139 124.234 55.9658 124.882 55.9722C125.699 55.9803 125.716 55.9764 126.398 55.6165C126.778 55.4163 127.28 55.0777 127.514 54.864C127.955 54.4625 128.114 54.163 127.716 54.4862ZM126.23 44.3066C126.128 44.2406 126.116 44.3387 126.1 45.3672C126.088 46.2031 125.889 46.806 125.331 47.6982C124.951 48.306 124.625 48.5748 123.564 49.1551C122.663 49.6481 122.639 49.6705 123.246 49.4494C124.066 49.1504 124.663 48.7668 125.242 48.1674C126.05 47.3301 126.19 46.9686 126.262 45.5264C126.303 44.7152 126.293 44.3469 126.23 44.3066ZM122.331 58.4561C121.878 58.1174 121.473 57.6934 120.51 56.5502C120.038 55.9888 119.065 55.1847 118.973 55.2801C118.952 55.3018 119.077 55.4108 119.25 55.5221C119.552 55.7162 119.999 56.1948 121.146 57.5542C121.63 58.1276 122.54 58.9214 122.714 58.9214C122.879 58.9214 122.758 58.7751 122.331 58.4561ZM120.77 58.3992C120.646 58.2915 119.944 57.3673 119.011 56.0813C118.745 55.7148 118.487 55.4736 118.152 55.2805L117.674 55.0042L118.001 55.052C118.181 55.0782 118.436 55.135 118.567 55.1781C118.698 55.2213 118.822 55.2383 118.844 55.2159C118.922 55.1346 118.395 54.986 117.756 54.9094C116.972 54.8153 116.532 54.8216 117.088 54.9188C117.946 55.069 118.558 55.63 119.779 57.387C120.121 57.8793 120.514 58.3514 120.653 58.4361C120.927 58.6035 120.985 58.5852 120.77 58.3992ZM119.439 49.6295C119.401 50.2117 119.347 50.4331 119.165 50.7561C118.806 51.3926 118.45 51.6278 117.06 52.1449C114.854 52.9662 112.407 54.1863 111.661 54.8364C111.386 55.0764 111.464 55.0342 112.594 54.3277C113.437 53.8012 113.762 53.6558 115.007 53.2494C118.549 52.0935 118.961 51.9118 119.328 51.3432C119.5 51.0761 119.514 50.9699 119.501 49.9792C119.487 48.9442 119.485 48.9314 119.439 49.6295ZM118.839 59.0786C118.554 58.7266 118.356 58.6651 117.536 58.6742C116.711 58.6834 116.805 58.8123 117.648 58.8277C118.247 58.8387 118.521 58.9483 118.797 59.287C118.934 59.4563 119.02 59.5119 119.021 59.4329C119.022 59.3626 118.94 59.2032 118.839 59.0786ZM116.944 62.7599C116.639 62.6394 116.439 62.65 116.158 62.8016C115.837 62.9744 115.657 63.3652 115.609 63.9898C115.575 64.4338 115.594 64.5346 115.749 64.7182C115.897 64.8933 115.918 64.9009 115.869 64.7608C115.663 64.1772 115.796 63.3787 116.149 63.09C116.3 62.9663 116.458 62.9237 116.707 62.9397C117.13 62.9667 117.245 62.8792 116.944 62.7599ZM117.088 64.6046C117.011 64.5245 116.561 64.5447 116.365 64.637C116.247 64.6928 116.284 64.7008 116.5 64.6658C116.664 64.6392 116.875 64.6606 116.97 64.7134C117.131 64.8033 117.209 64.7311 117.088 64.6046ZM115.288 56.8712C115.123 56.6811 114.912 56.4847 114.818 56.4349C114.724 56.3849 114.849 56.5596 115.094 56.8229C115.34 57.0862 115.552 57.3017 115.565 57.3017C115.634 57.3017 115.557 57.1814 115.288 56.8712ZM113.306 58.1542C113.263 58.1542 113.168 58.3456 113.093 58.5794C113.019 58.8133 112.924 59.0265 112.882 59.0533C112.841 59.0801 112.807 59.1428 112.807 59.1926C112.807 59.3288 113.045 59.0978 113.169 58.8424C113.321 58.5266 113.395 58.1542 113.306 58.1542ZM111.882 60.2027C111.629 60.1928 110.849 60.9105 110.839 61.1621C110.837 61.2191 110.807 61.6326 110.772 62.081C110.697 63.0556 110.554 63.3995 109.863 64.2783C109.294 65.0012 109.269 65.1474 109.573 65.9397C109.684 66.229 109.809 66.6192 109.851 66.8068L109.927 67.1478L109.935 66.7886C109.94 66.5911 109.867 66.2279 109.774 65.9817C109.541 65.3664 109.606 65.1274 110.196 64.4199C110.993 63.465 111.111 63.1619 111.165 61.9192L111.211 60.8679L111.58 60.5365C111.782 60.3543 111.918 60.2041 111.882 60.2027ZM109.773 54.3076C109.544 54.0086 109.317 53.7491 109.269 53.7308C109.168 53.6931 109.452 54.1379 109.795 54.5555C109.922 54.7095 110.025 54.9152 110.025 55.0127C110.025 55.1227 109.772 55.444 109.357 55.8617C108.989 56.2312 108.714 56.5604 108.746 56.5932C108.876 56.729 110.189 55.2159 110.189 54.9299C110.189 54.8867 110.002 54.6066 109.773 54.3076ZM108.504 60.328C108.408 60.5643 108.347 61.0615 108.305 61.9477C108.252 63.0559 108.208 63.3435 107.974 64.105C107.716 64.942 107.708 65.0064 107.805 65.4689C108.103 66.8952 108.115 67.7105 107.849 68.6435C107.685 69.2173 107.163 69.7568 106.532 70.0026C105.877 70.258 105.537 70.2102 105.326 69.833C105.175 69.565 105.158 69.3874 105.154 68.0855C105.149 66.6454 105.147 66.6306 104.852 65.7412C104.688 65.2489 104.532 64.6879 104.503 64.4945C104.473 64.2872 104.538 63.4655 104.663 62.4912C104.779 61.5827 104.896 60.6532 104.922 60.4256L104.971 60.0117L105.514 60.0846C106.671 60.2397 107.606 60.0949 108.615 59.6047L109.127 59.356L108.884 59.6715C108.751 59.845 108.58 60.1405 108.504 60.328ZM108.553 54.7017C108.418 54.5669 108.307 54.4963 108.307 54.5447C108.307 54.6322 108.501 54.8339 108.696 54.9495C108.864 55.0489 108.813 54.9618 108.553 54.7017ZM107.768 55.135C107.615 54.9514 107.49 54.8363 107.492 54.8793C107.495 54.991 107.96 55.5615 108.007 55.511C108.028 55.4879 107.921 55.3187 107.768 55.135ZM107.122 62.928C107.033 62.928 106.578 63.9876 106.572 64.2104C106.568 64.3428 106.69 64.7879 106.843 65.1996C107.057 65.7749 107.127 65.8963 107.146 65.7242C107.161 65.598 107.062 65.2747 106.922 64.9838C106.61 64.341 106.61 64.1589 106.917 63.5248C107.165 63.0119 107.194 62.928 107.122 62.928ZM106.989 56.1936C106.883 55.9185 106.607 55.6123 106.328 55.4608C105.876 55.2157 105.507 55.3033 104.253 55.9547C103.571 56.3095 103.072 56.6192 103.072 56.6886C103.072 56.7546 103.426 57.2073 103.859 57.6946C104.537 58.4573 104.682 58.5803 104.902 58.5792C105.043 58.5784 105.213 58.5406 105.281 58.4952C105.374 58.4326 105.338 58.4122 105.134 58.4112C104.823 58.4098 104.323 57.9678 103.706 57.1496L103.334 56.6559L103.673 56.5482C103.86 56.4888 104.409 56.2465 104.893 56.0096C105.815 55.5584 105.976 55.5382 106.39 55.8208C106.654 56.0012 106.945 56.6476 106.873 56.8945C106.841 57.0012 106.722 57.2229 106.607 57.387L106.398 57.6853L106.612 57.4832C106.854 57.2547 107.083 56.8001 107.075 56.5643C107.072 56.4776 107.033 56.3107 106.989 56.1936ZM103.866 46.6073C103.605 46.5703 103.372 46.561 103.347 46.5865C103.286 46.6505 103.998 46.7561 104.187 46.7111C104.271 46.6911 104.127 46.6444 103.866 46.6073ZM101.33 46.1312C100.097 45.7666 99.5714 45.7588 98.1637 46.0842C96.5673 46.4531 96.3001 46.5439 95.3698 47.034C94.3176 47.5883 93.8846 47.7172 92.3965 47.9196C91.3458 48.0625 91.2985 48.0761 91.8239 48.0847C92.6106 48.0975 93.8537 47.8904 94.4873 47.6409C94.7771 47.5266 95.3271 47.3103 95.7096 47.16C96.4649 46.8631 99.1983 46.2291 100.029 46.1581C100.388 46.1273 100.805 46.1712 101.405 46.3031C101.878 46.407 102.279 46.4773 102.297 46.4593C102.314 46.4412 101.879 46.2935 101.33 46.1312ZM85.7744 49.4835C85.618 48.9619 85.2321 48.2835 84.3783 47.0295C83.684 46.0098 83.134 45.0813 81.7304 42.5598C80.4191 40.2042 79.4206 39.4244 75.9947 38.0803C73.21 36.9877 72.1878 36.4192 70.125 34.8157C68.9201 33.8792 68.2256 33.4404 67.3132 33.0394C66.0845 32.4992 65.1925 32.3157 61.5563 31.8548C60.6114 31.7352 59.3782 31.5642 58.8158 31.4749C58.2534 31.3857 56.8914 31.1921 55.7891 31.0447C54.6868 30.8974 52.5963 30.5296 51.1435 30.2275C47.3122 29.4308 45.8582 29.2292 43.1503 29.1189C39.6947 28.9783 37.7485 29.5488 34.4699 31.6636C31.9964 33.2592 31.2467 33.5784 28.4071 34.2453C26.4914 34.6951 25.7368 34.9205 24.6849 35.3567C23.6857 35.7712 23.4266 35.9103 21.4838 37.0765C17.4852 39.4765 15.8189 40.0824 10.8785 40.9322C9.50627 41.1682 7.7025 41.5153 6.87014 41.7034C4.78847 42.1739 0.228208 43.4102 0.0896318 43.5415C-0.0653056 43.6883 0.035225 43.918 0.254379 43.918C0.352953 43.918 1.33877 43.6697 2.44526 43.3663C6.21873 42.3314 8.18252 41.8853 10.9194 41.4409C15.7706 40.6532 17.8726 39.8879 21.7994 37.48C23.307 36.5555 24.7438 35.8316 25.7535 35.4878C26.1736 35.3448 27.3147 35.0354 28.2894 34.8004C31.6239 33.9964 32.0429 33.8251 34.4389 32.2857C36.196 31.1568 36.7021 30.8672 37.5633 30.4978C40.4071 29.2783 44.2723 29.316 50.5024 30.624C51.8465 30.9061 53.5266 31.2302 54.236 31.3442C55.1252 31.4871 55.7254 31.6343 56.1687 31.8182C57.5709 32.3998 58.1756 32.601 59.5021 32.9272C60.262 33.114 60.896 33.2539 60.9113 33.2382C60.9264 33.2223 60.3047 33.0246 59.5297 32.7988C58.2094 32.4142 56.7216 31.8158 56.9167 31.748C56.9645 31.7314 57.9176 31.8536 59.0346 32.0196C60.1515 32.1857 61.7097 32.3996 62.497 32.495C65.5876 32.8694 66.7874 33.2018 68.2309 34.0833C68.9181 34.5031 69.3162 34.8944 69.7783 35.6045C70.1421 36.1635 70.5957 36.692 70.5957 36.5569C70.5957 36.5241 70.4484 36.2544 70.2684 35.9574C70.0885 35.6604 69.9412 35.3926 69.9412 35.3622C69.9412 35.3317 70.2082 35.5116 70.5343 35.7619C72.0996 36.9628 73.1466 37.5084 76.1471 38.6865C78.2789 39.5236 79.1045 40.0016 79.9622 40.8954C80.512 41.4682 81.0017 42.2234 81.9226 43.918C82.6974 45.3436 83.2728 46.296 84.0085 47.3705C84.6033 48.2393 84.6266 48.2823 84.4901 48.2546C84.4294 48.2422 84.3008 48.2601 84.2045 48.2943C83.6909 48.4765 84.0807 49.4716 84.8409 49.9194L85.1159 50.0813L84.8978 49.8341C84.6535 49.5571 84.257 48.8145 84.257 48.6338C84.257 48.451 84.484 48.4038 84.6893 48.5441C84.9436 48.7178 85.339 49.586 85.3845 50.0707C85.4166 50.4138 85.3926 50.4998 85.2113 50.6887C85.0328 50.8747 84.9283 50.9079 84.5265 50.9062C83.4008 50.9014 81.8501 49.783 81.2139 48.517C81.0663 48.2234 80.8051 47.9772 80.0032 47.3759C78.5599 46.2939 77.2626 44.8912 77.1132 44.2511C77.0714 44.0723 77.1014 44.0079 77.2707 43.9135C77.4644 43.8055 77.6997 43.4917 77.5871 43.4917C77.5599 43.4917 77.3653 43.6165 77.1547 43.7688C76.8318 44.0025 76.7015 44.0449 76.322 44.0401C75.7482 44.0328 73.7512 43.3957 72.3194 42.7633C71.7386 42.5068 71.0967 42.2731 70.8928 42.244L70.522 42.191L70.8536 41.7811C71.0361 41.5556 71.1713 41.3274 71.1542 41.2739C71.137 41.2203 70.9651 41.3717 70.772 41.6103C70.359 42.1208 70.1754 42.2286 69.4095 42.4106C68.5141 42.6235 68.08 42.6526 67.2197 42.5578C66.3672 42.4638 65.9255 42.3157 65.6272 42.0236C65.3963 41.7976 65.3949 41.669 65.6193 41.3405C65.7168 41.1978 65.758 41.096 65.711 41.1143C65.5359 41.1821 64.9888 41.7567 64.8966 41.9696C64.7923 42.2105 64.2364 42.7123 63.8449 42.9192C63.5196 43.0912 62.2019 43.3407 61.8029 43.306C61.5051 43.2801 61.4661 43.2407 61.0584 42.554C60.8218 42.1555 60.5883 41.7828 60.5395 41.7258C60.4365 41.6055 60.2383 41.6627 60.1765 41.8305C60.153 41.8943 60.5275 42.6208 61.0087 43.4453C61.4899 44.2696 61.9203 45.0114 61.9653 45.0937C62.0859 45.3141 63.3071 46.8707 63.8038 47.437C64.4212 48.1411 65.6249 49.0542 66.3009 49.3314C69.0218 50.4469 70.5898 52.1191 71.2551 54.6148C71.6965 56.2706 71.1613 57.4217 69.9555 57.4098C69.3654 57.404 68.8689 57.1692 68.1481 56.555C67.852 56.3027 67.2601 55.8216 66.8327 55.4859C66.4052 55.1501 65.4764 54.3619 64.7686 53.7344L63.4817 52.5934L63.7145 52.3667C63.9288 52.1581 64.3535 51.4197 64.2592 51.4197C64.2367 51.4197 64.1455 51.5683 64.0566 51.7499C63.9676 51.9316 63.7801 52.181 63.6396 52.3041L63.3844 52.5278L62.9203 52.1563C62.1398 51.5315 61.5295 51.1595 60.6654 50.7821C60.2105 50.5834 59.2126 50.0907 58.4477 49.6871C57.1227 48.9881 56.3269 48.6885 55.4579 48.5614C55.1513 48.5167 55.0038 48.4243 54.6195 48.0363C54.3629 47.7774 54.1515 47.5408 54.1496 47.5106C54.1478 47.4804 54.0345 47.3215 53.8979 47.1574L53.6493 46.859L53.8228 47.2426C53.9182 47.4536 54.0899 47.8142 54.2042 48.044L54.4122 48.4617L53.7868 48.4124C53.2901 48.3733 53.1057 48.3189 52.8908 48.148C52.523 47.8557 52.0917 47.3712 51.7433 46.8592C51.5839 46.625 51.4535 46.4754 51.4535 46.5268C51.4535 46.6331 51.8045 47.1553 52.329 47.8294C52.5253 48.0818 52.6751 48.2996 52.6618 48.3135C52.5862 48.3922 51.7311 48.1198 51.1671 47.8374C50.1888 47.3475 48.0104 45.5077 47.0985 44.4014C46.7055 43.9245 46.3008 43.3719 46.1994 43.1733C46.098 42.9747 45.9638 42.7918 45.9013 42.7668C45.8383 42.7416 45.6711 42.8462 45.5267 43.0012C45.1468 43.4088 44.4771 43.7466 42.864 44.3444C40.6955 45.1479 40.1799 45.4512 39.029 46.6006C38.249 47.3795 37.5911 48.2337 36.7289 49.5869C35.6515 51.2778 34.7454 52.469 33.7455 53.5093C32.3636 54.9468 31.9387 55.2444 26.8713 58.3243C25.6115 59.09 23.8629 60.1967 22.9856 60.7837C20.2476 62.6156 19.6376 63.0994 18.0773 64.6761C16.5228 66.247 15.7747 66.9044 14.6824 67.6595C13.0566 68.7834 11.9865 69.3114 8.66827 70.6269C5.95285 71.7036 3.74365 72.252 1.16297 72.4901C0.0295751 72.5946 -0.140083 72.6677 0.0874149 72.9533C0.176991 73.0659 0.315408 73.0787 0.935076 73.0317C2.397 72.9208 4.74937 72.483 6.23518 72.0454C7.75101 71.599 11.4036 70.1159 12.8538 69.3579C14.8586 68.3101 16.0535 67.3976 18.0491 65.39C19.6398 63.7897 20.4087 63.1508 22.2902 61.8662C24.204 60.5595 25.1402 59.9639 28.2619 58.0667C29.7467 57.1643 31.3664 56.1451 31.8613 55.8017C33.8223 54.4412 35.0679 53.0436 37.1343 49.8853C39.2494 46.6525 40.0872 45.9247 42.9126 44.8651C44.4225 44.2989 45.1388 43.9727 45.5739 43.6529L45.7888 43.4951L46.21 44.0688C46.9488 45.0755 47.5583 45.7785 47.895 46.0121C48.0749 46.1369 48.3853 46.3785 48.5846 46.549C50.1929 47.9246 50.7684 48.3168 51.5796 48.5898C52.1709 48.7888 52.5064 48.8365 54.1056 48.9488C55.8675 49.0726 56.5558 49.2654 58.0401 50.0511C58.7212 50.4117 59.7356 50.915 60.2945 51.1698C60.8533 51.4245 61.5682 51.8082 61.8833 52.0225C62.4631 52.4169 64.1731 53.8388 64.7139 54.3761C65.0411 54.7012 65.0365 54.5911 64.7795 55.9512C64.4099 57.9071 64.7696 58.9201 65.8338 58.9211C66.4852 58.9217 67.0055 58.4972 67.6101 57.4722C67.7346 57.2612 67.8472 57.0753 67.8604 57.0591C67.8738 57.0428 68.0541 57.1511 68.2612 57.2996C69.1723 57.9528 70.1109 58.1162 70.812 57.7435C71.2359 57.518 71.6853 56.979 71.8096 56.5466C72.1255 55.4479 71.6198 53.5111 70.6327 52.0399C70.2308 51.4407 70.2278 51.4192 70.443 50.6738C70.577 50.2098 70.4654 49.6119 70.0958 48.8132C69.7874 48.1471 69.6887 47.4256 69.8829 47.2577C69.9872 47.1675 70.0872 47.285 70.5501 48.0417C70.8496 48.5313 71.3965 49.2999 71.7655 49.75C72.3417 50.4527 72.5542 50.8115 73.273 52.2939C74.0812 53.9608 74.1182 54.0618 74.3565 55.2542C74.6323 56.6332 74.8796 57.2479 75.3604 57.7489C75.9177 58.3296 77.0393 58.7339 77.4531 58.503C77.6728 58.3805 77.7784 57.9663 77.7098 57.4956C77.6806 57.2952 77.6718 57.1312 77.6901 57.1312C77.7085 57.1312 77.8478 57.23 77.9996 57.3507C78.7017 57.9087 79.812 58.067 80.4964 57.7067C81.127 57.3745 81.1394 57.2956 80.8368 55.5413C80.6925 54.7044 80.5405 53.5786 80.4991 53.0394C80.4129 51.9163 80.4 51.8717 79.7954 50.6099C79.3462 49.6725 79.0042 48.5355 78.8933 47.6102L78.8352 47.1255L79.2351 47.4253C79.4551 47.5901 79.8125 47.8551 80.0295 48.0141C80.2549 48.1794 80.6089 48.5782 80.8557 48.9451C81.4799 49.8726 82.2323 50.5703 83.0823 51.0093C83.7167 51.3369 83.8664 51.3799 84.4551 51.4027C85.0091 51.424 85.1597 51.3996 85.3867 51.2516C85.8581 50.9442 86.0078 50.2616 85.7744 49.4835ZM80.2821 57.2678C79.8275 57.4658 79.2086 57.4187 78.6534 57.144C77.6996 56.6722 77.0597 55.6231 76.6711 53.8942C76.5601 53.4007 76.4001 52.7858 76.3156 52.5279C76.2231 52.246 76.1943 52.0475 76.2433 52.0302C76.3664 51.9865 76.5674 51.7597 76.5674 51.6645C76.5674 51.6183 76.4594 51.6471 76.3274 51.7283C76.0279 51.9127 75.9647 51.8652 75.462 51.077C74.9836 50.3273 74.7263 49.5982 74.5289 48.4332C74.4408 47.913 74.294 47.3556 74.2028 47.1945L74.0369 46.9016L74.3819 46.8986C74.5716 46.8969 74.8177 46.8431 74.9288 46.779C75.1115 46.6737 75.0796 46.6668 74.5943 46.7073C73.8955 46.7658 73.6151 46.6265 72.9496 45.8899C72.4092 45.2918 72.0035 44.5855 71.7372 43.7789C71.4643 42.9523 71.4727 42.9457 72.3136 43.3258C73.2766 43.761 75.5528 44.4927 76.1703 44.5655C76.6324 44.62 76.6691 44.6419 76.9119 45.0097C77.0523 45.2225 77.4137 45.6681 77.7149 46L78.2625 46.6032L78.3928 47.541C78.5776 48.8698 78.8734 49.8567 79.4432 51.0459C79.9339 52.0702 79.9386 52.0868 80.009 53.0703C80.0744 53.9828 80.4009 56.1423 80.565 56.7476C80.6515 57.0665 80.6225 57.1196 80.2821 57.2678ZM77.365 39.8465C77.1969 39.7055 76.4598 39.3339 76.2402 39.2793L76.0356 39.2285L76.2402 39.3296C76.3526 39.3853 76.6747 39.5614 76.9559 39.7211C77.435 39.993 77.6 40.0436 77.365 39.8465ZM77.1549 58.069C76.788 58.069 76.1559 57.7899 75.8155 57.4776C75.3349 57.0367 75.0836 56.4303 74.8087 55.0476C74.5453 53.7236 74.4203 53.3768 73.7464 52.1017C73.4614 51.5625 73.0717 50.7651 72.8804 50.3296C72.6613 49.8311 72.5037 49.5678 72.4549 49.6186C72.3425 49.7357 71.7324 48.9872 71.0394 47.882C70.7159 47.3662 70.1885 46.6056 69.8674 46.1915C69.5462 45.7775 69.2117 45.2922 69.1241 45.1132L68.9646 44.7876L69.1651 44.7352C69.4043 44.6726 69.9412 44.1348 69.9412 43.9578C69.9412 43.7479 69.7423 43.8173 69.4534 44.1278C69.0844 44.5246 68.6966 44.7043 68.0597 44.7736L67.528 44.8315L67.9781 44.8436C68.426 44.8556 68.4291 44.8575 68.6288 45.25C68.7393 45.4668 68.9419 45.8024 69.0792 45.9959C69.4484 46.516 69.5561 46.8799 69.4065 47.1024C69.1524 47.4805 69.2796 48.2667 69.7597 49.2855C69.9227 49.6314 69.9821 49.8871 69.9821 50.2433C69.9821 50.923 69.866 51.0113 69.4666 50.6353C68.9017 50.1033 68.1316 49.6109 67.1664 49.1642L66.2229 48.7273L66.2169 48.0812C66.2119 47.5352 66.1708 47.3498 65.9517 46.8862C65.6145 46.1722 64.8479 45.2266 64.3422 44.9006C64.0112 44.6872 63.8557 44.6427 63.4444 44.6428C63.1708 44.643 62.814 44.675 62.6515 44.7141C62.3607 44.7838 62.352 44.778 62.0993 44.3502C61.9581 44.111 61.8426 43.8968 61.8426 43.8741C61.8426 43.8513 61.9489 43.8327 62.079 43.8327C62.209 43.8327 62.6761 43.7554 63.1169 43.6609C63.9748 43.4769 64.4428 43.2285 64.9412 42.6926L65.2175 42.3955L65.5138 42.5994C66.2579 43.1112 68.1966 43.26 69.5591 42.91C69.9564 42.808 70.4424 42.7245 70.6393 42.7245C70.9896 42.7245 70.9983 42.7314 71.0471 43.0442C71.1375 43.6257 71.504 44.6338 71.8446 45.2383C72.0597 45.6198 72.4799 46.1406 73.014 46.6875C73.4725 47.1568 73.8689 47.6177 73.895 47.7115C73.9211 47.8052 73.9995 48.2316 74.0693 48.659C74.2793 49.9445 74.6257 50.7999 75.3414 51.8003C75.787 52.4231 75.9019 52.699 76.0811 53.5758C76.2914 54.6045 76.4449 55.0862 76.7927 55.8099C77.0479 56.3407 77.174 56.8842 77.2919 57.9624C77.2984 58.021 77.2367 58.069 77.1549 58.069ZM70.2785 55.1279C69.978 54.2606 69.6035 53.7161 69.0722 53.3739C68.6324 53.0906 68.6472 53.2473 69.1027 53.6978C69.7897 54.3773 70.284 55.6213 70.0934 56.1912C69.9105 56.738 69.3664 56.6912 68.5597 56.0593C67.9918 55.6144 67.5922 55.0884 67.5208 54.6917C67.4231 54.1491 67.8068 53.425 68.3061 53.2095C68.4435 53.1502 68.5398 53.085 68.5202 53.0646C68.4293 52.9699 67.7934 53.4175 67.6149 53.7018C67.1611 54.4246 67.2649 54.9473 68.025 55.7678C68.6192 56.4091 69.1571 56.7284 69.6627 56.7398C70.3795 56.756 70.6223 56.1205 70.2785 55.1279ZM69.7678 36.2372C69.4741 35.8058 68.7925 35.0523 68.6958 35.0523C68.6599 35.0523 68.7878 35.2536 68.98 35.4998C69.1723 35.746 69.455 36.1296 69.6084 36.3523C69.8688 36.7306 70.023 36.8542 70.023 36.6848C70.023 36.645 69.9082 36.4435 69.7678 36.2372ZM66.6184 57.9673C66.2235 58.3952 66.1796 58.4193 65.844 58.3941C65.1202 58.3396 64.9536 57.6253 65.2796 55.9744C65.3702 55.5152 65.4587 55.1248 65.4761 55.1066C65.4935 55.0884 65.9537 55.4248 66.4987 55.8542L67.4895 56.6348L67.2633 57.0742C67.1389 57.316 66.8488 57.7178 66.6184 57.9673ZM65.6858 48.3092C65.5576 48.3918 64.8879 47.8386 64.168 47.0554C63.5724 46.4075 62.7424 45.3569 62.7424 45.251C62.7424 45.1652 63.468 45.0954 63.7319 45.1558C64.258 45.2762 65.4612 46.7286 65.6725 47.4983C65.7822 47.8978 65.7879 48.2435 65.6858 48.3092ZM64.7125 52.3261C64.6265 52.4731 64.4712 52.6553 64.3673 52.7311C64.2635 52.8068 64.2163 52.8689 64.2625 52.8689C64.3885 52.8689 64.8694 52.325 64.869 52.1828C64.8689 52.1148 64.7984 52.1793 64.7125 52.3261ZM63.3151 33.6287C63.0676 33.6287 62.9663 33.6446 63.0901 33.6641C63.2139 33.6836 63.4163 33.6836 63.54 33.6641C63.6638 33.6446 63.5625 33.6287 63.3151 33.6287ZM62.2448 33.4823C62.0131 33.4503 61.807 33.4412 61.7869 33.4622C61.7668 33.4832 61.9391 33.5274 62.1698 33.5605C62.4005 33.5935 62.6066 33.6026 62.6277 33.5806C62.6489 33.5586 62.4765 33.5144 62.2448 33.4823ZM61.5154 33.3608C61.4029 33.3608 61.3568 33.3802 61.4131 33.4038C61.4693 33.4275 61.5614 33.4275 61.6176 33.4038C61.6738 33.3802 61.6279 33.3608 61.5154 33.3608ZM61.1405 33.2688C61.0452 33.2729 61.0258 33.2931 61.091 33.3203C61.15 33.345 61.2206 33.3419 61.2478 33.3136C61.275 33.2853 61.2267 33.2652 61.1405 33.2688ZM45.2668 39.9114C45.2079 39.7941 45.0084 39.3722 44.8234 38.9736C44.4253 38.1163 44.2018 37.7547 43.9809 37.611C43.8771 37.5435 43.9129 37.6239 44.0804 37.8347C44.2432 38.0395 44.4212 38.4332 44.5517 38.8774C44.6963 39.3695 44.8458 39.6869 45.0332 39.9001C45.3313 40.239 45.4336 40.2439 45.2668 39.9114ZM44.7178 40.3067C44.3472 39.7511 44.1164 39.4949 43.8457 39.3389L43.4775 39.1265L43.8994 39.5403C44.1314 39.7678 44.4515 40.1721 44.6109 40.4387C44.7701 40.7054 44.976 40.9656 45.0684 41.0172C45.1607 41.0687 45.2331 41.0999 45.2291 41.0865C45.225 41.0731 44.995 40.7222 44.7178 40.3067ZM41.1428 41.3651C40.3648 41.3481 37.6924 42.4949 35.8101 43.6534C34.873 44.2303 33.9828 44.9292 32.7903 46.0242C31.7817 46.9506 29.7903 48.9571 30.0234 48.8123C30.5899 48.4602 31.6564 47.5803 32.6063 46.6815C34.6697 44.7288 36.0943 43.6112 37.3591 42.9525C38.1624 42.5342 39.8693 41.8259 40.665 41.5808C41.0421 41.4646 41.2571 41.3675 41.1428 41.3651Z" fill="black"/>
<path d="M0 1.29824H11.4184V2.51858H1.2774V9.84064H10.4017V11.061H1.2774V18.5129H11.7834V19.7332H0V1.29824ZM19.5955 20.1227L14.4338 9.58099H15.8676L19.7259 17.9416L23.4538 9.58099H24.8094L19.7519 20.1227H19.5955ZM32.271 24.6925C31.4196 24.6925 30.62 24.5367 29.8726 24.2251C29.1255 23.9135 28.3434 23.3769 27.5264 22.6153L28.2563 21.7844C29.0037 22.4941 29.699 22.9702 30.3419 23.2125C30.985 23.4721 31.6107 23.602 32.2189 23.602C33.2791 23.602 34.1219 23.4288 34.7476 23.0827C35.3733 22.7538 35.8253 22.3037 36.1032 21.7325C36.3814 21.1786 36.5292 20.5554 36.5464 19.863L36.5725 17.4743C36.1382 18.2186 35.5036 18.8158 34.6694 19.2658C33.8526 19.7159 32.9488 19.9409 31.9582 19.9409C31.0025 19.9409 30.1247 19.7072 29.3252 19.2399C28.5431 18.7552 27.9174 18.1147 27.4482 17.3185C26.9789 16.5049 26.7443 15.6048 26.7443 14.6182C26.7443 13.5622 26.9878 12.6362 27.4742 11.8399C27.961 11.0437 28.6213 10.4205 29.4555 9.97046C30.2897 9.5031 31.211 9.26941 32.2189 9.26941C33.1052 9.26941 33.9569 9.49445 34.7737 9.9445C35.5907 10.3773 36.1989 10.9571 36.5985 11.6841L36.7028 9.58099H37.7977V19.889C37.7977 20.7199 37.6066 21.4988 37.2242 22.2258C36.8592 22.9702 36.2685 23.5673 35.4515 24.0174C34.6522 24.4674 33.5919 24.6925 32.271 24.6925ZM27.9696 14.5922C27.9696 15.3884 28.1609 16.1155 28.5431 16.7732C28.9255 17.4137 29.4383 17.933 30.0812 18.3311C30.7418 18.7119 31.4717 18.9023 32.271 18.9023C33.0359 18.9023 33.7309 18.7379 34.3566 18.409C34.9822 18.0628 35.495 17.6041 35.8947 17.0329C36.2946 16.4616 36.5203 15.8471 36.5725 15.1894V13.6834C36.3639 12.7141 35.86 11.9092 35.0604 11.2687C34.2612 10.6282 33.3313 10.308 32.271 10.308C31.4717 10.308 30.7418 10.4898 30.0812 10.8533C29.4383 11.2168 28.9255 11.7187 28.5431 12.3592C28.1609 12.9997 27.9696 13.744 27.9696 14.5922ZM46.8819 19.9409C45.8216 19.9409 44.8831 19.7072 44.0664 19.2399C43.2494 18.7725 42.6065 18.1407 42.1373 17.3445C41.6852 16.5309 41.4594 15.6221 41.4594 14.6182C41.4594 13.6315 41.7027 12.7314 42.1894 11.9178C42.6758 11.1043 43.3276 10.4551 44.1446 9.97046C44.9788 9.48578 45.8999 9.24345 46.908 9.24345C48.1244 9.24345 49.1411 9.59831 49.9581 10.308C50.7923 11.0177 51.3919 11.9438 51.7569 13.0862L43.0497 16.4357C43.3797 17.1454 43.875 17.7339 44.5356 18.2013C45.2134 18.6513 46.0041 18.8764 46.908 18.8764C47.464 18.8764 47.994 18.7725 48.4982 18.5648C49.0196 18.3571 49.48 18.0888 49.8799 17.7599L50.5055 18.6427C50.0188 19.0235 49.4539 19.3351 48.811 19.5774C48.1854 19.8197 47.5422 19.9409 46.8819 19.9409ZM42.6586 14.5662C42.6586 14.8951 42.6933 15.2153 42.7629 15.5269L50.2709 12.5929C49.9581 11.9697 49.5149 11.4331 48.9414 10.9831C48.3678 10.5157 47.664 10.282 46.8297 10.282C46.0477 10.282 45.3438 10.4724 44.7181 10.8533C44.0925 11.2341 43.5883 11.7447 43.2061 12.3852C42.8411 13.0257 42.6586 13.7527 42.6586 14.5662ZM56.2226 9.58099L56.3268 11.8399C56.6743 11.0437 57.2393 10.4205 58.0214 9.97046C58.8209 9.52042 59.6898 9.29538 60.6283 9.29538C61.5843 9.29538 62.3575 9.58099 62.9485 10.1522C63.5395 10.7061 63.8434 11.4331 63.8609 12.3333V19.7332H62.6096V12.6708C62.5921 12.013 62.3836 11.4678 61.9839 11.035C61.5843 10.6023 61.0019 10.3773 60.2373 10.3599C59.5595 10.3599 58.9252 10.5244 58.3342 10.8533C57.7432 11.1822 57.2653 11.6409 56.9004 12.2294C56.5529 12.8179 56.379 13.5017 56.379 14.2806V19.7332H55.1537V9.58099H56.2226ZM68.494 9.58099H69.7192V19.7332H68.494V9.58099ZM68.2333 5.84207C68.2333 5.59974 68.3289 5.40067 68.52 5.24488C68.7111 5.07177 68.9197 4.98523 69.1457 4.98523C69.3889 4.98523 69.5975 5.07177 69.7714 5.24488C69.9453 5.40067 70.0321 5.59974 70.0321 5.84207C70.0321 6.10172 69.9453 6.31808 69.7714 6.49119C69.5975 6.64698 69.3889 6.72487 69.1457 6.72487C68.9197 6.72487 68.7111 6.63833 68.52 6.46522C68.3289 6.29212 68.2333 6.0844 68.2333 5.84207ZM75.2879 24.6146L77.4778 19.6293L72.7592 9.58099H74.1409L78.1034 18.2273L81.9356 9.58099H83.1348L76.5653 24.6146H75.2879ZM90.258 19.9409C89.2849 19.9409 88.3985 19.7246 87.599 19.2918C86.8169 18.8418 86.1912 18.2186 85.722 17.4223C85.2702 16.6261 85.0441 15.7 85.0441 14.6441C85.0441 13.519 85.2876 12.5583 85.7741 11.762C86.2608 10.9485 86.9211 10.334 87.7554 9.91853C88.5896 9.48578 89.537 9.26941 90.5969 9.26941C91.4312 9.26941 92.2307 9.51174 92.9953 9.99643C93.7774 10.4638 94.3598 11.061 94.742 11.788L94.8723 9.58099H95.9672V19.7332H94.742V17.5781C94.3598 18.184 93.7688 18.7292 92.9693 19.2139C92.17 19.6986 91.2661 19.9409 90.258 19.9409ZM90.5187 18.9023C91.2836 18.9023 91.97 18.7465 92.5782 18.435C93.2039 18.1061 93.7081 17.656 94.0902 17.0848C94.4727 16.5136 94.6898 15.8558 94.742 15.1115V13.6575C94.603 13.017 94.3249 12.4458 93.9077 11.9438C93.5081 11.4418 93.0128 11.0437 92.4218 10.7494C91.8311 10.4551 91.1879 10.308 90.4927 10.308C89.728 10.308 89.0242 10.4898 88.381 10.8533C87.7382 11.1995 87.2254 11.6928 86.8429 12.3333C86.4608 12.9737 86.2694 13.7267 86.2694 14.5922C86.2694 15.3884 86.4608 16.1155 86.8429 16.7732C87.2254 17.4137 87.7382 17.933 88.381 18.3311C89.0416 18.7119 89.7541 18.9023 90.5187 18.9023ZM123.19 18.435C122.773 18.7119 122.243 18.9629 121.6 19.1879C120.974 19.413 120.305 19.5947 119.592 19.7332C118.897 19.8717 118.228 19.9409 117.585 19.9409C116.125 19.9409 114.804 19.7072 113.623 19.2399C112.458 18.7552 111.459 18.0974 110.625 17.2666C109.79 16.4184 109.147 15.4404 108.695 14.3325C108.261 13.2074 108.044 11.9957 108.044 10.6975C108.044 9.29538 108.287 8.00579 108.774 6.82873C109.278 5.65167 109.964 4.63904 110.833 3.79085C111.702 2.92537 112.71 2.25893 113.857 1.79157C115.004 1.3242 116.221 1.09052 117.507 1.09052C118.48 1.09052 119.392 1.21169 120.244 1.45402C121.113 1.69636 121.895 2.02525 122.59 2.44069L122.121 3.58314C121.513 3.21963 120.8 2.92537 119.983 2.70033C119.184 2.47531 118.402 2.36279 117.637 2.36279C116.455 2.36279 115.36 2.57051 114.352 2.98595C113.344 3.40138 112.467 3.98125 111.719 4.72558C110.972 5.46992 110.39 6.34404 109.973 7.34802C109.556 8.352 109.347 9.44252 109.347 10.6196C109.347 12.1429 109.686 13.519 110.364 14.748C111.042 15.9597 111.997 16.9204 113.231 17.6301C114.465 18.3398 115.908 18.6946 117.559 18.6946C118.289 18.6946 119.054 18.6081 119.853 18.435C120.652 18.2619 121.339 18.0109 121.913 17.682V12.5669H117.741V11.3466H123.19V18.435ZM131.121 20.0188C130.165 20.0188 129.4 19.7419 128.826 19.1879C128.253 18.6167 127.949 17.8811 127.914 16.9809V9.58099H129.139V16.6174C129.174 17.2752 129.383 17.8205 129.765 18.2532C130.165 18.686 130.756 18.9197 131.538 18.9543C132.198 18.9543 132.815 18.7812 133.389 18.435C133.962 18.0888 134.423 17.6214 134.77 17.0329C135.135 16.427 135.318 15.7433 135.318 14.9817V9.58099H136.543V19.7332H135.448L135.37 17.5781C135.022 18.2878 134.449 18.8764 133.649 19.3437C132.867 19.7938 132.024 20.0188 131.121 20.0188ZM142.247 9.58099L142.351 11.8399C142.699 11.0437 143.263 10.4205 144.046 9.97046C144.845 9.52042 145.714 9.29538 146.652 9.29538C147.608 9.29538 148.382 9.58099 148.973 10.1522C149.563 10.7061 149.868 11.4331 149.885 12.3333V19.7332H148.634V12.6708C148.616 12.013 148.408 11.4678 148.008 11.035C147.608 10.6023 147.026 10.3773 146.261 10.3599C145.584 10.3599 144.949 10.5244 144.358 10.8533C143.767 11.1822 143.29 11.6409 142.925 12.2294C142.577 12.8179 142.403 13.5017 142.403 14.2806V19.7332H141.178V9.58099H142.247ZM154.518 19.7332V0H155.743V14.3585L161.452 9.37327L162.208 10.0224L158.298 13.4497L162.834 19.7332H161.4L157.464 14.1768L155.743 15.6827V19.7332H154.518ZM164.729 14.5922C164.729 13.6055 164.964 12.7054 165.433 11.8919C165.92 11.0783 166.571 10.4378 167.388 9.97046C168.222 9.48578 169.152 9.24345 170.178 9.24345C171.22 9.24345 172.15 9.48578 172.967 9.97046C173.784 10.4378 174.427 11.0783 174.896 11.8919C175.365 12.7054 175.6 13.6055 175.6 14.5922C175.6 15.5788 175.365 16.479 174.896 17.2925C174.427 18.1061 173.775 18.7552 172.941 19.2399C172.124 19.7072 171.194 19.9409 170.151 19.9409C169.126 19.9409 168.205 19.7159 167.388 19.2658C166.571 18.7985 165.92 18.1667 165.433 17.3704C164.964 16.5569 164.729 15.6308 164.729 14.5922ZM165.954 14.6182C165.954 15.4144 166.137 16.1414 166.502 16.7992C166.884 17.4397 167.388 17.9503 168.014 18.3311C168.657 18.7119 169.369 18.9023 170.151 18.9023C170.934 18.9023 171.637 18.7119 172.263 18.3311C172.906 17.9503 173.41 17.4397 173.775 16.7992C174.158 16.1414 174.349 15.4144 174.349 14.6182C174.349 13.8219 174.158 13.1035 173.775 12.4631C173.41 11.8053 172.906 11.286 172.263 10.9052C171.637 10.5071 170.934 10.308 170.151 10.308C169.352 10.308 168.631 10.5157 167.988 10.9312C167.362 11.3293 166.867 11.8572 166.502 12.515C166.137 13.1728 165.954 13.8738 165.954 14.6182Z" fill="black"/>
</svg>
