<svg width="93" height="24" viewBox="0 0 93 24" fill="none" xmlns="http://www.w3.org/2000/svg">
<path d="M0.289062 12V0.199999H0.889063V12H0.289062ZM2.68906 12V0.199999H3.88906V12H2.68906ZM4.48906 12V0.199999H5.08906V12H4.48906ZM6.89062 12V0.199999H9.29063V12H6.89062ZM9.89063 12V0.199999H10.4906V12H9.89063ZM11.6906 12V0.199999H12.2906V12H11.6906ZM13.4922 12V0.199999H14.0922V12H13.4922ZM15.2922 12V0.199999H16.4922V12H15.2922ZM17.0922 12V0.199999H17.6922V12H17.0922ZM20.0938 12V0.199999H20.6938V12H20.0938ZM21.2938 12V0.199999H22.4938V12H21.2938ZM23.6938 12V0.199999H24.2938V12H23.6938ZM26.6953 12V0.199999H27.8953V12H26.6953ZM30.2953 12V0.199999H30.8953V12H30.2953ZM31.4953 12V0.199999H32.0953V12H31.4953ZM33.2969 12V0.199999H33.8969V12H33.2969ZM36.2969 12V0.199999H37.4969V12H36.2969ZM38.0969 12V0.199999H38.6969V12H38.0969ZM39.8984 12V0.199999H41.0984V12H39.8984ZM41.6984 12V0.199999H42.8984V12H41.6984ZM43.4984 12V0.199999H45.8984V12H43.4984ZM46.5 12V0.199999H47.1V12H46.5ZM48.3 12V0.199999H48.9V12H48.3ZM49.5 12V0.199999H50.7V12H49.5ZM53.1016 12V0.199999H54.3016V12H53.1016ZM54.9016 12V0.199999H56.1016V12H54.9016ZM57.3016 12V0.199999H58.5016V12H57.3016ZM59.7031 12V0.199999H60.9031V12H59.7031ZM61.5031 12V0.199999H62.1031V12H61.5031ZM63.9031 12V0.199999H64.5031V12H63.9031ZM66.3047 12V0.199999H66.9047V12H66.3047ZM68.1047 12V0.199999H70.5047V12H68.1047ZM71.7047 12V0.199999H72.3047V12H71.7047ZM72.9062 12V0.199999H74.1063V12H72.9062ZM76.5063 12V0.199999H77.1063V12H76.5063ZM77.7063 12V0.199999H78.3063V12H77.7063ZM79.5078 12V0.199999H80.7078V12H79.5078ZM83.1078 12V0.199999H83.7078V12H83.1078ZM84.9078 12V0.199999H85.5078V12H84.9078ZM86.1094 12V0.199999H86.7094V12H86.1094ZM88.5094 12V0.199999H90.9094V12H88.5094ZM91.5094 12V0.199999H92.1094V12H91.5094Z" fill="black"/>
<path d="M1.30701 17.1H3.19701C3.70568 17.1 4.15601 17.205 4.54801 17.415C4.94468 17.625 5.25035 17.9167 5.46501 18.29C5.68435 18.6587 5.79401 19.0787 5.79401 19.55C5.79401 20.0213 5.68435 20.4437 5.46501 20.817C5.25035 21.1857 4.94468 21.475 4.54801 21.685C4.15601 21.895 3.70568 22 3.19701 22H1.30701V17.1ZM3.18301 21.783C3.65901 21.783 4.07435 21.6873 4.42901 21.496C4.78835 21.3047 5.06601 21.041 5.26201 20.705C5.45801 20.3643 5.55601 19.9793 5.55601 19.55C5.55601 19.1207 5.45801 18.738 5.26201 18.402C5.06601 18.0613 4.78835 17.7953 4.42901 17.604C4.07435 17.4127 3.65901 17.317 3.18301 17.317H1.54501V21.783H3.18301ZM18.2062 21.783V22H14.8952V17.1H18.1082V17.317H15.1332V19.403H17.7932V19.62H15.1332V21.783H18.2062ZM28.615 22.028C28.2603 22.028 27.922 21.965 27.6 21.839C27.2827 21.713 27.0377 21.5497 26.865 21.349L26.991 21.181C27.1543 21.3677 27.3807 21.5217 27.67 21.643C27.964 21.7597 28.2767 21.818 28.608 21.818C29.098 21.818 29.4667 21.7223 29.714 21.531C29.966 21.335 30.092 21.0853 30.092 20.782C30.092 20.5487 30.0267 20.362 29.896 20.222C29.7653 20.0773 29.6043 19.97 29.413 19.9C29.2217 19.8253 28.9603 19.7483 28.629 19.669C28.2743 19.5803 27.9897 19.494 27.775 19.41C27.5603 19.326 27.3783 19.1977 27.229 19.025C27.0797 18.8523 27.005 18.6213 27.005 18.332C27.005 18.1033 27.0657 17.8933 27.187 17.702C27.3083 17.5107 27.4927 17.359 27.74 17.247C27.992 17.1303 28.3047 17.072 28.678 17.072C28.944 17.072 29.2053 17.1117 29.462 17.191C29.7233 17.2703 29.945 17.38 30.127 17.52L30.022 17.709C29.8307 17.569 29.616 17.464 29.378 17.394C29.1447 17.3193 28.9137 17.282 28.685 17.282C28.209 17.282 27.8473 17.3823 27.6 17.583C27.3573 17.779 27.236 18.0287 27.236 18.332C27.236 18.57 27.3013 18.7613 27.432 18.906C27.5673 19.046 27.7307 19.1533 27.922 19.228C28.118 19.3027 28.3793 19.3797 28.706 19.459C29.0607 19.5477 29.3453 19.634 29.56 19.718C29.7747 19.7973 29.9543 19.9233 30.099 20.096C30.2483 20.264 30.323 20.4903 30.323 20.775C30.323 21.0037 30.26 21.2137 30.134 21.405C30.0127 21.5963 29.8237 21.748 29.567 21.86C29.3103 21.972 28.993 22.028 28.615 22.028ZM39.4056 17.1H39.6436V22H39.4056V17.1ZM52.7829 19.585H53.0069V21.398C52.7922 21.6033 52.5355 21.7597 52.2369 21.867C51.9429 21.9743 51.6279 22.028 51.2919 22.028C50.8112 22.028 50.3772 21.9207 49.9899 21.706C49.6025 21.4913 49.2969 21.195 49.0729 20.817C48.8535 20.439 48.7439 20.0167 48.7439 19.55C48.7439 19.0833 48.8535 18.661 49.0729 18.283C49.2969 17.905 49.6025 17.6087 49.9899 17.394C50.3772 17.1793 50.8112 17.072 51.2919 17.072C51.6419 17.072 51.9639 17.1257 52.2579 17.233C52.5519 17.3403 52.8039 17.5013 53.0139 17.716L52.8739 17.877C52.4679 17.485 51.9429 17.289 51.2989 17.289C50.8602 17.289 50.4635 17.3893 50.1089 17.59C49.7589 17.786 49.4835 18.0567 49.2829 18.402C49.0822 18.7473 48.9819 19.13 48.9819 19.55C48.9819 19.97 49.0822 20.3527 49.2829 20.698C49.4835 21.0433 49.7589 21.3163 50.1089 21.517C50.4635 21.713 50.8602 21.811 51.2989 21.811C51.9102 21.811 52.4049 21.6407 52.7829 21.3V19.585ZM66.3798 17.1V22H66.1838L62.7048 17.534V22H62.4668V17.1H62.6628L66.1418 21.566V17.1H66.3798ZM79.2908 21.783V22H75.9798V17.1H79.1928V17.317H76.2178V19.403H78.8778V19.62H76.2178V21.783H79.2908ZM91.9046 22L90.6936 20.313C90.5349 20.341 90.3576 20.355 90.1616 20.355H88.6986V22H88.4606V17.1H90.1616C90.7729 17.1 91.2489 17.2447 91.5896 17.534C91.9349 17.8187 92.1076 18.2153 92.1076 18.724C92.1076 19.116 92.0049 19.445 91.7996 19.711C91.5989 19.9723 91.3096 20.1543 90.9316 20.257L92.1846 22H91.9046ZM90.1756 20.138C90.7216 20.138 91.1416 20.0167 91.4356 19.774C91.7296 19.5267 91.8766 19.1767 91.8766 18.724C91.8766 18.276 91.7296 17.9307 91.4356 17.688C91.1416 17.4407 90.7216 17.317 90.1756 17.317H88.6986V20.138H90.1756Z" fill="black"/>
</svg>
