<svg width="150" height="60" viewBox="0 0 150 60" fill="none" xmlns="http://www.w3.org/2000/svg">
<path d="M0 1.05329H9.71765V2.04338H1.08713V7.98391H8.85238V8.974H1.08713V15.0199H10.0283V16.01H0V1.05329ZM16.6768 16.3259L12.2839 7.77325H13.5041L16.7877 14.5564L19.9604 7.77325H21.1141L16.8099 16.3259H16.6768ZM27.4643 20.0335C26.7397 20.0335 26.0592 19.9071 25.4231 19.6543C24.7873 19.4015 24.1217 18.9662 23.4263 18.3482L24.0476 17.6741C24.6836 18.2499 25.2754 18.6362 25.8225 18.8328C26.3698 19.0434 26.9023 19.1487 27.4199 19.1487C28.3222 19.1487 29.0395 19.0083 29.572 18.7274C30.1044 18.4606 30.4892 18.0955 30.7257 17.632C30.9624 17.1826 31.0882 16.677 31.1028 16.1153L31.125 14.1772C30.7554 14.7811 30.2154 15.2656 29.5054 15.6308C28.8103 15.9959 28.0411 16.1785 27.198 16.1785C26.3847 16.1785 25.6377 15.9889 24.9572 15.6097C24.2916 15.2165 23.7591 14.6969 23.3598 14.0508C22.9604 13.3908 22.7607 12.6605 22.7607 11.86C22.7607 11.0033 22.968 10.252 23.382 9.60597C23.7962 8.95995 24.3582 8.45437 25.0681 8.08924C25.7781 7.71006 26.5622 7.52047 27.4199 7.52047C28.1742 7.52047 28.8991 7.70304 29.5942 8.06817C30.2895 8.41928 30.8071 8.88974 31.1472 9.47958L31.236 7.77325H32.1678V16.1363C32.1678 16.8105 32.0052 17.4424 31.6797 18.0323C31.3691 18.6362 30.8663 19.1207 30.171 19.4858C29.4908 19.8509 28.5884 20.0335 27.4643 20.0335ZM23.8035 11.8389C23.8035 12.485 23.9664 13.0748 24.2916 13.6085C24.6171 14.1281 25.0535 14.5494 25.6006 14.8724C26.1628 15.1814 26.784 15.3359 27.4643 15.3359C28.1152 15.3359 28.7067 15.2024 29.2392 14.9356C29.7716 14.6547 30.2081 14.2826 30.5482 13.8191C30.8885 13.3557 31.0806 12.8571 31.125 12.3235V11.1016C30.9475 10.3152 30.5187 9.66216 29.8382 9.14253C29.158 8.6229 28.3666 8.3631 27.4643 8.3631C26.784 8.3631 26.1628 8.51056 25.6006 8.80548C25.0535 9.1004 24.6171 9.50766 24.2916 10.0273C23.9664 10.5469 23.8035 11.1508 23.8035 11.8389ZM39.8989 16.1785C38.9965 16.1785 38.1978 15.9889 37.5027 15.6097C36.8074 15.2305 36.2603 14.7179 35.8609 14.0719C35.4762 13.4119 35.2841 12.6746 35.2841 11.86C35.2841 11.0595 35.4911 10.3292 35.9053 9.66917C36.3193 9.00912 36.874 8.48248 37.5693 8.08924C38.2792 7.69601 39.0631 7.4994 39.921 7.4994C40.9563 7.4994 41.8215 7.78731 42.5168 8.3631C43.2268 8.93889 43.7371 9.69024 44.0477 10.6171L36.6375 13.3346C36.9183 13.9104 37.3399 14.3879 37.9021 14.7671C38.4789 15.1322 39.1518 15.3148 39.921 15.3148C40.3943 15.3148 40.8453 15.2305 41.2744 15.062C41.7181 14.8935 42.11 14.6758 42.4503 14.409L42.9828 15.1252C42.5685 15.4342 42.0878 15.687 41.5406 15.8836C41.0082 16.0802 40.4608 16.1785 39.8989 16.1785ZM36.3047 11.8179C36.3047 12.0847 36.3342 12.3445 36.3934 12.5973L42.7831 10.2169C42.5169 9.7113 42.1397 9.27594 41.6516 8.9108C41.1635 8.53162 40.5644 8.34203 39.8545 8.34203C39.1889 8.34203 38.5899 8.4965 38.0574 8.80548C37.5249 9.11445 37.0958 9.52872 36.7706 10.0484C36.46 10.568 36.3047 11.1578 36.3047 11.8179ZM47.8482 7.77325L47.937 9.60597C48.2327 8.95995 48.7135 8.45437 49.3791 8.08924C50.0596 7.72411 50.799 7.54153 51.5977 7.54153C52.4113 7.54153 53.0694 7.77325 53.5723 8.2367C54.0753 8.6861 54.334 9.27594 54.3489 10.0062V16.01H53.2839V10.2801C53.269 9.74642 53.0916 9.30404 52.7514 8.95294C52.4113 8.60183 51.9157 8.41928 51.265 8.40523C50.6881 8.40523 50.1483 8.53864 49.6453 8.80548C49.1424 9.07231 48.7357 9.44446 48.4251 9.92196C48.1293 10.3995 47.9814 10.9542 47.9814 11.5862V16.01H46.9386V7.77325H47.8482ZM58.2918 7.77325H59.3346V16.01H58.2918V7.77325ZM58.07 4.73979C58.07 4.54318 58.1514 4.38167 58.314 4.25528C58.4766 4.11483 58.6541 4.04462 58.8465 4.04462C59.0535 4.04462 59.231 4.11483 59.379 4.25528C59.527 4.38167 59.6008 4.54318 59.6008 4.73979C59.6008 4.95045 59.527 5.12599 59.379 5.26643C59.231 5.39283 59.0535 5.45602 58.8465 5.45602C58.6541 5.45602 58.4766 5.38581 58.314 5.24537C58.1514 5.10492 58.07 4.9364 58.07 4.73979ZM64.0738 19.9703L65.9375 15.9257L61.9218 7.77325H63.0976L66.47 14.7881L69.7314 7.77325H70.7519L65.161 19.9703H64.0738ZM76.8141 16.1785C75.9859 16.1785 75.2316 16.0029 74.5511 15.6518C73.8856 15.2867 73.3531 14.7811 72.9537 14.1351C72.5692 13.4891 72.3769 12.7378 72.3769 11.8811C72.3769 10.9682 72.5841 10.1888 72.9981 9.54278C73.4123 8.88272 73.9743 8.38416 74.6843 8.04711C75.3942 7.69601 76.2005 7.52047 77.1026 7.52047C77.8125 7.52047 78.493 7.71707 79.1437 8.11031C79.8093 8.48949 80.305 8.974 80.6302 9.56384L80.7411 7.77325H81.673V16.01H80.6302V14.2615C80.305 14.753 79.802 15.1954 79.1215 15.5886C78.4413 15.9819 77.6721 16.1785 76.8141 16.1785ZM77.036 15.3359C77.687 15.3359 78.2711 15.2095 78.7887 14.9567C79.3212 14.6898 79.7503 14.3247 80.0756 13.8613C80.401 13.3978 80.5858 12.8641 80.6302 12.2603V11.0806C80.512 10.5609 80.2752 10.0975 79.9202 9.69024C79.5801 9.28297 79.1586 8.95995 78.6556 8.72121C78.1529 8.48247 77.6055 8.3631 77.0138 8.3631C76.3631 8.3631 75.7641 8.51056 75.2167 8.80548C74.6696 9.08634 74.2332 9.48659 73.9077 10.0062C73.5825 10.5259 73.4196 11.1368 73.4196 11.8389C73.4196 12.485 73.5825 13.0748 73.9077 13.6085C74.2332 14.1281 74.6696 14.5494 75.2167 14.8724C75.7789 15.1814 76.3853 15.3359 77.036 15.3359ZM104.841 14.9567C104.486 15.1814 104.035 15.385 103.488 15.5676C102.955 15.7502 102.386 15.8976 101.779 16.01C101.187 16.1223 100.618 16.1785 100.071 16.1785C98.8284 16.1785 97.7042 15.9889 96.6985 15.6097C95.7074 15.2165 94.857 14.6828 94.1471 14.0087C93.4371 13.3206 92.8898 12.5271 92.5053 11.6283C92.1354 10.7154 91.9506 9.73237 91.9506 8.67908C91.9506 7.54153 92.1576 6.49526 92.5718 5.54029C93.0007 4.58531 93.5849 3.76375 94.3245 3.0756C95.064 2.37341 95.922 1.83272 96.8982 1.45354C97.8744 1.07435 98.9096 0.88476 100.004 0.88476C100.832 0.88476 101.609 0.983067 102.334 1.17968C103.073 1.37629 103.739 1.64313 104.331 1.98018L103.931 2.90707C103.413 2.61215 102.807 2.37341 102.112 2.19084C101.432 2.00827 100.766 1.91698 100.115 1.91698C99.1093 1.91698 98.1774 2.08551 97.3197 2.42256C96.4618 2.75961 95.7148 3.23007 95.0789 3.83396C94.4428 4.43786 93.9474 5.14705 93.5924 5.9616C93.2374 6.77615 93.0599 7.66091 93.0599 8.61588C93.0599 9.85175 93.3484 10.9682 93.9252 11.9653C94.502 12.9484 95.3154 13.7278 96.3657 14.3036C97.4158 14.8794 98.6434 15.1673 100.049 15.1673C100.67 15.1673 101.321 15.0971 102.001 14.9567C102.681 14.8162 103.266 14.6126 103.754 14.3458V10.1958H100.204V9.20573H104.841V14.9567ZM111.59 16.2417C110.777 16.2417 110.126 16.017 109.638 15.5676C109.15 15.1041 108.891 14.5073 108.861 13.777V7.77325H109.904V13.4821C109.934 14.0157 110.111 14.4581 110.437 14.8092C110.777 15.1603 111.28 15.3499 111.945 15.378C112.507 15.378 113.032 15.2375 113.52 14.9567C114.009 14.6758 114.4 14.2966 114.696 13.8191C115.007 13.3276 115.162 12.7728 115.162 12.1549V7.77325H116.205V16.01H115.273L115.207 14.2615C114.911 14.8373 114.423 15.3148 113.742 15.694C113.077 16.0591 112.359 16.2417 111.59 16.2417ZM121.059 7.77325L121.148 9.60597C121.444 8.95995 121.924 8.45437 122.59 8.08924C123.27 7.72411 124.01 7.54153 124.809 7.54153C125.622 7.54153 126.28 7.77325 126.783 8.2367C127.286 8.6861 127.545 9.27594 127.56 10.0062V16.01H126.495V10.2801C126.48 9.74642 126.302 9.30404 125.962 8.95294C125.622 8.60183 125.127 8.41928 124.476 8.40523C123.899 8.40523 123.359 8.53864 122.856 8.80548C122.353 9.07231 121.947 9.44446 121.636 9.92196C121.34 10.3995 121.192 10.9542 121.192 11.5862V16.01H120.15V7.77325H121.059ZM131.503 16.01V0H132.545V11.6493L137.404 7.60473L138.048 8.13137L134.72 10.912L138.58 16.01H137.36L134.01 11.5019L132.545 12.7237V16.01H131.503ZM140.193 11.8389C140.193 11.0384 140.392 10.3082 140.792 9.6481C141.206 8.98805 141.761 8.46842 142.456 8.08924C143.166 7.69601 143.957 7.4994 144.83 7.4994C145.717 7.4994 146.509 7.69601 147.204 8.08924C147.899 8.46842 148.446 8.98805 148.845 9.6481C149.245 10.3082 149.444 11.0384 149.444 11.8389C149.444 12.6394 149.245 13.3697 148.845 14.0298C148.446 14.6898 147.891 15.2165 147.181 15.6097C146.486 15.9889 145.695 16.1785 144.808 16.1785C143.935 16.1785 143.151 15.9959 142.456 15.6308C141.761 15.2516 141.206 14.739 140.792 14.093C140.392 13.4329 140.193 12.6816 140.193 11.8389ZM141.235 11.86C141.235 12.506 141.391 13.0959 141.701 13.6295C142.027 14.1492 142.456 14.5634 142.988 14.8724C143.536 15.1814 144.142 15.3359 144.808 15.3359C145.473 15.3359 146.072 15.1814 146.605 14.8724C147.152 14.5634 147.581 14.1492 147.891 13.6295C148.217 13.0959 148.379 12.506 148.379 11.86C148.379 11.214 148.217 10.6312 147.891 10.1116C147.581 9.57789 147.152 9.15658 146.605 8.84761C146.072 8.52461 145.473 8.3631 144.808 8.3631C144.127 8.3631 143.513 8.53162 142.966 8.86867C142.434 9.19167 142.012 9.62002 141.701 10.1537C141.391 10.6873 141.235 11.2561 141.235 11.86Z" fill="black"/>
<path fill-rule="evenodd" clip-rule="evenodd" d="M71.4857 43.5091C71.3707 43.1442 71.087 42.6696 70.4592 41.7924C69.9487 41.079 69.5444 40.4295 68.5123 38.6656C67.5482 37.0178 66.8141 36.4722 64.2952 35.532C62.2477 34.7677 61.4961 34.37 59.9794 33.2483C59.0935 32.5931 58.5829 32.2862 57.912 32.0056C57.0086 31.6278 56.3528 31.4994 53.6793 31.177C52.9846 31.0933 52.0779 30.9736 51.6643 30.9112C51.2508 30.8488 50.2494 30.7133 49.4389 30.6103C48.6284 30.5072 47.0914 30.2499 46.0232 30.0386C43.2063 29.4812 42.1372 29.3402 40.1462 29.2631C37.6055 29.1647 36.1746 29.5638 33.7639 31.0432C31.9453 32.1594 31.394 32.3827 29.3062 32.8492C27.8977 33.1639 27.3429 33.3216 26.5695 33.6267C25.8348 33.9167 25.6443 34.014 24.2159 34.8298C21.2759 36.5087 20.0507 36.9325 16.4183 37.527C15.4094 37.6921 14.0831 37.9349 13.4711 38.0665C11.9406 38.3957 8.58765 39.2605 8.48576 39.3524C8.37184 39.4551 8.44575 39.6157 8.60689 39.6157C8.67936 39.6157 9.40419 39.4421 10.2177 39.2298C12.9922 38.5059 14.4361 38.1937 16.4484 37.8829C20.0152 37.3318 21.5608 36.7965 24.4479 35.1121C25.5564 34.4654 26.6128 33.9589 27.3552 33.7184C27.664 33.6184 28.5031 33.402 29.2197 33.2375C31.6714 32.6751 31.9794 32.5553 33.7411 31.4784C35.033 30.6887 35.4052 30.4861 36.0384 30.2277C38.1293 29.3746 40.9711 29.401 45.5519 30.3159C46.5401 30.5133 47.7754 30.7401 48.297 30.8198C48.9508 30.9197 49.3921 31.0227 49.718 31.1514C50.749 31.5582 51.1936 31.699 52.1689 31.9271C52.7276 32.0578 53.1938 32.1557 53.205 32.1447C53.2161 32.1336 52.759 31.9953 52.1892 31.8373C51.2185 31.5683 50.1245 31.1497 50.268 31.1023C50.3032 31.0907 51.0039 31.1761 51.8252 31.2923C52.6464 31.4084 53.792 31.5581 54.371 31.6248C56.6433 31.8867 57.5255 32.1192 58.5868 32.7359C59.0921 33.0295 59.3848 33.3033 59.7245 33.8001C59.992 34.1911 60.3255 34.5608 60.3255 34.4663C60.3255 34.4433 60.2172 34.2547 60.0849 34.0469C59.9526 33.8392 59.8443 33.6518 59.8443 33.6305C59.8443 33.6092 60.0406 33.7351 60.2804 33.9102C61.4312 34.7503 62.201 35.1319 64.4072 35.9561C65.9746 36.5416 66.5817 36.876 67.2123 37.5013C67.6165 37.902 67.9766 38.4303 68.6537 39.6157C69.2233 40.613 69.6464 41.2793 70.1873 42.0309C70.6246 42.6387 70.6418 42.6688 70.5414 42.6494C70.4968 42.6407 70.4022 42.6533 70.3314 42.6772C69.9538 42.8046 70.2404 43.5008 70.7993 43.814L71.0015 43.9273L70.8412 43.7543C70.6615 43.5606 70.37 43.0411 70.37 42.9147C70.37 42.7868 70.5369 42.7538 70.6879 42.8519C70.8749 42.9734 71.1656 43.5807 71.199 43.9198C71.2226 44.1599 71.205 44.22 71.0717 44.3522C70.9404 44.4823 70.8636 44.5055 70.5682 44.5043C69.7405 44.501 68.6003 43.7186 68.1325 42.833C68.024 42.6275 67.832 42.4553 67.2424 42.0347C66.1812 41.2778 65.2274 40.2966 65.1175 39.8488C65.0868 39.7237 65.1088 39.6786 65.2333 39.6126C65.3757 39.5371 65.5488 39.3175 65.4659 39.3175C65.446 39.3175 65.3029 39.4048 65.1481 39.5114C64.9106 39.6749 64.8148 39.7045 64.5358 39.7012C64.1139 39.696 62.6456 39.2504 61.5928 38.808C61.1659 38.6285 60.6939 38.4651 60.5439 38.4447L60.2713 38.4076L60.5151 38.1209C60.6493 37.9631 60.7487 37.8035 60.7362 37.766C60.7235 37.7286 60.5971 37.8345 60.4552 38.0014C60.1515 38.3585 60.0165 38.4339 59.4534 38.5613C58.795 38.7102 58.4759 38.7306 57.8433 38.6642C57.2165 38.5985 56.8917 38.4948 56.6724 38.2905C56.5027 38.1324 56.5016 38.0425 56.6666 37.8127C56.7383 37.7129 56.7686 37.6416 56.734 37.6544C56.6053 37.7019 56.203 38.1038 56.1352 38.2527C56.0586 38.4212 55.6499 38.7723 55.362 38.917C55.1228 39.0373 54.1539 39.2119 53.8606 39.1876C53.6416 39.1695 53.6129 39.1419 53.3132 38.6616C53.1393 38.3828 52.9675 38.1221 52.9316 38.0822C52.8559 37.998 52.7102 38.038 52.6648 38.1555C52.6475 38.2001 52.9229 38.7083 53.2766 39.285C53.6304 39.8617 53.9469 40.3806 53.98 40.4382C54.0687 40.5924 54.9665 41.6813 55.3317 42.0775C55.7857 42.57 56.6707 43.2087 57.1678 43.4027C59.1683 44.1831 60.3212 45.3528 60.8103 47.0986C61.1349 48.257 60.7413 49.0622 59.8548 49.0539C59.4209 49.0499 59.0559 48.8856 58.5259 48.4559C58.3082 48.2794 57.873 47.9429 57.5587 47.708C57.2445 47.4731 56.5616 46.9217 56.0411 46.4828L55.0949 45.6846L55.2661 45.526C55.4236 45.3801 55.7359 44.8635 55.6666 44.8635C55.65 44.8635 55.583 44.9675 55.5176 45.0946C55.4522 45.2216 55.3143 45.3961 55.211 45.4822L55.0234 45.6387L54.6822 45.3788C54.1083 44.9418 53.6595 44.6815 53.0242 44.4175C52.6898 44.2785 51.9561 43.9338 51.3937 43.6515C50.4195 43.1625 49.8343 42.9529 49.1954 42.8641C48.97 42.8327 48.8616 42.7681 48.5789 42.4967C48.3903 42.3155 48.2349 42.1501 48.2335 42.1289C48.2322 42.1078 48.1489 41.9966 48.0484 41.8818L47.8656 41.6731L47.9932 41.9415C48.0634 42.0891 48.1896 42.3413 48.2736 42.5021L48.4265 42.7943L47.9667 42.7598C47.6015 42.7324 47.466 42.6944 47.3079 42.5748C47.0375 42.3703 46.7204 42.0314 46.4642 41.6733C46.347 41.5094 46.2511 41.4047 46.2511 41.4407C46.2511 41.5151 46.5092 41.8804 46.8949 42.3519C47.0392 42.5285 47.1494 42.6809 47.1396 42.6906C47.084 42.7457 46.4553 42.5551 46.0406 42.3575C45.3213 42.0148 43.7196 40.7278 43.0492 39.9539C42.7602 39.6203 42.4627 39.2337 42.3881 39.0948C42.3135 38.9559 42.2149 38.8279 42.1689 38.8104C42.1226 38.7928 41.9997 38.866 41.8935 38.9744C41.6142 39.2595 41.1218 39.4959 39.9357 39.914C38.3413 40.4761 37.9622 40.6883 37.116 41.4923C36.5425 42.0372 36.0588 42.6348 35.4248 43.5814C34.6327 44.7643 33.9665 45.5976 33.2313 46.3253C32.2153 47.3309 31.9029 47.5391 28.177 49.6936C27.2508 50.2292 25.9651 51.0035 25.32 51.4141C23.3069 52.6956 22.8584 53.034 21.7112 54.137C20.5683 55.236 20.0182 55.6958 19.2151 56.224C18.0197 57.0103 17.233 57.3796 14.7932 58.2999C12.7967 59.0531 11.1724 59.4367 9.27493 59.6033C8.4416 59.6764 8.31685 59.7275 8.48412 59.9273C8.54998 60.0061 8.65175 60.015 9.10737 59.9821C10.1823 59.9045 11.9118 59.5983 13.0043 59.2922C14.1188 58.9799 16.8043 57.9424 17.8706 57.4122C19.3447 56.6792 20.2232 56.0408 21.6905 54.6364C22.8601 53.5169 23.4254 53.07 24.8088 52.1713C26.2159 51.2573 26.9043 50.8406 29.1995 49.5134C30.2912 48.8822 31.4821 48.1692 31.846 47.929C33.2878 46.9772 34.2036 45.9995 35.7229 43.7901C37.2781 41.5287 37.894 41.0195 39.9714 40.2783C41.0816 39.8822 41.6083 39.654 41.9282 39.4303L42.0862 39.3199L42.3958 39.7212C42.9391 40.4255 43.3872 40.9172 43.6347 41.0806C43.7671 41.1679 43.9953 41.337 44.1418 41.4563C45.3243 42.4185 45.7475 42.6929 46.3439 42.8839C46.7786 43.0231 47.0253 43.0564 48.2011 43.135C49.4966 43.2216 50.0027 43.3565 51.094 43.9062C51.5948 44.1584 52.3406 44.5105 52.7515 44.6887C53.1624 44.8669 53.688 45.1353 53.9197 45.2852C54.346 45.5611 55.6033 46.5558 56.0009 46.9317C56.2415 47.1591 56.2381 47.0821 56.0492 48.0335C55.7774 49.4018 56.0418 50.1104 56.8243 50.1111C57.3032 50.1115 57.6858 49.8146 58.1303 49.0976C58.2219 48.95 58.3047 48.8199 58.3144 48.8086C58.3242 48.7972 58.4568 48.8729 58.6091 48.9768C59.279 49.4338 59.9691 49.548 60.4845 49.2873C60.7963 49.1296 61.1266 48.7525 61.218 48.4501C61.4503 47.6814 61.0785 46.3266 60.3527 45.2974C60.0572 44.8782 60.055 44.8632 60.2133 44.3417C60.3118 44.0171 60.2297 43.5989 59.9579 43.0402C59.7312 42.5742 59.6586 42.0695 59.8014 41.952C59.8781 41.8889 59.9516 41.9711 60.292 42.5005C60.5122 42.8429 60.9143 43.3807 61.1856 43.6955C61.6093 44.1871 61.7655 44.438 62.294 45.4751C62.8882 46.6412 62.9154 46.7118 63.0907 47.5459C63.2934 48.5106 63.4752 48.9406 63.8288 49.2911C64.2385 49.6974 65.0632 49.9802 65.3675 49.8187C65.529 49.733 65.6066 49.4432 65.5562 49.1139C65.5347 48.9737 65.5282 48.859 65.5417 48.859C65.5552 48.859 65.6576 48.9281 65.7693 49.0125C66.2855 49.4029 67.1018 49.5136 67.605 49.2616C68.0687 49.0292 68.0778 48.974 67.8553 47.7468C67.7492 47.1614 67.6375 46.3738 67.607 45.9966C67.5436 45.211 67.5341 45.1797 67.0896 44.297C66.7593 43.6413 66.5079 42.8459 66.4264 42.1986L66.3837 41.8595L66.6776 42.0692C66.8394 42.1846 67.1022 42.3699 67.2617 42.4811C67.4275 42.5968 67.6878 42.8757 67.8692 43.1324C68.3281 43.7813 68.8814 44.2693 69.5063 44.5765C69.9727 44.8056 70.0829 44.8357 70.5157 44.8516C70.923 44.8666 71.0337 44.8495 71.2006 44.7459C71.5473 44.5309 71.6573 44.0534 71.4857 43.5091ZM67.4475 48.9546C67.1132 49.093 66.6582 49.0601 66.2499 48.868C65.5487 48.5379 65.0782 47.804 64.7925 46.5946C64.7108 46.2493 64.5932 45.8192 64.5311 45.6388C64.463 45.4416 64.4419 45.3027 64.478 45.2906C64.5684 45.26 64.7162 45.1014 64.7162 45.0348C64.7162 45.0025 64.6368 45.0226 64.5397 45.0794C64.3195 45.2084 64.2731 45.1752 63.9034 44.6238C63.5518 44.0993 63.3625 43.5893 63.2174 42.7744C63.1526 42.4104 63.0447 42.0205 62.9777 41.9078L62.8557 41.7029L63.1093 41.7008C63.2488 41.6996 63.4297 41.662 63.5114 41.6172C63.6458 41.5435 63.6223 41.5386 63.2655 41.567C62.7517 41.6079 62.5456 41.5105 62.0562 40.9952C61.6589 40.5768 61.3606 40.0827 61.1648 39.5185C60.9642 38.9402 60.9703 38.9356 61.5886 39.2014C62.2967 39.5059 63.9702 40.0178 64.4243 40.0687C64.764 40.1068 64.791 40.1221 64.9695 40.3795C65.0728 40.5283 65.3385 40.84 65.5599 41.0722L65.9626 41.4942L66.0584 42.1502C66.1942 43.0798 66.4117 43.7701 66.8307 44.602C67.1915 45.3186 67.1949 45.3302 67.2467 46.0182C67.2948 46.6566 67.5348 48.1672 67.6555 48.5907C67.719 48.8137 67.6977 48.8509 67.4475 48.9546ZM65.3026 36.7675C65.179 36.6689 64.6371 36.4089 64.4756 36.3707L64.3252 36.3352L64.4756 36.406C64.5583 36.4449 64.7951 36.5681 65.0019 36.6798C65.3541 36.87 65.4754 36.9054 65.3026 36.7675ZM65.1482 49.515C64.8784 49.515 64.4137 49.3198 64.1634 49.1013C63.81 48.7929 63.6253 48.3687 63.4231 47.4014C63.2295 46.4752 63.1376 46.2326 62.6421 45.3406C62.4325 44.9634 62.146 44.4056 62.0053 44.1009C61.8442 43.7523 61.7284 43.568 61.6925 43.6036C61.6099 43.6855 61.1613 43.1619 60.6517 42.3887C60.4139 42.0279 60.0261 41.4958 59.79 41.2062C59.5539 40.9166 59.3079 40.5771 59.2435 40.4519L59.1263 40.2241L59.2736 40.1874C59.4496 40.1436 59.8443 39.7674 59.8443 39.6436C59.8443 39.4968 59.698 39.5453 59.4857 39.7625C59.2143 40.0401 58.9292 40.1658 58.4609 40.2143L58.07 40.2548L58.4009 40.2632C58.7303 40.2716 58.7325 40.2729 58.8794 40.5475C58.9606 40.6992 59.1096 40.934 59.2105 41.0693C59.482 41.4331 59.5611 41.6877 59.4511 41.8434C59.2643 42.1079 59.3578 42.6578 59.7108 43.3705C59.8307 43.6125 59.8744 43.7914 59.8744 44.0406C59.8744 44.5161 59.789 44.5778 59.4953 44.3148C59.08 43.9427 58.5138 43.5982 57.8041 43.2857L57.1104 42.9801L57.106 42.5281C57.1023 42.1461 57.0721 42.0165 56.911 41.6921C56.6631 41.1927 56.0995 40.5312 55.7276 40.3031C55.4842 40.1539 55.3699 40.1227 55.0675 40.1228C54.8663 40.1229 54.604 40.1453 54.4845 40.1726C54.2707 40.2214 54.2643 40.2174 54.0785 39.9181C53.9747 39.7508 53.8898 39.6009 53.8898 39.585C53.8898 39.5691 53.968 39.5561 54.0636 39.5561C54.1592 39.5561 54.5026 39.502 54.8267 39.4359C55.4575 39.3072 55.8016 39.1334 56.168 38.7585L56.3712 38.5507L56.5891 38.6933C57.1361 39.0513 58.5616 39.1555 59.5634 38.9106C59.8554 38.8392 60.2128 38.7808 60.3576 38.7808C60.6151 38.7808 60.6215 38.7857 60.6574 39.0045C60.7239 39.4113 60.9934 40.1165 61.2438 40.5393C61.4019 40.8063 61.7109 41.1706 62.1035 41.5531C62.4407 41.8815 62.7321 42.2038 62.7513 42.2694C62.7705 42.335 62.8282 42.6333 62.8795 42.9323C63.0339 43.8316 63.2886 44.4299 63.8148 45.1298C64.1424 45.5654 64.2269 45.7585 64.3587 46.3718C64.5133 47.0915 64.6262 47.4284 64.8819 47.9347C65.0695 48.306 65.1622 48.6862 65.2489 49.4405C65.2537 49.4815 65.2083 49.515 65.1482 49.515ZM60.0923 47.4576C59.8714 46.8509 59.596 46.47 59.2054 46.2306C58.882 46.0324 58.8929 46.142 59.2278 46.4572C59.7329 46.9325 60.0963 47.8028 59.9562 48.2014C59.8217 48.5839 59.4217 48.5512 58.8286 48.1091C58.411 47.798 58.1172 47.43 58.0647 47.1525C57.9929 46.7729 58.275 46.2664 58.6421 46.1156C58.7431 46.0741 58.8139 46.0285 58.7995 46.0142C58.7327 45.948 58.2651 46.2611 58.1339 46.4599C57.8002 46.9656 57.8766 47.3313 58.4354 47.9052C58.8723 48.3539 59.2678 48.5773 59.6395 48.5852C60.1666 48.5965 60.3451 48.1519 60.0923 47.4576ZM59.7168 34.2427C59.5009 33.9409 58.9997 33.4138 58.9286 33.4138C58.9022 33.4138 58.9962 33.5546 59.1376 33.7268C59.2789 33.8991 59.4868 34.1674 59.5996 34.3232C59.7911 34.5878 59.9045 34.6743 59.9045 34.5558C59.9045 34.5279 59.82 34.387 59.7168 34.2427ZM57.4012 49.4439C57.1108 49.7432 57.0786 49.7601 56.8318 49.7424C56.2996 49.7043 56.1772 49.2047 56.4168 48.0497C56.4835 47.7285 56.5485 47.4554 56.5613 47.4427C56.5741 47.43 56.9125 47.6653 57.3132 47.9656L58.0417 48.5117L57.8754 48.8191C57.7839 48.9883 57.5706 49.2694 57.4012 49.4439ZM56.7155 42.6876C56.6212 42.7454 56.1288 42.3584 55.5995 41.8105C55.1616 41.3573 54.5514 40.6223 54.5514 40.5482C54.5514 40.4882 55.0848 40.4394 55.2789 40.4817C55.6657 40.5659 56.5504 41.5819 56.7057 42.1204C56.7864 42.3998 56.7905 42.6416 56.7155 42.6876ZM55.9998 45.4976C55.9366 45.6004 55.8225 45.7279 55.7461 45.7809C55.6698 45.8339 55.6351 45.8773 55.669 45.8773C55.7617 45.8773 56.1153 45.4969 56.115 45.3974C56.1148 45.3498 56.0631 45.3949 55.9998 45.4976ZM54.9724 32.4179C54.7905 32.4179 54.716 32.429 54.807 32.4427C54.898 32.4563 55.0468 32.4563 55.1378 32.4427C55.2288 32.429 55.1544 32.4179 54.9724 32.4179ZM54.1855 32.3155C54.0151 32.2931 53.8636 32.2867 53.8488 32.3014C53.834 32.3161 53.9608 32.347 54.1304 32.3702C54.3 32.3933 54.4515 32.3996 54.467 32.3842C54.4826 32.3688 54.3559 32.3379 54.1855 32.3155ZM53.6492 32.2305C53.5665 32.2305 53.5326 32.244 53.574 32.2606C53.6153 32.2771 53.683 32.2771 53.7244 32.2606C53.7657 32.244 53.7319 32.2305 53.6492 32.2305ZM53.3735 32.1662C53.3035 32.169 53.2892 32.1831 53.3372 32.2022C53.3806 32.2194 53.4325 32.2173 53.4525 32.1975C53.4724 32.1777 53.4369 32.1636 53.3735 32.1662ZM41.7023 36.8129C41.6591 36.7309 41.5124 36.4357 41.3764 36.1569C41.0837 35.5572 40.9193 35.3042 40.7569 35.2037C40.6806 35.1565 40.7069 35.2127 40.83 35.3602C40.9498 35.5035 41.0807 35.7789 41.1766 36.0896C41.283 36.4339 41.3928 36.6559 41.5306 36.805C41.7498 37.0421 41.825 37.0455 41.7023 36.8129ZM41.2987 37.0894C41.0262 36.7008 40.8565 36.5216 40.6575 36.4124L40.3868 36.2639L40.697 36.5533C40.8676 36.7125 41.1029 36.9953 41.2201 37.1818C41.3372 37.3683 41.4886 37.5504 41.5565 37.5865C41.6244 37.6225 41.6776 37.6443 41.6746 37.635C41.6717 37.6256 41.5025 37.3801 41.2987 37.0894ZM38.6702 37.8299C38.0982 37.818 36.1333 38.6202 34.7493 39.4307C34.0603 39.8342 33.4058 40.3231 32.529 41.0892C31.7874 41.7372 30.3232 43.1408 30.4946 43.0396C30.9112 42.7932 31.6953 42.1777 32.3937 41.5489C33.9108 40.183 34.9583 39.4011 35.8882 38.9403C36.4789 38.6477 37.7339 38.1522 38.3189 37.9808C38.5961 37.8995 38.7543 37.8316 38.6702 37.8299Z" fill="black"/>
<path fill-rule="evenodd" clip-rule="evenodd" d="M143.538 42.4285C143.496 42.3084 143.305 42.3443 142.886 42.5519C141.827 43.0754 141.104 43.1989 139.359 43.1543C138.644 43.136 137.794 43.0828 137.469 43.0362C137.144 42.9896 136.586 42.9345 136.229 42.9136C135.872 42.8929 135.154 42.8391 134.634 42.7941C133.139 42.6645 132.282 42.6413 128.227 42.6201C125.449 42.6056 124.05 42.574 123.06 42.5036C121.554 42.3964 121.591 42.4029 119.31 41.8576C116.349 41.1498 115.632 41.0471 114.564 41.1781C113.881 41.262 113.479 41.4459 113.122 41.8387C112.296 42.7474 112.155 42.8572 111.301 43.2636C110.521 43.6352 110.459 43.6774 109.92 44.2167C109.34 44.7975 108.989 45.0276 108.296 45.2821C107.906 45.4254 107.522 45.6635 107.027 46.0686C106.182 46.7601 104.68 47.1286 103.699 46.8851C103.22 46.7663 103.196 46.7802 103.04 47.2651C102.903 47.6893 102.753 47.9795 102.45 48.4048C102.094 48.9037 102.076 48.9475 101.917 49.6921C101.804 50.2227 101.776 50.5074 101.787 51.0532C101.8 51.7176 101.794 51.7525 101.639 51.985C101.454 52.2638 101.043 52.5237 100.723 52.5651C100.41 52.6057 100.132 52.408 99.9271 51.9993C99.6438 51.4329 99.5709 51.0535 99.5418 49.9924C99.5105 48.8521 99.577 48.2873 99.8317 47.5281C100.036 46.9183 100.131 45.9316 100 45.7754C99.8344 45.578 99.7222 45.6739 99.4371 46.2568C99.1919 46.758 99.0881 46.8955 98.5758 47.3973C98.2553 47.7112 97.9548 48.0268 97.9079 48.0987C97.861 48.1706 97.7676 48.4443 97.7003 48.7068C97.5406 49.3309 97.4091 49.6255 97.0496 50.1652C96.7013 50.688 96.6345 50.8928 96.6325 51.444C96.6306 51.9521 96.5419 52.5848 96.422 52.9456C96.3091 53.2852 96.0338 53.5595 95.7226 53.6425C95.3932 53.7303 95.0144 53.5727 94.7903 53.2548C94.6299 53.0272 94.6282 53.0161 94.7113 52.7457C94.8768 52.2072 94.8889 51.5526 94.7465 50.8446L94.6164 50.1983L94.8057 49.623C94.9705 49.1223 95.0003 48.9341 95.0353 48.171C95.0664 47.4957 95.1012 47.2406 95.1869 47.0605C95.3111 46.7995 97.7286 44.3968 98.464 43.8036C99.1722 43.2322 100.065 42.8655 101.044 42.7442C101.567 42.6794 101.625 42.6601 101.642 42.5452C101.712 42.0638 99.6038 42.5748 98.5451 43.2957C98.3898 43.4014 97.9911 43.7263 97.6591 44.0176C95.1972 46.1775 94.1389 46.7104 92.7608 46.4844C92.4709 46.4368 92.1097 46.3813 91.9579 46.361C91.661 46.3213 91.0995 45.999 90.8213 45.7086C90.5769 45.4534 90.3563 44.987 90.3498 44.7118C90.3416 44.3607 90.5568 44.16 91.1821 43.9361C92.011 43.6393 92.4007 43.3984 93.2459 42.66C93.8745 42.111 93.974 42.0552 94.7958 41.7916C95.4986 41.5661 96.8577 40.8908 97.3218 40.5364C97.6653 40.2741 97.8812 40.0256 98.3376 39.3665C98.5466 39.0648 98.7584 38.8427 98.991 38.6811C99.4116 38.3891 99.6846 38.0889 99.8346 37.7534C99.9716 37.4467 99.9566 37.2413 99.7971 37.2413C99.716 37.2413 99.6253 37.3548 99.4809 37.6373C99.3151 37.9615 99.2112 38.0806 98.9079 38.2948C98.7041 38.4388 98.5043 38.596 98.4639 38.6441C98.3584 38.77 98.1711 38.7525 97.8391 38.5859C97.6794 38.5056 97.5384 38.4398 97.5259 38.4397C97.4695 38.4391 97.8404 38.696 98.0225 38.7836L98.225 38.8811L97.9547 39.2886C97.806 39.5128 97.6538 39.7154 97.6165 39.739C97.4565 39.8401 96.9617 39.6734 96.4581 39.3489C96.1013 39.119 95.9696 39.0809 96.1272 39.2533C96.2545 39.3925 97.0141 39.7686 97.2705 39.8193C97.3748 39.84 97.4601 39.8747 97.4601 39.8965C97.4601 39.9497 97.1194 40.2621 96.8985 40.4114C96.5351 40.6571 95.0541 41.3565 94.6486 41.474C94.122 41.6266 94.1304 41.6275 94.2508 41.4349C94.4198 41.1646 94.7508 40.8467 94.9027 40.809C95.0085 40.7827 95.0416 40.7399 95.0279 40.6468C95.0122 40.54 94.9499 40.5107 94.6255 40.4577C94.1015 40.3722 93.7717 40.1744 93.4076 39.7276C93.1079 39.3597 93.0534 39.2332 92.8027 38.3226L92.7464 38.118L92.7425 38.3226C92.7391 38.5023 92.7653 38.6615 92.8837 39.1795C92.9121 39.3042 92.9015 39.3059 92.0647 39.3128C91.0571 39.3211 90.5744 39.2548 89.6649 38.9828C88.9378 38.7653 88.843 38.709 88.6196 38.3609C88.5403 38.2373 88.4614 38.15 88.4444 38.1668C88.4274 38.1837 88.4974 38.3183 88.6 38.4659L88.7866 38.7344L88.3929 38.9168C87.9516 39.1211 87.3852 39.2021 86.7242 39.1553C86.1827 39.117 85.4171 39.2249 84.7194 39.438C84.0894 39.6304 82.8088 39.7626 82.2537 39.6926C81.5439 39.6031 80.7488 39.0132 80.748 38.5755C80.7477 38.4061 80.9989 38.1193 81.3003 37.9449C81.6722 37.7298 83.6394 36.9891 84.4387 36.7633C84.8284 36.6532 85.4538 36.4197 85.8284 36.2443C86.6322 35.868 87.1201 35.7533 87.9229 35.7519C88.2477 35.7514 88.8456 35.6971 89.2516 35.6313C90.1228 35.4902 90.7915 35.4696 92.2338 35.5392C93.4287 35.5968 93.4228 35.5976 95.5703 35.129C97.2365 34.7655 97.9918 34.5043 99.2612 33.8527C100.544 33.1938 100.779 33.1124 102.02 32.8952C102.633 32.7878 103.257 32.6336 103.722 32.4747C104.71 32.137 104.998 32.0824 106.171 32.0103C108.403 31.8728 108.849 31.7854 110.098 31.2406C111.777 30.5078 111.815 30.4983 113.316 30.4329C114.881 30.3647 115.239 30.2662 116.591 29.5302C118.098 28.7098 118.725 28.6137 121.58 28.7659C123.924 28.8908 124.179 28.8695 125.215 28.4629C126.122 28.107 126.728 27.8013 127.36 27.3807C128.198 26.8229 129.45 26.2893 130.619 25.9917C131.047 25.8827 131.631 25.7938 132.331 25.7312C132.916 25.679 133.576 25.5951 133.799 25.5449C134.269 25.4389 135.077 25.1152 135.927 24.693C137.142 24.0889 137.54 24.0158 141.577 23.6549C141.952 23.6213 142.445 23.5939 142.672 23.5939C143.123 23.5939 143.258 23.5272 143.163 23.3511C143.072 23.1831 142.743 23.1933 139.89 23.4517C138.554 23.5727 137.167 23.8009 136.65 23.9851C136.418 24.0675 135.896 24.2995 135.49 24.5007C134.257 25.1113 133.869 25.2232 132.538 25.3524C131.905 25.4138 131.184 25.5037 130.936 25.5521C129.803 25.7736 128.088 26.4725 127.147 27.0963C126.449 27.5588 126.095 27.7395 125.154 28.1135C124.187 28.4979 123.862 28.532 122.086 28.4357C120.303 28.3391 119.057 28.3389 118.513 28.4349C117.835 28.5547 117.385 28.7258 116.328 29.2662C114.939 29.9764 114.769 30.0219 113.286 30.0832C111.796 30.1449 111.565 30.1986 110.275 30.7832C108.929 31.3931 108.386 31.524 106.88 31.6017C105.071 31.6951 104.812 31.7384 103.566 32.1545C103.071 32.3199 102.473 32.4657 101.906 32.559C100.765 32.7468 100.475 32.8467 99.2612 33.4677C98.709 33.7503 98.0404 34.0634 97.7755 34.1635C97.1239 34.4097 95.9645 34.7052 94.5074 34.9964L93.2968 35.2384L92.2043 35.1878C90.7656 35.1212 90.1028 35.1369 89.4583 35.253C89.1659 35.3057 88.475 35.3723 87.9229 35.4011C87.3707 35.4299 86.8126 35.483 86.6827 35.5189C86.5528 35.5549 86.1409 35.7245 85.7674 35.8958C85.3939 36.067 84.7624 36.3021 84.3641 36.418C83.5187 36.6642 81.8115 37.2969 81.291 37.5569C80.6537 37.8754 80.3347 38.3156 80.4191 38.7605C80.5103 39.2424 81.3805 39.9075 82.0602 40.015C82.6958 40.1155 84.0074 40.0065 84.7635 39.7904C85.6072 39.5492 86.0146 39.4953 86.9485 39.501C87.7901 39.5062 88.0939 39.4545 88.5533 39.2278L88.8295 39.0915L89.3801 39.2626C90.3825 39.5741 90.9818 39.6669 91.9902 39.6669H92.9091L93.152 39.9853C93.401 40.3117 93.8203 40.6214 94.1087 40.6919C94.2941 40.7372 94.3037 40.7613 94.1881 40.8897C94.1425 40.9405 93.9731 41.1977 93.8118 41.4615C93.2853 42.3224 92.1967 43.194 91.2061 43.5476C90.3767 43.8437 90.145 44.0213 90.0112 44.4633C89.8804 44.8952 90.203 45.6524 90.7038 46.0886C90.9428 46.2968 91.5287 46.6242 91.8114 46.7076C91.9388 46.7451 91.9336 46.8242 91.6939 48.4924C91.5189 49.7101 91.5358 49.9793 91.8369 50.7647C92.0523 51.3266 92.0525 51.3279 92.04 52.1746C92.0238 53.2753 92.0884 53.5933 92.3887 53.8905C92.6118 54.1114 92.6271 54.1168 92.9652 54.0926C93.3704 54.0635 93.9752 53.7942 94.2329 53.528L94.4001 53.3552L94.6117 53.587C94.896 53.8984 95.1234 54.0047 95.5113 54.0074C95.8891 54.0099 96.2417 53.8537 96.4737 53.5808C96.7812 53.219 96.9861 52.3738 96.9889 51.4544C96.9903 50.9968 97.0829 50.7327 97.4034 50.2716C97.6551 49.9095 97.8947 49.3641 98.0152 48.8788C98.1551 48.3152 98.2231 48.2087 98.7302 47.7595C98.9766 47.5413 99.2884 47.1968 99.4231 46.994C99.5578 46.7913 99.676 46.6333 99.6859 46.643C99.7033 46.6603 99.5955 47.0634 99.3437 47.9226C99.1867 48.4583 99.1163 50.2858 99.2281 50.9242C99.3268 51.4884 99.5584 52.1431 99.7639 52.4386C99.955 52.7136 100.34 52.9344 100.628 52.9344C101.116 52.9344 101.765 52.5171 102.024 52.036C102.14 51.8224 102.153 51.7176 102.142 51.1226C102.133 50.6365 102.164 50.2805 102.252 49.8367C102.382 49.1869 102.501 48.9175 102.917 48.338C103.059 48.1405 103.233 47.8044 103.305 47.5911L103.435 47.2033L103.651 47.2488C103.77 47.2738 104.151 47.2898 104.499 47.2842C105.586 47.2669 106.505 46.9361 107.376 46.2478C107.932 45.8087 108.028 45.7528 108.584 45.5459C109.2 45.3162 109.491 45.119 110.186 44.4596C110.789 43.8876 110.878 43.8252 111.426 43.5953C112.156 43.2891 112.586 42.9749 113.131 42.3495C113.394 42.0475 113.652 41.8148 113.818 41.7311C114.378 41.4481 115.678 41.4123 116.83 41.6482C117.138 41.7114 118.122 41.9377 119.015 42.151C119.908 42.3643 120.878 42.5887 121.17 42.6497C122.181 42.8606 124.089 42.9471 128.227 42.9699C132.285 42.9923 133.033 43.0128 134.575 43.1438C135.095 43.188 135.813 43.2417 136.17 43.2631C136.527 43.2846 137.098 43.3398 137.44 43.3858C138.339 43.5072 140.42 43.5557 141.071 43.4705C141.675 43.3913 142.668 43.0821 143.173 42.8156C143.517 42.634 143.585 42.562 143.538 42.4285ZM129.637 39.3139C129.027 39.1125 129.02 39.1116 127.991 39.1181C127.112 39.1236 126.79 39.1531 125.835 39.3155C124.807 39.4905 124.647 39.5034 123.914 39.4695C122.563 39.4072 121.026 39.1965 118.718 38.7578C117.287 38.4857 115.172 38.5135 113.995 38.8197C113.817 38.8662 113.759 38.8919 113.867 38.8769C113.976 38.8618 114.481 38.8075 114.989 38.7561C116.375 38.6161 117.182 38.6968 119.133 39.1708C120.906 39.6017 121.788 39.7431 123.306 39.84C124.274 39.9018 124.678 39.8592 125.464 39.6129C126.242 39.3688 126.525 39.3292 127.818 39.2831C128.943 39.2431 128.977 39.2453 129.546 39.3993C130.335 39.6126 130.388 39.5621 129.637 39.3139ZM129.733 36.8229C129.668 36.8411 129.442 36.8951 129.231 36.943C129.02 36.9908 128.735 37.0694 128.598 37.1177C128.461 37.166 127.85 37.3164 127.24 37.4519C126.155 37.6928 126.107 37.6982 125.038 37.6984C124.437 37.6986 123.68 37.6669 123.355 37.6281C121.599 37.4183 119.391 37.1394 118.87 37.0617C118.005 36.9325 116.675 36.8929 115.914 36.9735C114.709 37.1014 113.448 37.4371 112.513 37.879C112.023 38.1107 112.035 38.0733 112.561 37.7253C113.046 37.4046 113.771 37.0403 114.527 36.7375C115.142 36.4908 115.17 36.4261 114.563 36.6523C113.902 36.8984 112.749 37.482 112.076 37.9108C111.239 38.4438 110.951 38.6812 110.997 38.7994C111.026 38.8746 111.179 38.8203 111.865 38.4919C113.229 37.8386 113.983 37.5914 115.324 37.3573C115.938 37.2502 118.276 37.2298 119.015 37.325C119.258 37.3565 120.149 37.4737 120.993 37.5855C123.944 37.9761 124.723 37.9937 126.426 37.7084C127.753 37.486 129.643 37.0045 129.792 36.8508C129.833 36.809 129.814 36.8002 129.733 36.8229ZM117.504 33.7099C117.435 33.7127 117.421 33.7265 117.468 33.7452C117.511 33.7621 117.562 33.76 117.581 33.7406C117.601 33.7212 117.566 33.7074 117.504 33.7099ZM115.752 33.1008C115.157 32.6659 114.969 32.5812 114.526 32.5498C113.369 32.4679 112.233 33.1395 111.387 34.4066C110.701 35.4344 110.418 35.6929 109.983 35.6918C109.805 35.6913 109.626 35.6414 109.454 35.5443C109.312 35.4635 109.184 35.4087 109.17 35.4224C109.156 35.4361 109.319 35.5323 109.532 35.6361C109.898 35.8147 109.933 35.821 110.179 35.7528C110.542 35.6523 110.813 35.4109 111.293 34.762C111.843 34.0163 112.352 33.5073 112.791 33.2629C113.18 33.046 113.935 32.8285 114.299 32.8285C114.566 32.8285 115.548 33.1295 115.92 33.3251C116.063 33.4005 116.18 33.4513 116.18 33.438C116.18 33.4247 115.987 33.273 115.752 33.1008ZM112.026 40.1637C111.952 39.9386 111.95 39.9467 111.976 40.3835C111.996 40.7242 111.977 40.9031 111.9 41.103C111.844 41.2493 111.81 41.3816 111.826 41.3971C111.877 41.448 112.054 40.9351 112.079 40.6637C112.092 40.5172 112.068 40.2923 112.026 40.1637ZM111.664 39.4589C111.617 39.3965 111.577 39.3751 111.576 39.4114C111.575 39.4476 111.614 39.51 111.663 39.55C111.775 39.6424 111.776 39.6046 111.664 39.4589ZM110.386 39.3494C110.346 39.3739 110.203 39.7255 109.897 40.5532C109.75 40.9503 109.256 41.617 108.904 41.8926C108.16 42.4745 107.412 42.7033 106.108 42.7487C105.158 42.7817 104.56 42.705 103.936 42.4702C103.772 42.4087 103.626 42.3704 103.611 42.3853C103.525 42.4701 105.033 42.8924 105.814 43.0021C106.04 43.0339 106.478 43.0606 106.788 43.0615C108.233 43.0654 109.641 42.1774 110.095 40.9759C110.224 40.6334 110.463 39.3026 110.386 39.3494ZM108.78 35.5096C108.704 35.5709 108.682 35.6746 108.689 35.948L108.698 36.3062L108.734 35.9555C108.753 35.7626 108.794 35.5653 108.825 35.5171C108.873 35.4414 108.866 35.4404 108.78 35.5096ZM108.695 42.9968C108.289 43.3095 107.696 43.6646 107.39 43.778C106.918 43.9533 106.121 43.9394 105.414 43.7435C104.741 43.5568 104.827 43.6441 105.521 43.8513C105.937 43.9756 106.182 44.0112 106.649 44.0156C107.24 44.0212 107.252 44.0185 107.744 43.7717C108.018 43.6345 108.38 43.4023 108.55 43.2558C108.868 42.9805 108.983 42.7752 108.695 42.9968ZM107.623 36.0174C107.549 35.9721 107.54 36.0394 107.529 36.7445C107.52 37.3177 107.376 37.731 106.974 38.3428C106.699 38.7594 106.464 38.9437 105.698 39.3416C105.048 39.6796 105.03 39.695 105.468 39.5434C106.061 39.3384 106.492 39.0754 106.91 38.6645C107.493 38.0903 107.594 37.8425 107.646 36.8537C107.675 36.2975 107.668 36.045 107.623 36.0174ZM104.808 45.7186C104.481 45.4864 104.188 45.1957 103.494 44.4119C103.153 44.027 102.45 43.4757 102.384 43.5411C102.369 43.556 102.459 43.6307 102.584 43.707C102.802 43.8401 103.124 44.1682 103.952 45.1002C104.302 45.4934 104.959 46.0377 105.085 46.0377C105.203 46.0377 105.117 45.9373 104.808 45.7186ZM103.681 45.6796C103.591 45.6058 103.085 44.9721 102.412 44.0904C102.22 43.8391 102.033 43.6738 101.791 43.5414L101.446 43.3519L101.682 43.3847C101.812 43.4027 101.996 43.4416 102.091 43.4712C102.185 43.5007 102.275 43.5124 102.291 43.4971C102.347 43.4413 101.966 43.3394 101.505 43.2869C100.939 43.2224 100.622 43.2267 101.023 43.2934C101.643 43.3964 102.084 43.781 102.966 44.9856C103.213 45.3231 103.496 45.6468 103.597 45.7049C103.795 45.8196 103.837 45.8071 103.681 45.6796ZM102.72 39.6669C102.693 40.066 102.654 40.2179 102.523 40.4393C102.263 40.8757 102.006 41.037 101.003 41.3915C99.4105 41.9546 97.6437 42.7911 97.1057 43.2369C96.9071 43.4014 96.9631 43.3725 97.7791 42.8881C98.3873 42.5271 98.6222 42.4274 99.5212 42.1487C102.078 41.3563 102.375 41.2317 102.64 40.8418C102.764 40.6587 102.774 40.5859 102.765 39.9066C102.755 39.197 102.753 39.1883 102.72 39.6669ZM102.287 46.1454C102.081 45.904 101.938 45.8619 101.347 45.8682C100.751 45.8745 100.819 45.9628 101.428 45.9734C101.86 45.9809 102.058 46.0561 102.257 46.2883C102.356 46.4044 102.418 46.4425 102.419 46.3883C102.419 46.3401 102.36 46.2308 102.287 46.1454ZM100.919 48.6694C100.699 48.5868 100.555 48.594 100.352 48.698C100.12 48.8165 99.9899 49.0844 99.9553 49.5126C99.9306 49.8171 99.9447 49.8862 100.057 50.0121C100.163 50.1321 100.179 50.1373 100.143 50.0413C99.9942 49.6412 100.091 49.0937 100.345 48.8957C100.454 48.8109 100.568 48.7817 100.748 48.7927C101.053 48.8112 101.136 48.7512 100.919 48.6694ZM101.023 49.9342C100.968 49.8793 100.642 49.8931 100.501 49.9564C100.416 49.9947 100.443 50.0002 100.598 49.9761C100.717 49.9579 100.87 49.9726 100.938 50.0088C101.054 50.0704 101.111 50.0209 101.023 49.9342ZM99.7239 44.632C99.605 44.5017 99.4522 44.367 99.3844 44.3328C99.3167 44.2986 99.4065 44.4183 99.584 44.5989C99.7615 44.7794 99.9143 44.9272 99.9235 44.9272C99.9739 44.9272 99.9181 44.8446 99.7239 44.632ZM98.2927 45.5116C98.2622 45.5116 98.1932 45.6428 98.1394 45.8032C98.0856 45.9635 98.017 46.1097 97.9871 46.1281C97.9571 46.1464 97.9325 46.1894 97.9325 46.2236C97.9325 46.317 98.1049 46.1586 98.1939 45.9835C98.3039 45.7669 98.3573 45.5116 98.2927 45.5116ZM97.2652 46.9161C97.0824 46.9093 96.5193 47.4014 96.5123 47.5739C96.5108 47.613 96.4889 47.8965 96.4639 48.2039C96.4094 48.8721 96.3066 49.108 95.8076 49.7104C95.397 50.2061 95.3785 50.3064 95.5979 50.8496C95.6779 51.0479 95.7683 51.3155 95.7986 51.444L95.8537 51.6778L95.8597 51.4316C95.8629 51.2962 95.8106 51.0472 95.7433 50.8783C95.5754 50.4565 95.622 50.2926 96.0482 49.8075C96.6235 49.1528 96.7082 48.945 96.7476 48.093L96.7809 47.3722L97.0467 47.145C97.1928 47.0201 97.2912 46.9171 97.2652 46.9161ZM95.7425 42.8743C95.5774 42.6693 95.4135 42.4914 95.3783 42.4789C95.3057 42.453 95.5107 42.7579 95.7585 43.0443C95.8499 43.1498 95.9247 43.2909 95.9247 43.3577C95.9247 43.4332 95.742 43.6535 95.442 43.9398C95.1766 44.1932 94.978 44.4189 95.0008 44.4414C95.0949 44.5345 96.0428 43.4971 96.0428 43.301C96.0428 43.2713 95.9076 43.0793 95.7425 42.8743ZM94.8265 47.002C94.7575 47.1641 94.7134 47.5049 94.6829 48.1125C94.6447 48.8724 94.6128 49.0696 94.4435 49.5916C94.2574 50.1655 94.2516 50.2097 94.3215 50.5268C94.5372 51.5047 94.5454 52.0636 94.3535 52.7033C94.2354 53.0968 93.8581 53.4667 93.403 53.6352C92.9302 53.8103 92.6849 53.7776 92.5319 53.5189C92.4232 53.3352 92.4107 53.2134 92.4078 52.3207C92.4046 51.3334 92.4033 51.3233 92.19 50.7134C92.072 50.3759 91.9587 49.9913 91.9383 49.8587C91.9164 49.7166 91.9636 49.1532 92.0534 48.4852C92.1372 47.8623 92.2215 47.225 92.2409 47.069L92.2761 46.7852L92.6683 46.8352C93.5029 46.9415 94.178 46.8422 94.9065 46.5061L95.276 46.3356L95.101 46.5519C95.0048 46.6709 94.8812 46.8735 94.8265 47.002ZM94.8617 43.1445C94.7642 43.0521 94.6845 43.0037 94.6845 43.0368C94.6845 43.0969 94.8243 43.2352 94.965 43.3144C95.0861 43.3826 95.0498 43.3228 94.8617 43.1445ZM94.2948 43.4416C94.1843 43.3157 94.0947 43.2368 94.0956 43.2663C94.0978 43.3429 94.4336 43.734 94.4674 43.6994C94.4829 43.6835 94.4052 43.5676 94.2948 43.4416ZM93.8291 48.7847C93.7644 48.7847 93.4358 49.5112 93.4314 49.6639C93.4288 49.7547 93.517 50.0599 93.6275 50.3421C93.7818 50.7366 93.8324 50.8198 93.8464 50.7018C93.8567 50.6153 93.7858 50.3936 93.684 50.1941C93.4593 49.7534 93.4589 49.6286 93.6806 49.1938C93.86 48.8422 93.8808 48.7847 93.8291 48.7847ZM93.7324 44.1674C93.6564 43.9788 93.457 43.7688 93.2554 43.665C92.929 43.4969 92.6632 43.557 91.7579 44.0036C91.265 44.2468 90.9051 44.4592 90.9051 44.5067C90.9051 44.552 91.1608 44.8624 91.4734 45.1965C91.9627 45.7194 92.0673 45.8037 92.2263 45.803C92.3279 45.8025 92.4508 45.7766 92.4995 45.7454C92.5666 45.7025 92.5409 45.6886 92.3937 45.6878C92.1692 45.6869 91.808 45.3838 91.3628 44.8229L91.0941 44.4844L91.3391 44.4105C91.4739 44.3698 91.8702 44.2036 92.2197 44.0412C92.8853 43.7319 93.0012 43.7181 93.3 43.9118C93.4908 44.0355 93.7007 44.4787 93.6487 44.648C93.6262 44.7211 93.5399 44.8731 93.4569 44.9856L93.3059 45.1902L93.4604 45.0516C93.6351 44.8949 93.8005 44.5832 93.795 44.4215C93.7929 44.3621 93.7648 44.2477 93.7324 44.1674ZM91.4781 37.5948C91.2899 37.5694 91.1214 37.563 91.1037 37.5806C91.0594 37.6244 91.5737 37.6968 91.7102 37.6659C91.7708 37.6522 91.6664 37.6202 91.4781 37.5948ZM89.6476 37.2684C88.7576 37.0184 88.378 37.013 87.3618 37.2361C86.2094 37.4891 86.0165 37.5513 85.345 37.8873C84.5854 38.2674 84.2728 38.3557 83.1985 38.4946C82.4401 38.5925 82.4059 38.6019 82.7852 38.6077C83.3531 38.6165 84.2505 38.4745 84.7078 38.3034C84.9171 38.2251 85.3141 38.0768 85.5902 37.9737C86.1355 37.7702 88.1087 37.3355 88.7083 37.2868C88.9678 37.2657 89.2684 37.2958 89.7015 37.3862C90.0431 37.4575 90.3328 37.5057 90.3454 37.4933C90.3579 37.4809 90.0439 37.3797 89.6476 37.2684Z" fill="black"/>
</svg>
