<svg width="60" height="60" viewBox="0 0 60 60" fill="none" xmlns="http://www.w3.org/2000/svg">
<circle cx="30" cy="30" r="30" fill="#D3C0AE"/>
<path fill-rule="evenodd" clip-rule="evenodd" d="M18.7747 32.9546C18.8944 32.8345 19.0367 32.7393 19.1933 32.6743C19.3499 32.6093 19.5178 32.5759 19.6874 32.5759C19.8569 32.5759 20.0248 32.6093 20.1814 32.6743C20.338 32.7393 20.4803 32.8345 20.6 32.9546L29.9999 42.357L39.3997 32.9546C39.6418 32.7125 39.97 32.5765 40.3124 32.5765C40.6547 32.5765 40.983 32.7125 41.225 32.9546C41.4671 33.1966 41.603 33.5249 41.603 33.8672C41.603 34.2095 41.4671 34.5378 41.225 34.7799L30.9125 45.0924C30.7928 45.2124 30.6505 45.3077 30.4939 45.3727C30.3373 45.4376 30.1694 45.4711 29.9999 45.4711C29.8303 45.4711 29.6624 45.4376 29.5058 45.3727C29.3492 45.3077 29.2069 45.2124 29.0872 45.0924L18.7747 34.7799C18.6547 34.6601 18.5594 34.5179 18.4944 34.3613C18.4294 34.2047 18.396 34.0368 18.396 33.8672C18.396 33.6977 18.4294 33.5298 18.4944 33.3732C18.5594 33.2166 18.6547 33.0743 18.7747 32.9546V32.9546ZM18.7747 27.0455C18.8944 27.1656 19.0367 27.2608 19.1933 27.3258C19.3499 27.3908 19.5178 27.4242 19.6874 27.4242C19.8569 27.4242 20.0248 27.3908 20.1814 27.3258C20.338 27.2608 20.4803 27.1656 20.6 27.0455L29.9999 17.6431L39.3997 27.0455C39.6418 27.2876 39.97 27.4236 40.3124 27.4236C40.6547 27.4236 40.983 27.2876 41.225 27.0455C41.4671 26.8035 41.603 26.4752 41.603 26.1329C41.603 25.7905 41.4671 25.4623 41.225 25.2202L30.9125 14.9077C30.7928 14.7877 30.6505 14.6924 30.4939 14.6274C30.3373 14.5624 30.1694 14.529 29.9999 14.529C29.8303 14.529 29.6624 14.5624 29.5058 14.6274C29.3492 14.6924 29.2069 14.7877 29.0872 14.9077L18.7747 25.2202C18.6547 25.3399 18.5594 25.4822 18.4944 25.6388C18.4294 25.7954 18.396 25.9633 18.396 26.1329C18.396 26.3024 18.4294 26.4703 18.4944 26.6269C18.5594 26.7835 18.6547 26.9258 18.7747 27.0455V27.0455Z" fill="white"/>
</svg>
