<svg width="24" height="24" viewBox="0 0 24 24" fill="none" xmlns="http://www.w3.org/2000/svg">
<path fill-rule="evenodd" clip-rule="evenodd" d="M13.836 2.32947C13.6581 2.24036 13.4522 2.22555 13.2634 2.28828C13.0747 2.35101 12.9186 2.48615 12.8295 2.66397L8.32947 11.664C8.2772 11.7683 8.24999 11.8833 8.24999 12C8.24999 12.1166 8.2772 12.2317 8.32947 12.336L12.8295 21.336C12.8731 21.4248 12.9339 21.5041 13.0084 21.5693C13.0828 21.6346 13.1695 21.6844 13.2633 21.716C13.3571 21.7475 13.4562 21.7602 13.555 21.7533C13.6537 21.7464 13.7501 21.72 13.8386 21.6757C13.9271 21.6313 14.0059 21.5699 14.0705 21.495C14.1352 21.42 14.1843 21.333 14.2152 21.2389C14.2461 21.1449 14.258 21.0457 14.2503 20.947C14.2426 20.8483 14.2155 20.7521 14.1705 20.664L9.83996 12L14.1705 3.33597C14.2596 3.15814 14.2744 2.9522 14.2117 2.76345C14.1489 2.57469 14.0138 2.41859 13.836 2.32947V2.32947Z" fill="#A78C73"/>
</svg>
