<svg width="150" height="78" viewBox="0 0 150 78" fill="none" xmlns="http://www.w3.org/2000/svg">
<path fill-rule="evenodd" clip-rule="evenodd" d="M149.968 47.8942C149.868 47.5942 149.416 47.684 148.419 48.202C145.904 49.5087 144.186 49.8169 140.041 49.7055C138.344 49.6598 136.323 49.5272 135.552 49.4108C134.78 49.2945 133.455 49.1569 132.606 49.1049C131.757 49.0531 130.053 48.9188 128.818 48.8065C125.267 48.4832 123.231 48.4251 113.598 48.3722C107 48.336 103.676 48.2573 101.324 48.0815C97.7455 47.8141 97.835 47.8303 92.4157 46.4691C85.383 44.7027 83.6792 44.4464 81.1428 44.7733C79.5194 44.9827 78.5655 45.4417 77.7167 46.4222C75.7533 48.6901 75.4202 48.964 73.3913 49.9784C71.5368 50.9057 71.3912 51.0112 70.1111 52.3572C68.7326 53.8066 67.8993 54.3809 66.2534 55.016C65.3266 55.3737 64.4132 55.9682 63.2374 56.9792C61.2304 58.7049 57.6619 59.6246 55.3319 59.0171C54.1945 58.7203 54.1371 58.7551 53.7658 59.9652C53.4409 61.0241 53.0842 61.7483 52.3648 62.8098C51.5209 64.055 51.4778 64.1644 51.0995 66.0228C50.8297 67.347 50.7652 68.0575 50.7906 69.4198C50.8213 71.0779 50.8083 71.165 50.4399 71.7454C49.9986 72.4411 49.0229 73.0898 48.2624 73.1933C47.5187 73.2945 46.8581 72.801 46.3724 71.781C45.6992 70.3674 45.5263 69.4205 45.4571 66.7723C45.3828 63.9263 45.5406 62.5166 46.1456 60.6217C46.6314 59.0999 46.8566 56.6371 46.5456 56.2473C46.1522 55.7546 45.8855 55.9941 45.2083 57.4489C44.6258 58.6998 44.3792 59.0429 43.1623 60.2953C42.4011 61.0787 41.6872 61.8664 41.5758 62.0458C41.4643 62.2254 41.2425 62.9084 41.0828 63.5637C40.7033 65.1212 40.3909 65.8564 39.5369 67.2034C38.7095 68.5084 38.5508 69.0193 38.5461 70.3952C38.5416 71.6633 38.331 73.2423 38.0461 74.1429C37.7779 74.9904 37.1239 75.6751 36.3846 75.8821C35.6021 76.1012 34.7024 75.7081 34.17 74.9145C33.789 74.3465 33.7849 74.3188 33.9825 73.6438C34.3755 72.3001 34.4043 70.6661 34.0659 68.8992L33.757 67.2861L34.2066 65.8502C34.5982 64.6005 34.6689 64.1308 34.752 62.2263C34.8258 60.5409 34.9085 59.9041 35.1121 59.4547C35.4072 58.8034 41.1499 52.8066 42.8967 51.326C44.5791 49.8999 46.7006 48.9847 49.0254 48.682C50.2683 48.5203 50.4061 48.4721 50.4459 48.1855C50.6131 46.9839 45.6043 48.2593 43.0893 50.0585C42.7205 50.3224 41.7734 51.1331 40.9847 51.8602C35.1365 57.2508 32.6227 58.5809 29.349 58.0168C28.6605 57.8982 27.8023 57.7596 27.4417 57.709C26.7366 57.6098 25.4028 56.8055 24.7419 56.0806C24.1613 55.4437 23.6372 54.2797 23.6218 53.5929C23.6023 52.7165 24.1136 52.2157 25.5989 51.6568C27.5679 50.9159 28.4936 50.3147 30.5014 48.472C31.9946 47.1016 32.2309 46.9625 34.1831 46.3046C35.8527 45.7418 39.0811 44.0564 40.1836 43.1718C40.9996 42.5171 41.5123 41.8968 42.5965 40.252C43.093 39.4988 43.596 38.9445 44.1486 38.5413C45.1478 37.8125 45.7963 37.0632 46.1525 36.2258C46.4781 35.4603 46.4425 34.9478 46.0636 34.9478C45.8708 34.9478 45.6555 35.2311 45.3123 35.936C44.9184 36.7452 44.6717 37.0426 43.9512 37.5772C43.4671 37.9365 42.9925 38.3288 42.8966 38.449C42.6459 38.7632 42.2011 38.7196 41.4124 38.3035C41.033 38.1032 40.6981 37.9391 40.6684 37.9388C40.5344 37.9374 41.4154 38.5783 41.848 38.7972L42.329 39.0405L41.6869 40.0575C41.3337 40.6169 40.9722 41.1227 40.8836 41.1815C40.5035 41.4338 39.3281 41.018 38.132 40.2081C37.2844 39.6342 36.9714 39.5391 37.3458 39.9693C37.6483 40.3167 39.4526 41.2554 40.0617 41.3821C40.3094 41.4336 40.512 41.5202 40.512 41.5747C40.512 41.7075 39.7027 42.4871 39.178 42.8598C38.3148 43.4729 34.7967 45.2187 33.8335 45.5119C32.5826 45.8928 32.6025 45.8948 32.8884 45.4143C33.2899 44.7396 34.0763 43.9462 34.437 43.8521C34.6884 43.7865 34.7671 43.6796 34.7345 43.4473C34.6972 43.1807 34.5491 43.1076 33.7785 42.9754C32.5338 42.7619 31.7505 42.2684 30.8855 41.153C30.1736 40.2349 30.0441 39.9192 29.4486 37.6465L29.3148 37.1359L29.3057 37.6465C29.2975 38.0951 29.3598 38.4923 29.6409 39.7852C29.7085 40.0963 29.6833 40.1007 27.6955 40.1179C25.302 40.1386 24.1554 39.9731 21.9949 39.2942C20.2675 38.7515 20.0425 38.6109 19.5117 37.7422C19.3233 37.4337 19.136 37.2157 19.0955 37.2577C19.0551 37.2999 19.2215 37.6357 19.4653 38.0042L19.9086 38.6742L18.9732 39.1295C17.925 39.6394 16.5796 39.8416 15.0093 39.7248C13.723 39.6291 11.9043 39.8985 10.247 40.4302C8.75038 40.9104 5.70839 41.2405 4.38975 41.0658C2.70372 40.8423 0.814979 39.37 0.813156 38.2777C0.812454 37.8548 1.40906 37.139 2.12491 36.7039C3.00854 36.1669 7.68158 34.3184 9.58013 33.7549C10.506 33.4801 11.9915 32.8971 12.8813 32.4594C14.7907 31.5204 15.9498 31.234 17.8567 31.2305C18.6282 31.2292 20.0486 31.0937 21.013 30.9296C23.0827 30.5774 24.6709 30.526 28.0971 30.6995C30.9357 30.8435 30.9216 30.8453 36.023 29.6759C39.981 28.7686 41.7752 28.1168 44.7905 26.4903C47.8388 24.8461 48.3957 24.6429 51.343 24.1006C52.799 23.8327 54.2824 23.4477 55.387 23.0512C57.735 22.2084 58.4185 22.0721 61.2033 21.8921C66.5059 21.549 67.5653 21.3309 70.532 19.9711C74.5221 18.1423 74.6119 18.1185 78.1772 17.9553C81.8954 17.785 82.7442 17.5392 85.9562 15.7022C89.5366 13.6546 91.0264 13.4148 97.8089 13.7946C103.376 14.1064 103.983 14.0533 106.444 13.0384C108.597 12.1502 110.036 11.3873 111.538 10.3374C113.529 8.94536 116.503 7.61352 119.279 6.87073C120.296 6.59882 121.685 6.37694 123.348 6.22071C124.736 6.0903 126.305 5.88097 126.834 5.75567C127.95 5.49105 129.87 4.68321 131.888 3.62956C134.776 2.12181 135.721 1.93931 145.31 1.03854C146.201 0.954809 147.372 0.886247 147.912 0.886247C148.983 0.886247 149.304 0.719803 149.077 0.28043C148.862 -0.138958 148.079 -0.113571 141.303 0.531338C138.128 0.833444 134.835 1.40307 133.606 1.86272C133.056 2.06826 131.816 2.64739 130.851 3.14949C127.922 4.67358 127 4.95277 123.839 5.27516C122.334 5.42847 120.621 5.65283 120.033 5.77376C117.342 6.32647 113.268 8.07084 111.033 9.62761C109.375 10.7819 108.534 11.2331 106.298 12.1665C104 13.126 103.23 13.2108 99.0089 12.9706C94.7748 12.7296 91.8136 12.7289 90.5219 12.9687C88.9115 13.2676 87.8428 13.6947 85.3315 15.0435C82.0316 16.8158 81.629 16.9295 78.1071 17.0825C74.5669 17.2364 74.0171 17.3706 70.9528 18.8296C67.756 20.3518 66.4672 20.6784 62.8892 20.8725C58.5913 21.1056 57.9753 21.2135 55.0161 22.2521C53.8404 22.6648 52.419 23.0288 51.073 23.2616C48.3632 23.7303 47.6729 23.9796 44.7905 25.5295C43.4789 26.2348 41.8906 27.0162 41.2612 27.2661C39.7133 27.8805 36.9592 28.6181 33.4979 29.345L30.6222 29.9489L28.027 29.8226C24.6095 29.6564 23.0351 29.6956 21.504 29.9853C20.8096 30.1168 19.1683 30.2831 17.8567 30.355C16.5451 30.4269 15.2194 30.5594 14.9108 30.6491C14.6022 30.7389 13.6237 31.1621 12.7364 31.5895C11.8492 32.0169 10.349 32.6036 9.40296 32.893C7.39485 33.5073 3.33946 35.0864 2.10303 35.7354C0.588985 36.5303 -0.168668 37.629 0.0316523 38.7394C0.248526 39.9423 2.31556 41.6022 3.93019 41.8704C5.43988 42.1212 8.55566 41.8493 10.3517 41.3098C12.3559 40.708 13.3238 40.5733 15.542 40.5876C17.5413 40.6006 18.2629 40.4715 19.3543 39.9058L20.0104 39.5656L21.3182 39.9926C23.6994 40.77 25.1232 41.0016 27.5185 41.0016H29.7013L30.2782 41.7962C30.8698 42.6109 31.8659 43.3839 32.551 43.5599C32.9912 43.673 33.0141 43.733 32.7396 44.0534C32.6312 44.1802 32.2288 44.8223 31.8456 45.4807C30.595 47.6294 28.009 49.8045 25.656 50.6872C23.6856 51.4262 23.1353 51.8694 22.8174 52.9726C22.5068 54.0506 23.2732 55.9403 24.4626 57.0289C25.0303 57.5485 26.4223 58.3659 27.0937 58.5739C27.3964 58.6676 27.3841 58.8649 26.8146 63.0286C26.3989 66.0676 26.4392 66.7395 27.1543 68.6997C27.6659 70.1022 27.6665 70.1054 27.6367 72.2187C27.5983 74.9658 27.7518 75.7595 28.4651 76.5012C28.9951 77.0525 29.0315 77.0659 29.8347 77.0055C30.7971 76.933 32.2337 76.2608 32.8459 75.5964L33.2432 75.165L33.7458 75.7436C34.4211 76.5209 34.9612 76.7861 35.8827 76.7928C36.7802 76.7993 37.6177 76.4093 38.1689 75.7282C38.8994 74.8253 39.3861 72.7157 39.3928 70.4212C39.3962 69.279 39.616 68.62 40.3774 67.4692C40.9753 66.5653 41.5444 65.2042 41.8306 63.993C42.1629 62.5863 42.3245 62.3205 43.5291 61.1993C44.1144 60.6546 44.855 59.795 45.175 59.2888C45.495 58.7828 45.7758 58.3885 45.7993 58.4127C45.8406 58.4559 45.5846 59.462 44.9865 61.6063C44.6136 62.9433 44.4464 67.5044 44.7118 69.0978C44.9462 70.5059 45.4965 72.14 45.9846 72.8776C46.4385 73.5638 47.3526 74.115 48.0363 74.115C49.196 74.115 50.7373 73.0733 51.3541 71.8727C51.6279 71.3395 51.6599 71.0781 51.6338 69.5929C51.6125 68.3798 51.685 67.4913 51.8954 66.3837C52.2038 64.7619 52.4876 64.0895 53.4747 62.6431C53.8111 62.1503 54.2256 61.3114 54.3961 60.7791L54.7058 59.811L55.2191 59.9247C55.5013 59.9871 56.407 60.0269 57.2316 60.0131C59.8157 59.9699 61.9977 59.1441 64.0678 57.4263C65.3883 56.3305 65.6168 56.1909 66.936 55.6746C68.4008 55.1012 69.0918 54.609 70.7424 52.9633C72.1741 51.5358 72.3868 51.3801 73.6883 50.8062C75.4219 50.0419 76.4427 49.2578 77.7366 47.6969C78.3616 46.9431 78.9759 46.3625 79.3696 46.1536C80.701 45.4471 83.7876 45.3579 86.5239 45.9466C87.2569 46.1044 89.5926 46.6691 91.7143 47.2014C93.836 47.7338 96.1401 48.294 96.8345 48.4462C99.2356 48.9725 103.769 49.1885 113.598 49.2454C123.237 49.3011 125.014 49.3523 128.678 49.6794C129.913 49.7897 131.617 49.9236 132.466 49.9771C133.314 50.0306 134.672 50.1685 135.482 50.2834C137.618 50.5864 142.562 50.7075 144.109 50.4947C145.544 50.2971 147.901 49.5255 149.101 48.8601C149.919 48.407 150.08 48.2273 149.968 47.8942ZM116.947 40.1205C115.498 39.6178 115.482 39.6158 113.037 39.632C110.949 39.6457 110.184 39.7192 107.917 40.1246C105.474 40.5614 105.093 40.5935 103.351 40.509C100.143 40.3534 96.4909 39.8276 91.0095 38.7327C87.6107 38.0536 82.5868 38.1229 79.7905 38.8872C79.3661 39.0031 79.2295 39.0673 79.4869 39.0298C79.7443 38.9923 80.9437 38.8567 82.1522 38.7285C85.4447 38.3789 87.3618 38.5805 91.9949 39.7634C96.2071 40.839 98.302 41.1918 101.907 41.4336C104.207 41.5879 105.167 41.4817 107.034 40.8668C108.883 40.2577 109.555 40.1587 112.626 40.0438C115.299 39.9439 115.378 39.9494 116.731 40.3338C118.605 40.8661 118.732 40.7401 116.947 40.1205ZM117.175 33.9035C117.021 33.9489 116.484 34.0837 115.983 34.2032C115.481 34.3225 114.805 34.5188 114.48 34.6393C114.154 34.7598 112.702 35.1351 111.253 35.4733C108.676 36.0747 108.561 36.0881 106.023 36.0887C104.596 36.089 102.796 36.0099 102.025 35.9131C97.8538 35.3895 92.6077 34.6934 91.371 34.4996C89.3148 34.1772 86.1561 34.0781 84.3496 34.2794C81.4859 34.5986 78.4908 35.4364 76.27 36.5395C75.1061 37.1177 75.1336 37.0244 76.3831 36.1558C77.5349 35.3554 79.2574 34.446 81.053 33.6904C82.5158 33.0747 82.5809 32.9132 81.1386 33.4777C79.5694 34.092 76.8304 35.5484 75.2314 36.6187C73.244 37.949 72.5596 38.5414 72.6686 38.8365C72.7377 39.0243 73.1015 38.8888 74.7301 38.0691C77.9701 36.4385 79.7604 35.8215 82.9468 35.2373C84.4046 34.9699 89.9605 34.919 91.7143 35.1567C92.293 35.2352 94.4077 35.5277 96.4137 35.8067C103.425 36.7818 105.275 36.8257 109.319 36.1137C112.472 35.5586 116.961 34.3568 117.315 33.9731C117.412 33.8688 117.368 33.8469 117.175 33.9035ZM88.1255 26.134C87.9621 26.141 87.9288 26.1756 88.0406 26.2221C88.1419 26.2642 88.263 26.259 88.3096 26.2106C88.3561 26.1621 88.2734 26.1277 88.1255 26.134ZM83.9638 24.6138C82.5512 23.5285 82.103 23.317 81.0509 23.2387C78.3024 23.0342 75.6056 24.7104 73.5955 27.8729C71.9651 30.438 71.294 31.0832 70.2593 31.0804C69.8363 31.0793 69.4117 30.9547 69.0039 30.7124C68.6648 30.5108 68.3607 30.374 68.3277 30.4082C68.2949 30.4424 68.6821 30.6823 69.1882 30.9416C70.0588 31.3872 70.1418 31.4029 70.7261 31.2327C71.5883 30.9818 72.2324 30.3795 73.3708 28.76C74.6791 26.8988 75.8872 25.6284 76.9289 25.0183C77.8531 24.477 79.6472 23.9343 80.5126 23.9343C81.146 23.9343 83.479 24.6854 84.3621 25.1737C84.7024 25.3619 84.9808 25.4886 84.9808 25.4555C84.9808 25.4223 84.5231 25.0436 83.9638 24.6138ZM75.1127 42.2415C74.9363 41.6796 74.932 41.6999 74.9939 42.79C75.042 43.6405 74.9974 44.087 74.8142 44.5859C74.6801 44.951 74.6008 45.2813 74.6378 45.3198C74.76 45.4468 75.1797 44.1669 75.2382 43.4893C75.2698 43.1239 75.2133 42.5625 75.1127 42.2415ZM74.2539 40.4825C74.1405 40.3268 74.0458 40.2733 74.0435 40.3639C74.0409 40.4543 74.1337 40.6099 74.2494 40.7099C74.5166 40.9405 74.5184 40.8463 74.2539 40.4825ZM71.2178 40.2092C71.1227 40.2703 70.7835 41.1479 70.0561 43.2136C69.7071 44.2049 68.5321 45.8688 67.6955 46.5565C65.9285 48.0088 64.1534 48.5799 61.0541 48.6931C58.7986 48.7755 57.3783 48.5841 55.8953 47.9982C55.5063 47.8446 55.1588 47.7492 55.123 47.7864C54.9193 47.998 58.5017 49.0518 60.3562 49.3258C60.8932 49.4051 61.9347 49.4716 62.6708 49.4738C66.1021 49.4837 69.4463 47.2675 70.5254 44.2688C70.8329 43.4139 71.3995 40.0925 71.2178 40.2092ZM67.4026 30.6259C67.2214 30.7788 67.1703 31.0375 67.1866 31.7199L67.208 32.6139L67.2923 31.7386C67.3388 31.2572 67.436 30.7649 67.5084 30.6446C67.622 30.4556 67.6075 30.453 67.4026 30.6259ZM67.2003 49.3124C66.2357 50.0928 64.8266 50.9793 64.1012 51.2621C62.9793 51.6997 61.0853 51.665 59.4065 51.176C57.8064 50.7101 58.0119 50.9279 59.6602 51.445C60.6496 51.7555 61.2295 51.8443 62.3407 51.8552C63.7431 51.8691 63.7718 51.8624 64.9414 51.2465C65.5918 50.904 66.4529 50.3246 66.8551 49.9589C67.6102 49.2718 67.884 48.7593 67.2003 49.3124ZM64.6537 31.8931C64.4779 31.7802 64.4573 31.9479 64.4308 33.7079C64.4091 35.1383 64.0678 36.17 63.1113 37.6968C62.4597 38.7368 61.9008 39.1967 60.0816 40.1898C58.5366 41.0334 58.4949 41.0718 59.5354 40.6934C60.9421 40.1818 61.9666 39.5254 62.9588 38.4997C64.3449 37.0668 64.5842 36.4483 64.7078 33.9804C64.7774 32.5923 64.761 31.9621 64.6537 31.8931ZM57.9672 56.1056C57.1895 55.526 56.4948 54.8006 54.8448 52.8442C54.0347 51.8837 52.3658 50.5076 52.2088 50.6709C52.1731 50.7081 52.387 50.8945 52.6841 51.085C53.2019 51.4172 53.9675 52.2361 55.9345 54.5622C56.7644 55.5435 58.3256 56.9019 58.6236 56.9019C58.9062 56.9019 58.6999 56.6514 57.9672 56.1056ZM55.2904 56.0083C55.0767 55.824 53.8741 54.2424 52.274 52.0419C51.818 51.4147 51.3744 51.002 50.8011 50.6716L49.9809 50.1988L50.542 50.2805C50.8506 50.3254 51.2869 50.4226 51.5116 50.4964C51.7364 50.5702 51.9503 50.5994 51.987 50.561C52.1209 50.4219 51.2168 50.1676 50.1212 50.0365C48.7767 49.8756 48.0222 49.8862 48.9758 50.0527C50.448 50.3097 51.497 51.2697 53.5902 54.2762C54.1768 55.1186 54.8513 55.9264 55.0893 56.0714C55.5596 56.3578 55.6592 56.3266 55.2904 56.0083ZM53.0079 41.0016C52.9428 41.9978 52.8503 42.3768 52.5379 42.9295C51.9222 44.0186 51.3109 44.421 48.9288 45.3059C45.1451 46.7113 40.9481 48.7992 39.6703 49.9116C39.1985 50.3224 39.3314 50.25 41.2699 49.0412C42.7145 48.1403 43.2727 47.8914 45.4082 47.1959C51.4817 45.218 52.1881 44.9071 52.8168 43.934C53.1122 43.477 53.1354 43.2952 53.1131 41.6C53.0896 39.8289 53.0859 39.807 53.0079 41.0016ZM51.9792 57.1709C51.4895 56.5684 51.1497 56.4632 49.7447 56.4788C48.3299 56.4946 48.4911 56.7152 49.9367 56.7414C50.9633 56.7602 51.4334 56.9478 51.906 57.5274C52.1422 57.8171 52.2892 57.9124 52.291 57.7771C52.2927 57.6568 52.1524 57.384 51.9792 57.1709ZM48.7287 63.4703C48.2068 63.264 47.8636 63.2821 47.3811 63.5416C46.8313 63.8373 46.5214 64.506 46.4392 65.5748C46.3807 66.3347 46.4141 66.5071 46.6798 66.8213C46.9333 67.1209 46.9699 67.1339 46.885 66.8943C46.5317 65.8956 46.7612 64.5292 47.3654 64.0351C47.624 63.8235 47.8955 63.7505 48.3231 63.7779C49.0473 63.8242 49.245 63.6744 48.7287 63.4703ZM48.9755 66.6269C48.8439 66.4899 48.0714 66.5245 47.7364 66.6823C47.5336 66.7778 47.5974 66.7916 47.9672 66.7316C48.2483 66.6861 48.6113 66.7227 48.7738 66.8131C49.05 66.9669 49.1838 66.8433 48.9755 66.6269ZM45.8897 53.3936C45.6071 53.0683 45.2442 52.7322 45.0831 52.6469C44.9222 52.5614 45.1356 52.8603 45.5573 53.3109C45.979 53.7615 46.342 54.1303 46.3639 54.1303C46.4834 54.1303 46.3509 53.9243 45.8897 53.3936ZM42.4898 55.589C42.4174 55.589 42.2535 55.9165 42.1258 56.3166C41.998 56.7169 41.8349 57.0817 41.7638 57.1276C41.6926 57.1734 41.6342 57.2807 41.6342 57.3659C41.6342 57.599 42.0437 57.2037 42.2551 56.7667C42.5164 56.2262 42.6434 55.589 42.4898 55.589ZM40.049 59.0944C39.6149 59.0775 38.2772 60.3056 38.2606 60.7362C38.257 60.8336 38.205 61.5413 38.1456 62.3086C38.0161 63.9762 37.772 64.5648 36.5865 66.0685C35.6111 67.3056 35.5674 67.5558 36.0884 68.9115C36.2786 69.4066 36.4932 70.0743 36.5653 70.3952L36.6962 70.9787L36.7104 70.3642C36.7181 70.0262 36.5937 69.4048 36.4339 68.9833C36.0349 67.9304 36.1457 67.5215 37.1581 66.3108C38.5247 64.6768 38.726 64.1581 38.8196 62.0317L38.8987 60.2326L39.53 59.6656C39.8772 59.3539 40.1108 59.0967 40.049 59.0944ZM36.432 49.0067C36.0398 48.4952 35.6504 48.051 35.5669 48.0198C35.3943 47.9553 35.8813 48.7163 36.4699 49.431C36.6871 49.6944 36.8647 50.0465 36.8647 50.2133C36.8647 50.4016 36.4308 50.9514 35.7182 51.666C35.0877 52.2984 34.616 52.8618 34.6701 52.9179C34.8936 53.1503 37.1452 50.561 37.1452 50.0716C37.1452 49.9977 36.8243 49.5185 36.432 49.0067ZM34.256 59.3088C34.092 59.7132 33.9874 60.5639 33.9149 62.0804C33.8242 63.9768 33.7485 64.469 33.3463 65.7719C32.9041 67.2042 32.8904 67.3145 33.0565 68.1059C33.5688 70.5465 33.5883 71.9416 33.1324 73.5382C32.8519 74.5201 31.9557 75.4434 30.8746 75.8639C29.7513 76.3009 29.1687 76.2193 28.8054 75.5738C28.5472 75.1151 28.5173 74.8111 28.5104 72.5833C28.503 70.1191 28.4998 70.0939 27.9932 68.5718C27.7128 67.7294 27.4437 66.7694 27.3952 66.4385C27.3431 66.0838 27.4553 64.6777 27.6686 63.0105C27.8676 61.4559 28.068 59.8653 28.114 59.4758L28.1977 58.7676L29.1293 58.8923C31.1118 59.1577 32.7155 58.91 34.446 58.0711L35.3238 57.6456L34.9082 58.1854C34.6797 58.4823 34.3861 58.9879 34.256 59.3088ZM34.3396 49.6811C34.1082 49.4505 33.9188 49.3296 33.9188 49.4124C33.9188 49.5622 34.2508 49.9074 34.5851 50.1052C34.8727 50.2753 34.7864 50.1262 34.3396 49.6811ZM32.9929 50.4226C32.7306 50.1084 32.5177 49.9115 32.5198 49.985C32.5251 50.1762 33.3227 51.1524 33.403 51.0661C33.4399 51.0264 33.2553 50.737 32.9929 50.4226ZM31.8867 63.758C31.7331 63.758 30.9524 65.5712 30.942 65.9523C30.9359 66.1789 31.1454 66.9406 31.4078 67.6451C31.7743 68.6296 31.8947 68.8373 31.9279 68.5428C31.9523 68.3267 31.7838 67.7736 31.5421 67.2757C31.0082 66.1758 31.0073 65.8642 31.534 64.7791C31.96 63.9015 32.0096 63.758 31.8867 63.758ZM31.657 52.2341C31.4765 51.7633 31.0029 51.2393 30.524 50.9801C29.7485 50.5606 29.1173 50.7105 26.9668 51.8253C25.7959 52.4323 24.9408 52.9623 24.9408 53.081C24.9408 53.1941 25.5484 53.9687 26.2908 54.8025C27.4531 56.1076 27.7017 56.3181 28.0793 56.3162C28.3206 56.3149 28.6127 56.2503 28.7284 56.1725C28.8878 56.0654 28.8267 56.0306 28.4769 56.0288C27.9437 56.0263 27.0857 55.27 26.0281 53.87L25.3899 53.0251L25.9719 52.8408C26.2922 52.7392 27.2334 52.3245 28.0638 51.9191C29.6449 51.1472 29.9201 51.1126 30.6299 51.5962C31.083 51.9048 31.5817 53.011 31.4583 53.4334C31.4048 53.6161 31.1997 53.9953 31.0025 54.2762L30.6438 54.7867L31.0109 54.4408C31.4259 54.0498 31.8189 53.2718 31.8057 52.8683C31.8008 52.72 31.7339 52.4345 31.657 52.2341ZM26.3021 35.8301C25.855 35.7668 25.4547 35.7507 25.4126 35.7945C25.3074 35.9039 26.5291 36.0846 26.8533 36.0076C26.9974 35.9733 26.7493 35.8935 26.3021 35.8301ZM21.9537 35.0154C19.8397 34.3915 18.938 34.3781 16.524 34.9349C13.7864 35.5662 13.3283 35.7216 11.733 36.5602C9.92859 37.5087 9.18608 37.7292 6.63424 38.0757C4.83247 38.3202 4.75139 38.3435 5.65227 38.3581C7.00135 38.3801 9.13305 38.0256 10.2195 37.5987C10.7165 37.4032 11.6598 37.033 12.3156 36.7758C13.6108 36.2677 18.2981 35.1828 19.7224 35.0613C20.3388 35.0087 21.053 35.0838 22.0818 35.3095C22.8933 35.4873 23.5815 35.6076 23.6113 35.5767C23.641 35.5458 22.8951 35.2931 21.9537 35.0154Z" fill="black"/>
</svg>
