<svg width="150" height="77" viewBox="0 0 150 77" fill="none" xmlns="http://www.w3.org/2000/svg">
<path fill-rule="evenodd" clip-rule="evenodd" d="M149.811 35.5905C149.537 34.6797 148.863 33.4954 147.372 31.3059C146.16 29.5255 145.199 27.9046 142.747 23.5021C140.457 19.3893 138.713 18.0278 132.73 15.6811C127.866 13.7736 126.081 12.781 122.478 9.9814C120.373 8.34629 119.16 7.58023 117.567 6.87995C115.421 5.93693 113.863 5.61648 107.512 4.81187C105.862 4.6029 103.708 4.30435 102.726 4.14852C101.743 3.99269 99.3645 3.65468 97.4393 3.39749C95.514 3.14015 91.8628 2.49807 89.3254 1.97059C82.6338 0.579568 80.0943 0.227575 75.3648 0.0351296C69.3294 -0.21045 65.9302 0.785713 60.2039 4.47804C55.8837 7.26381 54.5743 7.82104 49.6147 8.98539C46.2689 9.7708 44.9509 10.1643 43.1137 10.9259C41.3686 11.6496 40.916 11.8925 37.5228 13.9285C30.539 18.1189 27.6286 19.1767 19 20.6604C16.6032 21.0724 13.4528 21.6784 11.9991 22.0069C8.36329 22.8284 0.398513 24.9868 0.15648 25.2161C-0.114128 25.4724 0.061448 25.8734 0.444214 25.8734C0.616381 25.8734 2.33817 25.44 4.27072 24.9103C10.8613 23.1034 14.2912 22.3244 19.0714 21.5485C27.5443 20.1733 31.2157 18.8372 38.074 14.6331C40.7071 13.019 43.2166 11.7551 44.9801 11.1548C45.7138 10.9051 47.7069 10.365 49.4093 9.95462C55.2332 8.55095 55.9649 8.25178 60.1497 5.5641C63.2186 3.59306 64.1026 3.08746 65.6068 2.44255C70.5736 0.313452 77.3244 0.379234 88.2057 2.66283C90.5533 3.15548 93.4877 3.72136 94.7267 3.92035C96.2797 4.1698 97.3281 4.42684 98.1022 4.74788C100.551 5.76339 101.607 6.11465 103.924 6.6841C105.251 7.0102 106.359 7.25458 106.385 7.22704C106.412 7.19936 105.326 6.8542 103.972 6.45993C101.667 5.78838 99.0679 4.74371 99.4087 4.62539C99.4923 4.59637 101.157 4.80965 103.108 5.09959C105.059 5.38952 107.78 5.76294 109.155 5.92949C114.553 6.58318 116.649 7.1635 119.17 8.70261C120.37 9.43548 121.065 10.1188 121.872 11.3586C122.508 12.3345 123.3 13.2573 123.3 13.0214C123.3 12.9641 123.043 12.4932 122.728 11.9746C122.414 11.4562 122.157 10.9886 122.157 10.9354C122.157 10.8823 122.623 11.1964 123.193 11.6333C125.927 13.7301 127.755 14.6827 132.996 16.7396C136.719 18.201 138.161 19.0356 139.659 20.5961C140.619 21.5963 141.475 22.9148 143.083 25.8734C144.436 28.3624 145.441 30.0253 146.726 31.9013C147.765 33.4182 147.806 33.4932 147.567 33.4448C147.461 33.4233 147.237 33.4545 147.069 33.5142C146.172 33.8323 146.852 35.5698 148.18 36.3515L148.661 36.6343L148.28 36.2026C147.853 35.7191 147.16 34.4225 147.16 34.107C147.16 33.7878 147.557 33.7055 147.915 33.9503C148.36 34.2536 149.05 35.7694 149.13 36.6157C149.186 37.2147 149.144 37.3649 148.827 37.6947C148.515 38.0195 148.333 38.0774 147.631 38.0744C145.665 38.0661 142.956 36.1133 141.845 33.9031C141.588 33.3904 141.131 32.9605 139.731 31.9108C137.21 30.0216 134.944 27.5727 134.683 26.455C134.61 26.1428 134.663 26.0304 134.958 25.8657C135.297 25.6771 135.708 25.1292 135.511 25.1292C135.463 25.1292 135.124 25.347 134.756 25.6129C134.192 26.021 133.964 26.095 133.301 26.0867C132.299 26.0739 128.811 24.9616 126.31 23.8574C125.296 23.4096 124.175 23.0016 123.819 22.9507L123.171 22.8583L123.75 22.1425C124.069 21.7488 124.305 21.3504 124.275 21.2569C124.245 21.1635 123.945 21.4278 123.608 21.8444C122.887 22.7356 122.566 22.9239 121.228 23.2417C119.664 23.6133 118.906 23.6642 117.404 23.4986C115.915 23.3345 115.143 23.0759 114.622 22.5659C114.219 22.1714 114.216 21.9468 114.608 21.3733C114.779 21.1242 114.851 20.9465 114.768 20.9783C114.463 21.0968 113.507 22.1 113.346 22.4716C113.164 22.8922 112.193 23.7684 111.509 24.1296C110.941 24.4298 108.64 24.8655 107.943 24.8049C107.423 24.7597 107.354 24.6909 106.642 23.492C106.229 22.7962 105.821 22.1455 105.736 22.0459C105.556 21.8359 105.21 21.9358 105.102 22.2288C105.061 22.3402 105.715 23.6087 106.556 25.0481C107.396 26.4873 108.148 27.7825 108.226 27.9261C108.437 28.311 110.57 31.0286 111.437 32.0175C112.516 33.2467 114.618 34.8409 115.799 35.325C120.551 37.2726 123.29 40.192 124.452 44.5494C125.223 47.4404 124.288 49.4501 122.182 49.4294C121.151 49.4193 120.284 49.0092 119.025 47.9369C118.508 47.4965 117.474 46.6564 116.728 46.0703C115.981 45.4841 114.359 44.1079 113.123 43.0123L110.875 41.0202L111.282 40.6244C111.656 40.2602 112.398 38.971 112.233 38.971C112.194 38.971 112.034 39.2304 111.879 39.5476C111.724 39.8647 111.396 40.3001 111.151 40.515L110.705 40.9057L109.894 40.2571C108.531 39.1663 107.465 38.5167 105.956 37.8578C105.162 37.5109 103.419 36.6506 102.083 35.946C99.7686 34.7256 98.3785 34.2024 96.8609 33.9806C96.3254 33.9025 96.0678 33.7412 95.3964 33.0637C94.9483 32.6117 94.5791 32.1986 94.5759 32.146C94.5727 32.0933 94.3748 31.8157 94.1361 31.5292L93.7019 31.0082L94.0051 31.678C94.1717 32.0464 94.4716 32.676 94.6712 33.0772L95.0343 33.8065L93.942 33.7205C93.0746 33.6522 92.7526 33.5572 92.3771 33.2588C91.7348 32.7484 90.9815 31.9026 90.373 31.0087C90.0945 30.5997 89.8668 30.3385 89.8668 30.4282C89.8668 30.6138 90.4799 31.5256 91.396 32.7025C91.7389 33.1432 92.0005 33.5234 91.9772 33.5477C91.8452 33.6852 90.3517 33.2095 89.3667 32.7164C87.658 31.8611 83.8533 28.6489 82.2606 26.7174C81.5741 25.8849 80.8674 24.92 80.6903 24.5733C80.5131 24.2265 80.2788 23.9071 80.1696 23.8635C80.0596 23.8196 79.7676 24.0022 79.5154 24.2728C78.8519 24.9844 77.6821 25.5742 74.8647 26.6179C71.0774 28.0208 70.1768 28.5504 68.1667 30.5571C66.8044 31.917 65.6553 33.4084 64.1493 35.771C62.2676 38.7233 60.6851 40.803 58.9386 42.6193C56.5251 45.1291 55.783 45.6487 46.9324 51.026C44.7321 52.3628 41.6781 54.2952 40.1457 55.32C35.3637 58.5184 34.2982 59.363 31.5732 62.1159C28.8581 64.8587 27.5515 66.0063 25.6438 67.3247C22.8041 69.287 20.9351 70.2089 15.1396 72.5057C10.397 74.3855 6.53846 75.343 2.03113 75.7587C0.0515745 75.9411 -0.244746 76.0689 0.152594 76.5675C0.309043 76.7641 0.550798 76.7864 1.63309 76.7042C4.18644 76.5106 8.29502 75.7463 10.8901 74.9824C13.5376 74.2029 19.917 71.6134 22.4499 70.2901C25.9515 68.4607 28.0384 66.8675 31.5239 63.3623C34.3021 60.5683 35.6451 59.4528 38.9313 57.21C42.2739 54.9286 43.909 53.8887 49.3613 50.5762C51.9545 49.0008 54.7834 47.2213 55.6479 46.6218C59.0727 44.2463 61.2483 41.8062 64.8574 36.2919C68.5516 30.6478 70.0148 29.377 74.9496 27.5271C77.5867 26.5385 78.8379 25.9689 79.5978 25.4107L79.9732 25.135L80.7087 26.1367C81.9991 27.8944 83.0637 29.1217 83.6517 29.5295C83.966 29.7474 84.5081 30.1694 84.8561 30.4671C87.6651 32.8687 88.6703 33.5535 90.0871 34.0302C91.1198 34.3776 91.7059 34.4608 94.4989 34.657C97.5763 34.8731 98.7784 35.2098 101.371 36.5816C102.56 37.211 104.332 38.0899 105.308 38.5346C106.284 38.9793 107.533 39.6492 108.083 40.0234C109.096 40.7121 112.083 43.1945 113.027 44.1328C113.598 44.7003 113.59 44.5081 113.142 46.8827C112.496 50.2976 113.124 52.0663 114.983 52.068C116.121 52.069 117.029 51.328 118.085 49.5384C118.303 49.17 118.5 48.8454 118.523 48.8171C118.546 48.7887 118.861 48.9777 119.223 49.237C120.814 50.3775 122.453 50.6627 123.678 50.012C124.418 49.6183 125.203 48.6772 125.42 47.9223C125.972 46.0039 125.089 42.6225 123.365 40.0538C122.663 39.0076 122.657 38.9701 123.033 37.6687C123.267 36.8586 123.072 35.8148 122.427 34.4202C121.888 33.2572 121.716 31.9976 122.055 31.7044C122.237 31.5469 122.412 31.752 123.22 33.0732C123.743 33.928 124.699 35.27 125.343 36.0557C126.349 37.2827 126.721 37.909 127.976 40.4973C129.388 43.4076 129.452 43.584 129.869 45.6658C130.35 48.0735 130.782 49.1466 131.622 50.0215C132.595 51.0353 134.554 51.7411 135.277 51.3381C135.661 51.1242 135.845 50.401 135.725 49.5791C135.674 49.2292 135.659 48.943 135.691 48.943C135.723 48.943 135.966 49.1154 136.231 49.3261C137.458 50.3004 139.397 50.5768 140.592 49.9477C141.694 49.3678 141.715 49.23 141.187 46.1671C140.935 44.7059 140.669 42.7403 140.597 41.7989C140.446 39.8381 140.424 39.7601 139.368 37.557C138.583 35.9204 137.986 33.9354 137.792 32.3198L137.691 31.4735L138.389 31.997C138.773 32.2848 139.398 32.7474 139.777 33.025C140.171 33.3136 140.789 34.0098 141.22 34.6504C142.31 36.2699 143.624 37.488 145.109 38.2545C146.217 38.8265 146.478 38.9015 147.506 38.9412C148.474 38.9786 148.737 38.9359 149.133 38.6775C149.957 38.1408 150.218 36.949 149.811 35.5905ZM140.218 49.1815C139.424 49.5271 138.343 49.4449 137.373 48.9653C135.707 48.1415 134.59 46.3099 133.911 43.2914C133.717 42.4296 133.438 41.3561 133.29 40.9059C133.129 40.4137 133.078 40.0672 133.164 40.0368C133.379 39.9606 133.73 39.5645 133.73 39.3984C133.73 39.3178 133.541 39.3679 133.311 39.5098C132.788 39.8317 132.677 39.7488 131.799 38.3727C130.964 37.0636 130.514 35.7908 130.17 33.7568C130.016 32.8485 129.759 31.8754 129.6 31.5941L129.31 31.0827L129.913 31.0774C130.244 31.0745 130.674 30.9806 130.868 30.8686C131.187 30.6847 131.131 30.6726 130.284 30.7435C129.063 30.8456 128.574 30.6024 127.411 29.3163C126.467 28.272 125.759 27.0389 125.294 25.6306C124.817 24.1874 124.832 24.1759 126.3 24.8394C127.982 25.5994 131.958 26.8768 133.036 27.0039C133.843 27.0991 133.908 27.1373 134.332 27.7795C134.577 28.151 135.208 28.929 135.734 29.5084L136.691 30.5617L136.918 32.1989C137.241 34.519 137.757 36.2421 138.753 38.3183C139.61 40.1068 139.618 40.1358 139.741 41.8528C139.855 43.4461 140.425 47.2164 140.712 48.2732C140.863 48.8299 140.812 48.9226 140.218 49.1815ZM135.123 18.7648C134.829 18.5187 133.542 17.8699 133.158 17.7745L132.801 17.6858L133.158 17.8624C133.355 17.9596 133.917 18.2671 134.409 18.5459C135.245 19.0207 135.533 19.1089 135.123 18.7648ZM134.756 50.5802C134.115 50.5802 133.011 50.0929 132.417 49.5477C131.577 48.778 131.138 47.7191 130.658 45.305C130.198 42.9934 129.98 42.388 128.803 40.1617C128.305 39.2203 127.624 37.8281 127.29 37.0677C126.908 36.1974 126.632 35.7377 126.547 35.8264C126.351 36.0309 125.285 34.7239 124.075 32.7943C123.51 31.8938 122.589 30.5658 122.028 29.8429C121.467 29.1201 120.883 28.2728 120.73 27.9602L120.451 27.3917L120.801 27.3001C121.219 27.1909 122.157 26.252 122.157 25.9429C122.157 25.5765 121.809 25.6976 121.305 26.2397C120.66 26.9325 119.983 27.2463 118.871 27.3673L117.942 27.4683L118.728 27.4895C119.511 27.5104 119.516 27.5137 119.865 28.199C120.058 28.5776 120.412 29.1636 120.651 29.5013C121.296 30.4093 121.484 31.0447 121.223 31.4333C120.779 32.0934 121.001 33.466 121.84 35.2447C122.125 35.8487 122.228 36.2952 122.228 36.917C122.228 38.1039 122.026 38.2579 121.328 37.6014C120.341 36.6727 118.996 35.813 117.311 35.0329L115.663 34.2703L115.652 33.1421C115.643 32.1888 115.572 31.8652 115.189 31.0557C114.6 29.8092 113.261 28.1582 112.378 27.589C111.8 27.2165 111.528 27.1387 110.81 27.139C110.332 27.1393 109.709 27.1952 109.425 27.2634C108.917 27.3851 108.902 27.375 108.46 26.628C108.214 26.2105 108.012 25.8365 108.012 25.7967C108.012 25.757 108.198 25.7246 108.425 25.7246C108.652 25.7246 109.468 25.5896 110.238 25.4245C111.736 25.1033 112.554 24.6696 113.424 23.734L113.907 23.2153L114.424 23.5712C115.724 24.4648 119.11 24.7247 121.49 24.1136C122.183 23.9354 123.032 23.7897 123.376 23.7897C123.988 23.7897 124.003 23.8017 124.088 24.3478C124.246 25.3632 124.886 27.1232 125.481 28.1786C125.857 28.8448 126.591 29.754 127.524 30.7088C128.324 31.5283 129.017 32.3329 129.062 32.4966C129.108 32.6603 129.245 33.4048 129.367 34.1509C129.734 36.3954 130.339 37.8888 131.589 39.6355C132.367 40.7228 132.568 41.2046 132.881 42.7354C133.248 44.5315 133.516 45.3724 134.124 46.6361C134.569 47.5629 134.789 48.5117 134.995 50.3942C135.007 50.4966 134.899 50.5802 134.756 50.5802ZM122.746 45.4454C122.221 43.9311 121.567 42.9803 120.639 42.3829C119.871 41.8883 119.897 42.1619 120.692 42.9485C121.892 44.1347 122.756 46.3068 122.423 47.3018C122.103 48.2564 121.153 48.1747 119.744 47.0714C118.752 46.2948 118.054 45.3763 117.929 44.6838C117.759 43.7364 118.429 42.4722 119.301 42.0958C119.541 41.9924 119.709 41.8785 119.675 41.8429C119.516 41.6776 118.406 42.459 118.094 42.9553C117.301 44.2173 117.483 45.13 118.81 46.5625C119.848 47.6822 120.787 48.2398 121.67 48.2596C122.922 48.2878 123.347 47.1783 122.746 45.4454ZM121.854 12.4633C121.341 11.71 120.151 10.3944 119.982 10.3944C119.919 10.3944 120.142 10.746 120.478 11.1758C120.814 11.6057 121.308 12.2754 121.576 12.6642C122.03 13.3247 122.3 13.5405 122.3 13.2446C122.3 13.1751 122.099 12.8234 121.854 12.4633ZM116.353 50.4027C115.664 51.1498 115.587 51.1919 115.001 51.1479C113.737 51.0528 113.446 49.8057 114.015 46.9232C114.173 46.1215 114.328 45.4399 114.358 45.4082C114.389 45.3763 115.192 45.9636 116.144 46.7133L117.875 48.0762L117.48 48.8435C117.263 49.2655 116.756 49.9672 116.353 50.4027ZM114.725 33.5402C114.501 33.6845 113.331 32.7187 112.074 31.3512C111.033 30.22 109.584 28.3857 109.584 28.2007C109.584 28.051 110.851 27.9291 111.312 28.0346C112.231 28.2448 114.332 30.7807 114.701 32.1245C114.893 32.822 114.903 33.4255 114.725 33.5402ZM113.025 40.5536C112.874 40.8102 112.603 41.1282 112.422 41.2605C112.24 41.3929 112.158 41.5012 112.239 41.5012C112.459 41.5012 113.299 40.5516 113.298 40.3034C113.298 40.1846 113.175 40.2971 113.025 40.5536ZM110.584 7.90887C110.152 7.90887 109.975 7.93669 110.191 7.97077C110.407 8.00485 110.761 8.00485 110.977 7.97077C111.193 7.93669 111.016 7.90887 110.584 7.90887ZM108.715 7.65331C108.31 7.5975 107.95 7.58158 107.915 7.61819C107.88 7.65481 108.181 7.73205 108.584 7.78979C108.987 7.84754 109.346 7.86331 109.383 7.82491C109.42 7.78651 109.119 7.70928 108.715 7.65331ZM107.441 7.44121C107.244 7.44121 107.164 7.475 107.262 7.51623C107.36 7.55761 107.521 7.55761 107.619 7.51623C107.717 7.475 107.637 7.44121 107.441 7.44121ZM106.786 7.28062C106.619 7.28777 106.586 7.32304 106.699 7.37052C106.803 7.41353 106.926 7.40818 106.973 7.35876C107.021 7.30935 106.936 7.27422 106.786 7.28062ZM79.0613 18.8781C78.9586 18.6734 78.6101 17.9367 78.2869 17.2409C77.5917 15.744 77.2012 15.1127 76.8154 14.8617C76.6341 14.7439 76.6967 14.8844 76.9892 15.2523C77.2737 15.61 77.5846 16.2973 77.8124 17.0729C78.0651 17.9321 78.3261 18.4862 78.6534 18.8585C79.1741 19.4501 79.3526 19.4587 79.0613 18.8781ZM78.1025 19.5682C77.4552 18.5983 77.0521 18.151 76.5793 17.8785L75.9363 17.5078L76.6731 18.2302C77.0783 18.6274 77.6374 19.3334 77.9157 19.7988C78.1939 20.2644 78.5535 20.7188 78.7148 20.8088C78.8762 20.8987 79.0025 20.9532 78.9955 20.9298C78.9884 20.9064 78.5867 20.2938 78.1025 19.5682ZM71.8586 21.4162C70.4997 21.3866 65.8322 23.3887 62.5447 25.4116C60.9079 26.4187 59.353 27.6389 57.2703 29.5508C55.5087 31.1682 52.0306 34.6714 52.4377 34.4187C53.4272 33.8038 55.29 32.2677 56.949 30.6984C60.5528 27.2891 63.041 25.3377 65.25 24.1877C66.6531 23.4573 69.6343 22.2208 71.0239 21.7929C71.6826 21.59 72.0582 21.4205 71.8586 21.4162Z" fill="black"/>
</svg>
