<svg width="355" height="50" viewBox="0 0 355 50" fill="none" xmlns="http://www.w3.org/2000/svg">
<path d="M0 2.62881H23.0839V5.0999H2.58245V19.9264H21.0285V22.3975H2.58245V37.4869H23.8218V39.9579H0V2.62881ZM39.6151 40.7466L29.1799 19.4006H32.0786L39.8786 36.3302L47.4152 19.4006H50.1557L39.9313 40.7466H39.6151ZM65.2404 50C63.5191 50 61.9027 49.6846 60.3917 49.0536C58.8812 48.4227 57.3002 47.3361 55.6484 45.7939L57.1241 44.1115C58.6351 45.5485 60.0407 46.5125 61.3404 47.0032C62.6405 47.5289 63.9054 47.7918 65.135 47.7918C67.2784 47.7918 68.9823 47.4413 70.2472 46.7403C71.512 46.0743 72.4259 45.163 72.9877 44.0063C73.5501 42.8847 73.8489 41.6229 73.8837 40.2208L73.9364 35.3838C73.0584 36.891 71.7756 38.1003 70.0891 39.0116C68.4379 39.9229 66.6107 40.3786 64.6079 40.3786C62.6759 40.3786 60.9013 39.9054 59.2849 38.959C57.7039 37.9775 56.439 36.6807 55.4903 35.0684C54.5417 33.421 54.0673 31.5983 54.0673 29.6004C54.0673 27.4623 54.5596 25.5871 55.543 23.9748C56.527 22.3624 57.862 21.1006 59.5485 20.1893C61.235 19.2429 63.0975 18.7697 65.135 18.7697C66.9269 18.7697 68.6487 19.2254 70.2999 20.1367C71.9516 21.013 73.1812 22.1872 73.9891 23.6593L74.1999 19.4006H76.4134V40.2734C76.4134 41.9558 76.0271 43.5331 75.254 45.0053C74.5161 46.5125 73.3219 47.7217 71.6702 48.633C70.0543 49.5443 67.9108 50 65.2404 50ZM56.5444 29.5478C56.5444 31.1602 56.9312 32.6323 57.7038 33.9643C58.477 35.2612 59.5137 36.3127 60.8133 37.1188C62.1488 37.89 63.6245 38.2755 65.2404 38.2755C66.7867 38.2755 68.1918 37.9425 69.4566 37.2766C70.7215 36.5756 71.7582 35.6467 72.5661 34.49C73.3746 33.3333 73.831 32.089 73.9364 30.7571V27.7077C73.5148 25.7448 72.496 24.115 70.8796 22.8181C69.2637 21.5212 67.3838 20.8728 65.2404 20.8728C63.6245 20.8728 62.1488 21.2408 60.8133 21.9769C59.5137 22.7129 58.477 23.7294 57.7038 25.0263C56.9312 26.3232 56.5444 27.8303 56.5444 29.5478ZM94.7783 40.3786C92.6349 40.3786 90.7376 39.9054 89.0864 38.959C87.4347 38.0126 86.135 36.7333 85.1864 35.1209C84.2725 33.4736 83.8161 31.6334 83.8161 29.6004C83.8161 27.6025 84.3078 25.7799 85.2918 24.1325C86.2752 22.4851 87.5928 21.1707 89.2445 20.1893C90.931 19.2078 92.793 18.7171 94.831 18.7171C97.2902 18.7171 99.3456 19.4357 100.997 20.8728C102.684 22.3098 103.896 24.1851 104.634 26.4984L87.031 33.2808C87.6982 34.7178 88.6996 35.9096 90.0351 36.8559C91.4053 37.7672 93.0038 38.2229 94.831 38.2229C95.9552 38.2229 97.0266 38.0126 98.0459 37.592C99.1 37.1714 100.031 36.6281 100.839 35.9621L102.104 37.7497C101.12 38.5209 99.978 39.1518 98.6783 39.6425C97.4135 40.1332 96.1133 40.3786 94.7783 40.3786ZM86.2404 29.4953C86.2404 30.1613 86.3105 30.8097 86.4512 31.4406L101.63 25.4995C100.997 24.2376 100.101 23.1511 98.9419 22.2397C97.7824 21.2934 96.3594 20.8202 94.6729 20.8202C93.0918 20.8202 91.6688 21.2057 90.404 21.9769C89.1391 22.748 88.1198 23.782 87.3472 25.0789C86.6093 26.3758 86.2404 27.8479 86.2404 29.4953ZM113.662 19.4006L113.873 23.9748C114.575 22.3624 115.717 21.1006 117.298 20.1893C118.915 19.278 120.671 18.8223 122.569 18.8223C124.501 18.8223 126.064 19.4006 127.259 20.5573C128.454 21.6789 129.068 23.1511 129.104 24.9737V39.9579H126.574V25.6572C126.539 24.3253 126.117 23.2212 125.309 22.3449C124.501 21.4686 123.324 21.013 121.778 20.9779C120.408 20.9779 119.126 21.3109 117.931 21.9769C116.736 22.6429 115.77 23.5717 115.032 24.7634C114.33 25.9552 113.978 27.3396 113.978 28.9169V39.9579H111.501V19.4006H113.662ZM138.47 19.4006H140.947V39.9579H138.47V19.4006ZM137.943 11.8297C137.943 11.339 138.137 10.9359 138.523 10.6204C138.909 10.2699 139.331 10.0946 139.788 10.0946C140.279 10.0946 140.701 10.2699 141.053 10.6204C141.404 10.9359 141.58 11.339 141.58 11.8297C141.58 12.3554 141.404 12.7935 141.053 13.1441C140.701 13.4595 140.279 13.6172 139.788 13.6172C139.331 13.6172 138.909 13.442 138.523 13.0915C138.137 12.741 137.943 12.3203 137.943 11.8297ZM152.205 49.8423L156.632 39.7476L147.093 19.4006H149.886L157.897 36.9085L165.644 19.4006H168.069L154.788 49.8423H152.205ZM182.469 40.3786C180.502 40.3786 178.71 39.9404 177.094 39.0642C175.513 38.1528 174.248 36.891 173.299 35.2787C172.386 33.6663 171.929 31.7911 171.929 29.653C171.929 27.3747 172.421 25.4294 173.404 23.817C174.388 22.1697 175.723 20.9253 177.41 20.0841C179.096 19.2078 181.012 18.7697 183.154 18.7697C184.841 18.7697 186.457 19.2604 188.003 20.2419C189.584 21.1882 190.762 22.3975 191.534 23.8696L191.798 19.4006H194.011V39.9579H191.534V35.5941C190.762 36.8209 189.567 37.925 187.95 38.9064C186.335 39.8879 184.507 40.3786 182.469 40.3786ZM182.996 38.2755C184.543 38.2755 185.93 37.96 187.16 37.3291C188.425 36.6631 189.444 35.7518 190.217 34.5952C190.99 33.4385 191.429 32.1066 191.534 30.5994V27.6551C191.253 26.3582 190.691 25.2015 189.848 24.1851C189.04 23.1686 188.038 22.3624 186.844 21.7666C185.649 21.1707 184.349 20.8728 182.944 20.8728C181.398 20.8728 179.975 21.2408 178.675 21.9769C177.375 22.6779 176.338 23.6768 175.565 24.9737C174.793 26.2706 174.406 27.7953 174.406 29.5478C174.406 31.1602 174.793 32.6323 175.565 33.9643C176.338 35.2612 177.375 36.3127 178.675 37.1188C180.01 37.89 181.451 38.2755 182.996 38.2755ZM249.046 37.3291C248.203 37.89 247.131 38.3982 245.831 38.8538C244.566 39.3095 243.213 39.6776 241.773 39.9579C240.367 40.2383 239.014 40.3786 237.715 40.3786C234.763 40.3786 232.093 39.9054 229.704 38.959C227.35 37.9775 225.33 36.6456 223.643 34.9632C221.957 33.2457 220.656 31.2654 219.743 29.0221C218.864 26.7438 218.425 24.2902 218.425 21.6614C218.425 18.8223 218.917 16.211 219.901 13.8276C220.92 11.4441 222.308 9.39364 224.065 7.67613C225.821 5.92361 227.859 4.57414 230.178 3.62776C232.497 2.68139 234.956 2.2082 237.557 2.2082C239.524 2.2082 241.369 2.45356 243.09 2.94427C244.847 3.43498 246.428 4.10095 247.834 4.94217L246.885 7.25552C245.655 6.51946 244.215 5.92361 242.563 5.46793C240.947 5.01227 239.366 4.78444 237.82 4.78444C235.431 4.78444 233.217 5.20505 231.18 6.04627C229.142 6.88749 227.367 8.06167 225.857 9.56888C224.346 11.0761 223.169 12.8461 222.325 14.8791C221.482 16.912 221.061 19.1202 221.061 21.5037C221.061 24.5882 221.746 27.3747 223.116 29.8633C224.486 32.3169 226.418 34.2622 228.913 35.6993C231.408 37.1363 234.324 37.8549 237.662 37.8549C239.138 37.8549 240.683 37.6797 242.3 37.3291C243.916 36.9786 245.304 36.4704 246.463 35.8044V25.4469H238.031V22.9758H249.046V37.3291ZM265.079 40.5363C263.146 40.5363 261.6 39.9755 260.441 38.8538C259.281 37.6972 258.666 36.2075 258.596 34.3849V19.4006H261.073V33.6488C261.143 34.9807 261.565 36.0848 262.338 36.9611C263.146 37.8374 264.341 38.3106 265.922 38.3807C267.257 38.3807 268.504 38.0301 269.664 37.3291C270.823 36.6281 271.754 35.6818 272.457 34.49C273.195 33.2633 273.564 31.8787 273.564 30.3365V19.4006H276.041V39.9579H273.827L273.669 35.5941C272.966 37.0312 271.807 38.2229 270.191 39.1693C268.61 40.0806 266.905 40.5363 265.079 40.5363ZM287.572 19.4006L287.783 23.9748C288.485 22.3624 289.627 21.1006 291.208 20.1893C292.824 19.278 294.581 18.8223 296.479 18.8223C298.411 18.8223 299.974 19.4006 301.169 20.5573C302.363 21.6789 302.978 23.1511 303.014 24.9737V39.9579H300.484V25.6572C300.449 24.3253 300.027 23.2212 299.219 22.3449C298.411 21.4686 297.234 21.013 295.688 20.9779C294.318 20.9779 293.035 21.3109 291.841 21.9769C290.646 22.6429 289.68 23.5717 288.942 24.7634C288.239 25.9552 287.888 27.3396 287.888 28.9169V39.9579H285.411V19.4006H287.572ZM312.38 39.9579V0H314.857V29.0747L326.399 18.98L327.927 20.2944L320.022 27.2345L329.192 39.9579H326.293L318.335 28.7066L314.857 31.756V39.9579H312.38ZM333.023 29.5478C333.023 27.55 333.497 25.7273 334.446 24.0799C335.43 22.4325 336.747 21.1356 338.399 20.1893C340.085 19.2078 341.965 18.7171 344.038 18.7171C346.146 18.7171 348.026 19.2078 349.677 20.1893C351.329 21.1356 352.628 22.4325 353.577 24.0799C354.526 25.7273 355 27.55 355 29.5478C355 31.5457 354.526 33.3684 353.577 35.0158C352.628 36.6631 351.311 37.9775 349.624 38.959C347.973 39.9054 346.093 40.3786 343.985 40.3786C341.912 40.3786 340.05 39.9229 338.399 39.0116C336.747 38.0652 335.43 36.7859 334.446 35.1735C333.497 33.5261 333.023 31.6509 333.023 29.5478ZM335.5 29.6004C335.5 31.2128 335.869 32.6849 336.607 34.0168C337.38 35.3137 338.399 36.3477 339.663 37.1188C340.964 37.89 342.404 38.2755 343.985 38.2755C345.566 38.2755 346.989 37.89 348.254 37.1188C349.554 36.3477 350.573 35.3137 351.311 34.0168C352.084 32.6849 352.47 31.2128 352.47 29.6004C352.47 27.9881 352.084 26.5335 351.311 25.2366C350.573 23.9047 349.554 22.8532 348.254 22.082C346.989 21.2759 345.566 20.8728 343.985 20.8728C342.369 20.8728 340.911 21.2934 339.611 22.1346C338.346 22.9407 337.345 24.0098 336.607 25.3417C335.869 26.6737 335.5 28.0932 335.5 29.6004Z" fill="black"/>
</svg>
